<?xml version="1.0" encoding="utf-8"?>
<!-- Generator: Adobe Illustrator 25.5.0, SVG Export Plug-In . SVG Version: 6.00 Build 0)  -->
<svg version="1.1" id="Calque_1" xmlns="http://www.w3.org/2000/svg" xmlns:xlink="http://www.w3.org/1999/xlink" x="0px" y="0px"
	 viewBox="0 0 595.28 841.89" style="enable-background:new 0 0 595.28 841.89;" xml:space="preserve">
<style type="text/css">
	.st0{fill:#FFFFFF;}
</style>
<g>
	<path class="st0" d="M-203.91,413.48c-10.15,0-18.4-8.26-18.4-18.4v-26.29c0-10.15,8.26-18.4,18.4-18.4s18.4,8.26,18.4,18.4v26.29
		C-185.51,405.23-193.77,413.48-203.91,413.48z M-203.91,352.38c-9.04,0-16.4,7.36-16.4,16.4v26.29c0,9.04,7.36,16.4,16.4,16.4
		s16.4-7.36,16.4-16.4v-26.29C-187.51,359.74-194.87,352.38-203.91,352.38z"/>
	<path class="st0" d="M-203.91,370.91c-0.55,0-1-0.45-1-1v-5.26c0-0.55,0.45-1,1-1s1,0.45,1,1v5.26
		C-202.91,370.47-203.36,370.91-203.91,370.91z"/>
	<path class="st0" d="M-203.91,438.03l-8.87-6.86c-0.44-0.34-0.52-0.97-0.18-1.4c0.34-0.44,0.97-0.52,1.4-0.18l7.65,5.91l7.65-5.91
		c0.44-0.34,1.06-0.26,1.4,0.18c0.34,0.44,0.26,1.06-0.18,1.4L-203.91,438.03z"/>
</g>
</svg>
