<?xml version="1.0" encoding="utf-8"?>
<!-- Generator: Adobe Illustrator 24.1.2, SVG Export Plug-In . SVG Version: 6.00 Build 0)  -->
<svg version="1.1" id="Layer_1" xmlns="http://www.w3.org/2000/svg" xmlns:xlink="http://www.w3.org/1999/xlink" x="0px" y="0px"
	 viewBox="0 0 2268 2268" style="enable-background:new 0 0 2268 2268;" xml:space="preserve">
<g>
	<path d="M1344.02,286.04c15.38-13.76,30.19-28.21,46.28-41.08c17.21-13.76,36.27-24.87,57.01-32.76c2.9-1.1,5.96-1.81,8.94-2.7
		c0.48,0.61,0.96,1.23,1.44,1.84c-2.34,4.24-4.53,8.57-7.04,12.7c-59.98,98.47-120.36,196.68-179.81,295.46
		c-25.93,43.09-50,87.3-74.77,131.08c-2.27,4.01-4.22,8.46-5.1,12.94c-6.34,32.67-12.37,65.4-16.85,98.72
		c3.69-7.8,7.4-15.58,11.04-23.4c2.11-4.53,3.88-9.23,6.2-13.64c8.39-15.97,14.52-32.37,17.88-50.45
		c5.84-31.42,22.82-58.08,42.1-83.06c37.91-49.1,86.73-85.27,139.76-116.19c17.54-10.23,35.78-19.26,53.63-28.97
		c7.46-4.06,14.54-4.24,21.53,0.91c7.15,5.27,9.87,12.41,8.58,21.02c-0.73,4.84-2.03,9.6-3.36,15.68
		c7.92-3.99,14.98-7.44,21.95-11.06c25.59-13.31,52.3-23.39,80.83-28.22c6.24-1.06,12.5-2.18,18.8-2.58
		c4.74-0.3,9.55,0.51,14.32,0.82c0.18,0.78,0.36,1.57,0.54,2.35c-1.81,1.67-3.45,3.59-5.46,4.98
		c-56.36,39.18-112.99,77.98-169.08,117.55c-37.84,26.69-75.58,53.6-112.17,81.95c-49.29,38.18-88.92,85.29-119.54,139.52
		c-12.9,22.85-23.16,47.2-34.54,70.91c-1.12,2.34-1.66,4.95-0.98,8.38c1.79-2.82,3.7-5.57,5.35-8.46
		c29.11-51.05,61.51-99.92,99.15-145.08c28.23-33.87,58.66-65.62,97.42-87.93c5.35-3.08,11.17-5.32,16.28-7.71
		c8.69,5.69,11.47,13.12,11.52,21.33c0.05,7.52-1.27,15.06-2.17,24.56c8.47-3.33,16.01-6.29,23.54-9.27
		c10.69-4.23,16.45-4.01,20.07,1.26c5,7.27,1.43,14.14-3.25,19.12c-11.11,11.84-22.32,23.88-35.03,33.87
		c-46.23,36.34-95.97,67.83-147.85,94.99c-36.63,19.18-56.19,49.9-72.43,84.46c-20.64,43.92-28.64,90.66-26.43,139.08
		c0.45,9.79,2.12,19.52,3.29,29.86c6.34,0.39,10.91,0.92,15.48,0.93c42.66,0.07,85.33-0.3,127.99,0.17
		c27.45,0.31,53.49,6.81,76.85,21.92c21.96,14.2,36.56,33.92,42.44,59.49c11.43,49.69,22.48,99.46,33.67,149.2
		c1.61,7.15,3.11,14.33,4.61,21.5c2.69,12.83,2.67,12.84-4.68,24.55c2.28,11.22,4.69,23.59,7.31,35.91
		c16.93,79.53,34.26,158.97,50.74,238.59c8.5,41.09,17.04,82.27,22.83,123.79c7.89,56.6,9.21,113.59-1.01,170.19
		c-5.78,32.04-15.13,63.12-36.09,88.95c-9.82,12.11-21.07,23.23-32.69,33.66c-16.83,15.11-33.81,30.26-52.16,43.4
		c-17.21,12.32-36.29,22.05-57.35,34.58c-1.92,5.61-9.93,8.24-18.3,9.52c-25.65,3.94-51.26,8.47-77.06,10.98
		c-53.07,5.17-106.38,7.03-159.65,5.55c-47.87-1.33-95.94-1.36-143.39-9.49c-7.54-1.29-15.03-3.02-22.41-5.04
		c-12.18-3.34-13.66-4.74-19-15.11c-12.26-6.52-24.71-12.25-36.25-19.43c-37.95-23.59-70.31-53.94-99.97-86.96
		c-17.66-19.66-26.58-44.49-33.11-69.88c-12.68-49.37-12.15-99.63-9.49-149.99c3.72-70.27,21.28-138.16,35.71-206.58
		c15.26-72.39,30.81-144.71,46.2-217.07c1.1-5.18,1.87-10.42,2.7-15.08c-10.67-13.25-10.66-13.25-6.71-31.01
		c11.77-53.02,23.53-106.05,35.3-159.08c9.18-41.35,35.07-67.48,74.9-79.32c15.45-4.59,32-7.1,48.12-7.51
		c40.3-1.04,80.65-0.35,120.98-0.35c4.28,0,8.57,0,13.57,0c1.5-4.45,3.15-8.03,3.92-11.79c9.23-45.22,3.36-88.95-14.5-131.05
		c-5.95-14.02-13.84-27.29-21.63-40.44c-17.82-30.08-45.2-47.08-78.29-56.19c-24.61-6.77-49.79-9.13-75.1-9.96
		c-22.31-0.73-44.69,0.46-66.98-0.57c-14.86-0.69-29.74-3.14-44.35-6.07c-7.63-1.53-14.96-5.52-18.16-16.09
		c65.69-20.61,130.33-23.83,194.13,4.6c64.43,28.71,102.77,80.41,125.25,145.69c4.27-8.6,5.39-12.53,2.09-22.52
		c-7.84-23.7-16.47-47.13-24.84-70.65c-1.23-3.45-3-6.7-4.21-10.15c-2.92-8.37-8.92-12.75-16.63-17.22
		c-18.36-10.66-36.17-22.49-53.13-35.28c-33.62-25.35-62.61-55.84-91.98-85.83c-2.78-2.84-5.23-6.05-7.62-9.25
		c-12.5-16.71-10.04-30.78,7.34-42.28c2.41-1.59,4.9-3.06,9.03-5.62c-10.61-7.38-19.78-14.37-29.53-20.45
		c-38.73-24.14-77.76-47.81-116.44-72.03c-29.63-18.55-55.94-41.01-75.92-69.96c-7.33-10.62-12.87-22.49-19-33.91
		c-1.34-2.49-1.67-5.52-2.94-9.97c5.34,0,9.51-0.68,13.38,0.11c35.64,7.26,68.49,21.61,99.9,39.65
		c48.13,27.64,90.13,62.9,127.44,103.68c36.1,39.47,66.64,83.11,93.91,129.1c14.1,23.77,28.65,47.21,45.82,69.05
		c12.91,16.43,23.91,34.36,37.09,53.57c-0.51-13.44,2.87-24.54-7.01-35.58c-13.04-14.58-23.66-31.31-35.36-47.09
		c-5.36-7.22-10.47-14.66-16.29-21.5c-7.71-9.07-8.66-18.43-2.7-28.51c3.51-5.95,7.36-11.71,11.51-18.29
		c-20.83-9.88-36.91-25.34-51.63-42.13c-23.98-27.35-45.78-56.48-64.61-87.59c-19.14-31.61-37.16-63.92-55.03-96.27
		c-4.6-8.33-7.84-17.76-9.88-27.09c-3.84-17.59,4.65-35.52,19.37-44.87c5.54-3.52,10.94-4.65,16.95-1.78
		c11.12,5.3,22.24,10.62,33.36,15.93c2.29,1.09,4.58,2.19,8.33,2.07c-1.77-2.95-3.58-5.88-5.3-8.87
		c-18.91-32.92-38.89-65.29-56.31-98.98c-10.33-19.97-17.43-41.76-24.35-63.25c-3.07-9.54-2.66-20.36-2.82-30.62
		c-0.12-7.52,2.33-14.79,9.97-18.25c7.48-3.38,14.13-0.76,20.49,3.83c16.87,12.2,28.05,29.34,39.55,46
		c20.67,29.96,37.34,62.27,53.15,95c1.57,3.25,3.21,6.46,6.56,9.56c0-4.12-0.04-8.25,0.01-12.37c0.38-31.45,4.26-62.46,12.13-92.92
		c3.6-13.92,8.37-27.44,17.18-39.11c2.2-2.92,4.45-5.86,7.06-8.4c14.17-13.77,28.17-13.87,41.97,0.2
		c12.81,13.05,20.99,29.14,27.98,45.8c19.85,47.3,32.17,96.73,39.98,147.26c4.27,27.62,6.92,55.5,10.34,83.25
		c0.15,1.21,0.67,2.38,1.28,4.43c16.29-11.56,32.08-23.99,52.35-5.86c1.75-4.64,3.15-7.81,4.15-11.1
		c13.85-45.59,26.65-91.53,41.77-136.69c11.09-33.13,24.38-65.59,38.27-97.67c6.82-15.75,16.82-30.2,26.1-44.78
		c6.01-9.45,15.09-15.87,25.25-20.62c17.63-8.24,31.27-1.13,32.12,18.4c0.64,14.85,0.26,30.26-3.02,44.65
		c-6.29,27.54-14.97,54.54-22.66,81.76c-1.49-0.47-2.97-0.95-5.02-1.6c0.78-3.08,1.2-5.67,2.09-8.1
		c10.02-27.3,17.78-55.24,21.63-84.06c1.49-11.14,1.51-22.65,0.69-33.88c-0.9-12.35-8.62-16.87-20.28-12.73
		c-9.9,3.51-18.19,9.47-24.69,17.98c-19.89,26.02-33.08,55.66-44.04,86.01c-17.08,47.3-33.32,94.98-47.84,143.13
		c-29.26,97.04-53.09,195.52-75.21,294.41c-1.9,8.51,1.09,14.32,6.87,19.22c10.01-37.82,19.36-75.3,29.89-112.45
		c16.48-58.15,38.07-114.46,64.51-168.81C1276.99,374.8,1306.75,327.92,1344.02,286.04z M851.19,1379.01
		c-1.21,4.02-2.38,7.1-3.06,10.29c-17.75,83.78-35.03,167.67-53.3,251.34c-14.47,66.29-25.21,132.88-22.67,201.03
		c0.95,25.37,4.07,50.45,10.65,75.02c7.74,28.93,20.92,54.64,43.72,74.85c10.71,9.49,20.73,19.77,31.48,29.22
		c20.58,18.11,42.48,34.26,67.77,45.48c29.75,13.19,61.51,15,93.07,15.1c86.29,0.26,172.59-0.57,258.88-1.61
		c29.45-0.36,57.18-8.46,82.77-23.47c30.48-17.87,55.46-42.27,80.97-66.29c22.28-20.98,35.29-46.39,42.76-75.34
		c14.05-54.5,12.05-109.8,6.19-164.88c-3.48-32.7-10.02-65.18-16.86-97.4c-18.66-88.01-38.2-175.84-57.45-263.73
		c-0.69-3.13-1.97-6.14-3.16-9.76c-39.18,0-77.63,0-117.24,0c-0.54,6.42-1,12.3-1.52,18.16c-3.59,40.76-20.84,74.03-54.55,97.9
		c-20.28,14.36-43.47,21.44-67.79,25.29c-4.82,0.76-9.56,2.03-15.25,3.26c0.89,11.15,1.53,21.36,2.64,31.52
		c0.23,2.12,1.88,4.28,3.33,6.04c10.79,13.15,21.68,26.2,36.38,35.37c1.73,1.08,2.97,2.96,4.44,4.47c-0.47,0.58-0.93,1.16-1.4,1.74
		c-15.92-2.78-23.89-17.65-37.56-27.54c1.95,12.56,6.25,21.91,13.05,29.62c6.54,7.42,14.41,13.68,22.84,21.5
		c-11.57,0.75-16.66-9.09-24.94-10.93c-5.6,2.03-5.71,5.91-3.41,9.76c2.01,3.37,4.61,6.64,7.65,9.11
		c7.75,6.29,15.96,12.03,23.86,18.14c12.37,9.56,24.7,19.17,36.87,28.98c1.88,1.51,2.81,4.19,4.18,6.33
		c-0.77,0.66-1.54,1.33-2.31,1.99c-2.48-1.91-4.98-3.79-7.44-5.72c-8.63-6.79-17.05-13.88-25.94-20.31
		c-7.19-5.2-15.28-7.07-24.97-3.76c5.07,7.3,11.27,11.49,18.4,14.54c6.43,2.75,13,5.23,19.22,8.41c11.1,5.67,17.23,15.4,20.41,27.11
		c0.54,2-0.26,4.36-0.43,6.56c-0.89,0.31-1.77,0.62-2.66,0.93c-5.78-14.1-10.54-29.25-29.35-30.6c0.24,3.76,1.02,7.17,2.82,9.9
		c2.73,4.15,6.07,7.94,9.35,11.7c7.1,8.16,10.21,17.59,10.58,28.39c0.31,8.94,1.82,17.84,2.73,26.77c0.34,3.33,0.5,6.68,0.74,10.02
		c-0.97,0.22-1.95,0.43-2.92,0.65c-1.07-2.47-2.68-4.85-3.1-7.43c-1.5-9.18-3.52-18.41-3.59-27.64
		c-0.08-11.33-3.39-20.69-10.89-29.12c-7.27-8.17-15.18-16.25-13.88-29.31c-13.66-4.85-22.27-14.71-29.93-25.88
		c-3.02-4.4-7.77-7.62-11.73-11.38c-0.78,0.36-1.55,0.72-2.33,1.08c0,4.06-0.65,8.24,0.11,12.15c3.94,20.12,14.37,36.23,30.54,48.89
		c3.76,2.95,9.7,4.45,10.49,11.69c-12.75-1.34-18.19-13.23-28.85-16.76c1.64,4,3.79,7.52,6.51,10.51
		c9.19,10.09,19.35,19.41,27.66,30.16c6.82,8.82,12.17,18.97,16.94,29.11c2.5,5.33,3.26,11.98-1.59,19.19
		c-1.36-3.26-2.89-5.2-2.87-7.12c0.18-13.59-6.29-24.47-14.52-34.23c-9.86-11.7-20.39-22.85-30.97-33.92
		c-6.39-6.69-11.5-13.31-7.32-20.26c-4.7-15.15-9.03-28-12.58-41.05c-1.61-5.92-0.69-11.94,5.17-16.1
		c11.32-0.64,14.86,10.02,22.56,15.72c3.08-0.38,6.5-0.79,10.97-1.34c-7.49-7-14.37-12.73-20.41-19.24
		c-7.04-7.59-6.73-13.11-0.25-20.96c0.8-0.97,1.23-2.25,0.81-1.45c-5.22-15.15-11.02-28.35-14.18-42.15
		c-3.22-14.07-3.85-28.73-5.72-44.04c-8.21,0-16.3,0-26.26,0c-1.12,5.93-2.72,11.54-3.18,17.25c-2.07,25.63-4.83,51.09-15.04,75.05
		c-4.3,10.08-8.98,20-13.4,29.81c1.54,3.32,2.91,6.28,4.85,10.46c-2.93,4.28-5.27,9.77-9.33,13.24
		c-12.39,10.57-25.16,20.75-38.34,30.32c-8.51,6.17-19.26,9.24-25.44,18.66c-0.35,0.54-1.79,0.37-3.83,0.71
		c0.48-8.71,5.59-12.99,11.92-16.92c12.13-7.53,24.32-15.04,35.85-23.44c8.1-5.9,14.95-13.43,20.87-21.43
		c-10.35,4.72-20.06,9.96-29.94,14.84c-9.86,4.88-19.9,9.41-29.86,14.09c-0.61-0.98-1.22-1.97-1.83-2.95
		c2.28-1.96,4.28-4.48,6.89-5.77c8.94-4.45,17.84-9.15,27.22-12.46c10.35-3.65,18.37-9.47,23.07-19.31
		c6.44-13.51,12.8-27.08,18.56-40.88c3.02-7.25,4.69-15.06,6.97-22.62c-8.74,5.51-14.9,14.07-26.44,14.19
		c15.18-13.42,31.36-25.85,30.28-50.77c-8.99,5.39-13.88,14.73-25.25,13.54c11.09-10.37,24.83-18.65,28.39-35.64
		c-8.53-1.12-16.08-2.04-23.6-3.11c-28.61-4.08-55.04-13.38-76.9-33.04c-26.86-24.16-38.57-55.19-40.3-90.59
		c-0.27-5.53-0.47-11.06-0.74-17.51C933.26,1379.01,892.85,1379.01,851.19,1379.01z M1049.47,1066.89
		c-4.59-0.3-8.53-0.76-12.48-0.77c-21.66-0.07-43.33-0.28-64.98,0.08c-9.62,0.16-19.39,0.63-28.79,2.5
		c-47.15,9.38-80.04,33.97-90.4,83.78c-10.92,52.51-23.14,104.75-34.73,157.13c-1.06,4.78-1.7,9.66-2.57,14.66
		c8.23,5.95,16.95,5.42,25.52,5.42c195.28,0.01,390.57,0.01,585.85-0.01c4,0,8.06,0.23,11.97-0.43c4.41-0.74,8.68-2.36,13.37-3.7
		c-0.32-3.87-0.23-6.52-0.79-9.02c-13.14-58.85-26.25-117.71-39.63-176.51c-3.48-15.29-11.38-28.44-22.45-39.48
		c-22.4-22.34-50.65-32.34-81.21-33.89c-33.91-1.72-67.96-0.59-101.95-0.33c-3.59,0.03-8.53,1.57-10.51,4.18
		c-10.06,13.24-24.33,18.17-39.52,21.39c-20.72,4.39-41.69,4.23-62.55,1.4C1075.74,1090.86,1058.65,1086.29,1049.47,1066.89z
		 M1412.63,1336.98c0.46,4.94,0.46,8.52,1.18,11.96c2.64,12.72,5.54,25.4,8.31,38.09c18.75,85.96,37.03,172.02,56.38,257.84
		c14.42,63.97,24.34,128.35,21.58,194.1c-0.85,20.24-2.89,40.56-6.26,60.52c-6.49,38.42-22.05,72.62-51.6,99.2
		c-16.09,14.47-32.08,29.1-48.91,42.68c-36.48,29.43-78.11,45.06-125.4,44.98c-91-0.16-182,0.05-272.99-0.14
		c-37.68-0.08-72.17-11.04-103.59-31.86c-27.11-17.96-50.14-40.58-73.49-62.97c-20.48-19.64-32.65-43.6-40.07-70.29
		c-14.69-52.87-15.02-106.88-8.81-160.69c4.69-40.62,12.23-81.02,20.41-121.12c19.97-97.96,41.05-195.69,61.62-293.53
		c0.57-2.73,0.49-5.6,0.77-9.14c-9.01,0-16.81,0-24.69,0c-0.91,2.81-1.82,4.96-2.3,7.21c-6.23,29-12.4,58.01-18.57,87.02
		c-14.56,68.45-28.62,137.01-43.79,205.33c-14.57,65.62-24.05,131.63-22.62,199.08c0.58,27.46,2.73,54.57,8.72,81.31
		c8.02,35.81,22.39,68.31,50.5,93.37c15.9,14.18,31.06,29.24,47.39,42.89c24.19,20.21,50.56,36.99,81.21,46
		c20.93,6.16,42.34,9.02,64.1,9.04c91.33,0.09,182.66,0.14,273.99-0.01c13.63-0.02,27.28-0.88,40.88-1.89
		c32.3-2.38,61.79-13.31,88.69-31.01c33.58-22.09,62.91-49.27,90.52-78.28c6.57-6.9,11.77-15.34,16.52-23.69
		c19.77-34.75,26.96-73.16,29.07-112.27c2.86-52.99,0.74-106.01-8.99-158.32c-8.1-43.56-17.56-86.88-26.69-130.25
		c-16-75.98-32.21-151.92-48.4-227.86c-0.66-3.09-2.04-6.04-3.13-9.18C1433.28,1335.75,1423.49,1336.33,1412.63,1336.98z
		 M1130.75,687.51c1.38-4.73,2.4-7.4,2.92-10.16c7.03-36.72,10.1-73.92,11.79-111.17c1.91-42.31,0.61-84.72-4.43-126.71
		c-4.92-40.96-11.84-81.75-19.8-122.24c-7.59-38.67-19.66-76.2-38.45-111.12c-4.85-9.01-10.85-17.66-17.64-25.31
		c-9.14-10.31-18.5-11.12-29.05-2.36c-6.22,5.17-12.14,11.91-15.35,19.2c-5.87,13.32-10.5,27.35-14.11,41.47
		c-7.97,31.18-8.34,63.32-9.99,95.21c-0.36,6.99,1.73,14.56,4.4,21.17c14.87,36.87,28.54,73.99,33.02,113.89
		c0.6,5.38,2.67,11.06,5.59,15.63c24.28,38.04,38.65,79.59,44.43,124.16c1.32,10.16,4.17,19.42,10.02,27.84
		c9.5,13.69,18.77,27.53,28.3,41.2C1124.38,681.06,1127.04,683.43,1130.75,687.51z M983.86,1378.92c-0.83,3.14-1.52,4.7-1.62,6.3
		c-2.89,47.63,18.72,97.57,71.45,117.93c50.65,19.55,102.28,18.63,153.55,1.72c23.36-7.7,42.31-22.12,56.99-42.01
		c17.28-23.42,23.5-50.33,25.05-78.72c0.08-1.49-0.91-3.04-1.61-5.22C1186.42,1378.92,1085.43,1378.92,983.86,1378.92z M1081.7,659
		c-0.52-65.4-15.66-126.29-54.06-180.37c-32.29-45.48-74.57-77.87-125.47-97.51c-25.58,12.77-27.43,32.96-21.73,48.22
		c4.86,13.04,11.02,25.66,17.41,38.06c25.08,48.69,54.81,94.49,88.06,137.93c14.95,19.53,30.54,38.72,50.44,53.72
		c7.44,5.61,15.02,10.96,24.68,12.72C1067.68,667.65,1074.13,663.67,1081.7,659z M1174.98,666.82c0.82,0.29,1.65,0.59,2.47,0.88
		c5.22-8.04,10.83-15.86,15.59-24.16c23.16-40.48,45.29-81.58,69.27-121.57c54.84-91.45,110.56-182.38,165.92-273.51
		c5.26-8.65,10.51-17.3,15.77-25.95c-4.36,0.04-7.35,1.25-10.25,2.67c-46.66,22.87-82.49,58.21-113.11,99.24
		c-30.22,40.49-54.6,84.4-75.18,130.55c-29.82,66.89-52.35,136.18-69.84,207.19C1175.24,663.67,1175.18,665.26,1174.98,666.82z
		 M1213.71,692.85c3.1-1.81,4.61-2.43,5.8-3.43c26.32-22.18,53.9-42.45,85.24-57.14c2.62-1.23,4.93-3.41,6.97-5.55
		c21.99-23.13,43.62-46.61,65.91-69.45c21.24-21.76,45.11-40.56,70.52-57.14c11.3-7.37,17.2-17.08,20.44-29.4
		c1.89-7.17,0.37-13.17-5.29-18.02c-5.53-4.73-10.91-2.86-16.65-0.05c-33.58,16.42-66.06,34.72-96.69,56.18
		c-37.57,26.33-71.92,56.13-99.08,93.49c-17.4,23.93-31.21,49.63-37.09,78.97C1213.15,684.54,1213.71,688.01,1213.71,692.85z
		 M697.14,437.96c-0.78,0.96-1.55,1.92-2.33,2.88c2.77,5.54,5.26,11.24,8.35,16.6c20.98,36.43,50.68,64.28,86.68,85.23
		c65.45,38.09,128.52,79.78,190.43,123.31c3.37,2.37,6.9,4.52,10.36,6.77c-0.21-3.54-1.42-5.82-2.84-7.96
		c-31.07-46.85-66.7-89.7-108.9-127.12c-44.64-39.59-94-71.05-150.44-90.87C718.23,443.22,707.59,440.88,697.14,437.96z
		 M1025.74,464.76c0.47-0.31,0.94-0.61,1.41-0.92c-0.96-6.23-1.66-12.51-2.94-18.67c-6.45-31.16-17.71-60.72-30.18-89.87
		c-20.09-46.97-43.08-92.41-72.34-134.42c-9.31-13.37-18.8-26.74-32.41-36.36c-4.83-3.41-9.77-5.8-16.21-2.67
		c-5.46,6.59-6.44,14.68-5.73,23.16c1.59,19.2,8.09,37.05,15.58,54.55c20.67,48.28,47.45,93.2,76.39,136.86
		c5.23,7.89,12.43,14.58,19.25,21.28c8.55,8.39,17.92,15.95,26.43,24.36C1012.27,449.25,1018.85,457.16,1025.74,464.76z
		 M1085.92,664.46c-17.36,9.29-31.8,18.27-39,35.57c-2.74,6.59-2.63,12.03,1.61,17.67c5.79,7.7,11.36,15.56,17.03,23.35
		c13.66,18.79,25.28,39.14,43.16,54.64c12.93,11.21,21.61,10.47,31.37-3.31c0.96-1.35,1.87-2.76,2.64-4.23
		c7.63-14.58,13.9-30.07,14.46-46.34c0.86-24.94-4.11-39.97-28.41-48.96c-8.81-3.26-16.39-9.92-24.38-15.25
		C1098.14,673.42,1092.11,668.89,1085.92,664.46z M1148,1058.66c0-3.45,0.01-6.06,0-8.68c-0.11-21.58-1.66-43.28-0.07-64.73
		c4.54-61.28,27.13-115.57,66.38-162.95c5.1-6.16,9.25-13.12,13.84-19.71c-0.63-0.49-1.25-0.98-1.88-1.48
		c-9.51,4.62-18.44,9.68-24.06,19.62c-16.55,29.28-33.46,58.35-50.24,87.5c-1.55,2.69-3.13,5.36-4.69,8.04
		c-0.74-0.26-1.47-0.53-2.21-0.79c0.83-6.38,2.64-12.82,2.31-19.14c-1.4-26.75,4.13-52.32,11.87-77.61
		c0.69-2.26,1.09-4.62,1.62-6.93c-0.43-0.11-0.86-0.22-1.3-0.33c-6.64,14.9-13.29,29.8-19.93,44.7c-1.18-0.22-2.36-0.44-3.54-0.66
		c-0.15-15.58-0.3-31.16-0.44-45.92c-9.24-0.5-16.63-0.9-24.89-1.35c-0.04,15.08-2.8,29.71,2.45,43.89
		c5.48,14.81,5.57,29.94,4.05,45.35c-0.48,4.88-0.57,10.1,0.64,14.77c2.34,9.04,2.18,17.72-0.44,26.58
		c-2.78,9.38-3.18,18.75-1.3,28.57c3.97,20.68,5.58,41.56,2.22,62.59c-1.45,9.1-2.37,18.28-3.68,28.66
		C1126.4,1058.66,1137.01,1058.66,1148,1058.66z M1591.09,450.25c-0.25-0.82-0.49-1.63-0.74-2.45c-13.75,2.98-27.78,5.04-41.21,9.1
		c-62.31,18.84-114.08,55.38-161.33,98.73c-32.89,30.18-63.09,63.05-90.52,98.35c-4.17,5.37-8.08,10.94-12.11,16.42
		c47.81-41.48,100.55-75.77,151.63-112.23C1487.9,521.72,1539.64,486.19,1591.09,450.25z M1073.08,813.65
		c0.63-0.69,1.26-1.39,1.89-2.08c-2.13-4.66-3.87-9.55-6.45-13.95c-15.52-26.42-32-52.32-46.63-79.22
		c-10.68-19.64-24.85-34.98-43.64-46.78c-13.5-8.47-26.34-17.99-40.01-27.41c-5.21,2.25-10.36,3.8-14.78,6.53
		c-12.62,7.8-14.79,18.16-6.38,30.42c3.75,5.46,7.97,10.76,12.74,15.34c24.98,23.97,49.53,48.45,75.6,71.2
		c16.73,14.6,35.7,26.64,53.91,39.49C1063.41,810.08,1068.48,811.54,1073.08,813.65z M1246.92,1338.21
		c-12.21-3.54-217.76-2.85-226.07,0.72c-0.81,10.29-2.22,20.97,0.85,31.22c12.7,2.64,216.74,1.99,225.22-0.81
		C1246.92,1359.29,1246.92,1348.9,1246.92,1338.21z M1233.14,806.07c0.56,0.74,1.11,1.49,1.67,2.23c5.13-2.84,10.33-5.56,15.38-8.54
		c50.44-29.73,100.91-59.44,147.14-95.6c11.98-9.37,24.63-18.38,32.42-32.06c1.79-3.15,2.63-6.84,3.66-9.63
		c-5.52-5.21-9.5-2.22-13.34-0.74c-63.08,24.23-115.91,63.17-161.13,112.86C1249.83,784.61,1241.72,795.55,1233.14,806.07z
		 M1139.81,691.08c1.23,0.12,2.45,0.23,3.68,0.35c1.09-3.66,2.33-7.28,3.23-10.99c17.21-70.22,34.36-140.46,51.56-210.68
		c2.75-11.24-5.63-21.97-17.24-20.9c-10.34,0.95-18.55,6.9-26.21,13.55c-5.94,5.16-4.63,12.07-4.62,18.64
		c0.03,31.26,0.29,62.52,0.15,93.79c-0.17,35.75-5.24,71.02-10.98,106.21C1138.85,684.29,1139.63,687.74,1139.81,691.08z
		 M1385.51,625.61c-7.52,3.72-13.01,5.54-17.47,8.79c-15.58,11.36-31.8,22.11-45.96,35.08c-37.29,34.13-67.9,74.04-96.16,115.78
		c-1.74,2.57-3.12,5.37-4.66,8.07c10.12-1.76,18.49-5.8,24.57-12.84c35.62-41.19,76.13-76.56,124.34-102.14
		c15.63-8.3,19.4-20.82,19.46-36.06C1389.66,637.36,1387.28,632.42,1385.51,625.61z M1012.83,1337.97
		c-12.95-3.24-144.95-2.5-154.03,1.02c-1.97,9.65-4.11,20.14-6.22,30.49c11.55,3.29,151.83,2.85,160.25-0.3
		C1012.83,1359.07,1012.83,1348.68,1012.83,1337.97z M1405.17,1338.23c-12-3.42-141.6-2.88-149.77,0.38c0,10.42,0,21.03,0,31.32
		c13.33,3.11,147.95,2.28,156.34-1.26C1409.59,1358.74,1407.39,1348.51,1405.17,1338.23z M1293.77,645.51
		c-1.94,0.81-3.79,1.27-5.3,2.25c-14.75,9.69-29.51,19.36-44.13,29.24c-19.25,13.01-32.19,30.69-42.1,51.84
		c-17.86,38.12-34.71,76.47-44.16,117.65c-1.9,8.26-2.98,16.72-4.43,25.08c0.71,0.17,1.41,0.34,2.12,0.52
		c0.85-2.02,1.76-4.02,2.53-6.08c21.53-56.94,52.06-108.45,91.05-155.31c16.33-19.62,29.8-41.62,44.52-62.57
		C1294.15,647.74,1293.84,646.94,1293.77,645.51z M1020.95,821.76c-33.25-27.07-72.29-39.92-114.46-43.12
		c-35.54-2.69-70.65,0.93-104.78,13.67c3.11,3.01,6.28,5.58,9.8,6.19c12.09,2.11,24.25,4.49,36.47,5.03
		c19.61,0.85,39.28,0.09,58.92,0.41C945.63,804.58,984,807.72,1020.95,821.76z M1323.25,2112.47c0.02-0.37,0.05-0.74,0.07-1.11
		c-19.19,0.94-38.38,2.64-57.58,2.7c-86.58,0.29-173.15,0.03-259.73,0.19c-26.42,0.05-52.52-1.95-78.1-8.94
		c-1.02-0.28-2.26,0.22-4.08,0.44c7.09,5.42,13.02,7.21,29.37,10.05c44.76,7.76,90.06,8.53,135.24,9.68
		c60.23,1.54,120.44-0.51,180.48-5.87C1287.09,2117.97,1305.14,2114.89,1323.25,2112.47z M1188.03,1068.39
		c-8.92-3.19-121.27-3.16-129.69-0.11c2.32,7.91,8.48,11.61,15.56,13.86c32.09,10.21,64.21,9.85,96.11-0.76
		c4.95-1.65,9.45-4.84,13.9-7.72C1185.61,1072.55,1186.58,1070.31,1188.03,1068.39z M1082.97,809.71
		c4.93,28.09,19.33,50.97,27.41,76.16C1116.41,865.15,1099.27,831.52,1082.97,809.71z M1159.3,787.75c0.96,0.04,1.91,0.07,2.87,0.11
		c6.74-38.23,13.49-76.46,20.23-114.69c-2.61,1.43-4.76,3.35-5.14,5.57C1171.14,715.06,1165.25,751.41,1159.3,787.75z
		 M1142.7,831.85c10.99-15.94,8.94-32.18,11.25-49.68C1139.78,797.35,1141.59,813.66,1142.7,831.85z M1109.58,673.53
		c0.38-0.37,0.77-0.74,1.15-1.11c-6.84-9.78-13.68-19.56-20.51-29.34c-0.47,0.25-0.94,0.5-1.41,0.75c0,4.78,0,9.56,0,14.26
		C1096.07,663.48,1102.82,668.51,1109.58,673.53z"/>
	<path d="M1389.85,1946.03c0-3.33-0.03-6.58,0-9.83c0.21-20.99-16.56-34.09-36.88-28.64c-5.79,1.55-11.39,3.78-17.17,5.38
		c-8.01,2.22-11.21,1.83-18.33-1.56c-4.16-7.9,2.12-12.82,6.45-19.67c-2.86,0.6-4.78,1.19-6.74,1.37c-4.28,0.4-8.62,1.11-12.85,0.73
		c-5.13-0.46-10.08-2.48-11.45-8.13c-1.46-6.01,2.95-9.27,7.39-11.7c4.95-2.71,10.26-4.76,15.43-7.07
		c3.25-1.45,6.52-2.86,11.92-5.23c-5.81-3.67-9.99-6.08-13.92-8.84c-9.25-6.48-19.11-12.35-27.39-19.92
		c-9.81-8.96-7.7-17.87,4.49-23.24c19.62-8.65,40.11-12.07,61.5-9.14c2.6,0.36,5.23,0.54,8.3,0.85c3.68-3.38,7.24-6.84,11-10.07
		c9.5-8.17,16.82-7.25,22.71,3.51c6.04,11.03,12.28,22.1,13.77,33.62c-2.6,5.41-5.03,9.38-6.45,13.68
		c-2.55,7.73-1.46,14.57,4.22,21.31c5.91,7,10.26,15.32,15.5,23.39c-1.91,1-2.72,1.8-3.52,1.79c-13.82-0.21-16.21,2.09-15.61,16.11
		c0.36,8.3,1.81,16.59,1.64,24.87C1403.65,1939.34,1399.13,1944.07,1389.85,1946.03z M1409.43,1879.94
		c-3.4-5.26-5.84-10.01-9.2-13.99c-5.63-6.68-7.4-13.81-5.33-22.3c2.04-8.35-1.38-14.9-7.84-20.19
		c-23.89-19.53-50.83-21.45-79.3-13.47c-7.53,2.11-15.48,4.02-21.67,11.75c2.47,3.57,4.94,7.14,7.24,10.48
		c4.17-1.7,7.1-2.89,11.66-4.74c0,4.87,0,8.35,0,12.25c8.86,7.5,21.47,10.88,30.09,22.38c-4.32,3.12-7.41,5.99-11.04,7.8
		c-5.35,2.68-11.22,4.3-16.58,6.96c-3.18,1.58-5.79,4.3-9.34,7.03c12.57,9.37,23.08-2.13,34.2-0.16c3.7,10.7-10.46,14.55-8.73,25.24
		c4.35-0.94,8.16-1.59,11.88-2.59c6.43-1.73,12.74-3.93,19.21-5.48c12.02-2.88,22.77-0.12,30.74,9.46
		c4.73,5.68,8.16,12.45,12.62,19.43c-0.34-5.88-0.17-11.5-1.09-16.93C1394.72,1899.65,1394.42,1887.33,1409.43,1879.94z
		 M1399.58,1825.84c-2.53-12.81-7.29-24.36-15.59-34.43c-7.58,2.22-12.26,6.11-14.61,13.4c5.45,3.25,10.74,6.03,15.59,9.42
		C1390.06,1817.78,1394.73,1821.94,1399.58,1825.84z"/>
	<path d="M1102.48,1733.03c1.62-3.07,3.25-6.15,5.53-10.47c-21.23,1.98-31.92,19.58-47.95,27.94c12.79-19.6,29.64-33.01,53.43-35.65
		c11.92-11.12,22.97-34.89,22.45-49.77c-6.22,15.07-11.22,30.94-24.17,41.64c-0.73-0.36-1.46-0.73-2.19-1.09
		c0.38-1.74,0.26-3.86,1.22-5.17c7.94-10.85,14.11-22.51,17.96-35.46c1.22-4.11,3.55-8.04,10.22-7.99
		c10.41,13.67-1.87,25.78-3.57,39.26c1.32,3.31,2.89,7.26,4.9,12.3c8.12-5.74,14.24-1.74,19.85,4.42
		c14.12,15.49,28.43,30.81,42.37,46.46c4.37,4.91,3.96,5.28,2.7,12.23c-10.8-9.42-15.38-25.17-33.16-29.77
		c1.52,5.78,1.92,9.61,3.49,12.88c5.63,11.74,8.42,24.14,6.41,36.87c-1.21,7.62-4.79,14.98-8.08,22.09
		c-1.06,2.29-4.61,3.43-7.02,5.09c-0.52-0.56-1.05-1.12-1.57-1.69c0.59-1.7,0.75-3.78,1.85-5.04c12.77-14.72,11.82-30.99,5.65-47.88
		c-1.03-2.81-2.43-5.48-3.67-8.21c-3.2-7.04-4.58-14.01,1.82-21.16c-7.42-7.7-12.13-17.4-23.75-23.71
		c-4.81,14.62-5.4,28.46-6.65,41.9c-1.25,13.49-0.28,27.18-1.33,40.79c-11.07-24.25-1.95-49.35-1.57-74.06
		c-0.64-0.13-1.29-0.27-1.93-0.4c-3.27,5.67-6.69,11.26-9.78,17.03c-6.84,12.79-15.82,23.83-26.64,33.42
		c-3.69,3.27-7.48,6.42-13.87,4.35c23.57-17.31,37.37-40.95,46.58-67.87c-11.2,7.59-15.51,22-27.31,28.74
		C1103.96,1734.37,1103.22,1733.7,1102.48,1733.03z"/>
	<path d="M1076.02,1715.96c6.65-6.27,12.23-11.15,17.37-16.46c5.54-5.72,11.13-11.51,15.85-17.89c4.26-5.76,10.97-11.09,7.53-20.09
		c-8.32,9.32-16.09,18.74-24.63,27.39c-9.58,9.69-20.12,18.43-29.77,28.06c-10.85,10.82-21.35,22.03-26.29,37.13
		c-0.36,1.11-1.62,1.92-4.59,2.5c0.34-3.13-0.32-6.88,1.18-9.27c6.17-9.78,12.03-20.03,19.8-28.46
		c11.7-12.69,25.43-23.49,37.29-36.05c8.61-9.12,15.81-19.63,23.17-29.86c1.99-2.77,3.54-6.89,3.17-10.15
		c-2.19-19.32,3.9-37.54,6.81-56.16c0.95-6.11,4.01-11.21,12.72-11.9c0.9,3.57,2.4,6.85,2.46,10.16
		c0.28,14.98,0.21,29.97,0.15,44.95c-0.04,9.32-3,17.43-9.22,24.67c-2.6,3.02-4.32,7.51-4.76,11.51c-0.7,6.3-2.8,11.41-7.17,15.97
		c-9.42,9.82-18.51,19.96-27.92,29.79C1086.34,1714.77,1083.14,1717.84,1076.02,1715.96z M1124.54,1645.64
		c0.91-0.21,1.82-0.41,2.73-0.62c5.14-8.03,6.92-48.83,1.63-60.95c-2.63,17.58-5.29,33.21-7.09,48.93
		C1121.34,1637.06,1123.56,1641.42,1124.54,1645.64z"/>
	<path d="M1380.74,1836.08c8.99,4.41,10.19,15.95,2.1,23.12c-3.44,3.05-7.42,5.61-11.46,7.85c-9.99,5.53-20.16,10.74-30.25,16.07
		c-0.66-0.69-1.32-1.39-1.98-2.08c1.72-2.08,3.04-4.82,5.22-6.12c7.38-4.43,15.02-8.43,22.62-12.46
		c13.79-7.31,14.86-9.3,12.88-24.69C1379.8,1837.26,1380.43,1836.65,1380.74,1836.08z"/>
</g>
</svg>
