<?xml version="1.0" encoding="utf-8"?>
<!-- Generator: Adobe Illustrator 25.4.1, SVG Export Plug-In . SVG Version: 6.00 Build 0)  -->
<svg version="1.1" id="Calque_1" xmlns="http://www.w3.org/2000/svg" xmlns:xlink="http://www.w3.org/1999/xlink" x="0px" y="0px"
	 viewBox="0 0 2268 2268" style="enable-background:new 0 0 2268 2268;" xml:space="preserve">
<style type="text/css">
	.st0{stroke:#000000;stroke-width:2;stroke-miterlimit:10;}
	.st1{stroke:#000000;stroke-width:2;stroke-linecap:round;stroke-linejoin:round;stroke-miterlimit:10;}
</style>
<g>
	<path class="st0" d="M1403.15,1559.68c-0.09,0-0.18,0-0.27-0.02c-1.22-0.15-2.1-1.26-1.95-2.48c0.47-3.88-0.94-7.47-2.44-11.27
		c-0.28-0.72-0.56-1.44-0.83-2.15c-5.68-15.15-11.41-30.28-17.14-45.41c-7.92-20.93-16.12-42.56-24.03-63.91
		c-7.59-20.48-15.18-41.35-22.51-61.53c-7.95-21.87-16.17-44.48-24.41-66.66c-10.31-27.72-20.91-55.86-31.17-83.08
		c-10.26-27.22-20.87-55.37-31.18-83.1c-8.31-22.36-16.59-45.15-24.6-67.19c-7.27-20.01-14.79-40.7-22.31-61.01
		c-16.85-45.51-34.15-91.86-50.87-136.67c-7.32-19.62-14.66-39.29-22.01-59.01c-0.21-0.56-0.18-1.17,0.06-1.71
		c0.25-0.54,0.7-0.96,1.25-1.16l6.29-2.31c12.69-4.65,24.67-9.04,36.43-14.7c1.7-0.82,3.95-1.64,6.28-0.72
		c2.05,0.82,3.66,2.79,4.9,6.02c14.96,38.97,29.49,78.83,43.55,117.38c11.06,30.33,22.51,61.7,34.07,92.42
		c17.82,47.34,35.57,95.6,52.74,142.27l11.7,31.79c8.97,24.37,17.92,48.75,26.87,73.13c13.42,36.55,26.84,73.1,40.33,109.62
		c5.64,15.24,11.2,30.51,16.77,45.78c10.97,30.07,22.31,61.17,33.99,91.54c0.92,2.39,1.97,4.73,3.09,7.22
		c3.44,7.67,7,15.59,6.45,24.75c-0.07,1.23-1.13,2.16-2.36,2.1c-1.23-0.07-2.17-1.13-2.1-2.36c0.48-8.07-2.85-15.49-6.07-22.66
		c-1.09-2.43-2.22-4.95-3.18-7.44c-11.7-30.42-23.05-61.53-34.02-91.62c-5.56-15.26-11.13-30.52-16.76-45.76
		c-13.5-36.52-26.92-73.08-40.34-109.63c-8.95-24.38-17.9-48.76-26.87-73.12l-11.7-31.79c-17.16-46.66-34.91-94.92-52.72-142.23
		c-11.58-30.75-23.02-62.12-34.09-92.47c-14.05-38.53-28.59-78.37-43.53-117.31c-1-2.6-1.92-3.29-2.38-3.47
		c-0.57-0.22-1.37-0.05-2.69,0.59c-11.95,5.75-24.6,10.39-36.83,14.87l-4.18,1.54c7.09,19.02,14.16,37.98,21.23,56.91
		c16.73,44.82,34.02,91.16,50.88,136.68c7.52,20.32,15.05,41.02,22.32,61.03c8.01,22.03,16.29,44.82,24.59,67.16
		c10.31,27.72,20.91,55.86,31.17,83.08c10.26,27.22,20.87,55.37,31.18,83.1c8.25,22.19,16.47,44.82,24.42,66.69
		c7.33,20.18,14.92,41.04,22.5,61.51c7.9,21.33,16.09,42.96,24.01,63.88c5.73,15.14,11.46,30.27,17.14,45.43
		c0.26,0.69,0.53,1.39,0.81,2.08c1.63,4.15,3.32,8.44,2.72,13.44C1405.22,1558.85,1404.26,1559.68,1403.15,1559.68z"/>
	<path class="st0" d="M1431.15,1548.86c-0.58,0-1.09-0.1-1.51-0.23c-2.5-0.76-4.65-3.39-6.57-8.04
		c-4.03-9.73-7.64-19.76-11.14-29.45c-1.72-4.77-3.44-9.53-5.21-14.27c-29.32-78.59-58.11-156.53-85.94-231.9
		c-12.54-33.96-25.04-67.93-37.53-101.91c-12.39-33.68-24.77-67.36-37.2-101.02c-21.71-58.79-43.46-117.56-65.22-176.32
		l-28.43-76.79c-0.43-1.16,0.16-2.44,1.32-2.87c1.16-0.42,2.44,0.16,2.87,1.32l28.43,76.79c21.76,58.77,43.51,117.54,65.23,176.33
		c12.43,33.66,24.82,67.34,37.21,101.02c12.49,33.97,24.99,67.95,37.53,101.9c27.83,75.37,56.61,153.31,85.93,231.89
		c1.78,4.76,3.5,9.54,5.22,14.32c3.48,9.65,7.08,19.63,11.06,29.26c1.96,4.72,3.47,5.4,3.75,5.48c0.12,0.03,0.36,0.11,0.88-0.23
		c6.58-4.36,14.01-6.17,21.19-7.91c7.76-1.89,15.08-3.67,21.25-8.42c0.98-0.75,2.38-0.57,3.13,0.41c0.75,0.98,0.57,2.38-0.41,3.13
		c-6.92,5.32-15.05,7.3-22.91,9.21c-7.13,1.73-13.86,3.37-19.79,7.3C1433.13,1548.61,1432.06,1548.86,1431.15,1548.86z"/>
	<path class="st0" d="M1330.67,1585.32c-0.84,0-1.64-0.48-2.02-1.29c-7.58-16.25-13.76-33.31-19.73-49.82
		c-2.98-8.24-6.06-16.75-9.28-25.05c-11.81-30.5-23.47-61.64-34.74-91.75c-7.5-20.05-15.26-40.78-22.99-61.12
		c-9.44-24.83-18.83-50.16-27.92-74.65c-4.55-12.25-9.09-24.5-13.66-36.74c-11.15-29.87-22.33-59.73-33.51-89.59
		c-10.39-27.75-20.78-55.49-31.14-83.25c-9.91-26.55-19.8-53.11-29.68-79.67c-10.17-27.34-20.35-54.67-30.55-82
		c-2.47-6.62-5-13.22-7.52-19.82c-4.51-11.78-9.17-23.95-13.43-36.06c-0.31-0.88-0.84-1.63-1.45-2.49c-0.76-1.07-1.63-2.31-2.1-3.95
		l-19.28,7.04c-16.29,5.96-32.2,11.77-48.12,17.55c-8.02,2.91-16.06,5.78-24.09,8.66c-14.41,5.15-29.31,10.48-43.87,15.94
		c-6.85,2.57-13.93,4.76-20.78,6.88c-11.66,3.61-23.73,7.34-34.76,13.02c-1.1,0.57-2.44,0.13-3-0.96c-0.56-1.1-0.13-2.44,0.96-3
		c11.39-5.86,23.64-9.65,35.49-13.31c6.78-2.1,13.8-4.27,20.53-6.79c14.59-5.48,29.51-10.81,43.94-15.97
		c8.03-2.87,16.06-5.74,24.07-8.65c15.92-5.78,31.82-11.59,48.11-17.54l21.97-8.03c0.71-0.26,1.51-0.14,2.11,0.32
		c0.6,0.46,0.93,1.19,0.88,1.95c-0.14,1.81,0.59,2.84,1.6,4.28c0.7,0.99,1.5,2.12,2.01,3.58c4.25,12.05,8.9,24.2,13.39,35.95
		c2.53,6.61,5.06,13.22,7.54,19.85c10.2,27.33,20.38,54.67,30.56,82c9.89,26.56,19.77,53.12,29.68,79.67
		c10.36,27.75,20.75,55.5,31.14,83.24c11.18,29.86,22.36,59.72,33.51,89.6c4.57,12.24,9.12,24.5,13.66,36.75
		c9.08,24.49,18.48,49.81,27.91,74.62c7.74,20.36,15.5,41.09,23,61.14c11.26,30.1,22.91,61.23,34.72,91.7
		c3.23,8.34,6.32,16.88,9.31,25.14c5.94,16.41,12.08,33.38,19.58,49.45c0.52,1.11,0.04,2.44-1.08,2.96
		C1331.31,1585.25,1330.99,1585.32,1330.67,1585.32z"/>
	<path class="st0" d="M832.55,1739.38c-26.8,0-51.1-1.99-74.25-6c-33.49-5.8-58.3-16.91-78.08-34.95c-0.63-0.57-0.87-1.45-0.64-2.26
		l2.22-7.76c0.34-1.18,1.57-1.86,2.76-1.53c1.18,0.34,1.87,1.57,1.53,2.76l-1.83,6.42c18.96,16.9,42.78,27.38,74.82,32.93
		c38.03,6.59,79.29,7.66,129.84,3.36c60.06-5.11,122.3-15.69,190.29-32.35c77.18-18.91,153.68-41.98,227.39-68.58
		c64.63-23.32,121.42-46.06,173.61-69.52c36.15-16.25,74.12-34.83,119.48-58.47c60.51-31.53,147.74-92.7,210.26-138.46
		c1-0.73,2.39-0.51,3.12,0.48c0.73,1,0.51,2.39-0.48,3.12c-62.64,45.85-150.07,107.16-210.83,138.82
		c-45.44,23.68-83.48,42.3-119.71,58.58c-52.3,23.51-109.19,46.29-173.92,69.64c-73.85,26.65-150.51,49.77-227.84,68.72
		c-68.21,16.71-130.68,27.33-190.97,32.46C869.03,1738.51,850.25,1739.38,832.55,1739.38z"/>
	<path class="st0" d="M1021.82,1889.76c-0.41,0-0.82-0.11-1.19-0.34c-9.43-5.93-14.71-16.87-18.64-26.79
		c-4.32-10.89-8.68-21.76-13.04-32.63c-12.23-30.45-24.87-61.95-36.18-93.38c-0.52-1.43-1.27-2.82-2.06-4.29
		c-0.39-0.72-0.78-1.44-1.14-2.17c-0.55-1.1-0.1-2.44,1-2.99c1.1-0.55,2.44-0.1,2.99,1c0.34,0.69,0.71,1.37,1.08,2.04
		c0.84,1.55,1.71,3.15,2.34,4.9c11.29,31.35,23.91,62.81,36.13,93.23c4.37,10.88,8.73,21.76,13.05,32.65
		c3.66,9.25,8.53,19.41,16.87,24.65c1.04,0.66,1.36,2.03,0.7,3.08C1023.29,1889.39,1022.56,1889.76,1021.82,1889.76z"/>
	<path class="st0" d="M1495.7,1518.42c-0.1,0-0.21-0.01-0.32-0.02c-1.22-0.17-2.07-1.3-1.89-2.52c0.49-3.44-0.84-6.77-2.13-10
		c-5.18-12.98-9.94-26.34-14.53-39.26c-2.23-6.26-4.46-12.52-6.74-18.76c-16.27-44.5-32.97-89.69-49.12-133.39
		c-12.97-35.08-25.93-70.17-38.83-105.28c-11.74-31.98-23.55-64.54-34.98-96.03c-9.15-25.23-18.31-50.46-27.52-75.67
		c-18.17-49.72-36.4-99.42-54.62-149.12c-11.89-32.44-23.79-64.88-35.67-97.32c-2.58-7.04-3.53-10.99-1.95-14.37
		c1.54-3.3,5.24-5.17,11.13-7.31c15.65-5.67,31.21-12.33,46.25-18.77c8.89-3.81,18.08-7.74,27.21-11.44
		c0.76-0.31,1.62-0.18,2.26,0.35c2.25,1.86,3.28,4.34,4.07,6.52l7.91,21.95c14.53,40.33,29.56,82.04,44.48,123
		c12.39,34,24.87,68.61,36.94,102.08c10.78,29.89,21.55,59.78,32.41,89.64c8.81,24.25,17.61,48.5,26.4,72.75
		c15.35,42.34,31.23,86.13,46.96,129.15c4.17,11.43,8.4,22.84,12.62,34.25c9.9,26.74,20.13,54.39,29.57,81.82
		c2.81,8.17,5.95,16.41,8.98,24.37c6.33,16.63,12.87,33.82,16.93,51.61c0.27,1.2-0.48,2.4-1.68,2.67c-1.21,0.28-2.4-0.48-2.67-1.68
		c-3.99-17.49-10.48-34.53-16.75-51.02c-3.04-8-6.19-16.27-9.02-24.51c-9.42-27.38-19.64-55.01-29.53-81.72
		c-4.23-11.42-8.45-22.83-12.63-34.27c-15.73-43.03-31.6-86.82-46.96-129.16c-8.79-24.25-17.59-48.51-26.4-72.75
		c-10.86-29.86-21.63-59.75-32.41-89.65c-12.07-33.47-24.55-68.07-36.93-102.06c-14.93-40.97-29.96-82.68-44.49-123.02l-7.91-21.95
		c-0.56-1.57-1.09-2.76-1.82-3.69c-8.64,3.52-17.33,7.24-25.75,10.85c-15.11,6.47-30.72,13.16-46.49,18.87
		c-5.43,1.97-7.85,3.37-8.6,5c-0.9,1.93,0.04,5.34,2.1,10.95c11.88,32.44,23.77,64.88,35.67,97.32
		c18.22,49.7,36.45,99.4,54.62,149.12c9.21,25.21,18.37,50.45,27.52,75.68c11.42,31.48,23.23,64.04,34.97,96.01
		c12.89,35.11,25.86,70.19,38.82,105.27c16.15,43.7,32.85,88.9,49.13,133.4c2.29,6.25,4.52,12.53,6.75,18.8
		c4.58,12.88,9.33,26.2,14.47,39.1c1.43,3.59,3.06,7.66,2.4,12.28C1497.74,1517.62,1496.79,1518.42,1495.7,1518.42z"/>
	<path class="st0" d="M1619.46,1458.21c-0.99,0-1.9-0.67-2.16-1.67c-5.95-23.02-14.5-45.66-22.77-67.56
		c-1.83-4.86-3.67-9.71-5.47-14.57c-14.64-39.38-29.09-79.56-43.07-118.41c-8.43-23.44-16.86-46.88-25.38-70.29
		c-14.93-41.03-29.93-82.8-44.43-123.21c-16.47-45.88-33.49-93.32-50.51-139.88c-17.02-46.58-33.94-94.07-50.31-140
		c-6.28-17.63-12.57-35.27-18.87-52.9c-0.53-1.49-1.05-2.76-2.08-3.93c-3.92,1.8-7.96,3.46-11.89,5.06
		c-8.5,3.48-17.3,7.08-25.11,12.26c-1.03,0.68-2.41,0.4-3.09-0.63c-0.68-1.03-0.4-2.41,0.63-3.09c8.18-5.42,17.18-9.1,25.89-12.67
		c4.33-1.77,8.81-3.61,13.06-5.61c0.79-0.37,1.7-0.25,2.37,0.29c2.6,2.13,3.61,4.54,4.42,6.82c6.3,17.63,12.59,35.27,18.87,52.9
		c16.36,45.92,33.28,93.41,50.3,139.97c17.02,46.57,34.05,94.02,50.52,139.91c14.5,40.4,29.49,82.17,44.42,123.19
		c8.52,23.41,16.96,46.86,25.39,70.31c13.98,38.85,28.43,79.02,43.06,118.37c1.8,4.85,3.63,9.7,5.47,14.55
		c8.31,22,16.9,44.76,22.92,68.02c0.31,1.19-0.41,2.41-1.6,2.72C1619.83,1458.18,1619.65,1458.21,1619.46,1458.21z"/>
	<path class="st0" d="M1661.84,1435.91c-0.11,0-0.22-0.01-0.34-0.03c-8.05-1.23-9.51-7.73-10.58-12.47
		c-0.29-1.31-0.57-2.54-0.94-3.57c-12.64-35.17-25.29-71-37.53-105.65c-15.13-42.85-30.77-87.15-46.53-130.58
		c-11.53-31.78-23.08-64.15-34.24-95.46c-9.57-26.84-19.47-54.58-29.31-81.83c-37.82-104.7-71.89-199.21-105.84-295.54
		c-0.27-0.78-0.95-1.61-1.67-2.5c-0.06-0.08-0.12-0.15-0.18-0.23c-8.84,3.25-17.41,7.33-25.71,11.28c-3.53,1.68-7.05,3.36-10.6,4.98
		c-1.12,0.51-2.44,0.02-2.96-1.1c-0.51-1.12-0.02-2.44,1.1-2.95c3.53-1.61,7.03-3.28,10.54-4.95c8.88-4.23,18.07-8.6,27.66-12.01
		c0.95-0.33,1.99,0,2.57,0.82c0.33,0.46,0.69,0.91,1.05,1.35c0.92,1.14,1.88,2.32,2.41,3.83c33.94,96.32,68,190.81,105.82,295.51
		c9.85,27.26,19.75,55.01,29.32,81.85c11.16,31.3,22.71,63.67,34.24,95.44c15.77,43.45,31.42,87.76,46.55,130.62
		c12.23,34.64,24.88,70.46,37.52,105.62c0.46,1.29,0.79,2.72,1.1,4.1c1.15,5.13,2.1,8.31,6.9,9.04c1.22,0.19,2.05,1.32,1.87,2.54
		C1663.87,1435.12,1662.92,1435.91,1661.84,1435.91z"/>
	<path class="st0" d="M1306.13,1597.59c-1.06,0-2.01-0.76-2.2-1.85c-0.19-1.07-0.32-2.13-0.45-3.18c-0.28-2.24-0.54-4.35-1.35-6.59
		c-16.47-45.24-33.89-90.98-50.74-135.22c-11.63-30.55-23.66-62.14-35.28-93.29l-2.53-6.78c-27.93-74.93-56.81-152.41-85.66-228.44
		c-14.91-39.3-29.8-79.36-44.21-118.09c-6.09-16.39-12.18-32.78-18.3-49.15c-3.82-10.23-7.72-20.43-11.62-30.63
		c-8.56-22.39-17.41-45.54-25.21-68.68c-0.39-1.17,0.23-2.43,1.4-2.83c1.17-0.4,2.43,0.24,2.83,1.4
		c7.76,23.05,16.6,46.16,25.15,68.51c3.9,10.21,7.81,20.42,11.63,30.66c6.11,16.38,12.2,32.77,18.3,49.16
		c14.4,38.73,29.29,78.78,44.2,118.06c28.86,76.05,57.74,153.53,85.67,228.47l2.53,6.78c11.61,31.14,23.64,62.72,35.27,93.26
		c16.85,44.25,34.28,90.01,50.76,135.28c0.99,2.72,1.3,5.19,1.59,7.57c0.12,0.98,0.24,1.96,0.42,2.96c0.21,1.21-0.6,2.37-1.82,2.58
		C1306.39,1597.58,1306.26,1597.59,1306.13,1597.59z"/>
	<path class="st0" d="M1354.08,1578.63c-0.44,0-0.9-0.13-1.28-0.41c-1.01-0.71-1.25-2.1-0.53-3.11c1.97-2.79,0.89-5.64-0.86-9.35
		c-0.29-0.61-0.56-1.19-0.79-1.74c-13.62-32.18-25.75-65.52-37.47-97.76c-5.01-13.78-10.19-28.02-15.42-41.98
		c-9.77-26.08-19.53-52.66-28.97-78.37c-9.73-26.5-19.8-53.89-29.87-80.76c-6.92-18.46-13.82-36.94-20.72-55.42
		c-15.23-40.78-30.97-82.94-46.73-124.3c-10.89-28.57-21.7-57.71-32.15-85.9c-5.65-15.23-11.3-30.45-16.98-45.66
		c-10.02-26.81-20.08-53.61-30.14-80.41l-13.34-35.56c-0.43-1.15,0.15-2.44,1.31-2.87c1.15-0.43,2.44,0.15,2.87,1.31l13.34,35.56
		c10.06,26.8,20.12,53.6,30.14,80.41c5.69,15.22,11.34,30.44,16.99,45.68c10.45,28.17,21.26,57.31,32.14,85.86
		c15.77,41.37,31.52,83.55,46.75,124.33c6.9,18.48,13.79,36.95,20.72,55.41c10.08,26.88,20.14,54.28,29.88,80.79
		c9.44,25.7,19.2,52.28,28.96,78.34c5.23,13.97,10.42,28.23,15.43,42.02c11.71,32.19,23.81,65.47,37.39,97.54
		c0.21,0.5,0.46,1.03,0.72,1.58c1.63,3.46,4.09,8.7,0.47,13.82C1355.47,1578.3,1354.78,1578.63,1354.08,1578.63z"/>
	<path class="st0" d="M1282.72,1607.62c-0.23,0-0.47-0.04-0.7-0.11c-1.17-0.39-1.8-1.65-1.42-2.82c0.95-2.86-0.3-4.66-2.58-7.59
		c-1.25-1.61-2.55-3.28-3.29-5.33c-13.08-36.15-26.9-72.72-40.27-108.09l-8.48-22.45c-6.84-18.14-13.71-36.27-20.58-54.4
		c-8.76-23.12-17.52-46.24-26.23-69.39c-10.4-27.64-20.73-55.31-31.06-82.98c-5.63-15.08-11.26-30.16-16.91-45.24
		c-7.56-20.2-15.2-40.37-22.83-60.54c-10.59-27.97-21.54-56.89-32.1-85.43c-14.28-38.61-29.37-77.69-43.96-115.48l-1.5-3.89
		c-3.4-8.82-6.67-17.85-9.83-26.58c-6.16-17.03-12.54-34.63-20.17-51.37c-0.51-1.12-0.02-2.44,1.1-2.95
		c1.12-0.51,2.44-0.02,2.95,1.1c7.71,16.9,14.12,34.59,20.31,51.7c3.15,8.71,6.41,17.72,9.8,26.49l1.5,3.89
		c14.6,37.81,29.69,76.9,43.98,115.54c10.55,28.52,21.5,57.43,32.08,85.4c7.64,20.18,15.28,40.35,22.84,60.56
		c5.64,15.08,11.28,30.17,16.91,45.25c10.33,27.66,20.66,55.33,31.06,82.97c8.7,23.14,17.46,46.26,26.22,69.37
		c6.87,18.13,13.74,36.26,20.58,54.4l8.47,22.44c13.37,35.39,27.2,71.97,40.29,108.15c0.5,1.39,1.53,2.71,2.62,4.11
		c2.25,2.88,5.04,6.47,3.3,11.74C1284.53,1607.03,1283.65,1607.62,1282.72,1607.62z"/>
	<path class="st0" d="M1255.96,1614.31c-0.22,0-0.44-0.03-0.66-0.1c-1.18-0.36-1.84-1.61-1.48-2.79c1.44-4.69-0.5-9.19-2.37-13.54
		c-0.4-0.92-0.79-1.83-1.15-2.73c-13.06-32.85-25.63-66.5-37.79-99.04c-3.66-9.78-7.31-19.57-10.98-29.34
		c-4.91-13.06-9.8-26.14-14.69-39.21c-8.59-22.94-17.18-45.89-25.85-68.79c-6.41-16.92-12.83-33.83-19.25-50.75
		c-11.37-29.94-22.73-59.88-34.01-89.85c-15.36-40.83-31.24-83.04-47.07-124.79c-5.69-15.01-11.38-30.03-17.06-45.05
		c-14.07-37.16-28.61-75.58-43.06-113.31c-2.14-5.59-4.19-11.33-6.16-16.87c-5.16-14.48-10.5-29.45-18.02-43.15
		c-0.59-1.08-0.2-2.44,0.88-3.03c1.08-0.59,2.43-0.2,3.03,0.88c7.69,14.01,13.09,29.16,18.31,43.8c1.97,5.52,4,11.23,6.13,16.77
		c14.45,37.74,29,76.17,43.06,113.33c5.68,15.02,11.37,30.03,17.06,45.05c15.83,41.75,31.71,83.97,47.08,124.8
		c11.27,29.97,22.64,59.91,34.01,89.84c6.42,16.92,12.84,33.83,19.25,50.75c8.67,22.91,17.26,45.86,25.85,68.81
		c4.89,13.07,9.78,26.14,14.69,39.21c3.67,9.78,7.33,19.56,10.98,29.35c12.15,32.52,24.72,66.15,37.76,98.96
		c0.34,0.86,0.72,1.73,1.1,2.61c2.1,4.86,4.47,10.36,2.54,16.62C1257.8,1613.7,1256.91,1614.31,1255.96,1614.31z"/>
	<path class="st0" d="M1206.9,1631.04c-0.42,0-0.85-0.12-1.23-0.37c-1.03-0.68-1.31-2.06-0.63-3.09c1.26-1.91,0.69-3.43-0.51-6.18
		c-0.27-0.61-0.54-1.23-0.77-1.85c-12.43-32.49-25.51-66.87-42.42-111.49c-11.47-30.27-22.93-60.54-34.38-90.82
		c-21.24-56.12-43.2-114.16-64.89-171.2c-12.37-32.52-25.07-65.55-37.35-97.48c-10.23-26.6-20.45-53.2-30.62-79.83
		c-15.58-40.82-31.08-81.68-46.57-122.53c-6.78-17.88-13.56-35.76-20.35-53.64c-0.44-1.15,0.14-2.44,1.29-2.88
		c1.15-0.43,2.44,0.14,2.88,1.29c6.79,17.88,13.57,35.76,20.35,53.64c15.5,40.85,30.99,81.7,46.57,122.52
		c10.16,26.62,20.39,53.22,30.61,79.82c12.28,31.94,24.98,64.97,37.35,97.5c21.7,57.04,43.66,115.08,64.9,171.21
		c11.46,30.27,22.91,60.55,34.38,90.81c16.91,44.62,29.99,79,42.42,111.48c0.22,0.56,0.46,1.11,0.69,1.66
		c1.25,2.85,2.8,6.41,0.15,10.43C1208.33,1630.69,1207.62,1631.04,1206.9,1631.04z"/>
	<path class="st0" d="M1379.73,1566.37c-0.83,0-1.64-0.47-2.02-1.27c-9.65-20.33-17.29-41.78-24.68-62.53
		c-2.14-6.01-4.28-12.02-6.47-18c-15-41.05-30.49-82.92-47.37-128.01c-19.54-52.19-39.74-106.17-59.66-159.66
		c-7.04-18.91-14.02-37.84-20.99-56.78c-8.61-23.37-17.52-47.53-26.39-71.24c-6.32-16.9-12.59-33.81-18.86-50.73
		c-13.24-35.74-26.94-72.7-40.96-108.84c-3.72-9.58-7.24-19.41-10.64-28.92c-6.22-17.37-12.65-35.34-20.52-52.36
		c-0.52-1.12-0.03-2.44,1.09-2.96c1.12-0.52,2.44-0.03,2.96,1.09c7.95,17.2,14.42,35.26,20.67,52.72c3.39,9.48,6.9,19.28,10.6,28.8
		c14.04,36.16,27.74,73.14,40.99,108.9c6.27,16.91,12.53,33.83,18.85,50.72c8.88,23.72,17.79,47.89,26.4,71.26
		c6.98,18.93,13.96,37.86,20.99,56.76c19.91,53.49,40.12,107.46,59.65,159.65c16.88,45.1,32.38,86.98,47.38,128.04
		c2.19,6,4.33,12.02,6.48,18.03c7.35,20.65,14.95,41.99,24.5,62.12c0.53,1.11,0.05,2.44-1.06,2.97
		C1380.38,1566.3,1380.05,1566.37,1379.73,1566.37z"/>
	<path class="st0" d="M1477.39,1529.14c-0.57,0-1.14-0.22-1.57-0.64c-3.58-3.55-5.98-7.47-7.79-12.74
		c-3.99-11.64-8.43-23.36-12.72-34.69c-3.16-8.35-6.43-16.98-9.5-25.52c-17.25-48.04-35.25-96.72-52.66-143.8
		c-9.21-24.91-18.42-49.82-27.57-74.75c-10.35-28.2-20.72-56.39-31.1-84.58c-16.16-43.9-32.87-89.29-49.18-133.98
		c-24.63-67.46-53.85-147.36-83.84-228.5c-0.43-1.16,0.17-2.44,1.32-2.86c1.15-0.42,2.44,0.16,2.87,1.32
		c29.99,81.14,59.21,161.05,83.84,228.51c16.31,44.68,33.02,90.07,49.18,133.97c10.38,28.19,20.75,56.38,31.1,84.58
		c9.15,24.93,18.36,49.83,27.57,74.74c17.42,47.09,35.42,95.78,52.68,143.84c3.06,8.51,6.32,17.12,9.47,25.45
		c4.3,11.36,8.75,23.11,12.77,34.82c0.93,2.72,2.39,6.2,5.42,9.66c6.56-4.4,14.04-6.49,21.3-8.5c7.18-2,13.97-3.89,20.03-7.84
		c1.03-0.67,2.41-0.38,3.09,0.65c0.67,1.03,0.38,2.41-0.65,3.09c-6.64,4.32-14.08,6.4-21.27,8.4c-7.81,2.17-15.19,4.23-21.44,8.93
		C1478.33,1529,1477.86,1529.14,1477.39,1529.14z"/>
	<path class="st0" d="M1234.78,1622.12c-0.72,0-1.42-0.35-1.86-0.99c-2.69-4.01-4.96-8.53-6.95-13.82l-2.65-7.06
		c-8.21-21.83-16.69-44.4-25.21-66.52c-16.67-43.25-33.44-87.3-49.66-129.89l-7.92-20.8c-5.22-13.69-10.44-27.39-15.66-41.08
		c-19.11-50.09-38.87-101.88-57.94-152.95c-12.05-32.28-24.5-65.03-36.53-96.7c-15.28-40.22-31.09-81.81-46.25-122.86
		c-3.5-9.47-7.23-19.03-10.85-28.29c-7.17-18.35-14.59-37.33-20.51-56.53c-0.36-1.18,0.3-2.43,1.47-2.79
		c1.18-0.37,2.43,0.3,2.79,1.47c5.88,19.05,13.26,37.95,20.41,56.23c3.62,9.27,7.37,18.86,10.88,28.36
		c15.16,41.03,30.96,82.62,46.24,122.83c12.04,31.68,24.49,64.44,36.54,96.73c19.06,51.05,38.82,102.84,57.93,152.92
		c5.22,13.69,10.45,27.39,15.67,41.08l7.92,20.8c16.22,42.59,32.99,86.63,49.66,129.88c8.53,22.14,17.02,44.72,25.23,66.56
		l2.65,7.06c1.87,4.97,3.99,9.19,6.49,12.91c0.68,1.02,0.41,2.41-0.61,3.09C1235.63,1622,1235.2,1622.12,1234.78,1622.12z"/>
	<path class="st0" d="M1186.83,1637.73c-0.81,0-1.59-0.44-1.99-1.22c-10.68-20.93-18.77-43.25-26.59-64.83
		c-3.6-9.94-7.33-20.22-11.25-30.21c-10.87-27.68-21.46-55.99-31.7-83.37c-6.45-17.26-13.13-35.1-19.8-52.61
		c-7.13-18.7-14.52-37.66-21.66-55.99c-6.8-17.46-13.83-35.51-20.63-53.31c-8.82-23.07-17.68-46.57-26.25-69.29
		c-7.97-21.14-15.94-42.28-24-63.38c-11.54-30.27-23.39-61-34.84-90.73c-5.1-13.24-10.21-26.49-15.3-39.74L902.64,902.6
		c-0.44-1.15,0.13-2.44,1.28-2.88c1.15-0.44,2.44,0.13,2.88,1.28l50.18,130.46c5.09,13.25,10.2,26.49,15.3,39.73
		c11.46,29.73,23.3,60.47,34.85,90.74c8.05,21.11,16.03,42.26,24,63.4c8.57,22.71,17.43,46.2,26.24,69.27
		c6.8,17.79,13.83,35.83,20.62,53.28c7.15,18.34,14.54,37.31,21.67,56.02c6.68,17.52,13.36,35.37,19.81,52.64
		c10.23,27.36,20.81,55.66,31.67,83.3c3.95,10.04,7.68,20.35,11.29,30.32c7.78,21.46,15.82,43.64,26.37,64.33
		c0.56,1.1,0.12,2.44-0.97,3C1187.52,1637.65,1187.17,1637.73,1186.83,1637.73z"/>
	<path class="st0" d="M1520.22,1505.04c-0.5,0-1-0.17-1.42-0.51c-2.32-1.91-2.94-4.39-3.49-6.57c-0.18-0.72-0.36-1.45-0.62-2.15
		c-10.32-27.95-20.63-56.42-30.59-83.96c-8.03-22.19-16.06-44.37-24.18-66.53c-22.16-60.46-44.24-120.95-66.31-181.43l-0.53-1.46
		c-6.61-18.1-13.24-36.19-19.87-54.29c-8.22-22.43-16.44-44.86-24.61-67.3c-19.98-54.87-46.4-127.27-73.64-200.68
		c-2.66-7.16-5.19-14.5-7.63-21.6c-5.56-16.16-11.32-32.87-18.96-48.48c-0.54-1.11-0.08-2.44,1.02-2.98
		c1.11-0.54,2.44-0.08,2.98,1.02c7.76,15.86,13.56,32.7,19.17,48.99c2.43,7.07,4.95,14.38,7.59,21.5
		c27.24,73.42,53.67,145.83,73.65,200.7c8.17,22.44,16.39,44.87,24.61,67.29c6.63,18.09,13.26,36.19,19.87,54.29l0.53,1.46
		c22.07,60.48,44.15,120.97,66.31,181.43c8.12,22.16,16.16,44.35,24.19,66.54c9.97,27.53,20.27,56,30.59,83.93
		c0.31,0.85,0.54,1.73,0.76,2.61c0.51,2.01,0.87,3.29,2,4.22c0.95,0.78,1.09,2.19,0.3,3.14
		C1521.51,1504.76,1520.87,1505.04,1520.22,1505.04z"/>
	<path class="st0" d="M1157.84,1645.53c-0.19,0-0.38-0.02-0.57-0.07c-1.19-0.31-1.9-1.53-1.59-2.72c1.47-5.6-0.82-10.44-3.25-15.56
		c-0.82-1.73-1.66-3.51-2.36-5.33c-14.15-37.07-28.64-74.72-42.65-111.13c-13.64-35.44-27.27-70.89-40.83-106.36
		c-8.84-23.14-17.69-46.71-26.24-69.52c-9.28-24.74-18.88-50.31-28.49-75.4c-10.84-28.27-22.01-56.95-32.81-84.69
		c-10.82-27.79-22.01-56.52-32.87-84.84c-15.96-41.63-31.98-84.03-47.47-125.03c-6.86-18.16-13.72-36.32-20.6-54.48
		c-0.44-1.15,0.14-2.44,1.29-2.88c1.15-0.44,2.44,0.14,2.88,1.29c6.88,18.16,13.74,36.32,20.6,54.48
		c15.49,41,31.51,83.39,47.46,125.01c10.85,28.31,22.04,57.04,32.86,84.82c10.81,27.74,21.98,56.43,32.82,84.71
		c9.62,25.1,19.22,50.69,28.5,75.43c8.55,22.8,17.39,46.37,26.23,69.49c13.55,35.47,27.19,70.91,40.83,106.35
		c14.01,36.42,28.5,74.07,42.65,111.14c0.63,1.66,1.41,3.29,2.22,5.02c2.54,5.36,5.42,11.43,3.53,18.6
		C1159.73,1644.87,1158.83,1645.53,1157.84,1645.53z"/>
	<path class="st0" d="M1564.83,1483.85c-0.78,0-1.53-0.41-1.94-1.13c-5.36-9.47-8.8-19.77-12.12-29.74
		c-1.2-3.59-2.39-7.18-3.68-10.73l-2.62-7.24c-21.73-60.14-44.21-122.33-66.52-183.42c-18.39-50.33-34.48-94.82-49.21-136
		c-13.07-36.54-26.79-73.55-40.07-109.34c-12.46-33.59-25.34-68.33-37.66-102.63l-9.11-25.4c-15.11-42.16-30.74-85.76-46.77-128.39
		c-0.44-1.15,0.15-2.44,1.3-2.87c1.15-0.43,2.44,0.15,2.87,1.3c16.04,42.66,31.68,86.28,46.8,128.45l9.11,25.4
		c12.31,34.28,25.19,69.01,37.65,102.59c13.28,35.8,27,72.82,40.08,109.39c14.72,41.17,30.81,85.65,49.2,135.97
		c22.32,61.1,44.79,123.29,66.53,183.44l2.62,7.24c1.3,3.59,2.51,7.22,3.72,10.84c3.26,9.76,6.62,19.85,11.77,28.95
		c0.61,1.07,0.23,2.43-0.84,3.04C1565.58,1483.76,1565.2,1483.85,1564.83,1483.85z"/>
	<path class="st0" d="M1609.99,1463.78c-0.02,0-0.03,0-0.05,0c-6.97-0.16-7.95-5.3-8.61-8.7c-0.2-1.03-0.38-1.99-0.68-2.8
		l-6.43-17.49c-6.05-16.46-12.11-32.93-18.1-49.42l-9.2-25.34c-21.14-58.2-42.99-118.38-64.38-177.61
		c-8.14-22.56-16.32-45.52-24.23-67.73c-6.78-19.05-13.57-38.11-20.41-57.14c-31.67-88.06-60.24-167.47-89.23-247.52
		c-2.6-7.17-5.12-14.36-7.65-21.56c-6.55-18.65-13.32-37.93-21.25-56.39c-0.49-1.13,0.04-2.44,1.17-2.93
		c1.14-0.49,2.44,0.04,2.93,1.17c7.98,18.6,14.78,37.95,21.36,56.67c2.52,7.18,5.04,14.36,7.64,21.52
		c28.99,80.05,57.57,159.47,89.24,247.53c6.84,19.04,13.63,38.1,20.42,57.15c7.91,22.21,16.09,45.17,24.22,67.71
		c21.38,59.23,43.24,119.41,64.37,177.6l9.2,25.34c5.99,16.48,12.04,32.94,18.09,49.4l6.43,17.5c0.42,1.15,0.65,2.34,0.87,3.5
		c0.68,3.56,1.09,5,4.33,5.08c1.23,0.03,2.21,1.05,2.18,2.28C1612.19,1462.82,1611.19,1463.78,1609.99,1463.78z"/>
	<path class="st0" d="M1109.89,1658.91c-0.26,0-0.53-0.05-0.78-0.14c-1.15-0.43-1.74-1.72-1.3-2.87c0.28-0.76,0.68-1.36,1.01-1.84
		c0.63-0.94,0.76-1.13,0.32-2.19c-5.17-12.68-10.14-25.67-14.94-38.23c-2.51-6.57-5.03-13.14-7.58-19.7
		c-5.79-14.89-11.62-29.76-17.45-44.64c-9.29-23.73-18.9-48.27-28.22-72.46c-9.43-24.47-18.89-49.4-28.04-73.5
		c-6.64-17.5-13.28-35-19.97-52.48c-12.39-32.4-24.86-64.76-37.33-97.13l-7.26-18.84c-9.95-25.83-19.85-51.68-29.75-77.52
		c-9.87-25.79-19.75-51.58-29.67-77.34l-7.13-18.52c-17.12-44.47-34.81-90.45-52.75-135.46c-0.46-1.14,0.1-2.44,1.25-2.9
		c1.15-0.46,2.44,0.1,2.9,1.25c17.94,45.04,35.64,91.03,52.77,135.51l7.13,18.52c9.93,25.77,19.8,51.56,29.68,77.35
		c9.9,25.85,19.79,51.69,29.74,77.52l7.26,18.84c12.47,32.37,24.94,64.74,37.34,97.14c6.69,17.49,13.33,34.99,19.97,52.49
		c9.15,24.1,18.61,49.02,28.03,73.48c9.31,24.18,18.92,48.71,28.21,72.44c5.83,14.88,11.65,29.76,17.45,44.65
		c2.55,6.56,5.07,13.14,7.59,19.72c4.8,12.54,9.76,25.51,14.91,38.14c1.33,3.25,0.03,5.19-0.75,6.35c-0.23,0.35-0.44,0.65-0.54,0.93
		C1111.64,1658.36,1110.79,1658.91,1109.89,1658.91z"/>
	<path class="st0" d="M1088.7,1667.83c-0.62,0-1.23-0.25-1.67-0.76c-0.81-0.92-0.73-2.33,0.2-3.15c1.54-1.35,3.21-2.37,4.95-3.16
		l-10.57-27.29c-7.99-20.62-15.97-41.24-23.98-61.85c-6.78-17.44-13.56-34.88-20.35-52.32c-8.83-22.7-17.67-45.4-26.47-68.11
		c-17.87-46.08-35.72-92.17-53.52-138.27c-7.43-19.25-14.83-38.5-22.23-57.76c-7.45-19.4-14.91-38.8-22.4-58.2
		c-8.92-23.12-17.87-46.22-26.82-69.32c-8.9-22.98-17.8-45.96-26.68-68.95c-6.09-15.79-12.17-31.58-18.24-47.37
		c-8.79-22.86-17.58-45.72-26.43-68.56l-0.63-1.59c-1.44-3.6-2.93-7.32-2.92-12.07c0-0.96,0.62-1.82,1.54-2.12
		c3.24-1.06,6.51-2.1,9.77-3.13c7.44-2.36,15.13-4.81,22.57-7.52c10.88-3.98,14.96,2.39,17.52,9.15
		c21.87,57.95,41.53,109.38,60.12,157.23c27.6,71.07,57.18,147.43,86.45,224.34c8.51,22.35,17.04,44.69,25.57,67.03
		c18.35,48.05,37.33,97.73,55.73,146.69c3.07,8.18,6.11,16.37,9.15,24.57c12.33,33.28,25.08,67.69,40.33,100.4
		c0.74,1.6,0.57,3.34,0.41,4.87c-0.06,0.54-0.11,1.09-0.11,1.6c0,0.78-0.41,1.51-1.08,1.91c-8.09,4.84-16.98,5.86-25.57,6.84
		c-3.22,0.37-6.54,0.75-9.73,1.33c-5.14,0.93-9.81,1.78-13.43,4.97C1089.75,1667.65,1089.23,1667.83,1088.7,1667.83z M815.47,930.71
		c0.28,3.19,1.38,5.93,2.53,8.81l0.65,1.63c8.86,22.84,17.65,45.71,26.44,68.57c6.07,15.79,12.14,31.58,18.24,47.37
		c8.87,22.99,17.78,45.97,26.68,68.95c8.95,23.11,17.9,46.21,26.83,69.33c7.49,19.39,14.94,38.8,22.4,58.2
		c7.4,19.25,14.8,38.51,22.22,57.75c17.8,46.1,35.65,92.19,53.52,138.27c8.81,22.71,17.64,45.41,26.47,68.1
		c6.79,17.44,13.57,34.88,20.35,52.32c8.01,20.61,15.99,41.23,23.98,61.85l10.59,27.35c0.01,0.02,0.01,0.04,0.02,0.06
		c2.11-0.58,4.23-0.96,6.24-1.33c3.53-0.64,6.92-1.03,10.21-1.4c8.1-0.93,15.77-1.81,22.77-5.65c0.02-0.24,0.04-0.48,0.07-0.73
		c0.1-0.96,0.21-2.05-0.02-2.54c-15.33-32.87-28.11-67.37-40.47-100.73c-3.03-8.19-6.07-16.38-9.14-24.55
		c-18.4-48.95-37.37-98.62-55.72-146.66c-8.53-22.34-17.07-44.68-25.57-67.03c-29.27-76.89-58.84-153.25-86.44-224.31
		c-18.59-47.87-38.26-99.31-60.13-157.27c-2.79-7.4-5.44-8.86-11.81-6.54c-7.53,2.75-15.27,5.21-22.75,7.58
		C820.89,928.98,818.18,929.84,815.47,930.71z"/>
	<path class="st0" d="M1064.17,1672.29c-0.41,0-0.83-0.12-1.21-0.35c-1.04-0.67-1.33-2.05-0.67-3.08c1.38-2.14,0.65-4.15-0.71-7.2
		c-0.29-0.64-0.56-1.27-0.79-1.87c-9.13-23.77-18.62-47.86-27.8-71.16c-4.43-11.24-8.85-22.47-13.26-33.72
		c-13.56-34.63-27.23-69.88-40.44-103.97c-7.61-19.65-15.23-39.29-22.86-58.93c-3.52-9.05-7.05-18.1-10.58-27.16
		c-12.47-31.96-25.36-65-37.58-97.67c-19.03-50.84-38.74-101.59-57.31-149.21c-7.62-19.55-15.2-39.12-22.77-58.69
		c-14.94-38.6-30.39-78.52-45.96-117.62c-0.46-1.14,0.1-2.44,1.25-2.9c1.15-0.46,2.44,0.1,2.9,1.25
		c15.58,39.13,31.03,79.05,45.98,117.67c7.57,19.57,15.15,39.13,22.77,58.68c18.57,47.64,38.29,98.4,57.33,149.27
		c12.22,32.65,25.1,65.67,37.56,97.62c3.53,9.05,7.06,18.1,10.59,27.16c7.64,19.64,15.25,39.29,22.87,58.94
		c13.21,34.09,26.87,69.34,40.43,103.95c4.4,11.24,8.83,22.48,13.26,33.71c9.18,23.31,18.68,47.41,27.81,71.19
		c0.21,0.54,0.45,1.09,0.71,1.65c1.34,3,3.17,7.11,0.38,11.44C1065.62,1671.94,1064.9,1672.29,1064.17,1672.29z"/>
	<path class="st0" d="M1647.34,1444.83c-0.91,0-1.77-0.57-2.1-1.47l-263.15-731.47c-0.42-1.16,0.19-2.44,1.34-2.85
		c1.16-0.42,2.43,0.18,2.86,1.34l263.15,731.47c0.42,1.16-0.19,2.44-1.34,2.86C1647.84,1444.78,1647.59,1444.83,1647.34,1444.83z"/>
	<path class="st0" d="M1703.09,1412.49c-0.92,0-1.78-0.57-2.1-1.49l-19.57-55.27c-14.66-41.42-29.32-82.84-44-124.25l-13.47-38.02
		c-15.65-44.2-31.84-89.9-47.87-134.8c-13.69-38.34-27.42-76.66-41.15-114.98c-16.77-46.79-33.54-93.57-50.22-140.39
		c-4.28-12.02-8.48-24.07-12.67-36.12c-9.4-27-19.12-54.92-29.72-81.99c-0.45-1.15,0.12-2.44,1.27-2.89
		c1.14-0.45,2.44,0.12,2.89,1.26c10.63,27.15,20.36,55.11,29.77,82.15c4.19,12.04,8.38,24.08,12.66,36.09
		c16.68,46.81,33.45,93.6,50.21,140.38c13.74,38.32,27.47,76.64,41.15,114.98c16.04,44.91,32.22,90.61,47.88,134.81l13.47,38.02
		c14.68,41.41,29.34,82.83,44,124.25l19.56,55.27c0.41,1.16-0.2,2.44-1.36,2.85C1703.59,1412.45,1703.34,1412.49,1703.09,1412.49z"
		/>
	<path class="st0" d="M1042.99,1676.75c-0.73,0-1.44-0.36-1.87-1.01c-0.21-0.33-0.46-0.61-0.71-0.89c-0.6-0.68-1.34-1.54-1.84-2.83
		c-10.92-28.26-22.12-56.96-32.96-84.71l-12.64-32.4c-13.13-33.68-26.24-67.37-39.35-101.05l-17.52-45.02
		c-5.81-14.92-11.65-29.82-17.49-44.72c-13-33.18-26.45-67.5-39.3-101.4c-12.75-33.62-25.99-67.7-38.8-100.66
		c-9.02-23.22-18.35-47.23-27.43-70.88c-17.27-44.99-35.93-93.29-55.38-141.72c-0.46-1.14,0.09-2.44,1.24-2.9
		c1.14-0.46,2.44,0.09,2.9,1.24c19.46,48.45,38.13,96.77,55.4,141.78c9.08,23.64,18.41,47.65,27.43,70.86
		c12.81,32.97,26.06,67.05,38.81,100.69c12.84,33.88,26.28,68.18,39.28,101.35c5.84,14.91,11.68,29.81,17.49,44.73l17.52,45.02
		c13.11,33.69,26.22,67.37,39.35,101.05l12.64,32.4c10.84,27.76,22.04,56.46,32.96,84.73c0.22,0.56,0.58,0.98,1.04,1.5
		c0.38,0.44,0.76,0.88,1.09,1.39c0.67,1.03,0.38,2.42-0.65,3.09C1043.83,1676.64,1043.41,1676.75,1042.99,1676.75z"/>
	<path class="st0" d="M879.59,1711.81c-0.12,0-0.24-0.01-0.37-0.03c-0.77-0.13-1.42-0.65-1.71-1.38L594.57,996.43
		c-1.81,0.7-3.57,1.45-5.29,2.19c-4.31,1.85-8.37,3.6-12.25,3.94c-9.51,0.84-18.37,3.4-27.35,6.17c-1.18,0.36-2.42-0.3-2.79-1.47
		c-0.36-1.18,0.3-2.43,1.47-2.79c9.23-2.85,18.33-5.48,28.28-6.35c3.17-0.28,6.91-1.89,10.88-3.6c2.42-1.04,4.91-2.11,7.59-3.04
		c1.12-0.4,2.36,0.17,2.81,1.28l282.5,712.83c6.41-5.48,13.39-4.6,19.64-3.81c4.9,0.61,9.53,1.2,13.52-1.28
		c1.04-0.65,2.42-0.33,3.07,0.72c0.65,1.05,0.33,2.42-0.72,3.07c-5.33,3.31-10.98,2.6-16.43,1.92c-6.83-0.86-12.72-1.6-18.22,4.82
		C880.86,1711.53,880.24,1711.81,879.59,1711.81z"/>
	<path class="st0" d="M1521.34,1509.5c-0.63,0-1.25-0.27-1.69-0.78c-0.8-0.94-0.69-2.35,0.24-3.14c6.47-5.54,14.16-8.16,21.6-10.7
		c2.99-1.02,6.07-2.07,8.99-3.29c6.84-2.86,13.46-6.63,19.86-10.29c9.9-5.65,20.14-11.5,31.79-14.39c0.63-0.16,2.49-1.61,4.62-4.34
		c3.34-4.27,8.61-7.16,15.65-8.59c5.11-1.04,10.16-3.17,15.89-6.7c14.72-9.07,29.73-17.38,43.92-25.12l-259.98-728.11
		c-0.42-1.16,0.19-2.44,1.35-2.85c1.15-0.41,2.43,0.19,2.85,1.35l260.62,729.91c0.37,1.03-0.07,2.18-1.03,2.71
		c-14.63,7.97-30.18,16.54-45.39,25.91c-6.19,3.82-11.7,6.13-17.34,7.27c-5.97,1.21-10.35,3.56-13.02,6.97
		c-1.51,1.93-4.44,5.27-7.06,5.93c-11.05,2.74-21.02,8.43-30.65,13.93c-6.52,3.72-13.27,7.57-20.35,10.53
		c-3.06,1.28-6.22,2.36-9.27,3.4c-7.36,2.51-14.32,4.89-20.14,9.87C1522.37,1509.32,1521.85,1509.5,1521.34,1509.5z"/>
	<path class="st0" d="M998.39,1687.91c-0.89,0-1.73-0.54-2.08-1.42l-20.17-51.45c-14.85-37.85-29.7-75.71-44.49-113.59
		c-12.38-31.72-24.72-63.45-37.06-95.19c-20.7-53.24-42.11-108.29-63.36-162.35l-12.33-31.36c-22.1-56.17-44.95-114.24-66.86-171.59
		c-8.64-22.63-17.83-45.49-26.71-67.6c-4.09-10.17-8.17-20.34-12.22-30.53c-0.46-1.14,0.1-2.44,1.25-2.9
		c1.15-0.45,2.44,0.1,2.9,1.25c4.05,10.18,8.13,20.35,12.22,30.51c8.89,22.13,18.08,45.01,26.74,67.67
		c21.9,57.33,44.75,115.4,66.84,171.55l12.33,31.36c21.25,54.07,42.66,109.13,63.37,162.37c12.34,31.73,24.68,63.47,37.06,95.18
		c14.78,37.88,29.63,75.73,44.48,113.58l20.18,51.45c0.45,1.15-0.12,2.44-1.26,2.89C998.93,1687.85,998.66,1687.91,998.39,1687.91z"
		/>
	<path class="st0" d="M1735.43,1391.3c-1.07,0-2.01-0.77-2.2-1.86c-0.12-0.75-0.22-1.5-0.3-2.26c-0.17-1.46-0.34-2.84-0.76-4.03
		c-5.12-14.35-10.27-28.69-15.42-43.03c-7.01-19.52-14.26-39.7-21.3-59.59c-9.31-26.3-18.55-52.62-27.79-78.94
		c-9.68-27.58-19.37-55.17-29.13-82.73c-31.01-87.57-62.65-176.56-93.24-262.63l-3.75-10.56c-14.67-41.27-29.37-82.52-44.07-123.77
		l-19.47-54.64c-0.41-1.16,0.19-2.44,1.35-2.85c1.16-0.42,2.43,0.19,2.85,1.35l19.47,54.64c14.7,41.25,29.41,82.51,44.08,123.77
		l3.75,10.56c30.6,86.07,62.23,175.06,93.24,262.63c9.76,27.56,19.45,55.15,29.13,82.74c9.24,26.32,18.48,52.63,27.78,78.93
		c7.03,19.88,14.28,40.05,21.29,59.57c5.15,14.34,10.31,28.68,15.43,43.04c0.59,1.67,0.79,3.36,0.99,5
		c0.08,0.69,0.16,1.37,0.27,2.05c0.2,1.22-0.62,2.37-1.83,2.57C1735.67,1391.3,1735.55,1391.3,1735.43,1391.3z"/>
	<path class="st0" d="M1026.89,1682.86c-7.3,0-9.3-4.56-13.87-17.64c-0.29-0.81-0.45-1.61-0.61-2.37c-0.15-0.73-0.29-1.42-0.52-1.99
		c-5.65-14.37-11.31-28.73-16.98-43.1c-8.85-22.43-17.69-44.86-26.47-67.31c-11.73-29.98-23.4-59.99-35.07-90
		c-7.27-18.69-14.54-37.38-21.82-56.07c-6.38-16.37-12.78-32.73-19.17-49.09c-8.86-22.66-17.71-45.32-26.53-68
		c-8.16-20.98-16.28-41.98-24.41-62.97c-10.44-26.96-20.87-53.92-31.37-80.86c-17.61-45.17-35.47-90.46-49.06-124.88
		c-2.58-6.54-5.04-13.24-7.41-19.72c-5.34-14.57-10.86-29.64-18.12-43.64c-0.57-1.09-0.14-2.44,0.95-3.01
		c1.1-0.57,2.44-0.14,3.01,0.95c7.39,14.25,12.96,29.46,18.35,44.16c2.37,6.46,4.81,13.13,7.37,19.62
		c13.59,34.42,31.45,79.72,49.07,124.89c10.5,26.94,20.94,53.9,31.38,80.87c8.13,20.99,16.25,41.98,24.41,62.96
		c8.81,22.67,17.67,45.33,26.53,67.99c6.4,16.36,12.79,32.72,19.17,49.09c7.28,18.69,14.55,37.38,21.82,56.07
		c11.67,30,23.34,60.01,35.07,89.99c8.78,22.45,17.62,44.88,26.47,67.3c5.66,14.36,11.33,28.73,16.98,43.1
		c0.36,0.93,0.55,1.84,0.74,2.72c0.13,0.61,0.25,1.22,0.45,1.81c2.91,8.33,4.51,12.91,7.05,14.18c2.61,1.31,7.75,0.05,17.06-2.22
		l1.06,4.33C1035.33,1681.76,1030.47,1682.86,1026.89,1682.86z"/>
	<path class="st0" d="M1720.93,1399.11c-0.44,0-0.88-0.13-1.27-0.4c-5.41-3.74-7.21-9.46-8.8-14.5c-1.69-5.38-3.78-10.77-5.8-15.99
		c-1.36-3.51-2.76-7.13-4.05-10.75c-41.29-116.33-82.58-232.65-123.78-349.01c-27.24-76.91-54.42-153.83-81.6-230.76l-35.49-100.4
		c-0.41-1.16,0.2-2.44,1.36-2.85c1.16-0.41,2.44,0.2,2.84,1.36l35.49,100.4c27.18,76.92,54.37,153.85,81.6,230.76
		c41.2,116.36,82.49,232.68,123.78,349c1.26,3.56,2.66,7.15,4.01,10.63c2.04,5.28,4.16,10.74,5.9,16.26
		c1.51,4.78,2.93,9.3,7.08,12.17c1.01,0.7,1.27,2.09,0.56,3.1C1722.33,1398.77,1721.64,1399.11,1720.93,1399.11z"/>
	<path class="st0" d="M894.69,1703.52c-0.08,0-0.16,0-0.24-0.01c-1.22-0.13-2.11-1.23-1.98-2.45c0.93-8.76-2.7-16.23-6.55-24.14
		c-1.28-2.63-2.6-5.36-3.71-8.08c-15.23-37.46-30.25-75.72-44.77-112.72c-12.5-31.86-25.43-64.81-38.44-97.08
		c-26.62-66.07-53.85-134.69-83.25-209.8c-8.71-22.24-17.71-44.81-26.41-66.63c-17.87-44.82-36.36-91.17-53.31-137.25
		c-4.74-12.89-10.23-25.84-15.54-38.37c-2.18-5.14-4.36-10.29-6.51-15.48c-2.27,1.04-4.62,1.51-6.91,1.97
		c-3.38,0.67-6.3,1.26-8.48,3.55c-0.85,0.89-2.26,0.93-3.15,0.08c-0.89-0.85-0.93-2.26-0.08-3.15c3.16-3.31,7.06-4.09,10.84-4.85
		c2.78-0.56,5.41-1.08,7.62-2.6c0.56-0.38,1.25-0.5,1.9-0.3c0.65,0.19,1.17,0.67,1.43,1.29c2.46,5.96,4.96,11.88,7.46,17.77
		c5.33,12.57,10.83,25.57,15.61,38.56c16.94,46.02,35.41,92.34,53.27,137.14c8.7,21.83,17.71,44.4,26.42,66.66
		c29.39,75.1,56.62,143.71,83.23,209.76c13.02,32.3,25.95,65.25,38.46,97.12c14.52,36.99,29.53,75.23,44.75,112.67
		c1.05,2.59,2.29,5.13,3.59,7.82c3.95,8.13,8.04,16.53,6.97,26.56C896.78,1702.67,895.82,1703.52,894.69,1703.52z"/>
	<path class="st0" d="M1753.27,1375.69c-0.59,0-1.18-0.23-1.62-0.7c-2.62-2.76-4.5-6.1-6.12-10.83
		c-5.01-14.71-10.47-30.39-16.68-47.93c-8.8-24.87-17.62-49.73-26.43-74.58c-12.01-33.86-24.02-67.73-35.99-101.6
		c-7.71-21.83-15.38-43.68-23.04-65.52c-9.03-25.74-18.07-51.48-27.17-77.19c-7.21-20.35-14.48-40.68-21.76-61.01
		c-9.71-27.14-19.75-55.2-29.46-82.86c-8.02-22.86-15.95-45.75-23.88-68.65c-13.35-38.54-27.15-78.39-41.19-117.4
		c-4.17-11.6,1.23-15.26,8.16-18.55c16.63-7.88,31.28-15.56,44.78-23.48c1.05-0.61,2.39-0.28,3.03,0.76
		c5.88,9.57,9.21,20.16,12.43,30.41c1.3,4.15,2.65,8.44,4.15,12.57c18.13,50.16,36.01,101.35,53.29,150.85
		c9.81,28.09,19.95,57.14,30.03,85.67c17.61,49.87,34.76,99.31,55.09,158.2c20.84,60.37,42.4,121.61,63.26,180.84
		c8.62,24.47,17.23,48.94,25.82,73.41c0.4,1.13,0.76,2.28,1.12,3.43c1.58,5.02,3.08,9.75,7.47,12.56c1.03,0.66,1.34,2.02,0.69,3.06
		c-1.72,2.76-3.64,4.66-5.33,6.33c-0.62,0.61-1.21,1.19-1.76,1.79c-2.91,3.18-6.62,4.74-10.22,6.24c-4.28,1.79-7.98,3.34-9.93,7.33
		c-0.54,1.11-1.87,1.57-2.98,1.03c-1.11-0.54-1.57-1.87-1.03-2.98c2.68-5.5,7.75-7.62,12.22-9.49c3.29-1.38,6.4-2.68,8.65-5.14
		c0.6-0.65,1.25-1.29,1.92-1.96c1.17-1.16,2.38-2.35,3.51-3.82c-4.32-3.65-5.91-8.7-7.46-13.61c-0.35-1.1-0.7-2.21-1.08-3.3
		c-8.59-24.47-17.21-48.94-25.82-73.41c-20.86-59.24-42.43-120.49-63.27-180.87c-20.32-58.88-37.47-108.31-55.08-158.17
		c-10.08-28.54-20.22-57.59-30.03-85.68c-17.28-49.49-35.16-100.67-53.28-150.8c-1.52-4.22-2.89-8.56-4.21-12.75
		c-2.92-9.31-5.94-18.91-10.87-27.54c-13.08,7.59-27.24,14.97-43.21,22.54c-6.68,3.17-8.76,4.99-5.88,13.01
		c14.05,39.04,27.85,78.91,41.2,117.46c7.93,22.89,15.85,45.78,23.87,68.63c9.7,27.65,19.74,55.7,29.45,82.83
		c7.28,20.33,14.55,40.67,21.76,61.03c9.11,25.72,18.14,51.46,27.17,77.2c7.67,21.84,15.33,43.69,23.04,65.51
		c11.97,33.88,23.98,67.74,35.98,101.6c8.82,24.86,17.63,49.72,26.43,74.59c6.22,17.57,11.68,33.26,16.7,47.99
		c1.39,4.09,2.98,6.93,5.13,9.2c0.85,0.89,0.81,2.3-0.08,3.15C1754.37,1375.49,1753.82,1375.69,1753.27,1375.69z"/>
	<path class="st0" d="M956.01,1694.6c-0.57,0-1.14-0.22-1.58-0.66c-0.07-0.07-0.15-0.13-0.23-0.19c-0.41-0.34-1.03-0.84-1.36-1.69
		l-18.84-47.84c-24.6-62.47-49.2-124.93-73.72-187.43c-13.99-35.67-27.93-71.37-41.87-107.06c-18.42-47.15-37.46-95.9-56.3-143.8
		c-21.01-53.4-42.53-107.64-63.34-160.09c-9.35-23.58-18.71-47.15-28.05-70.74c-0.45-1.14,0.11-2.44,1.25-2.89
		c1.14-0.45,2.44,0.11,2.89,1.25c9.34,23.58,18.7,47.16,28.05,70.73c20.81,52.45,42.33,106.69,63.35,160.1
		c18.85,47.91,37.89,96.66,56.31,143.81c13.94,35.69,27.88,71.38,41.87,107.06c24.51,62.5,49.11,124.96,73.71,187.43l18.75,47.61
		c0.04,0.04,0.09,0.07,0.13,0.11c0.19,0.16,0.39,0.32,0.56,0.49c0.87,0.87,0.87,2.28,0,3.15
		C957.15,1694.38,956.58,1694.6,956.01,1694.6z"/>
	<path class="st0" d="M982.19,1693.29c-5.15,0-6.73-4.37-8.27-8.63l-0.14-0.38c-3.71-10.22-7.76-20.55-11.68-30.53l-1.58-4.02
		c-14.78-37.69-29.92-75.96-44.57-112.97c-15.72-39.72-31.97-80.79-47.82-121.25c-16.72-42.68-33.56-86.14-49.85-128.16
		c-15.45-39.86-31.42-81.08-47.26-121.57c-17.83-45.58-36.18-91.85-53.92-136.59c-8.03-20.26-16.07-40.52-24.08-60.79
		c-0.45-1.15,0.11-2.44,1.25-2.89c1.14-0.45,2.44,0.11,2.89,1.25c8.02,20.27,16.05,40.52,24.08,60.78
		c17.74,44.75,36.09,91.01,53.93,136.61c15.84,40.49,31.82,81.71,47.27,121.58c16.29,42.02,33.13,85.47,49.84,128.15
		c15.84,40.45,32.09,81.52,47.81,121.23c14.65,37.02,29.79,75.29,44.58,112.99l1.58,4.02c3.93,10.01,7.99,20.36,11.72,30.64
		l0.14,0.38c1.97,5.43,2.43,6.72,7.31,5c5.02-1.76,10.26-2.57,15.33-3.35c6.32-0.97,12.29-1.88,17.88-4.49
		c1.11-0.52,2.44-0.04,2.96,1.08c0.52,1.11,0.04,2.44-1.08,2.96c-6.17,2.88-12.74,3.89-19.09,4.86c-5.09,0.78-9.9,1.52-14.53,3.14
		C985.05,1693,983.5,1693.29,982.19,1693.29z"/>
	<path class="st0" d="M932.6,1697.94c-1.17,0-2.15-0.91-2.22-2.08c-0.1-1.53,0-2.94,0.1-4.31c0.18-2.55,0.34-4.74-0.71-7.42
		c-4.78-12.2-9.56-24.41-14.33-36.62c-13-33.25-26.45-67.64-39.9-101.34c-15.08-37.79-30.22-76.29-44.85-113.52
		c-16.15-41.09-32.86-83.57-49.54-125.25c-19.47-48.63-40.63-102.17-66.61-168.5c-6.01-15.35-12.07-30.68-18.14-46
		c-14.52-36.69-29.53-74.62-43.51-112.24c-0.43-1.15,0.16-2.44,1.31-2.87c1.16-0.43,2.44,0.16,2.87,1.31
		c13.97,37.58,28.97,75.49,43.48,112.16c6.07,15.33,12.13,30.67,18.15,46.02c25.97,66.32,47.14,119.85,66.6,168.47
		c16.69,41.69,33.4,84.18,49.55,125.28c14.63,37.23,29.77,75.72,44.84,113.5c13.46,33.72,26.9,68.12,39.91,101.38
		c4.77,12.21,9.55,24.42,14.33,36.62c1.42,3.62,1.2,6.67,1.01,9.37c-0.09,1.28-0.18,2.48-0.1,3.7c0.08,1.23-0.85,2.29-2.08,2.37
		C932.69,1697.94,932.64,1697.94,932.6,1697.94z"/>
	<path class="st0" d="M1766.65,1370.12c-0.92,0-1.78-0.57-2.1-1.49c-9.9-27.96-19.81-55.91-29.73-83.87
		c-21.75-61.3-44.24-124.68-66.11-187.12c-16.3-46.54-33.03-93.8-49.22-139.5c-26.99-76.22-54.89-155.03-81.61-232.81l-2.48-7.23
		c-7.39-21.56-15.03-43.85-23.92-65.22c-0.47-1.14,0.06-2.44,1.2-2.92c1.13-0.47,2.45,0.06,2.92,1.2
		c8.95,21.5,16.61,43.86,24.03,65.49l2.48,7.23c26.72,77.76,54.62,156.56,81.6,232.77c16.18,45.71,32.92,92.97,49.22,139.51
		c21.87,62.42,44.36,125.8,66.1,187.1c9.92,27.95,19.84,55.91,29.73,83.87c0.41,1.16-0.2,2.44-1.36,2.85
		C1767.15,1370.08,1766.89,1370.12,1766.65,1370.12z"/>
	<path class="st0" d="M824.44,1710.76c-1.15,0-2.12-0.88-2.22-2.04c-0.87-10.38-5.21-19.99-9.41-29.27
		c-1.4-3.11-2.86-6.31-4.16-9.51c-21.6-52.97-42.96-107.06-63.61-159.37c-10.3-26.09-20.6-52.18-30.97-78.24
		c-11.31-28.43-22.71-56.82-34.1-85.22c-18.55-46.21-37.73-93.99-56.21-141.15c-10.66-27.22-21.78-54.79-32.53-81.45
		c-15.14-37.54-30.79-76.36-45.45-114.85c-0.07-0.09-0.5-0.46-0.81-0.73c-0.08-0.06-0.15-0.13-0.23-0.2
		c-3.42,1.27-7.01,1.97-10.49,2.65c-4.68,0.92-9.09,1.78-13.19,3.9c-1.1,0.56-2.44,0.13-3.01-0.96c-0.57-1.09-0.14-2.44,0.96-3.01
		c4.66-2.41,9.6-3.37,14.38-4.31c3.89-0.76,7.56-1.48,10.95-2.92c0.84-0.35,1.81-0.17,2.45,0.48c0.38,0.38,0.75,0.69,1.08,0.97
		c0.81,0.69,1.66,1.41,2.08,2.53c14.64,38.45,30.29,77.25,45.42,114.77c10.76,26.67,21.88,54.25,32.55,81.49
		c18.47,47.14,37.65,94.92,56.19,141.12c11.4,28.4,22.8,56.8,34.11,85.23c10.37,26.07,20.67,52.16,30.97,78.25
		c20.64,52.3,41.99,106.38,63.59,159.32c1.27,3.12,2.71,6.29,4.09,9.35c4.36,9.63,8.87,19.6,9.8,30.74c0.1,1.23-0.81,2.3-2.04,2.41
		C824.56,1710.76,824.5,1710.76,824.44,1710.76z"/>
	<path class="st0" d="M915.87,1701.29c-0.73,0-1.44-0.36-1.87-1.01c-0.22-0.33-0.47-0.61-0.72-0.9c-0.59-0.68-1.33-1.53-1.83-2.8
		c-7.41-18.82-14.89-37.61-22.38-56.4c-11.7-29.38-23.8-59.76-35.41-89.76c-13.49-34.85-27.49-70.18-41.03-104.35
		c-7.13-18-14.26-35.99-21.35-54l-13.54-34.41c-17.42-44.29-35.44-90.1-53.4-135.05c-9.56-23.94-18.97-48.39-28.07-72.04
		c-9.77-25.38-19.87-51.62-30.17-77.27c-3.35-8.33-6.62-16.7-9.89-25.07c-7.99-20.45-16.25-41.6-25.59-61.87
		c-0.52-1.12-0.03-2.44,1.09-2.96c1.11-0.52,2.44-0.03,2.96,1.09c9.4,20.39,17.68,41.6,25.7,62.11c3.26,8.35,6.53,16.71,9.87,25.03
		c10.32,25.68,20.42,51.94,30.19,77.33c9.1,23.64,18.5,48.08,28.05,71.99c17.96,44.97,35.98,90.77,53.41,135.07l13.54,34.41
		c7.09,18.01,14.22,36,21.35,53.99c13.54,34.17,27.55,69.51,41.04,104.38c11.6,29.98,23.7,60.35,35.39,89.72
		c7.49,18.79,14.97,37.59,22.38,56.41c0.22,0.56,0.58,0.98,1.05,1.51c0.38,0.44,0.76,0.88,1.09,1.39c0.67,1.03,0.38,2.42-0.65,3.09
		C916.71,1701.17,916.29,1701.29,915.87,1701.29z"/>
	<path class="st0" d="M1793.41,1350.05c-0.92,0-1.78-0.57-2.1-1.49l-14.41-40.81c-10.82-30.62-21.63-61.24-32.41-91.88
		c-21.96-62.43-43.88-124.88-65.79-187.33l-37.07-105.67c-19.98-56.96-39.95-113.91-59.96-170.85
		c-3.76-10.72-7.47-21.45-11.18-32.19c-9.52-27.56-19.36-56.06-30.04-83.72c-0.44-1.15,0.13-2.44,1.28-2.88
		c1.14-0.44,2.44,0.13,2.88,1.28c10.71,27.73,20.57,56.27,30.1,83.87c3.7,10.73,7.41,21.46,11.17,32.17
		c20,56.95,39.98,113.9,59.96,170.86l37.07,105.67c21.92,62.45,43.83,124.89,65.79,187.32c10.78,30.63,21.59,61.26,32.41,91.88
		l14.41,40.81c0.41,1.16-0.2,2.43-1.36,2.85C1793.91,1350.01,1793.66,1350.05,1793.41,1350.05z"/>
	<path class="st0" d="M1782.26,1355.62c-0.22,0-0.44-0.03-0.66-0.1c-5.3-1.64-6.74-6.02-8.02-9.89l-0.15-0.45
		c-13.55-40.94-28.54-84.1-47.2-135.84c-19.03-52.78-37.97-106.59-56.29-158.62c-8.5-24.15-17.01-48.31-25.55-72.45
		c-17.4-49.18-34.96-99.24-51.93-147.65c-21.35-60.88-43.43-123.83-65.41-185.65c-0.41-1.16,0.19-2.44,1.35-2.85
		c1.15-0.41,2.43,0.19,2.85,1.35c21.99,61.83,44.07,124.78,65.42,185.67c16.97,48.41,34.53,98.46,51.93,147.64
		c8.54,24.14,17.05,48.3,25.55,72.45c18.32,52.03,37.26,105.82,56.28,158.59c18.67,51.78,33.68,94.97,47.24,135.95l0.15,0.46
		c1.24,3.76,2.15,6.11,5.1,7.02c1.18,0.36,1.84,1.61,1.47,2.79C1784.09,1355.01,1783.21,1355.62,1782.26,1355.62z"/>
	<path class="st0" d="M793.22,1712.99c-0.09,0-0.19-0.01-0.29-0.02c-1.22-0.16-2.09-1.27-1.93-2.49c1.19-9.34-2.77-17.69-6.59-25.77
		c-1.25-2.64-2.55-5.37-3.64-8.11c-21.53-53.52-43.2-108.02-64.16-160.73c-11.23-28.23-22.46-56.47-33.71-84.69
		c-17.21-43.14-34.96-86.91-52.12-129.24c-20.6-50.82-41.9-103.36-62.44-155.22c-5.6-14.14-11.24-28.27-16.87-42.4
		c-11.05-27.72-22.48-56.38-33.47-84.67c-0.61-1.57-1.15-2.96-2.33-4.22c-14.02,3.64-28.62,5.77-42.75,7.84
		c-7.1,1.04-14.45,2.11-21.63,3.36c-1.2,0.21-2.37-0.6-2.58-1.82c-0.21-1.21,0.6-2.37,1.82-2.58c7.24-1.26,14.62-2.34,21.75-3.38
		c14.41-2.1,29.31-4.28,43.44-8.05c0.69-0.18,1.44-0.03,1.99,0.43c2.67,2.2,3.62,4.64,4.46,6.79
		c10.98,28.27,22.41,56.92,33.46,84.63c5.63,14.13,11.27,28.26,16.87,42.41c20.53,51.83,41.83,104.37,62.43,155.18
		c17.16,42.33,34.91,86.11,52.12,129.26c11.26,28.22,22.49,56.46,33.72,84.69c20.96,52.7,42.63,107.2,64.16,160.71
		c1.05,2.61,2.26,5.16,3.54,7.86c4.1,8.66,8.34,17.61,6.99,28.24C795.29,1712.17,794.33,1712.99,793.22,1712.99z"/>
	<path class="st0" d="M1807.91,1336.67c-0.71,0-1.4-0.33-1.83-0.96c-0.7-1.01-0.46-2.4,0.56-3.1c2.12-1.48,4.43-2.68,6.67-3.84
		c5.9-3.06,11-5.71,12.63-12.66c0.8-3.43,3.75-4.61,6.11-5.56c0.97-0.39,1.89-0.76,2.55-1.22l0.58-0.41
		c5.19-3.65,8.04-5.66,8.59-7.54c0.53-1.81-0.78-4.89-3.35-10.63c-5.98-13.37-10.56-27.42-15-41.01c-1.96-6.02-4-12.25-6.12-18.31
		c-24.83-71.01-49.92-143.27-74.18-213.15c-15.07-43.42-30.15-86.84-45.26-130.24c-21.41-61.5-42.91-122.98-64.41-184.46
		l-24.78-70.89c-2.51-7.17-5.05-14.33-7.64-21.65l-2.76-7.79c-13.93,9.15-28.14,17.38-43.35,25.11c-1.1,0.56-2.44,0.12-3-0.98
		c-0.56-1.1-0.12-2.44,0.98-3c15.92-8.09,30.73-16.73,45.28-26.42c0.57-0.38,1.29-0.47,1.94-0.26c0.65,0.22,1.17,0.72,1.4,1.37
		l3.71,10.47c2.6,7.32,5.14,14.49,7.65,21.67l24.78,70.89c21.5,61.48,42.99,122.95,64.41,184.46
		c15.11,43.41,30.19,86.83,45.26,130.25c24.26,69.87,49.35,142.13,74.18,213.14c2.13,6.11,4.17,12.36,6.15,18.4
		c4.4,13.48,8.94,27.42,14.83,40.57c6.06,13.55,5.68,14.88-6.74,23.63l-0.58,0.41c-1.08,0.76-2.29,1.25-3.46,1.72
		c-2.19,0.88-3.18,1.38-3.43,2.44c-2.09,8.95-8.91,12.48-14.92,15.6c-2.21,1.14-4.29,2.22-6.17,3.53
		C1808.79,1336.54,1808.35,1336.67,1807.91,1336.67z"/>
	<path class="st0" d="M1816.83,1331.09c-0.92,0-1.79-0.58-2.11-1.5l-11.93-34.42c-8.64-24.96-17.29-49.91-25.99-74.85
		c-12.67-36.31-25.38-72.6-38.09-108.9c-8.11-23.17-16.23-46.34-24.33-69.51c-11.25-32.16-22.49-64.33-33.73-96.5
		c-23.31-66.7-46.62-133.41-70-200.09c-4.25-12.13-8.42-24.29-12.57-36.45c-9.71-28.38-19.76-57.73-30.86-86.15
		c-0.45-1.15,0.12-2.44,1.27-2.89c1.15-0.45,2.44,0.12,2.89,1.27c11.13,28.5,21.19,57.9,30.92,86.32
		c4.16,12.15,8.31,24.3,12.56,36.41c23.39,66.68,46.69,133.39,70,200.09c11.24,32.17,22.48,64.33,33.73,96.5
		c8.1,23.17,16.22,46.34,24.33,69.51c12.71,36.3,25.42,72.6,38.1,108.91c8.71,24.94,17.35,49.9,26,74.86l11.93,34.41
		c0.41,1.17-0.21,2.43-1.37,2.84C1817.32,1331.05,1817.07,1331.09,1816.83,1331.09z"/>
	<path class="st0" d="M843.4,1711.32c-0.85,0-1.67-0.49-2.04-1.32c-0.47-1.06-0.95-2.11-1.43-3.16c-1.04-2.26-2.11-4.6-3.04-6.97
		c-7-17.78-13.92-35.58-20.85-53.39c-14.54-37.39-29.58-76.06-45.11-113.76c-20.05-48.68-39.72-98.44-58.73-146.57
		c-16-40.49-32.54-82.35-49.23-123.36c-12.27-30.15-24.42-60.94-36.17-90.71c-13.11-33.23-26.67-67.59-40.45-101.2
		c-1.95-4.75-3.95-9.49-5.96-14.23c-7.04-16.62-14.32-33.8-19-51.7c-0.31-1.19,0.4-2.41,1.59-2.72c1.2-0.31,2.41,0.4,2.72,1.59
		c4.6,17.59,11.82,34.62,18.8,51.09c2.02,4.76,4.03,9.51,5.98,14.28c13.79,33.64,27.36,68.01,40.48,101.25
		c11.74,29.76,23.89,60.53,36.15,90.67c16.7,41.03,33.25,82.9,49.25,123.4c19.01,48.11,38.67,97.86,58.71,146.51
		c15.55,37.75,30.59,76.43,45.14,113.84c6.92,17.8,13.84,35.6,20.84,53.37c0.89,2.26,1.94,4.54,2.95,6.74
		c0.49,1.07,0.98,2.14,1.46,3.21c0.5,1.13-0.01,2.44-1.13,2.94C844.01,1711.26,843.7,1711.32,843.4,1711.32z"/>
	<path class="st0" d="M865.67,1711.93c-1.68,0-3.33-0.27-4.85-0.96c-2.65-1.2-4.61-3.49-5.82-6.8
		c-4.91-13.35-10.41-26.74-15.73-39.7c-5.28-12.85-10.74-26.14-15.63-39.42c-11.47-31.13-24.09-62.43-36.29-92.69
		c-11.12-27.58-22.62-56.1-33.23-84.45c-7.37-19.68-15.62-39.43-23.6-58.52c-7.7-18.42-15.66-37.47-22.83-56.47
		c-12.64-33.49-26.19-67.28-39.29-99.96c-13.04-32.52-26.52-66.15-39.12-99.5c-11.43-30.25-23.85-60.72-35.87-90.19
		c-5.47-13.42-10.95-26.85-16.35-40.3c-0.46-1.14,0.09-2.44,1.24-2.9c1.14-0.46,2.44,0.09,2.9,1.24
		c5.4,13.44,10.87,26.86,16.34,40.27c12.03,29.49,24.46,59.99,35.91,90.29c12.58,33.31,26.06,66.92,39.09,99.42
		c13.11,32.7,26.66,66.51,39.32,100.04c7.15,18.93,15.09,37.94,22.78,56.33c8,19.13,16.27,38.92,23.66,58.68
		c10.59,28.29,22.08,56.79,33.19,84.34c12.21,30.29,24.84,61.62,36.34,92.82c4.86,13.2,10.31,26.45,15.57,39.27
		c5.34,12.99,10.85,26.42,15.79,39.85c0.8,2.18,1.94,3.58,3.48,4.28c3.34,1.51,8.44-0.22,13.38-2.13c1.15-0.45,2.44,0.13,2.88,1.28
		c0.44,1.15-0.13,2.44-1.28,2.88C874.37,1710.2,869.9,1711.93,865.67,1711.93z"/>
	<path class="st0" d="M486.7,680.98c-0.86,0-1.68-0.5-2.05-1.34c-0.49-1.13,0.03-2.44,1.16-2.93c6.1-2.64,31.91-14.14,52.65-23.38
		c13.78-6.14,25.83-11.51,29.78-13.25c28.55-12.57,57.65-25.17,85.79-37.36c21.94-9.5,43.88-19.01,65.79-28.59
		c24.37-10.66,49.1-21.61,73.01-32.19c20.26-8.97,40.52-17.94,60.82-26.85c50.75-22.28,101.74-44.48,140.5-61.34
		c14.48-6.3,28.99-12.54,43.49-18.79c17.91-7.71,36.44-15.68,54.6-23.63c24.28-10.62,49.69-19.34,74.25-27.77
		c12.33-4.23,25.08-8.61,37.52-13.16c2.16-0.79,4.29-1.75,6.55-2.77c7.24-3.26,15.44-6.96,24.8-4.31c1.18,0.33,1.88,1.57,1.54,2.75
		c-0.34,1.19-1.57,1.88-2.75,1.54c-7.78-2.19-14.58,0.86-21.76,4.09c-2.23,1.01-4.54,2.04-6.85,2.89
		c-12.48,4.57-25.25,8.96-37.6,13.2c-24.48,8.4-49.8,17.09-73.91,27.64c-18.18,7.95-36.71,15.93-54.63,23.64
		c-14.5,6.24-29,12.48-43.48,18.78c-38.75,16.85-89.75,39.06-140.49,61.33c-20.29,8.91-40.54,17.87-60.8,26.84
		c-23.92,10.59-48.65,21.54-73.03,32.2c-21.91,9.58-43.86,19.09-65.8,28.59c-28.14,12.19-57.23,24.79-85.77,37.35
		c-3.95,1.74-16,7.11-29.77,13.24c-20.75,9.24-46.57,20.74-52.69,23.4C487.3,680.92,487,680.98,486.7,680.98z"/>
	<path class="st0" d="M1868.12,1276.45c-0.92,0-1.79-0.58-2.11-1.5l-239.02-689.71c-4.84,5.13-10.24,8.35-15.49,11.47
		c-2.63,1.56-5.11,3.04-7.47,4.73c-1,0.72-2.39,0.48-3.11-0.52c-0.72-1-0.48-2.39,0.52-3.11c2.51-1.79,5.19-3.39,7.78-4.93
		c5.86-3.49,11.91-7.09,16.85-13.41c0.5-0.64,1.33-0.96,2.12-0.83c0.81,0.13,1.47,0.7,1.74,1.47l240.29,693.38
		c0.4,1.16-0.21,2.43-1.38,2.84C1868.61,1276.42,1868.36,1276.45,1868.12,1276.45z"/>
	<path class="st0" d="M811.06,1712.44c-0.57,0-1.14-0.22-1.58-0.65c-0.19-0.19-0.4-0.36-0.62-0.53c-0.73-0.6-1.64-1.34-2.08-2.52
		c-16.91-45.42-35.34-91.14-53.17-135.34c-11.69-28.99-23.78-58.96-35.33-88.58c-22.33-57.28-45.78-115.27-68.46-171.34l-2.46-6.09
		c-28.46-70.38-56.48-140.74-82.53-206.29c-3.47-8.74-7.03-17.46-10.59-26.17c-8.23-20.17-16.75-41.03-24.06-61.99
		c-0.41-1.16,0.21-2.43,1.37-2.84c1.16-0.41,2.43,0.21,2.84,1.37c7.28,20.85,15.77,41.65,23.98,61.77
		c3.56,8.73,7.12,17.45,10.6,26.21c26.04,65.55,54.06,135.9,82.52,206.27l2.46,6.09c22.68,56.09,46.14,114.08,68.48,171.39
		c11.54,29.6,23.62,59.56,35.31,88.53c17.84,44.24,36.28,89.98,53.21,135.46c0.06,0.08,0.46,0.41,0.72,0.62
		c0.33,0.27,0.66,0.54,0.95,0.83c0.87,0.87,0.87,2.28,0,3.16C812.2,1712.22,811.63,1712.44,811.06,1712.44z"/>
	<path class="st0" d="M1836.9,1308.79c-0.91,0-1.77-0.57-2.1-1.48c-23.81-66.44-47.24-134.26-69.9-199.85
		c-5.36-15.52-10.72-31.03-16.09-46.55c-20.09-58.05-40.86-116.95-60.95-173.92c-17.66-50.08-35.91-101.86-53.64-152.87
		c-4.22-12.13-8.4-24.28-12.58-36.43c-9.99-29.03-20.32-59.05-31.03-88.38c-0.42-1.16,0.17-2.44,1.33-2.86
		c1.15-0.42,2.43,0.17,2.86,1.33c10.72,29.36,21.06,59.4,31.05,88.46c4.18,12.14,8.36,24.29,12.57,36.42
		c17.73,51,35.98,102.78,53.64,152.85c20.09,56.97,40.86,115.89,60.95,173.95c5.37,15.51,10.73,31.03,16.09,46.55
		c22.66,65.58,46.08,133.39,69.89,199.81c0.42,1.16-0.19,2.43-1.35,2.85C1837.4,1308.75,1837.15,1308.79,1836.9,1308.79z"/>
	<path class="st0" d="M1825.75,1315.48c-0.28,0-0.57-0.05-0.85-0.17c-2.98-1.23-3.68-3.98-4.14-5.8c-0.1-0.4-0.2-0.79-0.32-1.15
		c-25.07-71.38-50.23-143.56-75.96-217.39c-13.06-37.47-26.1-74.95-39.15-112.43c-24.48-70.32-48.96-140.63-73.5-210.92
		c-12.17-34.83-24.68-70.19-36.78-104.39c-5.57-15.75-11.15-31.5-16.71-47.25c-0.41-1.16,0.2-2.44,1.36-2.85
		c1.17-0.41,2.43,0.2,2.85,1.36c5.56,15.75,11.13,31.5,16.71,47.25c12.1,34.2,24.62,69.57,36.79,104.41
		c24.55,70.29,49.03,140.61,73.5,210.93c13.05,37.48,26.09,74.95,39.15,112.42c25.72,73.83,50.89,146.01,75.95,217.38
		c0.17,0.47,0.3,0.99,0.44,1.53c0.42,1.67,0.69,2.43,1.52,2.77c1.14,0.47,1.68,1.77,1.21,2.91
		C1827.45,1314.96,1826.62,1315.48,1825.75,1315.48z"/>
	<path class="st0" d="M1854.74,1294.3c-0.93,0-1.79-0.58-2.11-1.5c-15-43.56-30.37-87.81-45.24-130.61
		c-16.35-47.06-33.25-95.72-49.71-143.63c-25.08-72.99-51.1-147.02-76.27-218.61c-15.16-43.12-30.83-87.7-46.13-131.59
		c-2.46-7.05-4.83-14.13-7.21-21.21c-5.68-16.9-11.54-34.38-18.47-51.12c-0.47-1.14,0.07-2.44,1.21-2.91
		c1.13-0.46,2.44,0.07,2.91,1.21c6.98,16.88,12.88,34.43,18.57,51.41c2.37,7.06,4.74,14.13,7.2,21.16
		c15.3,43.88,30.97,88.47,46.13,131.58c25.17,71.6,51.2,145.64,76.28,218.64c16.46,47.91,33.36,96.56,49.71,143.62
		c14.87,42.8,30.24,87.05,45.24,130.62c0.4,1.16-0.22,2.43-1.38,2.83C1855.22,1294.26,1854.98,1294.3,1854.74,1294.3z"/>
	<path class="st0" d="M795.62,1716.21c-9.86,0-16.59-4.35-20.05-13c-10.13-25.31-20.22-50.65-30.3-75.98
		c-8.12-20.39-16.24-40.78-24.38-61.16c-27.87-69.77-55.15-138.05-82.52-206.28c-21.97-54.78-43.99-109.54-66.01-164.31
		l-71.12-176.9c-0.46-1.14,0.09-2.44,1.24-2.9c1.14-0.46,2.44,0.09,2.9,1.24l71.12,176.9c22.02,54.76,44.04,109.53,66.02,164.31
		c27.37,68.24,54.65,136.51,82.52,206.28c8.14,20.38,16.26,40.77,24.38,61.16c10.09,25.33,20.17,50.66,30.3,75.97
		c3.52,8.79,10.85,11.79,23.06,9.45c13.3-2.54,23.84-3.19,34.19-2.13c6.44,0.67,12.85-2.07,18.8-5.13c1.1-0.56,2.44-0.13,3,0.96
		s0.13,2.44-0.96,3c-6.57,3.37-13.69,6.37-21.3,5.6c-9.9-1.03-20.04-0.39-32.89,2.07C800.75,1715.94,798.08,1716.21,795.62,1716.21z
		"/>
	<path class="st0" d="M1862.54,1282.03c-0.39,0-0.79-0.1-1.15-0.32c-3.95-2.4-5.28-6.33-6.46-9.8l-0.1-0.3
		c-2.08-6.15-4.12-12.33-6.15-18.5c-3.79-11.49-7.71-23.37-11.86-34.91c-27.02-75.26-53.54-152.1-79.18-226.42
		c-18.43-53.41-37.49-108.65-56.58-162.85c-19.23-54.6-38.49-110.22-57.11-164.01c-8.48-24.5-16.96-49-25.47-73.48
		c-0.41-1.16,0.21-2.43,1.37-2.84c1.17-0.41,2.43,0.21,2.84,1.38c8.51,24.49,16.99,48.99,25.47,73.49
		c18.62,53.78,37.87,109.39,57.1,163.98c19.1,54.21,38.16,109.45,56.59,162.87c25.64,74.3,52.15,151.13,79.16,226.36
		c4.16,11.6,8.09,23.51,11.9,35.02c2.03,6.16,4.07,12.33,6.14,18.47l0.1,0.3c1.06,3.14,1.98,5.86,4.54,7.42
		c1.05,0.64,1.39,2.01,0.75,3.06C1864.03,1281.65,1863.29,1282.03,1862.54,1282.03z"/>
	<path class="st0" d="M765.34,1711.32c-0.12,0-0.24-0.01-0.37-0.03c-1.22-0.2-2.04-1.35-1.83-2.57c1.22-7.3-1.83-13.54-5.07-20.16
		c-1.01-2.07-2.06-4.22-2.94-6.36c-20.31-49.46-40.39-99.97-59.81-148.81c-13.48-33.9-27.41-68.95-41.3-103.35
		c-26.42-65.42-54.77-135.92-89.21-221.9c-17.38-43.37-34.67-86.78-51.96-130.19c-7.59-19.05-15.18-38.09-22.77-57.14
		c-0.46-1.14,0.1-2.44,1.24-2.9c1.15-0.46,2.44,0.1,2.9,1.24c7.6,19.04,15.18,38.09,22.77,57.14
		c17.29,43.4,34.58,86.81,51.96,130.18c34.44,85.97,62.79,156.47,89.2,221.89c13.9,34.41,27.83,69.47,41.31,103.37
		c19.41,48.83,39.48,99.33,59.79,148.76c0.83,2.01,1.8,3.99,2.82,6.1c3.4,6.95,6.92,14.15,5.46,22.85
		C767.36,1710.55,766.41,1711.32,765.34,1711.32z"/>
	<path class="st0" d="M754.19,1712.44c-1.07,0-2.02-0.77-2.2-1.86c-0.13-0.75-0.21-1.53-0.28-2.3c-0.15-1.43-0.28-2.78-0.74-3.84
		c-11.44-26.3-22.14-53.41-32.48-79.62c-5.01-12.69-10.19-25.82-15.39-38.68c-21.46-53.13-43.17-107.18-64.17-159.46l-162.23-403.63
		c-0.46-1.14,0.09-2.44,1.24-2.9c1.14-0.46,2.44,0.09,2.9,1.24l162.23,403.63c20.99,52.28,42.7,106.33,64.16,159.45
		c5.2,12.88,10.39,26.01,15.4,38.71c10.33,26.17,21.01,53.24,32.42,79.47c0.74,1.69,0.92,3.46,1.09,5.17
		c0.07,0.68,0.14,1.36,0.25,2.02c0.2,1.22-0.62,2.36-1.83,2.57C754.43,1712.43,754.31,1712.44,754.19,1712.44z"/>
	<path class="st0" d="M1872.58,1264.19c-0.88,0-1.72-0.53-2.07-1.4c-8.27-20.71-15.46-42.16-22.41-62.91
		c-2.95-8.8-5.89-17.6-8.93-26.36c-22.47-64.94-45.43-130.93-67.63-194.74c-19.44-55.89-38.89-111.77-58.26-167.68
		c-15.03-43.39-30.19-87.55-44.84-130.26c-9.97-29.06-19.94-58.11-29.95-87.15c-1.15-3.34-2.64-6.66-4.08-9.86
		c-0.4-0.89-0.79-1.77-1.18-2.65c-0.2,0.19-0.41,0.43-0.67,0.74c-0.49,0.58-1.05,1.23-1.84,1.75c-1.03,0.67-2.42,0.38-3.09-0.65
		c-0.68-1.03-0.38-2.41,0.65-3.09c0.25-0.17,0.56-0.52,0.89-0.91c0.94-1.11,2.37-2.78,5.21-2.87c1-0.03,1.77,0.51,2.13,1.36
		c0.64,1.49,1.31,2.99,1.98,4.5c1.48,3.3,3.01,6.7,4.23,10.24c10.01,29.04,19.98,58.1,29.95,87.16
		c14.65,42.7,29.8,86.86,44.84,130.24c19.37,55.91,38.82,111.79,58.26,167.68c22.2,63.82,45.16,129.81,67.63,194.75
		c3.04,8.78,5.99,17.59,8.94,26.41c6.93,20.69,14.09,42.08,22.32,62.67c0.46,1.14-0.1,2.44-1.24,2.9
		C1873.13,1264.14,1872.85,1264.19,1872.58,1264.19z"/>
	<path class="st0" d="M718.51,1704.63c-0.09,0-0.19-0.01-0.28-0.02c-1.22-0.15-2.09-1.27-1.93-2.49c0.09-0.68,0.23-1.32,0.38-1.95
		c0.33-1.37,0.54-2.27-0.04-3.69c-23.52-56.88-46.89-114.93-69.49-171.07c-7.28-18.08-14.56-36.16-21.85-54.23
		c-29-71.85-58.38-144.96-87.31-217.3c-21.2-53-42.92-106.83-63.94-158.88c-9.19-22.77-18.39-45.55-27.57-68.34
		c-1.59,0.11-3.13,0.07-4.62,0.03c-2.83-0.07-5.51-0.14-7.91,0.91c-1.12,0.49-2.44-0.02-2.94-1.15c-0.49-1.13,0.02-2.44,1.15-2.94
		c3.31-1.45,6.61-1.37,9.81-1.28c1.94,0.05,3.77,0.1,5.62-0.18c1.01-0.17,2.01,0.41,2.4,1.37c9.39,23.3,18.79,46.6,28.2,69.9
		c21.01,52.06,42.74,105.89,63.94,158.89c28.93,72.34,58.31,145.44,87.31,217.29c7.29,18.07,14.57,36.15,21.85,54.23
		c22.6,56.13,45.96,114.17,69.47,171.03c1.14,2.75,0.65,4.79,0.26,6.43c-0.11,0.48-0.23,0.96-0.3,1.47
		C720.58,1703.81,719.62,1704.63,718.51,1704.63z"/>
	<path class="st0" d="M740.81,1709.09c-1.21,0-2.21-0.97-2.23-2.19c-0.08-4.31-0.63-7.33-1.89-10.42
		c-9.85-24.06-19.66-48.6-29.14-72.34c-4.47-11.18-8.93-22.36-13.42-33.53c-19.91-49.57-39.83-99.13-59.76-148.68l-29.44-73.21
		c-9.38-23.32-18.74-46.65-28.11-69.98c-21.46-53.45-43.66-108.72-65.59-163.05c-10.35-25.65-21.06-51.66-31.42-76.82
		c-4.76-11.56-9.52-23.12-14.26-34.69c-0.47-1.14,0.08-2.44,1.22-2.91c1.14-0.47,2.44,0.08,2.91,1.22
		c4.74,11.56,9.5,23.12,14.26,34.68c10.36,25.16,21.07,51.18,31.43,76.85c21.93,54.33,44.12,109.6,65.59,163.05
		c9.37,23.33,18.73,46.66,28.11,69.98l29.44,73.21c19.93,49.56,39.85,99.12,59.76,148.68c4.49,11.17,8.95,22.36,13.42,33.54
		c9.48,23.73,19.28,48.26,29.12,72.3c1.85,4.51,2.16,8.61,2.23,12.02c0.02,1.23-0.96,2.25-2.19,2.27
		C740.84,1709.09,740.82,1709.09,740.81,1709.09z"/>
	<path class="st0" d="M709.8,1704.12c-0.16,0-0.33-0.02-0.49-0.05c-18.62-4.19-31.55-16.17-39.53-36.6
		c-15.34-39.3-31.56-79.01-47.24-117.41c-5.86-14.35-11.72-28.71-17.56-43.08c-28.2-69.46-56.33-139.66-82.54-205.17
		c-9.12-22.79-18.31-45.55-27.51-68.31c-12.03-29.78-24.48-60.58-36.53-90.95c-10.02-25.24-20.49-50.84-30.61-75.59
		c-3.71-9.07-7.42-18.15-11.12-27.23c-1.57-3.86-3.9-5.64-6.91-7.14c-1.1-0.55-1.55-1.88-1.01-2.99c0.55-1.1,1.88-1.56,2.99-1.01
		c4.57,2.27,7.28,5.09,9.06,9.45c3.7,9.08,7.41,18.15,11.12,27.22c10.13,24.76,20.6,50.37,30.63,75.63
		c12.05,30.36,24.49,61.15,36.52,90.93c9.2,22.76,18.39,45.53,27.51,68.32c26.21,65.5,54.34,135.7,82.53,205.15
		c5.83,14.36,11.69,28.71,17.55,43.07c15.69,38.42,31.91,78.15,47.26,117.48c7.02,17.98,18.09,28.88,33.78,33.23
		c-0.16-1.89-0.9-3.57-1.71-5.42c-0.23-0.52-0.46-1.04-0.67-1.56l-6.99-16.98c-9.46-22.93-19.23-46.65-28.51-70.1
		c-20.48-51.78-41.71-104.27-62.24-155.02c-12.45-30.79-24.91-61.57-37.27-92.4c-14.51-36.16-29.43-72.87-43.87-108.36
		c-12.3-30.26-25.03-61.56-37.44-92.38c-11.99-29.76-23.97-60.1-35.56-89.44c-5.26-13.3-10.51-26.61-15.78-39.9
		c-0.45-1.15,0.11-2.44,1.25-2.9c1.15-0.45,2.44,0.11,2.9,1.25c5.27,13.3,10.53,26.6,15.78,39.91
		c11.59,29.33,23.57,59.66,35.55,89.41c12.41,30.81,25.13,62.1,37.43,92.36c14.43,35.5,29.36,72.21,43.87,108.39
		c12.37,30.82,24.82,61.6,37.27,92.38c20.53,50.76,41.77,103.26,62.25,155.05c9.26,23.42,19.03,47.12,28.48,70.04l7,16.98
		c0.2,0.49,0.42,0.98,0.63,1.47c1.26,2.86,2.68,6.1,1.9,10.43c-0.11,0.6-0.46,1.13-0.96,1.46
		C710.66,1703.99,710.23,1704.12,709.8,1704.12z"/>
	<path class="st0" d="M782.07,1713.55c-0.04,0-0.09,0-0.13,0c-3.7-0.22-7.41-0.4-11.11-0.58c-8.82-0.43-17.94-0.88-26.88-1.82
		c-6.42-0.67-13.7-1.44-17.92-12.21c-14.72-37.57-30.22-75.56-45.21-112.3c-11.39-27.91-23.16-56.78-34.52-85.26
		c-17.86-44.8-36.2-90.27-53.93-134.25c-13.58-33.69-27.17-67.37-40.67-101.09c-11.87-29.62-23.79-59.22-35.72-88.81
		c-19.91-49.39-40.49-100.47-60.44-150.82c-0.45-1.15,0.11-2.44,1.25-2.9c1.15-0.45,2.44,0.11,2.9,1.25
		c19.95,50.34,40.53,101.41,60.43,150.8c11.93,29.6,23.86,59.2,35.72,88.82c13.51,33.71,27.09,67.39,40.67,101.08
		c17.74,43.98,36.07,89.46,53.94,134.27c11.35,28.47,23.12,57.32,34.51,85.23c15,36.76,30.5,74.76,45.24,112.36
		c3.08,7.85,7.41,8.69,14.24,9.41c8.82,0.93,17.88,1.37,26.64,1.8c3.72,0.18,7.44,0.36,11.15,0.58c1.23,0.07,2.17,1.13,2.1,2.36
		C784.22,1712.64,783.24,1713.55,782.07,1713.55z"/>
	<path class="st0" d="M700.67,1699.06c-0.47,0-0.94-0.15-1.34-0.45c-0.98-0.74-1.18-2.14-0.43-3.13c0.52-0.69,0.53-0.95-0.46-2.69
		c-0.34-0.6-0.68-1.2-0.93-1.82l-17.57-43.32c-17.96-44.28-35.91-88.55-53.79-132.86c-18.92-46.89-37.78-93.81-56.64-140.73
		l-48.39-120.35c-19.25-47.89-38.5-95.78-57.8-143.66c-5.27-13.08-10.62-26.13-15.96-39.19c-5.46-13.33-10.91-26.66-16.29-40.02
		c-0.06-0.15-0.57-0.64-2.06-0.96c-4.12-0.88-11.38,0.46-14.57,3.51c-0.89,0.85-2.3,0.83-3.15-0.06c-0.85-0.89-0.82-2.3,0.06-3.15
		c4.4-4.23,13.17-5.81,18.59-4.66c3.43,0.74,4.75,2.4,5.26,3.66c5.38,13.35,10.83,26.67,16.28,39.99
		c5.35,13.06,10.69,26.12,15.97,39.21c19.3,47.87,38.55,95.77,57.81,143.66l48.39,120.36c18.86,46.92,37.72,93.84,56.64,140.73
		c17.88,44.31,35.83,88.58,53.79,132.85l17.57,43.32c0.18,0.44,0.43,0.86,0.67,1.28c0.95,1.66,2.54,4.44,0.15,7.6
		C702.01,1698.75,701.34,1699.06,700.67,1699.06z"/>
	<path class="st0" d="M1152.24,1931.23c-13.18,0-26.25-0.56-39.17-1.69c-22.92-2-52.53-6.71-78.23-25.56
		c-4.68-3.43-26.73-26.31-28.88-32.4c-0.41-1.16,0.19-2.43,1.36-2.85c1.16-0.41,2.43,0.19,2.85,1.36
		c1.72,4.83,22.78,26.96,27.32,30.29c24.81,18.2,53.64,22.76,75.98,24.71c33.62,2.93,68.35,2,103.21-2.76
		c44.51-6.08,88.89-15.61,135.7-29.13c49.94-14.43,100.5-33.12,150.28-55.56c51.94-23.41,100.58-50.4,144.56-80.22
		c1.02-0.69,2.41-0.42,3.1,0.59c0.69,1.02,0.42,2.41-0.59,3.1c-44.2,29.96-93.06,57.08-145.23,80.6
		c-49.97,22.52-100.73,41.29-150.87,55.78c-47.01,13.59-91.61,23.16-136.33,29.27C1195.46,1929.74,1173.71,1931.23,1152.24,1931.23z
		"/>
	<path class="st0" d="M1848.05,1298.76c-0.88,0-1.71-0.52-2.07-1.39c-0.46-1.14,0.09-2.44,1.23-2.91
		c8.88-3.6,13.38-11.16,18.14-19.16c1.89-3.18,3.85-6.46,6.09-9.45c0.35-0.47,0.73-0.95,1.12-1.45c2.18-2.78,4.66-5.93,4.84-10.32
		c0.61-14.65,0.73-29.04-4.44-43.88c-19.43-55.82-38.86-112.68-57.65-167.67c-14.06-41.14-28.59-83.68-43.03-125.48
		c-18.16-52.6-36.77-106.03-54.76-157.71c-16.37-47-33.29-95.6-49.83-143.43c-0.27-0.78-0.6-1.57-0.93-2.37
		c-1.34-3.23-2.86-6.89-1.52-11.23c2.57-8.33-0.45-15.77-3.65-23.64c-0.68-1.66-1.35-3.32-1.97-4.98c-0.28-0.74-0.78-1.52-1.31-2.34
		c-1.32-2.03-2.96-4.56-1.94-8.02c4.6-15.63-1.48-28.82-7.91-42.78c-1.07-2.33-2.15-4.66-3.17-7c-0.49-1.13,0.02-2.44,1.15-2.94
		c1.14-0.49,2.45,0.03,2.94,1.15c1.01,2.31,2.07,4.62,3.13,6.92c6.49,14.09,13.21,28.67,8.14,45.9c-0.42,1.42,0.23,2.52,1.4,4.34
		c0.64,0.99,1.3,2.01,1.75,3.21c0.6,1.62,1.26,3.24,1.92,4.86c3.35,8.25,6.82,16.78,3.78,26.63c-0.86,2.8,0.23,5.42,1.38,8.2
		c0.37,0.88,0.73,1.76,1.03,2.63c16.54,47.83,33.46,96.43,49.82,143.42c17.99,51.68,36.6,105.11,54.76,157.72
		c14.43,41.8,28.97,84.35,43.03,125.49c18.79,54.98,38.22,111.84,57.64,167.65c5.42,15.59,5.31,30.43,4.68,45.54
		c-0.24,5.83-3.32,9.75-5.79,12.89c-0.37,0.47-0.73,0.92-1.06,1.37c-2.1,2.81-3.91,5.85-5.83,9.06
		c-4.93,8.28-10.03,16.84-20.3,21.01C1848.61,1298.7,1848.33,1298.76,1848.05,1298.76z"/>
	<path class="st0" d="M824.26,870.71c-6.64,0-13.61-1.31-20.15-6.05c-1.99-1.44-3.97-2.94-5.95-4.44
		c-3.91-2.96-7.96-6.03-11.96-8.51c-22.71-14.07-37.92-34.38-47.87-63.93c-5.39-16-11.83-31.97-18.05-47.42
		c-7.54-18.71-15.34-38.06-21.38-57.69c-6.73-21.86-5.74-38.65,20.97-49.5c14.58-5.92,25.54-10.72,35.54-15.56
		c48.72-23.57,98.81-46.32,147.24-68.33c19.79-8.99,39.58-17.98,59.33-27.04c62.84-28.84,128-58.39,193.65-87.82
		c39.9-17.88,82.79-37.63,135-62.17c8.49-3.99,15.36-2.76,21.62,3.88c4.07,4.32,8.47,9.53,10.29,15.49
		c4.01,13.18,8.98,26.31,13.8,39.01c7.87,20.76,16.01,42.24,20.28,64.79c5.05,26.69,8.24,50.76-3.9,75.07
		c-0.55,1.1-1.89,1.55-2.99,1c-1.1-0.55-1.55-1.89-1-2.99c11.52-23.07,8.4-46.37,3.51-72.25c-4.2-22.17-12.26-43.46-20.07-64.04
		c-4.84-12.77-9.84-25.97-13.89-39.29c-1.54-5.07-5.55-9.79-9.26-13.73c-4.94-5.24-9.71-6.09-16.48-2.91
		c-52.23,24.54-95.15,44.31-135.07,62.2c-65.65,29.42-130.79,58.97-193.62,87.8c-19.76,9.07-39.55,18.06-59.35,27.05
		c-48.41,21.99-98.47,44.73-147.14,68.28c-10.09,4.88-21.13,9.72-35.81,15.68c-23.75,9.65-24.73,23.46-18.39,44.05
		c5.98,19.45,13.75,38.71,21.25,57.33c6.25,15.51,12.71,31.54,18.14,47.66c9.6,28.51,24.22,48.07,46,61.56
		c4.18,2.59,8.31,5.72,12.3,8.75c1.95,1.48,3.91,2.96,5.87,4.38c8.81,6.39,18.25,5.68,29.68,4.1c1.04-0.14,2.09-0.28,3.13-0.42
		c6.96-0.91,13.53-1.76,19.47-5.06c1.08-0.6,2.44-0.21,3.03,0.87c0.6,1.08,0.21,2.43-0.87,3.03c-6.69,3.72-13.99,4.67-21.06,5.59
		c-1.03,0.13-2.06,0.27-3.09,0.41C833.08,870.11,828.75,870.71,824.26,870.71z"/>
	<path class="st0" d="M681.71,686.6c-1.06,0-2-0.76-2.19-1.83l-0.31-1.74c-0.67-3.77-1.42-8.04-2.55-11.34
		c-0.04-0.11-0.06-0.22-0.08-0.33c-1.43-8.07-1.5-16.18-0.21-26.27c2.07-16.27,6.74-32.5,26.65-41.09
		c43.76-18.87,88-38.66,130.78-57.81c17.39-7.78,34.78-15.56,52.18-23.3c16.55-7.36,33.1-14.71,49.66-22.05
		c29.78-13.22,60.58-26.88,90.82-40.41c17.09-7.65,34.42-15.56,51.18-23.2c34.3-15.65,69.77-31.84,105.14-46.68
		c12.65-5.31,25.16-11.57,37.26-17.63c19.44-9.73,39.54-19.79,60.94-26.28c1.2-0.36,2.36-0.81,3.59-1.29
		c2.81-1.09,5.71-2.22,9.24-2.34c13.7-0.44,21.09,8.61,27.45,17.95c9.69,14.22,14.98,30.45,20.09,46.14
		c2.16,6.63,4.4,13.49,6.93,20.06c2.45,6.38,4.74,12.94,6.96,19.29c10.64,30.5,20.69,59.3,49.99,78.12
		c12.23,7.86,23.47,10.04,36.45,7.05c14.25-3.27,28.69-6.88,42.65-10.37c33.68-8.41,68.5-17.11,103.64-21.89
		c2.2-0.3,4.41-0.62,6.61-0.94c13.29-1.93,27.03-3.93,40.92-1.33c6.22,1.16,13.31,3.74,12.97,13.41c-0.04,1.23-1.09,2.22-2.3,2.15
		c-1.23-0.04-2.2-1.07-2.15-2.31c0.18-5.23-2.26-7.55-9.33-8.87c-13.17-2.46-26.53-0.52-39.46,1.36c-2.22,0.32-4.43,0.64-6.65,0.95
		c-34.9,4.75-69.6,13.41-103.16,21.79c-13.98,3.49-28.44,7.1-42.73,10.38c-14.04,3.23-26.71,0.8-39.86-7.65
		c-30.59-19.65-41.37-50.54-51.79-80.41c-2.2-6.31-4.48-12.84-6.91-19.15c-2.57-6.68-4.82-13.59-7-20.28
		c-5.02-15.4-10.21-31.32-19.54-45.01c-6.13-8.99-12.16-16.4-23.62-16c-2.77,0.09-5.2,1.04-7.77,2.04c-1.25,0.49-2.55,0.99-3.91,1.4
		c-21.03,6.38-40.96,16.35-60.23,26c-12.16,6.09-24.74,12.38-37.53,17.75c-35.3,14.81-70.74,30.99-105.01,46.63
		c-16.76,7.65-34.1,15.56-51.21,23.22c-30.25,13.54-61.05,27.2-90.83,40.42c-16.55,7.34-33.11,14.69-49.65,22.05
		c-17.4,7.74-34.79,15.52-52.17,23.3c-42.8,19.15-87.05,38.95-130.84,57.83c-16.87,7.27-21.79,20.27-23.99,37.56
		c-1.22,9.56-1.17,17.2,0.15,24.76c1.2,3.59,1.98,7.97,2.66,11.84l0.31,1.73c0.22,1.21-0.59,2.37-1.8,2.59
		C681.98,686.59,681.84,686.6,681.71,686.6z"/>
	<path class="st0" d="M740.81,785.84c-0.87,0-1.7-0.51-2.06-1.36c-0.48-1.13,0.05-2.44,1.19-2.92c5.29-2.23,10.58-4.47,15.86-6.71
		c11.43-4.84,22.87-9.69,34.33-14.47c61.61-25.66,124.94-49.98,186.18-73.49l5.72-2.2c28.9-11.1,62.63-22.57,95.25-33.66
		c17.18-5.84,33.4-11.36,48.58-16.7c1.16-0.41,2.43,0.2,2.84,1.36c0.41,1.16-0.2,2.43-1.36,2.84
		c-15.21,5.35-31.44,10.87-48.63,16.72c-32.58,11.08-66.27,22.54-95.09,33.6l-5.72,2.2c-61.21,23.5-124.51,47.81-186.06,73.45
		c-11.45,4.77-22.88,9.61-34.3,14.45c-5.29,2.24-10.58,4.48-15.87,6.72C741.4,785.78,741.1,785.84,740.81,785.84z"/>
	<path class="st0" d="M802.78,870.07c-2.7,0-5.33-0.69-7.92-1.37l-1.12-0.29c-24.09-6.19-43.46-21.53-59.21-46.88
		c-11.29-18.17-18.58-38.36-25.63-57.88c-2.85-7.88-5.79-16.04-8.95-23.91c-1.61-4.03-3.28-8.04-4.94-12.05
		c-5.7-13.75-11.6-27.98-15.46-42.75c-0.31-1.19,0.4-2.41,1.59-2.72c1.2-0.31,2.41,0.4,2.72,1.59c3.78,14.48,9.62,28.56,15.26,42.17
		c1.67,4.03,3.34,8.06,4.96,12.1c3.19,7.95,6.14,16.14,9.01,24.06c6.97,19.31,14.18,39.27,25.23,57.04
		c15.12,24.33,33.61,39.02,56.53,44.91l1.14,0.3c4.47,1.17,8,2.1,11.66-0.16c1.05-0.65,2.42-0.32,3.07,0.72
		c0.65,1.05,0.33,2.42-0.72,3.07C807.54,869.54,805.13,870.07,802.78,870.07z"/>
	<path class="st0" d="M405.47,986.57c-6.62,0-12.74-0.76-18.69-2.33c-1.19-0.31-1.9-1.53-1.59-2.72c0.31-1.19,1.53-1.9,2.72-1.59
		c5.82,1.53,11.8,2.26,18.37,2.18c26.9-0.27,52.69-5.09,83.13-12.25c11.08-2.6,18.42-8.9,23.13-19.82
		c8.99-20.88,9.21-43.11,0.73-72.09c-5.97-20.38-14.27-40.35-22.3-59.66c-4.89-11.75-9.95-23.91-14.44-36.07
		c-1.13-3.05-2.29-6.08-3.46-9.11c-6.68-17.36-13.58-35.31-12.28-55.44c1.44-22.23,10.15-35.28,28.24-42.32
		c18.27-7.1,37.19-12.96,55.48-18.62l8.26-2.56c31.09-9.68,62.31-20.83,92.5-31.61c4.95-1.77,12.71-3.86,20.93-6.08
		c10.87-2.93,23.2-6.26,30.66-9.26c1.15-0.46,2.44,0.09,2.9,1.24c0.46,1.14-0.09,2.44-1.24,2.9c-7.71,3.1-20.17,6.46-31.16,9.42
		c-8.13,2.19-15.8,4.26-20.41,5.91c-30.41,10.86-61.68,22.03-92.85,31.73l-8.26,2.56c-18.22,5.64-37.06,11.47-55.18,18.52
		c-16.48,6.41-24.08,17.9-25.41,38.45c-1.24,19.15,5.19,35.86,12,53.55c1.17,3.05,2.34,6.1,3.48,9.16
		c4.46,12.08,9.5,24.19,14.37,35.9c8.08,19.42,16.43,39.51,22.47,60.12c5.46,18.65,11.3,46.73-0.91,75.11
		c-5.23,12.16-13.8,19.48-26.2,22.4c-26.6,6.25-55.19,12.08-84.11,12.37C406.03,986.57,405.75,986.57,405.47,986.57z"/>
	<path class="st0" d="M1648.45,1761.5c-0.62,0-1.24-0.26-1.68-0.77c-0.81-0.93-0.71-2.34,0.22-3.15c3.57-3.11,7.99-6.87,12.93-11.09
		c23.97-20.44,60.19-51.34,73.96-69.78c25.69-34.4,30.97-70.23,16.14-109.54c-2.9-7.69-5.64-15.56-8.29-23.18
		c-3.08-8.87-6.27-18.04-9.72-26.91c-3.57-9.21-6.82-18.69-9.97-27.87c-4.95-14.44-10.07-29.37-16.53-43.46
		c-0.51-1.12-0.02-2.44,1.1-2.96c1.12-0.51,2.44-0.02,2.96,1.1c6.56,14.29,11.71,29.33,16.69,43.87c3.13,9.13,6.36,18.57,9.91,27.7
		c3.47,8.94,6.67,18.15,9.77,27.05c2.64,7.59,5.37,15.44,8.25,23.08c15.41,40.85,9.93,78.07-16.74,113.79
		c-14.07,18.84-50.52,49.94-74.64,70.51c-4.93,4.21-9.33,7.96-12.9,11.06C1649.5,1761.32,1648.97,1761.5,1648.45,1761.5z"/>
	<path class="st0" d="M408.53,1031.15c-0.53,0-1.06-0.19-1.49-0.57c-9.89-8.88-14.25-20.68-18.46-32.1
		c-0.68-1.85-1.33-3.58-1.93-5.19c-8.85-23.68-8.53-24.81,11.33-40.29c1.49-1.16,3.09-2.41,4.81-3.77
		c29.57-23.28,63.32-40.65,95.96-57.44c4.9-2.52,9.8-5.04,14.68-7.58c1.1-0.57,2.44-0.14,3.01,0.95c0.57,1.09,0.14,2.44-0.95,3.01
		c-4.89,2.54-9.79,5.07-14.7,7.59c-32.45,16.7-66.01,33.97-95.24,56.98c-1.73,1.36-3.34,2.62-4.83,3.78
		c-9.18,7.15-13.78,10.74-14.91,14.75c-1.13,4.02,0.92,9.51,5.02,20.45c0.6,1.62,1.25,3.35,1.94,5.2
		c4.02,10.91,8.19,22.18,17.26,30.33c0.92,0.82,0.99,2.23,0.17,3.15C409.75,1030.9,409.14,1031.15,408.53,1031.15z"/>
	<path class="st0" d="M1540.3,1496.12c-0.02,0-0.04,0-0.07,0c-1.23-0.03-2.2-1.06-2.17-2.29c0.17-5.95-0.77-11.76-2.95-18.28
		c-2.11-6.31-4.52-12.64-6.86-18.76c-1.56-4.09-3.12-8.18-4.61-12.3c-2.36-6.53-243.93-669.76-251.73-685.86
		c-0.54-1.11-0.07-2.44,1.04-2.98c1.11-0.54,2.44-0.07,2.98,1.03c8.1,16.73,249.55,679.76,251.91,686.28
		c1.48,4.09,3.03,8.16,4.58,12.23c2.35,6.16,4.78,12.54,6.92,18.93c2.35,7.03,3.36,13.33,3.18,19.82
		C1542.49,1495.16,1541.5,1496.12,1540.3,1496.12z"/>
	<path class="st0" d="M1173.44,568.4c-1.05,0-1.99-0.75-2.19-1.82c-3.82-20.62-11.53-40.42-18.99-59.56
		c-3.43-8.81-6.98-17.92-10.12-27.02c-0.87-2.52-1.63-5.11-2.37-7.62c-2.23-7.6-4.33-14.78-9.3-20.74
		c-0.79-0.95-0.66-2.35,0.28-3.14c0.95-0.79,2.35-0.66,3.14,0.28c5.57,6.67,7.9,14.64,10.16,22.34c0.72,2.46,1.47,5.01,2.3,7.42
		c3.11,9.02,6.64,18.08,10.06,26.85c7.53,19.34,15.32,39.34,19.22,60.37c0.22,1.21-0.58,2.37-1.79,2.6
		C1173.72,568.39,1173.58,568.4,1173.44,568.4z"/>
	<path class="st0" d="M1811.25,1369c-0.61,0-1.22-0.25-1.66-0.74c-0.82-0.91-0.75-2.33,0.17-3.15
		c23.47-21.13,49.89-46.45,66.4-79.62c0.55-1.1,1.89-1.55,2.99-1c1.1,0.55,1.55,1.89,1,2.99c-16.86,33.87-43.63,59.54-67.41,80.95
		C1812.32,1368.81,1811.78,1369,1811.25,1369z"/>
	<path class="st0" d="M1126.62,638.65c-0.85,0-1.66-0.49-2.04-1.32c-0.5-1.12,0-2.44,1.12-2.95c17.65-7.91,28.96-17.86,35.61-31.34
		c3.85-7.81,5.35-16.23,6.93-25.14c0.58-3.28,1.18-6.67,1.91-9.98c0.26-1.2,1.45-1.96,2.66-1.7c1.2,0.26,1.97,1.45,1.7,2.66
		c-0.71,3.23-1.3,6.57-1.88,9.81c-1.57,8.83-3.19,17.95-7.32,26.34c-7.13,14.46-19.14,25.08-37.79,33.43
		C1127.23,638.59,1126.92,638.65,1126.62,638.65z"/>
	<path class="st0" d="M1878.16,1288.76c-0.11,0-0.22-0.01-0.34-0.03c-1.22-0.18-2.05-1.35-1.88-2.57c0.16-1.11,1.13-3.04,3.29-7.17
		c0.84-1.61,1.99-3.81,2.16-4.34c3.47-11.96-2.18-42.28-5.83-55.11c-0.34-1.18,0.35-2.42,1.54-2.75c1.17-0.34,2.42,0.35,2.76,1.54
		c3.89,13.67,9.59,44.6,5.82,57.58c-0.24,0.84-1.06,2.43-2.49,5.15c-0.99,1.9-2.65,5.07-2.84,5.82
		C1880.18,1287.99,1879.24,1288.76,1878.16,1288.76z"/>
	<path class="st0" d="M1143.19,1651.08c-1.68,0-3.45-0.37-5.33-1.34c-1.1-0.56-1.53-1.91-0.96-3c0.56-1.1,1.91-1.53,3-0.96
		c3.4,1.75,6.4,0.4,9.88-1.17c2.91-1.31,5.91-2.66,9.4-2.28c7.95,0.91,15.45-1.09,24.3-6.44c7.29-4.41,15.32-7.14,23.22-7.91
		c10.71-1.04,19.59-3.05,28.14-9.48c7.18-5.39,17.63-6.81,23.22-7.17c8.4-0.54,15.13-2.67,21.19-6.69c1.03-0.69,2.41-0.4,3.09,0.62
		s0.4,2.41-0.62,3.09c-6.73,4.47-14.16,6.83-23.37,7.43c-5.09,0.33-14.57,1.58-20.83,6.28c-9.93,7.46-20.47,9.38-30.39,10.35
		c-7.24,0.71-14.62,3.23-21.35,7.29c-9.76,5.9-18.11,8.08-27.11,7.06c-2.26-0.25-4.6,0.8-7.07,1.91
		C1149.05,1649.83,1146.27,1651.08,1143.19,1651.08z"/>
	<path class="st0" d="M1331.78,1589.78c-0.7,0-1.39-0.33-1.82-0.94c-0.71-1-0.48-2.4,0.52-3.11c2.63-1.87,5.5-3.04,8.28-4.17
		c1.47-0.59,2.85-1.16,4.19-1.81c5.08-2.49,10.56-3.52,15.86-4.52c7.16-1.34,13.92-2.61,19.48-7.24c0.95-0.79,2.35-0.66,3.14,0.29
		s0.66,2.35-0.29,3.14c-6.45,5.37-14.11,6.81-21.51,8.2c-5.24,0.98-10.19,1.91-14.72,4.14c-1.47,0.72-3,1.34-4.47,1.94
		c-2.66,1.08-5.17,2.1-7.38,3.67C1332.68,1589.65,1332.23,1589.78,1331.78,1589.78z"/>
	<path class="st0" d="M1054.14,847.16c-0.86,0-1.68-0.5-2.05-1.34c-0.49-1.13,0.03-2.44,1.16-2.93
		c10.81-4.69,22.01-8.84,32.84-12.86c12.39-4.6,25.2-9.35,37.41-14.9c2.3-1.04,5.54-0.9,7.24,1.88c0.64,1.05,0.31,2.42-0.74,3.07
		c-1.05,0.64-2.42,0.31-3.07-0.74c-0.41-0.67-1.47-0.21-1.59-0.15c-12.36,5.62-25.25,10.4-37.71,15.02
		c-10.78,4-21.92,8.13-32.62,12.77C1054.73,847.1,1054.43,847.16,1054.14,847.16z"/>
	<path class="st0" d="M1181.25,798.1c-0.81,0-1.58-0.44-1.98-1.2c-0.57-1.09-0.14-2.44,0.95-3.01c6.59-3.42,13.56-6.06,20.31-8.61
		c5.84-2.21,11.88-4.49,17.54-7.25c2.71-1.32,4.87-0.7,6.44-0.25c0.9,0.26,1.47,0.41,1.99,0.3c1.2-0.27,2.39,0.51,2.65,1.71
		c0.26,1.2-0.51,2.39-1.71,2.65c-1.62,0.34-3.02-0.05-4.15-0.38c-1.4-0.4-2.13-0.57-3.25-0.03c-5.85,2.85-11.98,5.17-17.92,7.41
		c-6.63,2.51-13.48,5.1-19.83,8.4C1181.95,798.02,1181.6,798.1,1181.25,798.1z"/>
	<path class="st0" d="M1382.52,1568.6c-0.85,0-1.67-0.49-2.04-1.32c-0.5-1.12,0-2.44,1.13-2.95c1.86-0.83,3.92-1.92,5.91-2.98
		c5.42-2.87,10.53-5.57,14.64-5.16c7.46,0.77,12.91-2.11,18.69-5.17c2.27-1.2,4.61-2.43,7.09-3.45c1.14-0.46,2.44,0.08,2.91,1.22
		c0.47,1.14-0.08,2.44-1.22,2.91c-2.28,0.93-4.43,2.07-6.7,3.27c-6.11,3.23-12.43,6.57-21.23,5.66c-2.71-0.31-7.72,2.34-12.1,4.66
		c-2.06,1.09-4.18,2.22-6.18,3.11C1383.13,1568.53,1382.82,1568.6,1382.52,1568.6z"/>
	<path class="st0" d="M1284.95,1605.39c-1.16,0-2.14-0.9-2.22-2.08c-0.08-1.23,0.84-2.3,2.07-2.38c3.37-0.23,6.47-1.65,9.76-3.15
		c3.89-1.78,7.91-3.62,12.7-3.62c7,0,13.88-2.4,21.03-7.34c1.01-0.7,2.4-0.44,3.1,0.57c0.7,1.01,0.44,2.4-0.57,3.1
		c-7.93,5.47-15.63,8.13-23.57,8.13c-3.82,0-7.23,1.56-10.85,3.21c-3.5,1.6-7.12,3.25-11.3,3.54
		C1285.05,1605.39,1285,1605.39,1284.95,1605.39z"/>
	<path class="st0" d="M916.99,1703.52c-0.74,0-1.46-0.37-1.88-1.03c-0.66-1.04-0.35-2.42,0.69-3.08c6.71-4.25,13.91-3.86,20.88-3.48
		c6.14,0.33,11.94,0.65,17.17-2.17c1.08-0.59,2.44-0.18,3.02,0.9c0.58,1.08,0.18,2.44-0.9,3.02c-6.33,3.41-13.04,3.05-19.53,2.7
		c-6.56-0.36-12.74-0.69-18.24,2.8C917.81,1703.4,917.4,1703.52,916.99,1703.52z"/>
	<path class="st0" d="M1044.1,1678.98c-1.02,0-1.94-0.7-2.17-1.73c-0.28-1.2,0.47-2.4,1.68-2.67c1.27-0.29,2.48-0.98,3.77-1.71
		c1.14-0.64,2.31-1.31,3.68-1.81c5.31-1.95,10.83-2.23,16.17-2.49c6.49-0.33,12.62-0.63,18.15-3.79c1.07-0.61,2.43-0.24,3.04,0.83
		c0.61,1.07,0.24,2.43-0.83,3.04c-6.45,3.68-13.41,4.03-20.14,4.37c-5.24,0.26-10.18,0.51-14.86,2.23c-1.02,0.37-1.99,0.92-3.01,1.5
		c-1.51,0.86-3.07,1.74-4.97,2.18C1044.43,1678.97,1044.27,1678.98,1044.1,1678.98z"/>
	<path class="st0" d="M615.08,990.54c-0.51,0-1.01-0.17-1.43-0.52c-0.94-0.79-1.07-2.2-0.28-3.14c1.01-1.2,3.89-2.5,33.53-9.34
		c2.19-0.51,3.71-0.86,4.13-0.97c25.54-6.82,51.22-14.8,76.04-22.52c16.34-5.08,33.24-10.33,49.95-15.21
		c10.19-2.97,29.17-9.64,35.41-11.83c1.16-0.41,2.43,0.2,2.84,1.37c0.41,1.16-0.2,2.43-1.37,2.84c-6.27,2.2-25.34,8.9-35.64,11.9
		c-16.68,4.87-33.56,10.11-49.88,15.19c-24.87,7.73-50.59,15.73-76.22,22.57c-0.43,0.11-2,0.48-4.28,1
		c-19.01,4.39-29.55,7.11-31.35,8.1C616.13,990.35,615.61,990.54,615.08,990.54z M616.78,989.75
		C616.78,989.75,616.78,989.75,616.78,989.75C616.78,989.75,616.78,989.75,616.78,989.75z"/>
	<path class="st0" d="M1686.73,1423.75c-0.36,0-0.69-0.04-0.98-0.07c-0.17-0.02-0.34-0.04-0.5-0.04c-1.23,0-2.23-1-2.23-2.23
		s1-2.23,2.23-2.23c0.31,0,0.64,0.03,0.98,0.07c0.14,0.01,0.27,0.04,0.4,0.04c11.29-6,21.89-13.57,32.15-20.89
		c8.41-6,17.1-12.2,26.21-17.59c3.33-1.97,6.5-4.3,9.85-6.78c5.13-3.78,10.44-7.69,16.53-10.33c1.33-0.58,2.28-1.59,3.38-2.77
		c0.85-0.91,1.73-1.86,2.87-2.67c1-0.71,2.4-0.48,3.11,0.52c0.71,1,0.48,2.4-0.52,3.11c-0.77,0.55-1.46,1.29-2.19,2.08
		c-1.25,1.35-2.68,2.87-4.87,3.82c-5.63,2.44-10.73,6.2-15.66,9.83c-3.3,2.43-6.71,4.94-10.23,7.03
		c-8.95,5.29-17.56,11.44-25.89,17.38c-10.44,7.45-21.24,15.15-32.86,21.31C1687.9,1423.66,1687.28,1423.75,1686.73,1423.75z"/>
	<path class="st0" d="M1397.57,706.67c-0.8,0-1.58-0.43-1.98-1.19c-0.57-1.09-0.15-2.44,0.94-3.01
		c11.81-6.2,24.14-11.73,36.07-17.08c14.02-6.28,28.52-12.78,42.17-20.38c1.09-0.61,2.19-1.26,3.31-1.93
		c5.71-3.4,12.19-7.23,20.03-6.58c1.23,0.1,2.14,1.18,2.03,2.41c-0.1,1.23-1.16,2.14-2.41,2.03c-6.39-0.55-11.98,2.76-17.37,5.97
		c-1.16,0.69-2.3,1.37-3.42,1.99c-13.82,7.7-28.41,14.23-42.52,20.56c-11.87,5.32-24.14,10.82-35.82,16.95
		C1398.28,706.59,1397.92,706.67,1397.57,706.67z"/>
	<path class="st0" d="M960.33,1696.85c-1.07,0-2.13-0.01-3.19-0.03c-1.23-0.02-2.24-1.03-2.22-2.26c0.02-1.23,1.07-2.2,2.24-2.2
		c6.8,0.08,13.2,0.16,18.95-3.06c1.08-0.6,2.43-0.22,3.04,0.86c0.6,1.07,0.22,2.43-0.86,3.03
		C972.51,1696.43,966.37,1696.85,960.33,1696.85z"/>
	<path class="st0" d="M727.05,1708.61c-3.25,0-6.21-1.12-8.92-2.15c-2.24-0.85-4.36-1.65-6.49-1.83c-1.23-0.1-2.14-1.18-2.04-2.4
		c0.1-1.23,1.17-2.14,2.4-2.04c2.76,0.23,5.28,1.18,7.71,2.11c3.65,1.39,6.8,2.58,10.33,1.36c1.16-0.41,2.43,0.21,2.84,1.37
		c0.4,1.17-0.21,2.43-1.38,2.84C729.96,1708.39,728.48,1708.61,727.05,1708.61z"/>
	<path class="st0" d="M1636.19,524.92c-0.53,0-1.06-0.19-1.48-0.56c-0.92-0.82-1-2.23-0.19-3.15l8.92-10.04
		c0.82-0.92,2.23-1.01,3.15-0.19c0.92,0.82,1,2.23,0.19,3.15l-8.92,10.04C1637.42,524.66,1636.8,524.92,1636.19,524.92z"/>
	<path class="st0" d="M1647.34,1439.25c-0.95,0-1.83-0.61-2.13-1.56c-0.37-1.18,0.29-2.43,1.46-2.79l0.73-0.23
		c2.48-0.76,4.62-1.42,5.88-3.33c0.68-1.03,2.06-1.32,3.09-0.64c1.03,0.68,1.32,2.06,0.64,3.09c-2.13,3.25-5.41,4.26-8.3,5.15
		l-0.71,0.22C1647.78,1439.22,1647.56,1439.25,1647.34,1439.25z"/>
	<path class="st0" d="M960.47,1695.71c-0.25,0-0.51-0.04-0.76-0.13c-1.16-0.42-1.76-1.7-1.33-2.86c2.34-6.44,7.73-7.12,12.06-7.67
		c1-0.13,2-0.25,2.97-0.45c1.2-0.25,2.38,0.53,2.63,1.74s-0.53,2.38-1.74,2.63c-1.07,0.22-2.19,0.36-3.3,0.5
		c-4.48,0.57-7.09,1.07-8.43,4.76C962.24,1695.15,961.39,1695.71,960.47,1695.71z"/>
	<path class="st0" d="M1684.14,1419.18c-0.76,0-1.5-0.39-1.92-1.09c-0.63-1.06-0.28-2.43,0.78-3.06c0.9-0.53,1.78-1.27,2.72-2.05
		c2.95-2.46,6.99-5.82,12.91-2.42c1.07,0.61,1.44,1.97,0.83,3.04c-0.61,1.07-1.98,1.44-3.04,0.83c-3.09-1.77-4.73-0.6-7.83,1.98
		c-1.03,0.86-2.1,1.75-3.3,2.46C1684.92,1419.08,1684.53,1419.18,1684.14,1419.18z"/>
	<path class="st0" d="M859,864.43c-0.93,0-1.8-0.58-2.11-1.51c-0.4-1.17,0.23-2.43,1.39-2.83c77.89-26.48,177.92-62.88,267.58-97.36
		c70.6-27.15,144.22-57.36,231.71-95.09c55.78-24.06,106.45-47.72,154.88-72.36c33.69-17.13,83.03-43.48,122.36-74.34
		c0.97-0.76,2.37-0.59,3.13,0.38c0.76,0.97,0.59,2.37-0.38,3.13c-39.63,31.1-89.23,57.59-123.09,74.81
		c-48.52,24.67-99.26,48.38-155.13,72.48c-87.54,37.75-161.22,67.98-231.87,95.16c-89.72,34.5-189.81,70.92-267.75,97.42
		C859.49,864.39,859.24,864.43,859,864.43z"/>
</g>
</svg>
