<?xml version="1.0" encoding="utf-8"?>
<!-- Generator: Adobe Illustrator 24.1.2, SVG Export Plug-In . SVG Version: 6.00 Build 0)  -->
<svg version="1.1" id="Layer_1" xmlns="http://www.w3.org/2000/svg" xmlns:xlink="http://www.w3.org/1999/xlink" x="0px" y="0px"
	 viewBox="0 0 2269 2269" style="enable-background:new 0 0 2269 2269;" xml:space="preserve">
<g>
	<path d="M1776.94,2026.66c-10.93,2.51-1269.51,2.43-1279.22,0.08c-0.21-4.5-0.63-9.37-0.63-14.24
		c-0.03-165.64-0.03-331.29-0.03-496.93c0-426.93,0-853.85,0.02-1280.78c0-5.24,0.34-10.47,0.5-15.36
		c8.43-2.31,1265.59-2.86,1278.07-0.68c0.38,2.22,1.05,4.71,1.2,7.23c0.22,3.65,0.08,7.33,0.08,11c0,286.63,0,573.26,0,859.88
		c0,103.64,0,207.29,0,310.93c0,80.64,0,161.29,0,241.93c0,120.97,0,241.93,0,362.9
		C1776.94,2017.21,1776.94,2021.82,1776.94,2026.66z M503.36,223c-2.32,12.72-1.78,682.25,0.5,690.12c2.13-0.3,4.38-0.46,6.56-0.95
		c13.96-3.15,27.85-6.62,41.85-9.53c40.21-8.35,80.69-13.98,121.93-11.15c19.07,1.31,37.61,4.81,55.05,13.07
		c20.68,9.8,34.88,25.18,41.36,47.39c1.28,4.39,3.03,8.65,4.68,13.31c3.91,0,7.22,0.2,10.48-0.03c19.92-1.45,39.82-3.27,59.76-4.44
		c30.73-1.81,61.27-0.2,91.32,6.92c17.37,4.12,33.85,10.6,47.23,22.74c7.07,6.41,12.85,14.24,19.87,22.17
		c16.49,0.03,34.17,0.76,51.14,6.01c11.3,3.5,22.21,4.35,34.18,3.41c34.64-2.7,68.43,2.34,100.48,16.6
		c3.27,1.46,6.65,2.67,9.91,3.97c1.08-1.42,1.82-2.13,2.23-2.99c1.15-2.4,2.22-4.84,3.21-7.31c14.76-36.71,20.39-75.04,20.24-114.39
		c-0.04-9.33-0.39-18.67-0.01-27.99c0.91-22.23,8.04-42.5,20.9-60.56c13.88-19.49,33.2-29.22,57.08-29.88
		c23.58-0.65,45.63,5.98,66.34,16.2c31.9,15.75,65.74,21.13,100.7,21.43c40.08,0.34,79.58-6.44,119.3-10.52
		c21.5-2.21,43.09-4.29,64.67-4.73c10.02-0.21,20.4,2.77,30.13,5.85c11.22,3.55,18.01,12.14,20.74,23.73
		c2.33,9.91,2.9,20.1-0.05,29.68c-6.73,21.94-13.57,43.91-21.94,65.26c-15.24,38.84-36.02,75.05-55.42,111.89
		c-1.82,3.45-3.53,6.95-5.58,11c3.72,2.49,6.63,4.64,9.72,6.49c16.12,9.64,33.47,16.51,51.43,21.66
		c27.19,7.8,54.55,14.98,81.86,22.36c1.77,0.48,3.7,0.38,5.33,0.53c0.55-1.2,0.99-1.78,1.07-2.4c0.21-1.65,0.38-3.31,0.38-4.97
		c-0.01-294.62-0.03-589.24-0.08-883.86c0-1.31-0.39-2.62-0.64-3.92c-0.06-0.32-0.21-0.64-0.39-0.9c-0.19-0.27-0.47-0.46-1.36-1.29
		C1348.06,223,925.96,223,503.36,223z M502.72,2022.52c15.03,2.04,1260.54,1.38,1267.83-0.48c2.27-9.56,2.02-308.31-0.47-316.94
		c-11.05-2.15-22.47-4.23-33.83-6.6c-55.21-11.52-109.31-26.64-160.91-49.83c-21.05-9.46-40.87-21.03-59.77-34.21
		c-13.56-9.45-25.06-20.9-32.67-35.84c-6.25-12.28-7.27-24.75-1.6-37.56c2.16-4.87,4.21-9.8,6.06-14.79
		c0.99-2.67,1.43-5.55,2.43-9.58c-13.04-0.04-24.84-1.34-37.92,0.05c3.5,8.64,6.56,15.62,9.17,22.78
		c5.58,15.31,11.59,30.52,16.17,46.13c4.83,16.46,2.34,32.62-7.43,46.84c-5.81,8.45-12.52,16.46-19.79,23.69
		c-14.41,14.33-29.84,27.64-44.2,42.01c-15.87,15.89-35,25.18-56.47,30.27c-29.49,7-58.95,4.47-88.23-1.15
		c-45.54-8.73-88.23-25.67-128.81-47.63c-24.58-13.3-48.05-28.65-72.09-42.98c-2.86-1.71-5.4-4.76-10.12-4.02
		c2.06,7.71,3.6,14.84,5.87,21.74c4.18,12.7,2.78,24.84-2.02,37.07c-8.03,20.5-20.57,37.93-35.17,54.18
		c-27.13,30.19-58.28,54.95-96.55,69.24c-57.33,21.4-111.46,15.81-159.96-23.21c-17.6-14.16-34.78-29.31-49.79-46.12
		c-37.3-41.8-72.61-85.26-100.67-134.09c-4.65-8.08-9.37-16.21-14.95-23.64c-3.69-4.91-8.8-8.84-13.61-12.8
		c-5.39-4.43-11.56-7.96-16.69-12.65c-19.16-17.55-38.03-35.41-57.03-53.14c-1.84-1.72-3.82-3.28-6.78-5.81
		C502.72,1677.28,502.72,1849.66,502.72,2022.52z M890.43,1818.33c3.86-0.6,7.62-0.57,10.89-1.81c13.97-5.3,28.27-10.04,41.59-16.71
		c35.59-17.82,63.39-44.98,87.51-76.13c8.83-11.41,15.74-24.04,19.97-37.83c1.91-6.24,3.78-13.32,2.69-19.5
		c-2.48-14.03-5.59-28.19-10.65-41.46c-7.38-19.36-13.75-38.94-18.15-59.14c-8.89-40.78-7.13-80.74,10.08-119.39
		c10.28-23.09,24.91-43.25,41.32-62.23c15.15-17.53,25.34-37.33,28.21-60.58c0.32-2.62,1.14-5.2,1.97-7.72
		c4.54-13.78,5.15-27.46-1.26-40.83c-3.6-7.5-7.3-14.98-11.43-22.2c-17.69-30.95-35.66-61.74-53.34-92.7
		c-20.06-35.14-34.22-71.87-34.92-113.31c-0.58-34.54-19.88-56.85-51.67-68.81c-5.6-2.1-11.33-3.95-17.13-5.39
		c-38.7-9.62-78.04-8.44-117.26-5.46c-39.14,2.98-78.14,7.73-117.24,11.32c-33.6,3.09-52.91,20.11-59.49,53.21
		c-3.03,15.23-3.14,30.69-0.69,45.77c3.84,23.63,8.81,47.11,14.31,70.42c5.74,24.3,12.56,48.35,19.14,72.45
		c3.68,13.47,1.61,26.01-6.42,37.07c-5.63,7.76-12.04,15.2-19.2,21.54c-7.93,7.03-16.85,13.05-25.81,18.8
		c-21.12,13.55-43.97,23.67-67.32,32.66c-12.8,4.93-20.89,14.06-24.6,26.99c-1.64,5.72-2.72,11.7-3.16,17.63
		c-1.55,20.51,0.93,40.76,7.24,60.19c8.94,27.53,19.07,54.67,28.78,81.94c0.65,1.82,2.14,3.32,3.14,5.03
		c9.54,16.38,19.1,32.76,24.02,49.78c5.85,8.48,11.13,15.74,15.99,23.28c7.21,11.21,14.08,22.64,21.18,33.91
		c1.33,2.11,3.12,3.94,5.19,6.5c3.68-3.59,6.82-6.51,9.79-9.59c14.73-15.28,31.74-27.47,50.75-36.77
		c11.65-5.7,23.56-10.93,35.55-15.89c27.7-11.45,55.55-22.52,83.26-33.95c6.66-2.75,13-6.27,19.1-9.25
		c-1.64-12.66-3.77-14.78-14.9-15.9c-15.51-1.56-20.31-6.41-21.73-21.88c-0.12-1.31-0.39-2.61-0.89-5.88
		c-2.55-1.86-6.33-4.61-9.14-6.66c0-5.26,0-8.85,0-11.29c-5.05-4.8-10.32-8.25-13.4-13.1c-4.01-6.3,2.63-10.67,5.71-15.1
		c-1.05-1.45-1.66-2.23-2.2-3.05c-6.97-10.65-4.35-18.14,7.7-22.09c3.11-1.02,6.23-2.03,8.92-2.91
		c4.23-12.82,8.04-15.46,20.67-14.48c4.87,0.38,9.71,1.12,15.31,1.78c0-3.25-0.13-5.5,0.02-7.73c0.59-8.39,5.09-12.07,13.32-10.49
		c8.69,1.66,14.14,7.16,16.34,15.65c2.26,8.7,4.13,17.51,6.36,26.22c1.06,4.17,1.66,8.84,3.99,12.24
		c7.5,10.97,10.81,23.5,14.79,35.83c0.73,2.26,1.88,4.39,3.17,7.33c1.25-1.92,2-2.68,2.28-3.58c9.56-30.24,13.08-61.18,10.18-92.76
		c-3-32.6-10.4-64.43-18.17-96.13c-1.96-8-5.43-15.7-8.85-23.25c-4.2-9.3-6.28-18.95-6.19-29.05c0.06-6.59,1.53-12.63,8.84-15.25
		c7.67-2.75,15.97-0.97,20.92,5.13c2.28,2.82,4.03,6.11,5.76,9.33c19.74,36.68,32.17,75.96,41.38,116.39
		c5.22,22.9,7.82,46.07,5.29,69.46c-4.23,39.18-12.29,77.55-24.57,115.09c-8.28,25.3-17.19,50.64-22.44,76.65
		c-8.75,43.38-14.4,87.38-22.11,130.99C873.97,1768.52,881.72,1792.95,890.43,1818.33z M1461.4,1510.74
		c5.33,0.33,8.51,0.66,11.69,0.71c30.17,0.48,59.63-4.64,88.89-11.36c26.72-6.14,52.39-14.71,76.51-28.25
		c16.57-9.3,30.45-21.4,43.25-35.01c2.6-2.76,4.37-6.75,5.36-10.48c5.43-20.5,5.74-41.08-2.97-60.7
		c-8.09-18.22-16.77-36.27-26.5-53.67c-13.82-24.71-29.3-48.49-43.15-73.18c-7.63-13.6-14.15-27.95-19.79-42.49
		c-8.12-20.93-9.75-42.75-5-64.86c3.25-15.12,9.56-29.09,16.64-42.71c14.44-27.79,29.15-55.44,43.63-83.2
		c19.29-36.98,36.44-74.86,48-115.09c2.88-10.03,4.4-20.15,3.6-30.59c-1.1-14.42-7.95-24.73-22.07-28.88
		c-7.6-2.23-15.61-4.19-23.44-4.23c-14.95-0.09-29.96,0.68-44.85,2.15c-38.74,3.82-77.35,9.07-116.14,12.16
		c-43.33,3.45-85.8-0.61-125.68-20.25c-15.28-7.53-31.43-12.89-48.38-15.36c-33.62-4.89-60.16,6.02-76.55,36.03
		c-2.23,4.08-4.25,8.31-6.07,12.59c-7.08,16.58-9.03,34.01-8.32,51.86c1.95,49-5.78,96.14-25.57,141.31
		c-10.84,24.75-24.95,47.03-43.97,66.17c-6.58,6.62-13.61,12.8-19.91,19.66c-18.86,20.57-20.86,40.37-5.29,63.4
		c7.41,10.96,16.42,20.97,25.53,30.64c19.43,20.61,39.78,40.35,59.03,61.11c23.87,25.74,41.83,55.18,51.72,89.12
		c2.7,9.26,4.62,18.75,6.92,28.13c8.59,35.03,30.32,59.74,59.36,77.6c8.06-7.05,15.27-13.36,21.29-18.62
		c0.42-15.36-4.19-54.95-7.12-62c-3.82-0.57-8.03-1.32-12.28-1.82c-16.14-1.89-30.01-8.34-41.3-20.17
		c-10.6-11.11-14.02-24.22-9.41-38.71c2.6-8.16,6.96-15.78,10.69-23.56c1.84-3.84,4.08-7.49,6.47-11.81
		c-2.73-2.77-4.91-5.17-7.29-7.36c-3.19-2.92-6.74-5.48-9.79-8.54c-15.12-15.15-17.25-35.26-4.62-52.55
		c6.63-9.08,14.58-17.28,22.53-25.28c7-7.05,14.84-13.28,21.88-19.49c0-2.28,0.1-3.6-0.01-4.91c-1.79-21.22-4.6-42.41-5.16-63.66
		c-0.75-27.96,0.09-55.98,0.58-83.96c0.29-16.47-1.76-20.4,17.63-29.95c1.39-3,2.92-6.29,4.45-9.56c6-4.1,11.1-10.29,19.44-6.67
		c7.6,11.58,6.27,20.91-4.01,28.9c-2.1,1.63-4.32,3.13-6.57,4.55c-4.26,2.7-6.33,6.49-6.8,11.53c-3.75,39.99-2.83,79.87,2.65,119.64
		c0.43,3.13,1.57,6.17,2.76,10.72c7.26-6.36,11.33-13.09,15.47-19.81c5.77-9.34,11.31-18.85,17.63-27.81
		c12.85-18.23,31.59-21.19,51.68-17.53c18.7,3.4,27.88,16.6,31.53,34.5c2.59,12.72,5.52,25.37,8.62,37.97
		c1.33,5.42,3.52,10.63,9.48,14.55c2.78-4.54,5.59-8.57,7.85-12.89c11.32-21.66,20.07-44.42,25.21-68.25
		c4.97-23.07,8.4-46.48,12.16-69.8c1.54-9.54,3.58-12.37,12.91-15.31c3.8-1.19,7.38-3.05,11.15-4.32c4.08-1.37,8.2-3.02,12.42-3.48
		c11.95-1.3,17.57,5.31,15.4,18.19c-9.03,8.99-22.34,10.23-33.47,15.59c-0.53,2.46-1.09,4.36-1.34,6.31
		c-4.05,31.7-8.01,63.41-12.1,95.11c-2.74,21.26-7.01,42.08-18.83,60.55c-0.85,1.32-1.04,3.06-1.71,5.14
		c14.54,13.49,30.77,23.27,50.39,26.89c4.58,0.85,9.21,1.57,13.67,2.86c12.82,3.71,21.67,11.87,24.9,24.92
		c4.85,19.58-0.66,36.44-15.99,49.37c-5.45,4.6-12.51,7.43-19.1,10.53c-6.62,3.11-13.69,5.25-20.32,8.34
		c-10.25,4.78-12.54,10.29-9.25,20.95c1.08,3.5,2.51,6.88,3.67,10.36c8.51,25.38-0.08,51.15-22.84,65.4
		c-8.94,5.6-19.12,9.24-28.79,13.67c-2.96,1.36-6.09,2.35-9.4,3.61C1483.34,1476.02,1472.74,1492.62,1461.4,1510.74z
		 M1480.48,1451.25c4.62-1.54,8.17-2.42,11.47-3.88c9.41-4.17,19.26-7.71,27.96-13.07c21.18-13.04,29.09-36.4,21.33-59.97
		c-1.46-4.43-3.27-8.75-4.47-13.24c-2.64-9.93,0.73-17.68,9.69-22.71c2.61-1.46,5.38-2.66,8.16-3.76c6.5-2.57,13.12-4.85,19.57-7.54
		c19.53-8.15,30.2-24.39,29.38-44.43c-0.62-15.19-9.72-26.43-24.56-30.07c-6.14-1.51-12.4-2.5-18.53-4.06
		c-19.24-4.88-34.92-15.65-49.46-29.55c1.77-3.43,3.23-6.37,4.8-9.25c6.39-11.72,11.87-23.6,14.27-37.06
		c6.78-38.06,12.26-76.26,15.55-114.79c0.32-3.79,1.79-7.49,2.56-10.58c11.9-5.38,24.64-5.99,34.08-16.1
		c-1.78-3.02-3.48-5.92-4.68-7.95c-7.62-1.97-13.15,0.26-18.75,2.58c-5.5,2.28-11.13,4.26-17.75,6.77c-0.78,2.85-1.98,6.22-2.59,9.7
		c-4.2,23.58-7.36,47.39-12.64,70.72c-5.97,26.38-15.64,51.63-29.3,75.15c-2.23,3.85-5.26,7.23-8.18,11.16
		c-2.39-1.75-4.16-2.41-4.89-3.67c-3.45-6.01-7.72-11.86-9.66-18.37c-3.6-12.09-5.9-24.58-8.54-36.95
		c-2.37-11.13-6.59-20.96-16.98-27.02c-16.32-9.52-41.78-6.02-54.14,8.21c-5.85,6.74-10.56,14.5-15.49,22
		c-4.2,6.4-7.59,13.35-12.04,19.55c-3.96,5.52-7.82,11.45-15.64,15.56c-1.75-6.72-4.07-12.6-4.73-18.66
		c-1.97-18.2-4.26-36.45-4.63-54.72c-0.42-20.94,1.27-41.92,1.65-62.89c0.16-8.79,3.1-15.41,10.99-19.78
		c2.87-1.59,5.57-3.76,7.79-6.18c4.91-5.34,4.67-11.03-0.5-17.91c-5.82,0.9-10.58,3.71-12.66,9.5c-1.86,5.16-5.04,8.58-10.11,10.22
		c-6.35,2.05-8.79,6.67-9,12.9c-0.26,7.66-0.58,15.32-0.74,22.98c-0.88,41.64-2.35,83.29,3.38,124.75
		c0.72,5.21,1.37,10.43,2.07,15.85c-8.61,7.67-17.15,14.62-24.9,22.36c-7.51,7.5-14.89,15.31-21.12,23.87
		c-11.02,15.15-9.02,32.97,4.28,46.23c3.06,3.05,6.56,5.64,9.85,8.46c9.18,7.87,9.49,10.46,3.65,21.3
		c-4.25,7.9-8.78,15.77-11.87,24.14c-5.23,14.16-1.89,26.88,8.97,37.47c10.4,10.14,22.86,15.86,37.32,17.26
		c5.51,0.53,11.02,1.19,15.96,1.73c0.89,2.17,1.51,3.06,1.61,4c2.11,19.19,4.16,38.38,6.24,57.57c0.56,5.21-2.26,8.76-5.63,12.21
		c-4.31,4.41-8.42,9.02-13.53,14.53c35.74,17.74,71.94,24.94,109.5,25.26C1467.57,1492.26,1479.07,1474.36,1480.48,1451.25z
		 M525.27,1415.84c-0.14-2.47-0.29-4.77-0.4-7.07c-0.54-11.29-1.89-22.61-1.43-33.86c1.03-24.78,11.48-42.8,36.52-51.55
		c25.51-8.92,49.72-21.11,71.7-37c9.64-6.97,18.6-15.14,26.79-23.79c12.36-13.05,15.7-28.34,10.54-46.18
		c-8.78-30.38-16.71-61.01-24.34-91.7c-6.61-26.57-11.24-53.56-9.12-81.09c3.48-45.25,27.21-67.09,68.18-70.22
		c19.57-1.49,39.08-3.87,58.6-5.99c2.11-0.23,4.12-1.44,6.32-2.25c-4.46-25.22-16.57-44.17-39.48-54.97
		c-8.37-3.95-17.24-7.19-26.22-9.43c-27.19-6.79-54.95-5.82-82.5-3.63c-36.23,2.88-71.73,10.47-106.91,19.47
		c-3.74,0.96-7.31,2.6-10.46,3.74c-2.08,14.56-1.44,503.98,0.74,511.92C510.82,1426.87,517.61,1421.69,525.27,1415.84z
		 M800.32,1485.72c0.28,1.81,0.54,2.78,0.57,3.77c0.45,15.63,3.17,18.59,18.44,19.99c12.94,1.18,18.16,7.61,18.15,23.63
		c-7.5,3.63-15.36,7.93-23.59,11.33c-28,11.58-56.28,22.51-84.17,34.34c-15.6,6.62-30.97,13.96-45.87,22.04
		c-18.31,9.93-33.35,24.07-46.82,39.64c5.56,11.85,15.76,25.77,22.95,30.98c18.4-19.68,38.77-37.19,63.56-48.89
		c22.52-10.63,66.65-23.79,77.83-22.47c0.25,2.99,1.07,6.26,0.71,9.39c-6.67,58.92-19.48,116.17-46.74,169.08
		c27.7,32.4,102.43,55.17,128.89,39.17c-3.07-11.03-6.29-22.19-9.26-33.43c-2.65-10.05-3.86-20.14-2.25-30.64
		c4.53-29.62,8.57-59.31,12.93-88.95c5.68-38.62,13.48-76.74,26.59-113.64c11.73-33.02,20.59-66.77,26.48-101.37
		c5.25-30.83,7.06-61.51,0.44-92.33c-6.38-29.69-14.37-58.93-26.09-86.97c-5.64-13.5-12.17-26.66-19-39.61
		c-4.89-9.27-10.57-10.36-21.4-5.27c-4.77,11.68-0.92,22.97,3.28,34.23c3.36,9.02,7.76,17.78,9.99,27.07
		c7.24,30.1,14.26,60.26,17.41,91.19c3.47,34,0.22,67.17-10.39,99.61c-1.74,5.33-4.27,10.41-7.21,17.47
		c-3.17-9.81-5.37-17.39-8.07-24.8c-3.4-9.35-7.18-18.57-10.84-27.83c-2.42-6.13-5.39-12.08-7.26-18.37
		c-2.56-8.61-4.01-17.54-6.48-26.17c-2.7-9.42-8.71-12.53-17.88-10.01c-3.95,6.46,0.97,12.34,2.1,18.34
		c-9.66-1.28-18.46-2.62-27.31-3.55c-4.91-0.52-9.4,0.5-11.18,6.63c0.41,0.89,0.94,2.07,1.51,3.24c0.52,1.08,1.08,2.14,1.64,3.25
		c-9,3.88-21.2,0.16-25.68,13.13c2.46,3.18,4.83,6.25,6.37,8.24c4.68,2.19,9.51-0.77,12.24,4.5c-6.99,2.67-16.4,0.95-18.57,11.06
		c4.43,7.91,12.37,10.22,20.49,12.36c-2.59,3.97-4.77,7.32-7.32,11.22C793.8,1480.04,797.3,1483.09,800.32,1485.72z M1006.51,1018.4
		c1.77,16.93,3.38,32.76,5.1,48.58c0.58,5.29,1.21,10.59,2.2,15.82c4.45,23.52,13.96,45.18,25.54,65.87
		c19.04,34,38.64,67.69,58.11,101.45c10.77,18.68,21.13,37.4,15.7,58.24c2.12,7.62,4.51,13.26,5.17,19.1
		c4.28,37.47,17.33,71.46,37.99,103c20.9,31.92,52.94,43.79,87.51,52.09c4.28-3.76,9.06-6.55,9.07-13.65
		c-18.34-14.64-29.78-33.56-28.91-58.08c0.87-24.65,12.19-43.83,33.48-57.05c-1.97-4.24-3.38-7.58-5.04-10.79
		c-10.3-19.98-23.27-38.12-38.76-54.35c-20.25-21.21-41.19-41.75-61.21-63.16c-8.82-9.43-17.09-19.68-23.91-30.62
		c-12.88-20.63-11.39-40.09,3.66-59.33c5.3-6.78,11.72-12.73,17.97-18.7c18-17.19,33.18-36.43,43.95-58.97
		c1.39-2.91,2.47-5.96,3.64-8.82c-1.4-1.25-2.01-2.1-2.85-2.51c-35.69-17.38-73.34-22.98-112.69-19.04
		c-5.79,0.58-11.79-0.37-17.62-1.17c-3.58-0.49-6.98-2.2-10.52-3.08C1038.55,1019.36,1022.87,1016.96,1006.51,1018.4z
		 M1260.46,1358.45c-3.78,2.29-5.55,3.19-7.14,4.35c-30.06,22.02-33.82,71.18-2.8,96.76c9.07,7.48,9.75,15.65,0.12,23.81
		c-2,1.69-4.1,3.26-6.88,5.46c-15.57-5.52-31.45-10.5-46.81-16.77c-14.72-6.01-26.91-15.99-36.76-28.5
		c-26.63-33.85-41.79-72.4-46.69-115.1c-0.31-2.67-1.11-5.29-1.69-7.93c-0.81-0.03-1.63-0.06-2.44-0.09
		c-1.16,19.92-9.68,37.09-19.16,53.17c1.42,5.07,2.44,9.26,3.77,13.35c4.81,14.87,8.65,30.16,14.79,44.46
		c17.62,41.06,45.02,73.64,85.47,94.25c7.11,3.62,13.89,7.9,20.75,12.01c2.23,1.34,4.22,3.08,6.05,4.44c0,9.47,0,18.3,0,27.41
		c-8.11,4.55-15.55,8.96-23.19,12.96c-23.02,12.04-46.02,24.13-69.24,35.76c-9.32,4.67-12.56,12.64-15.32,22.21
		c14.21,1.87,26.44,2.4,37.92-8.01c15.51-14.08,32.57-26.46,49.06-39.44c6.34-4.99,12.95-9.64,20.97-15.57
		c2.66,45.69-1.73,89.55-0.11,134.05c3.1,1.17,6.1,2.51,9.22,3.46c21.75,6.59,44.01,10.63,66.64,12.25
		c17.65,1.27,35.3,0.65,52.59-3.81c2.68-0.69,5.19-2.05,9.57-3.83c-7.79-7.38-13.95-13.92-20.85-19.57
		c-7.04-5.77-9.68-12.95-10.42-21.7c-3.15-37.16-6.68-74.29-9.89-111.44c-0.51-5.9-0.07-11.88-0.07-18.45
		c3.2-1.37,6.1-2.97,9.21-3.88c21.58-6.32,41.48-16.29,60.68-27.79c2.66-1.6,5.03-3.69,8.45-6.23c-20.19-7.3-38.8-14.02-56.94-20.58
		c-6.49,1.12-12.67,2.44-18.92,3.18c-6.59,0.78-13.27,1.6-19.87,1.35c-9.68-0.37-12.71-5.9-8.94-16.59
		c6.58-1.47,13.74-3.08,21.88-4.9c-1.86-2.57-2.62-4.05-3.76-5.14c-21.56-20.47-34.04-45.52-39.24-74.74
		C1268.45,1381.79,1264.13,1370.9,1260.46,1358.45z M1619.2,1073.84c-6.5,13.69-12.96,26.05-18.34,38.86
		c-10.59,25.22-11.37,51.01-3.16,77.17c5.83,18.57,14.49,35.77,24.35,52.42c14.26,24.07,29.15,47.78,42.81,72.19
		c8.91,15.93,16.77,32.55,23.86,49.38c6.53,15.49,9.51,31.88,5.9,48.87c-0.66,3.12-0.48,6.41-0.76,10.77
		c3.41-1.55,5.83-2.46,8.08-3.7c12.28-6.74,25.28-8.12,38.7-4.74c7.72,1.95,15.23,4.69,22.85,7.04c2.4,0.74,4.85,1.36,7.92,2.22
		c0-99.46,0-197.94,0-296.82c-3.17-1.16-5.88-2.35-8.7-3.14c-12.17-3.43-24.32-6.95-36.57-10.06
		C1689.63,1105.06,1653.17,1095.75,1619.2,1073.84z M1087.2,1381.84c-0.89-0.34-1.78-0.67-2.67-1.01c-1.84,2.33-3.71,4.64-5.51,7
		c-8.47,11.12-17.59,21.81-25.24,33.48c-20.03,30.55-30.43,64.05-29.66,100.92c0.7,33.13,9.4,64.42,20.82,95.11
		c1.26,3.39,4.52,6.58,7.65,8.66c13.03,8.66,26.34,16.9,39.61,25.21c35.37,22.17,72.41,40.97,111.78,55.02
		c3.31,1.18,6.71,2.14,11.56,3.67c0.25-21.4,0.81-41.28,0.63-61.15c-0.17-19.73,2.58-39.51,0.15-60.93
		c-5.19,3.58-9.11,5.99-12.69,8.82c-16.98,13.43-34.55,26.22-50.59,40.7c-14.35,12.94-29.94,8.58-46.93,8
		c4.08-14.42,8.6-25.94,22.32-32.52c23.1-11.08,45.63-23.36,68.33-35.27c6.72-3.53,13.2-7.51,19.46-11.1c0-7.88,0-14.76,0-22.36
		c-10.35-5.97-20.31-11.92-30.47-17.53c-17.98-9.92-33.75-22.54-47.2-38.04c-24.76-28.54-40.03-61.84-49.06-98.25
		C1088.78,1387.44,1087.96,1384.65,1087.2,1381.84z M1496.29,1517.19c-3.35,8.35-6.09,16.23-9.63,23.73
		c-6.43,13.63-4.85,26.47,2.6,39.08c7.26,12.29,16.87,22.54,28.8,30.07c17.15,10.84,34.27,22.05,52.53,30.75
		c62.08,29.57,128.17,46.3,195.56,58.36c1.47,0.26,3.1-0.38,5.22-0.67c0-7.39,0-14.27,0-22.15c-7.9-2.89-9.77-10.44-12.17-17.79
		c-2.25-6.91-4.96-13.67-7.39-20.29c-14.36-4.08-27.83-7.7-41.18-11.74c-24.14-7.29-44.64-20.22-61.64-39.08
		c-19.93-22.11-37.63-45.81-53.29-71.09c-3.3-5.33-6.79-10.55-10.11-15.7C1555.48,1506.25,1526.16,1511.67,1496.29,1517.19z
		 M1365.02,1718.24c11.24-3.53,21.66-9.22,30.51-17.46c18.54-17.26,37.01-34.6,55.12-52.31c5.66-5.54,10.5-12.06,14.97-18.65
		c8.94-13.19,10.39-27.85,6.86-43.12c-5.66-24.48-17.15-46.74-26.33-70.41c-14.84-1.61-29.32-3.18-42.58-4.62
		c-25.22,18.45-51.98,30.77-81.52,39.62c3.66,46.51,8.03,92.16,11.95,134.91C1345.4,1697.97,1354.86,1707.75,1365.02,1718.24z
		 M1687.05,1439.71c0.52,16.57,3.36,31.7,11.45,45.05c13.26,21.89,20.67,46.1,29.25,69.87c1.42,3.92,1.88,8.18,2.71,11.97
		c-5.39,4.94-10.55,3.97-15.84,2.81c-19.23-4.22-36.34-12.79-51.76-24.89c-16.87-13.23-31.68-28.49-44.88-45.35
		c-2.22-2.84-4.55-5.6-7.05-8.68c-6.92,2.57-13.28,4.93-19.83,7.36c0.97,2.46,1.29,3.79,1.96,4.9
		c18.06,29.65,37.81,58.01,61.59,83.47c14.19,15.19,30.79,26.47,50.35,33.19c11.31,3.89,22.95,6.83,34.44,10.19
		c5.37,1.57,10.75,3.14,16.27,4.74c3.61,9.96,7,19.33,10.43,28.68c0.85,2.33,1.11,5.4,4.91,4.75c1.81-11.81,1.31-229.04-0.61-236.92
		c-26.1-13.23-52.32-19.89-79.49,1.3C1690.09,1433.79,1688.57,1436.74,1687.05,1439.71z M750.19,1774.24
		c23.08-29.14,49.13-141.43,45.36-169.79c-51.51,11.37-99.08,29.31-132.73,72.86C687.97,1710.92,733.05,1765.43,750.19,1774.24z
		 M1681.91,1445.93c-10.97,8.55-20.45,16.85-30.84,23.78c-10.66,7.11-22.21,12.87-33.72,19.42c1.22,2.03,1.94,3.51,2.92,4.8
		c14.19,18.63,30.37,35.3,49.15,49.35c13.77,10.31,29.03,17.44,45.82,21.26c3.15,0.72,6.35,2.07,9.99-1.45
		c-7.97-21.88-13.78-44.8-25.55-65.44c-6.63-11.62-12.53-23.5-15.29-36.68C1683.36,1456.16,1682.77,1451.26,1681.91,1445.93z
		 M539.13,1465.28c-4.05-13.6-8.35-28.03-13.2-44.33c-7.37,6.31-13.9,10.92-19.08,16.74c-2.8,3.14-4.38,8.29-4.61,12.63
		c-0.61,11.91-0.26,23.87-0.2,35.82c0.02,5.49,1.59,10.32,5.94,13.59C518.23,1488.4,528.14,1477.44,539.13,1465.28z M512.93,1504.48
		c12.81,15.61,34.64,35.31,42.12,38.15c0.85-6.94,1.79-13.84,2.5-20.77c0.3-2.93,0.96-6.21,0.01-8.8
		c-4.88-13.3-10.23-26.43-15.69-40.32C528.03,1480.62,520.66,1492.37,512.93,1504.48z M560.1,1548.26
		c10.53,12.55,16.73,17.45,24.37,19.71c-2.93-11.38-16.34-36.75-22.49-41.62C561.31,1534.16,560.7,1541.37,560.1,1548.26z
		 M1332.38,1485.57c-5.86-3.81-10.05-6.54-13.16-8.57c-9.09,1.94-16.66,3.56-24.2,5.16c-0.69,5.02,1.35,7.13,5.22,7.35
		C1310.4,1490.1,1320.39,1489.1,1332.38,1485.57z"/>
	<path d="M761.57,519.14c-2.3,10.14-1.33,13.77,6.49,18.86c7.52,4.9,15.14,9.86,23.3,13.51c20.93,9.38,31.25,25.9,34.51,47.85
		c2.88,19.41,2.44,38.44-5.11,56.93c-9.1,22.27-25.09,42.42-62.88,36.26c-11.92-1.94-23.29-5.63-33.86-11.45
		c-9.94-5.47-16.59-13.64-16.95-25.34c-0.31-9.92,0.04-19.91,0.9-29.8c0.43-4.89,2.62-9.65,8.58-12.61
		c3.34,1.49,7.26,3.13,11.09,4.96c8.1,3.88,16.04,8.12,24.27,11.71c6.76,2.95,13.85,4.73,21.33,2.17
		c9.54-3.25,11.55-11.21,4.28-18.33c-2.33-2.29-5.29-4.02-8.16-5.65c-7.81-4.44-15.73-8.69-23.61-13.01
		c-17.96-9.85-27.8-25.08-30.59-45.29c-3.13-22.74-0.92-44.55,10.79-64.7c8.44-14.53,20.41-24.67,37.69-26.55
		c5.84-0.64,12.04-0.34,17.77,0.94c17.43,3.89,33.38,10.93,46.66,24.68c-5.02,15.05-2.16,32.88-18.26,44.79
		c-4.35-0.96-9.24-1.62-13.85-3.16c-6.94-2.31-13.65-5.27-20.49-7.86C770.65,516.23,765.84,515.21,761.57,519.14z M716.21,618.26
		c-1.51,4.37-3.38,7.62-3.65,11c-0.65,7.94-0.72,15.95-0.68,23.93c0.04,11.54,6,19.46,16.04,24.47c11.09,5.54,22.7,9.21,35.14,10.58
		c28.26,3.11,41.14-10.35,49.35-25.78c11.04-20.76,11.54-42.63,7.87-65.15c-3.06-18.77-12.25-32.62-29.92-40.75
		c-7.83-3.6-15.11-8.42-22.55-12.85c-2.56-1.52-5.07-3.28-7.17-5.36c-5.61-5.54-7.32-15.55-3.91-21.17
		c3.29-5.42,10.08-7.14,18.87-4.18c7.24,2.44,14.24,5.62,21.47,8.12c3.92,1.36,8.09,1.98,12.04,2.91
		c10.87-11.85,10.29-25.81,12.96-38.9c-12.35-10.95-26.04-17.44-41.23-20.64c-5.43-1.14-11.25-1.58-16.75-0.97
		c-15.06,1.67-25.6,10.52-33.14,23.12c-11.45,19.13-13.68,39.88-10.93,61.68c2.44,19.3,11.66,33.65,28.72,42.97
		c8.47,4.63,17.06,9.07,25.32,14.04c3.62,2.18,7.22,5,9.7,8.36c6.41,8.68,3.18,19.24-7.14,22.42c-5.21,1.61-11.27,2.15-16.61,1.21
		c-6.42-1.14-12.61-4.06-18.65-6.76C733.22,626.92,725.32,622.76,716.21,618.26z"/>
	<path d="M1508.37,574.87c3.95,1.35,8,2.6,11.95,4.1c8.08,3.07,15.99,6.64,24.2,9.29c7.08,2.29,14.38,2.99,20.43-2.66
		c2.24-5.26,0-8.65-4-11.22c-1.95-1.25-4.11-2.19-6.23-3.14c-5.17-2.31-10.26-4.85-15.57-6.77c-33.71-12.21-37.16-44.54-30.41-68.05
		c1.45-5.05,3.85-9.96,6.55-14.5c10.89-18.28,27.18-25.5,48.15-22.89c16.62,2.06,30.69,9.97,45.92,18.7
		c-3.41,9.66-6.12,18.87-9.94,27.6c-2.94,6.73-7.49,8.36-14.88,6.45c-7.08-1.83-13.96-4.44-21.03-6.35
		c-4.74-1.28-9.67-2.81-14.59,0.16c-2.4,6.37,0.88,10.3,5.94,13.02c6.74,3.63,13.47,7.48,20.62,10.09
		c21.76,7.94,31.53,22.4,32.34,53.03c0.19,7.4-2.18,15.21-4.81,22.29c-8.43,22.67-24.36,33.1-48.51,32.14
		c-14.12-0.56-27.75-3.84-40.28-10.5C1496.35,616.15,1492.81,590.73,1508.37,574.87z M1510.08,580.01
		c-11.38,15.42-7.44,34.3,7.77,41.93c12.07,6.06,25.03,9.17,38.48,9.35c11.59,0.15,22.55-2.47,31.13-11.08
		c22.09-22.16,23.17-76.48-15.16-87.57c-2.22-0.64-4.31-1.78-6.38-2.84c-5.32-2.74-10.87-5.16-15.83-8.46
		c-7.82-5.21-9.14-12.06-4.09-21.63c3.12-0.18,7.11-1.16,10.78-0.45c7.48,1.44,14.77,3.84,22.16,5.75
		c4.09,1.05,8.23,1.91,12.39,2.86c7.18-8.73,9.21-18.34,11.6-29.39c-11-4.57-21.37-10.06-32.42-13.2
		c-21.84-6.21-39.26,0.63-50.47,18.08c-5.35,8.32-8.24,17.46-9.11,27.2c-2.05,22.98,6.85,38.45,27.65,48.21
		c6.93,3.25,14.11,5.96,20.98,9.34c3.2,1.57,6.49,3.66,8.74,6.34c5.66,6.74,3.73,14.29-4.21,17.95c-6.34,2.93-13.03,3.07-19.52,0.99
		c-7.9-2.54-15.61-5.68-23.37-8.67C1517.57,583.33,1514,581.68,1510.08,580.01z"/>
	<path d="M1572.01,676.12c-0.69,0.6-1.37,1.72-2.06,1.72c-234.87,0.19-469.74,0.31-704.62,0.37c-1.43,0-2.87-0.94-6.49-2.2
		c3.62-1.32,5.14-2.23,6.74-2.38c2.97-0.28,5.99-0.14,8.99-0.14c228.22,0,456.45,0,684.67,0c4.21,0,8.42,0,12.63,0
		C1571.92,674.36,1571.96,675.24,1572.01,676.12z"/>
	<path d="M1131.02,635.45c-2.89-9.85-4.59-142-2.5-162.35c0.29-2.82,1.4-5.56,2.27-8.88c4.31-0.3,7.88-0.75,11.45-0.77
		c14.98-0.08,29.96,0.07,44.94-0.06c21.07-0.18,36.94,9.6,46.54,27.46c20.11,37.39,20.82,76.01,1.88,114.04
		c-11.18,22.46-30.6,32.23-55.85,30.65c-10.26-0.64-20.6-0.1-30.9-0.09C1142.95,635.46,1137.05,635.45,1131.02,635.45z
		 M1133.68,629.41c5.26,0.44,8.49,0.91,11.73,0.94c13.31,0.09,26.64-0.21,39.94,0.1c21.37,0.5,36.29-9.72,45.85-27.92
		c4.13-7.86,7-16.58,9.21-25.22c7.03-27.53,3.69-54.24-8.54-79.7c-7.63-15.89-19.79-27.52-37.97-28.79
		c-18.55-1.3-37.26-0.28-55.9-0.2c-0.89,0-1.79,0.73-4.32,1.83C1133.66,522.6,1133.66,575.32,1133.68,629.41z"/>
	<path d="M1427.86,512.52c5.58-8.02,10.4-15.06,15.36-22.01c4.44-6.22,8.53-12.78,13.66-18.37c6.5-7.08,14.86-9.96,24.47-6.73
		c11.58,3.89,18.34,19.25,13.95,32.45c-1.45,4.36-3.81,8.5-6.25,12.43c-9.83,15.83-19.57,31.74-29.93,47.22
		c-6.17,9.22-9.54,18.75-8.78,29.94c0.52,7.62,0.25,15.31-0.07,22.96c-0.18,4.28-0.88,8.62-1.94,12.77
		c-1.32,5.16-4.86,9.25-9.97,10.28c-10.36,2.07-20.89,2.58-32.26,0.44c-0.33-4.12-0.82-7.66-0.85-11.21
		c-0.1-13.31-0.21-26.63,0.02-39.94c0.12-6.93-1.7-12.95-5.4-18.81c-11.19-17.73-22.13-35.62-33.02-53.53
		c-5.29-8.71-8.9-17.8-5.92-28.4c4.86-17.3,21.67-23.36,35.88-12.34c4.1,3.18,7.41,7.62,10.41,11.95
		c5.11,7.38,9.64,15.16,14.51,22.71C1423.29,506.73,1425.17,508.93,1427.86,512.52z M1381.67,469.01
		c-13.44,3.49-19.66,13.55-15.76,26.79c1.48,5.03,3.98,9.87,6.7,14.39c10.48,17.39,21.11,34.69,31.96,51.85
		c3.89,6.15,5.76,12.56,5.67,19.79c-0.16,12.32-0.1,24.63,0.01,36.95c0.03,3.49,0.56,6.97,0.92,11.27c5.81,0,10.43,0.1,15.04-0.02
		c14.83-0.39,18.54-4.01,19.11-19.16c0.32-8.64,0.51-17.32,0.13-25.96c-0.45-10.06,2.25-18.83,7.79-27.25
		c10.97-16.68,21.42-33.71,32-50.64c1.93-3.09,3.8-6.31,5.06-9.71c3.43-9.23-0.25-21.43-7.51-25.97
		c-7.71-4.82-16.87-2.59-24.56,6.54c-3.84,4.56-7.01,9.7-10.38,14.64c-6.61,9.71-13.15,19.46-20.31,30.06
		c-8.56-13.48-16.55-26.07-24.57-38.66C1397.97,476.06,1391.92,469.67,1381.67,469.01z"/>
	<path d="M1337.29,606.75c-12.64,0-24.56,0-37.49,0c-1.55,3.64-3.31,7.48-4.83,11.41c-4.55,11.76-11.42,17.74-20.45,17.64
		c-9.03-0.1-17.52-7.46-21.35-18.4c-3.04-8.69-1.52-17.02,1.66-25.31c6.79-17.71,13.51-35.44,20.26-53.17
		c7.93-20.83,15.85-41.67,23.8-62.5c2.27-5.95,4.26-12.17,12.17-12.84c8.93-0.75,17.59-0.38,23.21,7.98
		c2.76,4.1,5.15,8.58,6.94,13.19c12.64,32.57,25.1,65.2,37.57,97.83c1.66,4.35,2.77,8.92,4.6,13.19c4.17,9.74,2.04,18.83-2.17,27.86
		c-3.62,7.76-9.82,11.66-18.19,11.74c-8.31,0.09-14.94-3.42-18.61-11.11C1341.85,618.9,1339.9,613.24,1337.29,606.75z
		 M1307.7,469.52c-1.62,3.55-3.76,7.63-5.39,11.9c-13.93,36.38-27.79,72.78-41.61,109.2c-1.42,3.73-2.91,7.5-3.69,11.39
		c-2.77,13.77,4.26,25.1,17.55,28.89c9.16-0.74,12.97-7.03,15.89-14.59c1.98-5.11,2.11-11.39,8.15-14.37c13.53,0,27.12,0,41.42,0
		c1.52,3.01,3.12,5.83,4.4,8.79c1.59,3.66,2.72,7.52,4.39,11.14c2.85,6.16,7.99,8.53,14.61,8.35c6.33-0.17,10.91-3.06,13.3-8.82
		c1.9-4.58,3.19-9.41,5.11-15.2c-5.35-14.44-10.81-29.43-16.46-44.34c-9.79-25.84-19.51-51.71-29.65-77.41
		C1329.78,469.4,1324.6,466.82,1307.7,469.52z"/>
	<path d="M976.88,546.24c0.42,19.61-2.79,37.43-12.42,53.68c-15.57,26.27-38.74,38.44-69.15,36.68c-27.87-1.61-47.7-16-59.67-40.47
		c-15.22-31.12-14.88-63.35-1.08-94.67c11.47-26.04,32.4-41.63,61.21-43.01c27.55-1.32,51.05,8.22,66.44,32.69
		C972.97,508.23,977.97,526.95,976.88,546.24z M971.96,545.45c1.01-17.53-3.74-35.28-13.89-51.55c-14.34-23-36.37-32.01-62.1-30.63
		c-28.72,1.55-48.36,18-58.69,44.25c-10.22,25.95-10.53,52.69-0.62,79.03c6.3,16.74,17.03,30.09,33.16,38.42
		c33.11,17.11,73.22,4.05,91.56-29.66C969.55,580.28,972.21,564.02,971.96,545.45z"/>
	<path d="M983.26,464c10.01,0,18.99-0.73,27.79,0.2c8.79,0.93,14.08,7.19,15.23,16.12c0.55,4.28,0.47,8.65,0.48,12.98
		c0.04,28.33-0.01,56.66,0.05,84.99c0.01,3.9,0.43,7.8,0.73,12.89c13.98,0,27.15,0,41.34,0c1.09,4.26,2.61,7.57,2.65,10.91
		c0.08,6.65-0.48,13.32-1.09,19.95c-0.77,8.32-4.06,12.52-12.47,12.74c-19.94,0.51-39.92,0.31-59.87-0.19
		c-7.81-0.2-12.86-5.31-14.78-12.8c-1.14-4.46-1.83-9.17-1.84-13.77c-0.14-43.99-0.13-87.99-0.01-131.98
		C981.47,472.24,982.56,468.48,983.26,464z M986.95,468.82c-0.23,4.5-0.56,8.07-0.57,11.64c-0.05,26.28-0.03,52.56-0.02,78.84
		c0,16.97-0.18,33.93,0.1,50.89c0.26,15.33,4.62,19.81,19.59,20.09c15.3,0.29,30.6,0.15,45.9,0.01c3.56-0.03,7.11-0.86,10.97-1.36
		c4.46-10.68,2.78-21.11,3.19-31.81c-14.43-1.95-28.13,0.82-40.16-1.62c-4.94-4.99-4.1-9.84-4.11-14.41
		c-0.06-28.94-0.02-57.88-0.05-86.82c0-4.32,0.08-8.68-0.42-12.96c-0.8-6.92-4.61-11.68-11.08-12.32
		C1002.84,468.26,995.26,468.82,986.95,468.82z"/>
	<path d="M1121.99,464.86c0.38,4.85,0.91,8.44,0.91,12.03c0.06,43.29,0.05,86.59,0,129.88c0,3.99-0.05,8.04-0.75,11.94
		c-1.86,10.36-8,15.61-18.53,15.91c-7.87,0.22-15.75,0.04-24.55,0.04c-0.59-4.45-1.46-7.93-1.46-11.41
		c-0.09-44.96-0.09-89.92,0.01-134.88c0.01-3.95,0.55-7.97,1.46-11.81c1.4-5.97,5.4-10.1,11.26-11.64
		C1100.4,462.28,1110.55,462.89,1121.99,464.86z M1117.45,468.88c-4.58-0.25-7.84-0.44-11.1-0.6c-16.74-0.83-24.15,1.7-23.98,23.74
		c0.33,41.99,0.08,83.97,0.12,125.96c0,3.56,0.35,7.12,0.59,11.82c7.4,0,13.96,0.23,20.5-0.06c8.08-0.35,12.27-3.91,13.62-11.83
		c0.78-4.56,0.78-9.29,0.79-13.95c0.06-40.99,0.05-81.98,0.01-122.96C1117.99,477.39,1117.68,473.78,1117.45,468.88z"/>
	<path d="M1510.28,724.33c3.8,7.68,2.48,14.76,1.57,22.3c-5.31-1.24-3.73-5.18-4.12-8.03c-0.39-2.86-0.4-5.77-0.64-9.63
		c-9.24,4-2.72,12.75-6.89,17.12c-4.09,0.49-8.1,0.96-12.8,1.52c-9.79-4.96-11.01-14.11-2.02-23.77c2.86,0,6.12,0,9.75,0
		c0.94-2.82,1.83-5.51,3.29-9.86c1.95,3.42,3.12,5.45,4.66,8.15C1504.81,722.66,1507.27,723.41,1510.28,724.33z M1498.08,733.51
		c-5-2.3-7.86-3.61-10.69-4.91c-4.02,8.11-4,8.3,1.66,14.44C1491.67,740.28,1494.25,737.57,1498.08,733.51z"/>
	<path d="M999.42,747.92c-1.5-1.95-4.22-4.17-5.14-6.97c-2.43-7.42-2.14-15.15-0.15-22.67c1.08-4.08,3.55-7.38,8.24-7.51
		c4.78-0.14,7.01,3.02,8.23,7.25c1.98,6.87,2.32,13.69,0.44,20.69C1009.57,744.15,1006.56,747.45,999.42,747.92z M1002.98,716.26
		c-6.56,6.86-6.89,18.06-1.27,25.98C1008.84,736.21,1009.44,727.24,1002.98,716.26z"/>
	<path d="M773.76,739.74c2.71,1.21,4.9,2.2,8,3.59c1.33-2.3,2.7-4.67,4.66-8.07c-4.1-0.59-6.86-0.98-9.46-1.36
		c-7.49-4.9-7.22-18.33,0.25-22.23c4.25-2.22,9.41-0.61,11.39,4.69c3.23,8.62,2.7,17.63-0.14,26.28c-1.22,3.7-4.71,5.55-8.76,5.38
		C776.45,747.89,775.21,746.15,773.76,739.74z M779.38,729.88c2.46-1.55,4.25-2.68,5.8-3.65c-0.42-6.46-0.42-6.46-5.03-9.89
		C775.23,719.94,775.58,724.04,779.38,729.88z"/>
	<path d="M956.27,748.04c-1.4-1.73-3.88-3.65-4.81-6.15c-2.99-8.03-2.82-16.31-0.24-24.48c1.2-3.79,3.64-6.55,7.8-6.66
		c4.76-0.13,7.69,2.98,8.14,7.25c0.72,6.86,1.1,13.87,0.52,20.72C967.21,744.18,963.3,747.44,956.27,748.04z M959.11,716.74
		c-6.33,6.89-6.59,17.04-0.64,25.43C965.61,735.97,965.91,723.85,959.11,716.74z"/>
	<path d="M1546.14,748.36c-0.41-4.61-0.64-7.47-0.92-10.33c-0.27-2.77-0.59-5.53-1.02-9.53c-7.16,5.33-1.47,13.38-7.62,18.87
		c-2.48-6.76-1.38-12.76-1.06-19.27c2.15-1.65,4.46-3.44,5.38-4.14c6.53-0.43,11.3-0.75,16.43-1.09c4.95,7.32,3.13,15.18,2.79,24.15
		c-5.36-2.39-4.13-5.75-4.44-8.44c-0.33-2.85-0.49-5.72-0.82-9.82C1546.8,733.51,1553.1,742.17,1546.14,748.36z"/>
	<path d="M1463.94,748.06c-5.81-10.83-5.78-14.24,0.19-23.67c8.22-1.27,11.71,0.7,12.33,7.95c0.53,6.21,0.11,12.51,0.11,18.1
		c-7.25,8.76-10.42,8.8-16.23,0.31c1.22-0.92,2.46-1.87,3.71-2.81c3.67,3.64,3.67,3.64,7,0.12
		C1468.34,748.06,1466.14,748.06,1463.94,748.06z M1469.08,728.22c-5.85,7.58-5.78,9.06,0.48,14.54
		C1472.39,737.98,1472.61,733.71,1469.08,728.22z"/>
	<path d="M1316.41,727.76c4.02-1.86,7.43-3.45,10.5-4.87c7.66,7.93,8.33,12.17,3.91,22.58c-2.23,1.12-4.87,2.44-7.34,3.67
		c-1.38,2.57-2.68,5.01-4.59,8.57c-3.27-5.62-1.06-10.28-1.46-14.67C1317.01,738.45,1316.8,733.82,1316.41,727.76z M1325.09,743
		c4.46-5.35,3.81-9.4,0.67-13.91C1321.13,734.4,1321.13,734.4,1325.09,743z"/>
	<path d="M938.68,715.13c-2.59,2.32-4.69,4.2-7.69,6.88c-1.35-7.42,2.2-9.95,6.95-11.6c9.99,3.38,12.32,8.4,7.98,17.14
		c-1.18,2.37-2.74,4.55-4.12,6.83c-1.36,2.24-2.7,4.5-4.56,7.61c3.4,1.03,6.25,1.89,10.22,3.09c-6.07,5.04-11.32,2.71-17.52,1.59
		c0.73-2.45,0.96-4.68,2-6.43c2.88-4.86,6.25-9.42,9.12-14.28C943.2,722.32,944.08,718.53,938.68,715.13z"/>
	<path d="M979.31,742.11c4.09,1.22,6.68,2,11.27,3.37c-7.68,3.79-12.99,3.39-19.21-0.16c4.97-8.2,9.72-16.04,14.58-24.06
		c-1.68-2.35-2.93-4.11-4.46-6.27c-2.91,2.34-5.3,4.27-8.86,7.13c-0.34-7.52,2.83-10.39,7.91-11.77c9.74,3.88,11.96,9.01,7.4,17.59
		C985.49,732.57,982.5,736.92,979.31,742.11z"/>
	<path d="M814.82,715.34c-2.35,2.12-4.42,3.99-7.49,6.75c-1.2-7.54,2.33-10.07,7.06-11.71c9.9,3.56,12.31,8.76,7.84,17.32
		c-2.44,4.66-5.48,9.01-8.72,14.27c3.51,1.06,6.4,1.93,10.65,3.22c-6.85,4.56-12.15,3.29-18.88,0.44c2.91-4.69,5.48-8.8,8.01-12.92
		c1.74-2.83,3.64-5.59,5.11-8.56C820.13,720.7,819.49,717.71,814.82,715.34z"/>
	<path d="M1577.51,745.84c-2.06,0.92-4.45,1.98-7.37,3.28c-0.91,1.87-2.01,4.15-3.31,6.82c-1.13-0.85-2.41-1.36-2.42-1.89
		c-0.13-8.25-0.09-16.51-0.09-26.22c2.67-1.48,6.2-3.43,9.41-5.2C1581.75,730.46,1582.47,735.55,1577.51,745.84z M1573.13,741.86
		c3.28-6.24,3.28-6.24-0.36-12.56C1567.02,733.57,1567.12,737.24,1573.13,741.86z"/>
	<path d="M1341.28,748.12c-7.94-6.63-7.61-10.31,0.84-14.53c1.59-0.79,3.1-1.75,4.85-2.75c-4.32-5.79-7.08,2.53-10.6,0.15
		c0.99-5.93,3.36-8.43,8.05-8.11c4.57,0.31,7.12,2.88,7.83,7.45C1353.91,741.06,1351.62,745.02,1341.28,748.12z M1340.75,740.52
		c0.37,0.75,0.74,1.5,1.11,2.25c1.56-0.8,3.11-1.6,5.9-3.04c-2.43-0.67-3.39-1.28-4.12-1.06
		C1342.58,738.98,1341.7,739.88,1340.75,740.52z"/>
	<path d="M1532.13,743.23c-3.35,1.96-6.35,3.7-10.04,5.85c-2.63-2.54-4.82-4.66-6.73-6.5c2.29-5.67,2.29-5.67,11.43-12.15
		c-3.85-5.32-6.61,2.58-10.7,0.42c0.07-4.59,2.61-7.17,7.22-7.9c4.32-0.68,8.14,1.73,8.71,6.09
		C1532.56,733.24,1532.13,737.56,1532.13,743.23z M1528.31,739.23c-4.51-0.88-6.58-0.93-6.97,4.22
		C1523.91,741.9,1525.4,740.99,1528.31,739.23z"/>
	<path d="M1428.07,723.75c8.07,1.08,10.29,2.85,11.59,8.87c1.42,6.56-0.91,10.7-8.29,14.77
		C1419.24,742.89,1417.84,734.07,1428.07,723.75z M1430.82,741.9c5.81-5.95,5.8-6.82-0.16-12.88
		C1424.81,735.16,1424.83,736.22,1430.82,741.9z"/>
	<path d="M912.67,746.59c-5.41-6.21-0.86-13.91-4.07-20.67c-1.71,0.42-3.41,0.84-5.36,1.32c-0.46,6.55-0.89,12.7-1.38,19.74
		c-4.9-5.43-5.45-11.51-2.87-24.34c2.87-0.93,5.96-1.93,8.78-2.85C915.62,724.94,917.33,734.12,912.67,746.59z"/>
	<path d="M870.66,722.09c4.55,6.77-0.8,14.82,5.04,20.84c8.68-4.56,0.64-14.84,6.94-20.07c2.75,6.67,2.77,6.87,1.69,20.24
		c-1.97,1.52-4.5,3.48-6.7,5.18C867.15,744.69,864.65,735.45,870.66,722.09z"/>
	<path d="M1454.25,746.53c-0.59-5.83-1.19-11.66-1.87-18.34c-9.52,4.67-2.71,13.36-7.88,19.09c-4.57-6.11-2.13-12.49-2.11-19.43
		c3.21-1.76,6.53-3.57,10.02-5.48c9.18,7.35,5.29,15.83,5.39,23.66C1456.61,746.2,1455.43,746.36,1454.25,746.53z"/>
	<path d="M1388.15,729.95c-2.4-0.33-4.8-0.65-7.69-1.05c0.33,1.29,0.26,2.5,0.8,2.91c2.86,2.19,5.88,4.17,9.06,6.37
		c-0.34,5.2-3.28,8.04-7.56,9.65c-2.61,0.98-3.61,0.25-8.5-5.09c3.24-0.2,5.79-0.35,8.65-0.52c-0.2-1.18-0.04-2.38-0.56-2.91
		c-2.89-2.99-5.95-5.82-8.69-8.46C1378.78,721.44,1381.36,721.22,1388.15,729.95z"/>
	<path d="M864.15,723.04c0.78,9.77,0.88,19.59-0.05,29.39c-0.32,3.42-2.59,5.85-5.83,5.35c0.79-12.02,1.54-23.39,2.29-34.75
		C861.76,723.03,862.96,723.04,864.15,723.04z"/>
	<path d="M838.62,745.86c-3.96-6.43-4.1-27.26-0.22-34.12C841.66,717.77,841.79,738.59,838.62,745.86z"/>
	<path d="M764.01,710.88c0.73,12.71,1.25,23.9-1.49,35.11c-4.42-8.16-2.25-16.98-2.86-25.47
		C759.44,717.48,758.7,713.84,764.01,710.88z"/>
	<path d="M1417.75,747.7c-3.13-8.82-3.16-23.89-0.51-31.57C1421.26,721.1,1421.83,737.27,1417.75,747.7z"/>
	<path d="M1355.72,723.83c3.74,0.19,6.36,0.32,11.13,0.55c-3.11,3.43-4.66,5.14-6.11,6.74c-0.79,5.42-1.57,10.73-2.35,16.04
		C1352.81,739.99,1355.8,732.7,1355.72,723.83z"/>
	<path d="M893.37,723.12c1.54,7.62,1.88,15.24-0.26,23.68c-5.61-3.28-3.19-8.04-3.45-11.8c-0.27-3.98,0.44-8.04,0.73-12.06
		C891.38,723,892.38,723.06,893.37,723.12z"/>
	<path d="M1369.32,725.74c3.84,6.69,3.25,13.54,1.02,21.16C1366.41,741.31,1366.05,736,1369.32,725.74z"/>
	<path d="M1171.78,498.39c15.32-3.07,25.16,1.28,32.17,13.99c6.48,11.77,7.8,24.83,7.29,37.73c-0.4,10.15-2.46,20.47-5.44,30.21
		c-3.42,11.2-11.78,18.22-23.55,20.66c-5.4,1.12-5.39,1.14-11.66-3.08C1168.16,585.28,1168.93,505.73,1171.78,498.39z
		 M1175.93,503.02c-2.59,10.44-2.12,86.07,0.48,92.92c12.65-0.06,20.68-5.56,25.11-18.2c6.46-18.42,6.2-37.16,1.1-55.83
		c-1.03-3.75-3.12-7.35-5.34-10.61C1192.11,503.69,1184.92,500.79,1175.93,503.02z"/>
	<path d="M1306.65,564.32c1.89-5.98,3.31-11.04,5.09-15.98c1.65-4.56,3.67-8.99,5.94-14.45c6.34,9.5,9.4,19.42,11.08,30.43
		C1321.36,567.27,1314.45,566.17,1306.65,564.32z M1321.71,561.02c0-5.56,0.63-9.64-4.44-13.65c-1.22,4.58-2.14,8.08-3.23,12.15
		C1316.84,560.07,1318.58,560.41,1321.71,561.02z"/>
	<path d="M947.35,548.35c-0.86,5.21-1.09,10.62-2.71,15.58c-2.5,7.64-8.51,10.61-15.76,7.51c-20.36-8.72-33.54-23.74-36.92-46
		c-1.98-13.05,5.72-26.22,17.45-32.16c7.72-3.9,15.12-2.22,20.32,4.63C939.07,510.23,946.5,532.2,947.35,548.35z M921.51,497.11
		c-5.36-1.99-9.82-0.12-13.9,3.21c-9.12,7.44-12.74,17.08-10.06,28.47c4.08,17.36,14.95,29.46,30.82,37.11
		c2.46,1.19,5.53,1.13,7.84,1.56C947.23,551.31,938.84,513.47,921.51,497.11z"/>
</g>
</svg>
