<?xml version="1.0" encoding="utf-8"?>
<!-- Generator: Adobe Illustrator 24.1.2, SVG Export Plug-In . SVG Version: 6.00 Build 0)  -->
<svg version="1.1" id="Layer_1" xmlns="http://www.w3.org/2000/svg" xmlns:xlink="http://www.w3.org/1999/xlink" x="0px" y="0px"
	 viewBox="0 0 1417.44 1417.44" style="enable-background:new 0 0 1417.44 1417.44;" xml:space="preserve">
<g>
	<path d="M884.62,278.44c-0.32,2.12-0.63,3.35-0.67,4.6c-0.35,11.5-0.74,23-0.94,34.5c-0.42,24.29-0.69,48.59-1.08,72.88
		c-0.26,16.46-0.63,32.91-0.94,49.37c-0.33,17.42-0.65,34.83-0.97,52.25c-0.32,17.42-0.64,34.83-0.95,52.25
		c-0.33,18.38-0.65,36.75-0.97,55.13c-0.32,18.38-0.64,36.75-0.95,55.13c-0.33,19.66-0.65,39.31-0.96,58.97
		c-0.33,20.61-0.74,41.23-0.94,61.84c-0.39,40.76-0.53,81.53-1.04,122.29c-0.2,15.81-1.39,31.6-1.65,47.41
		c-0.55,32.25-0.73,64.51-1.17,96.77c-0.14,10.06-0.75,20.11-0.93,30.17c-0.11,6.04-2.67,10.4-8.17,13.03
		c-0.17,1.83-0.37,3.4-0.44,4.97c-0.28,6.69-1.43,8.82-8,9.91c-6.09,1.01-12.4,0.65-18.61,1c-2.64,0.15-5.26,0.56-8.2,0.89
		c-0.27,2.45-0.63,4.31-0.65,6.17c-0.37,34.21-0.67,68.42-1.06,102.62c-0.2,17.1-0.54,34.19-0.86,51.29
		c-0.12,6.41-2.34,9.39-8.52,11.04c-4.63,1.24-9.32,2.27-14.01,3.24c-5.3,1.1-10.3-0.23-13.4-4.49
		c-5.39-7.43-12.83-10.29-21.31-12.26c-9.55-2.22-10.8-4.94-9.99-14.73c0.6-7.31,0.54-14.67,0.69-22.02c0.02-1.07-0.4-2.15-0.75-3.9
		c-3.58-0.84-7.28-1.67-10.95-2.58c-4.65-1.15-9.35-2.19-13.93-3.58c-6.15-1.87-7.61-3.91-7.73-10.45
		c-0.13-6.55-0.03-13.11-0.07-19.67c-0.01-1.9-0.18-3.8-0.22-4.54c-4.22-4.93-7.67-9.07-11.26-13.08c-1.04-1.16-2.44-2.7-3.75-2.78
		c-7.38-0.43-14.72-3.27-22.21-0.43c-4.78,1.81-9.73,3.19-14.51,5c-5.51,2.09-10.87,1.72-15.65-1.4
		c-7.48-4.88-14.82-10.03-21.9-15.48c-4.78-3.68-9.41-4.62-15.15-2.55c-11.28,4.07-22.74,7.63-34.08,11.54
		c-7.32,2.53-13.82,1.26-19.73-3.61c-2.84-2.34-5.78-4.54-8.6-6.9c-7.2-6.02-15.56-6.76-24.56-5.77c-1.12,2.23-2.17,4.32-3.13,6.25
		c-6.66,1.61-34.78-1.5-40.74-4.6c-0.44-2.96-1.16-6.23-1.37-9.53c-0.5-7.97-0.86-15.95-1.09-23.93
		c-0.74-26.19-1.36-52.39-2.1-78.58c-0.55-19.64-1.23-39.28-1.85-58.92c-0.99-31.62-1.95-63.23-2.95-94.85
		c-0.59-18.52-1.25-37.04-1.83-55.56c-1.01-32.26-1.96-64.51-2.96-96.77c-0.6-19.48-1.25-38.96-1.87-58.44
		c-0.98-30.98-1.94-61.95-2.92-92.93c-0.62-19.64-1.26-39.28-1.88-58.92c-0.65-20.6-1.29-41.2-1.95-61.79
		c-0.63-19.8-1.29-39.6-1.89-59.4c-0.68-22.36-1.27-44.72-1.96-67.07c-0.59-19.16-1.27-38.32-1.91-57.48
		c-0.3-8.94-0.55-17.88-0.86-26.82c-0.04-1.26-0.28-2.5-0.47-4.18c-1.7-0.46-3.34-0.95-5-1.34c-16.79-3.96-33.72-7.42-50.33-12.03
		c-10.34-2.87-20.39-3.11-30.79-1.48c-7.5,1.17-14.98,1.3-21.88-2.88c-4.89-2.96-7-7.25-6.73-12.84c0.25-5.34,2.98-8.47,7.85-10.9
		c12.27-6.14,24.25-12.85,36.29-19.45c9.62-5.27,19.54-8.7,30.7-9.9c15.22-1.64,30.15-5.74,45.34-7.79
		c25.01-3.39,50.07-6.56,75.2-8.76c29.1-2.54,58.28-4.69,87.47-5.65c40.88-1.34,81.81-1.79,122.72-1.92
		c23.31-0.08,46.63,1.21,69.94,1.9c9.1,0.27,18.21,1.01,27.3,0.82c23.78-0.5,47.13,3.39,70.61,6.14c25.23,2.95,50.5,5.53,75.75,8.28
		c1.58,0.17,3.37,0.1,4.68,0.83c11.97,6.63,25.76,7.37,38.31,12.04c8.36,3.11,16.59,6.61,24.7,10.31c2.68,1.22,5.03,3.41,7.17,5.52
		c6.6,6.48,6.39,15.72-1.08,21.2c-5.49,4.02-11.57,7.51-17.85,10.12c-15.86,6.58-32.46,10.55-49.45,13.24
		c-9.12,1.45-18.1,4.06-26.94,6.8c-1.91,0.59-3.46,3.77-4.3,6.08c-1.69,4.63-2.46,9.6-4.21,14.2c-2.88,7.59-8.59,11.63-16.8,12.15
		c-18.8,1.2-37.6,2.48-56.4,3.78C889.25,277.56,887.11,278.06,884.62,278.44z M361.97,196.82c9.62,7.17,18.98,14.14,27.94,20.81
		c7.49,2.04,14.6,3.89,21.65,5.9c25.45,7.26,51.54,10.99,77.66,14.82c39.43,5.78,79.1,8.26,118.83,10.19
		c10.37,0.5,20.73,1.13,31.08,1.78c9.56,0.6,19.1,1.76,28.66,1.86c12.93,0.14,25.88-0.97,38.8-0.7c22.34,0.47,44.67,1.6,67.01,2.45
		c0.79,0.03,1.6,0,2.38-0.12c7.22-1.1,14.4-2.65,21.65-3.27c18.78-1.6,37.59-2.75,56.38-4.16c28.5-2.14,57.01-4.21,85.5-6.59
		c12.06-1.01,24.13-2.36,36.08-4.26c8.5-1.35,16.82-3.82,25.19-5.9c13.94-3.46,28.04-6.43,41.71-10.74
		c7.48-2.36,14.76-6.29,21.14-10.89c7.53-5.42,7.22-12.07-0.66-16.97c-7.39-4.59-15.5-8.19-23.62-11.39
		c-13.95-5.49-29.38-6.4-42.86-13.52c-1.34-0.71-3.09-0.74-4.67-0.91c-25.88-2.8-51.77-5.62-77.66-8.32
		c-17.47-1.83-34.93-3.7-52.44-5.14c-9.22-0.76-18.51-0.59-27.77-0.89c-30.34-0.97-60.67-2.34-91.01-2.82
		c-22.2-0.36-44.43,0.18-66.64,0.78c-24.43,0.66-48.85,1.57-73.25,2.87c-23.28,1.24-46.59,2.51-69.76,4.89
		c-26.53,2.73-52.94,6.56-79.37,10.21c-11.86,1.64-23.66,3.82-35.42,6.1c-6.68,1.29-13.57,2.47-19.74,5.15
		c-10.1,4.38-19.69,9.93-29.49,14.98C366.61,194.4,363.94,195.8,361.97,196.82z M562.85,250.49c-0.18,3.52-0.43,5.73-0.37,7.93
		c0.57,23,1.23,46,1.78,69c0.4,16.78,0.64,33.55,1.02,50.33c0.6,26.36,1.31,52.71,1.88,79.07c0.4,18.38,0.63,36.75,0.99,55.13
		c0.61,31.48,1.24,62.95,1.92,94.43c0.59,27.48,1.31,54.95,1.9,82.43c0.4,18.86,0.61,37.71,0.98,56.57
		c0.61,30.84,1.25,61.67,1.93,92.51c0.59,26.84,1.31,53.67,1.87,80.51c0.42,19.97,0.65,39.95,1,59.93
		c0.29,16.78,0.66,33.56,0.93,50.33c0.39,24.29,0.68,48.59,1.11,72.88c0.22,12.62,0.59,25.24,1.01,37.86
		c0.17,5.06,0.68,10.1,1.09,15.99c15.47-5.15,30.68-10.22,46.29-15.42c0.13-2.25,0.4-4.44,0.37-6.63
		c-0.31-24.13-0.64-48.27-1.02-72.4c-0.22-14.06-0.57-28.12-0.83-42.18c-0.34-18.38-0.7-36.75-0.97-55.13
		c-0.36-24.77-0.66-49.55-0.96-74.32c-0.34-28.61-0.66-57.23-0.98-85.84c-0.32-27.81-0.63-55.63-0.95-83.44
		c-0.31-27.17-0.61-54.35-0.96-81.52c-0.28-21.9-0.63-43.79-0.94-65.69c-0.32-22.54-0.67-45.07-0.96-67.61
		c-0.35-26.53-0.67-53.07-0.96-79.6c-0.35-31.97-0.75-63.94-0.97-95.92c-0.16-23.03-0.06-46.06-0.12-69.09
		c-0.01-2.15-0.36-4.31-0.58-6.85C599.01,252.67,581.28,251.6,562.85,250.49z M622.62,253.46c-0.26,2.61-0.63,4.46-0.59,6.3
		c0.21,9.42,0.67,18.84,0.78,28.26c0.39,32.93,0.63,65.86,1,98.79c0.26,23.81,0.65,47.63,0.94,71.44
		c0.34,27.65,0.66,55.3,0.98,82.95c0.32,28.13,0.64,56.26,0.96,84.39c0.32,27.81,0.62,55.62,0.96,83.43
		c0.29,23.49,0.61,46.99,0.95,70.48c0.3,20.93,0.67,41.87,0.95,62.8c0.35,26.37,0.66,52.74,0.97,79.12
		c0.33,28.13,0.67,56.26,0.97,84.39c0.36,34.53,0.64,69.06,1.05,103.58c0.12,10.06,0.51,20.12,1,30.17
		c0.08,1.72,0.88,3.99,2.14,4.96c7.35,5.65,14.87,11.07,22.47,16.37c3.38,2.36,7.21,2.98,11.22,1.45c-0.18-2.02-0.45-3.76-0.49-5.5
		c-0.35-16.62-0.77-33.23-0.95-49.85c-0.39-37.41-0.62-74.81-0.95-112.22c-0.29-32.29-0.7-64.58-0.95-96.87
		c-0.37-48.92-0.66-97.84-0.97-146.76c-0.33-50.84-0.63-101.68-0.97-152.52c-0.3-45.4-0.67-90.81-0.94-136.21
		c-0.37-60.28-0.67-120.55-1-180.83c-0.03-6.08-0.01-12.15-0.08-18.23c-0.02-1.72-0.28-3.43-0.54-6.28
		C648.61,255.88,635.88,254.7,622.62,253.46z M464.5,239.46c0,2.95-0.03,4.67,0.01,6.39c0.3,13.42,0.56,26.84,0.94,40.26
		c0.6,20.92,1.27,41.84,1.93,62.76c0.62,19.48,1.28,38.96,1.9,58.44c0.66,20.76,1.29,41.52,1.94,62.28
		c0.62,19.8,1.27,39.6,1.89,59.4c0.65,20.76,1.29,41.52,1.94,62.28c0.63,19.96,1.27,39.92,1.91,59.88
		c0.64,20.28,1.29,40.56,1.93,60.84c0.64,20.44,1.28,40.88,1.92,61.32c0.64,20.44,1.27,40.88,1.92,61.32
		c0.63,19.8,1.28,39.6,1.91,59.4c0.65,20.6,1.29,41.2,1.93,61.8c0.63,20.28,1.27,40.56,1.91,60.84c0.64,20.44,1.35,40.88,1.92,61.32
		c0.44,15.82,0.63,31.64,1.13,47.45c0.16,5.2,0.93,10.38,1.44,15.8c11.53,2.71,22.64,3.32,34.84,3.16
		c-0.37-5.01-0.82-9.07-0.94-13.14c-0.69-23-1.3-46-1.93-69c-0.63-23-1.25-46-1.88-69c-0.66-24.28-1.34-48.56-1.95-72.84
		c-0.66-26.04-1.25-52.08-1.9-78.12c-0.63-25.08-1.29-50.16-1.95-75.24c-0.62-23.48-1.26-46.96-1.88-70.44
		c-0.67-25.56-1.29-51.12-1.97-76.67c-0.6-23-1.26-46-1.87-69c-0.67-25.24-1.31-50.48-1.97-75.71c-0.62-23.8-1.26-47.6-1.88-71.4
		c-0.66-25.08-1.34-50.16-1.94-75.24c-0.43-17.9-0.71-35.79-1.13-53.69c-0.2-8.46-0.53-16.92-0.86-25.38
		c-0.05-1.38-0.43-2.74-0.77-4.77C490.36,243.03,477.95,241.31,464.5,239.46z M728.9,256.67c-0.16,3.04-0.39,5.38-0.39,7.73
		c-0.03,293.5-0.07,586.99-0.03,880.49c0,19.02,0.5,38.04,1.03,57.05c0.06,2.03,1.45,5.32,2.94,5.79
		c7.68,2.46,15.59,4.19,24.07,6.34c0.29-2.86,0.62-4.7,0.63-6.54c0.3-49.89,0.6-99.77,0.83-149.66
		c0.35-73.08,0.65-146.16,0.96-219.24c0.32-74.36,0.64-148.72,0.96-223.07c0.32-72.92,0.69-145.84,0.94-218.76
		c0.15-44.62,0.12-89.25,0.13-133.87c0-1.98-0.44-3.96-0.71-6.26C749.7,256.67,739.71,256.67,728.9,256.67z M666.74,256.43
		c-0.28,3.31-0.62,5.2-0.55,7.06c0.17,4.63,0.74,9.24,0.77,13.87c0.37,50.36,0.66,100.72,0.98,151.07
		c0.32,51.32,0.63,102.64,0.98,153.95c0.29,42.2,0.6,84.41,0.95,126.61c0.28,33.25,0.68,66.49,0.94,99.74
		c0.36,45.24,0.67,90.48,0.96,135.72c0.35,54.52,0.67,109.03,0.98,163.55c0.08,13.43,0.02,26.87,0.18,40.3
		c0.05,4.08,0.59,8.15,0.9,12.1c9.05-2.03,17.62-3.95,27.29-6.12c0.08-1.75,0.36-4.85,0.35-7.95
		c-0.29-152.07-0.59-304.13-0.91-456.2c-0.3-142.31-0.64-284.62-0.96-426.93c0-1.12,0.08-2.25-0.05-3.36
		c-0.14-1.22-0.48-2.42-0.96-4.75C688.05,255.54,677.67,255.97,666.74,256.43z M837.39,282.14c-0.26,2.72-0.49,4.12-0.53,5.53
		c-0.3,11.98-0.68,23.95-0.81,35.93c-0.4,37.4-0.67,74.8-1.05,112.2c-0.25,24.61-0.55,49.22-0.93,73.83
		c-0.58,37.71-1.3,75.41-1.87,113.12c-0.4,26.05-0.67,52.1-0.99,78.14c-0.34,27.65-0.66,55.29-0.99,82.94
		c-0.32,27.17-0.67,54.33-0.94,81.5c-0.39,39.16-0.69,78.32-1.1,117.48c-0.12,11.02-0.57,22.03-0.74,33.05
		c-0.39,25.09-0.72,50.17-1.02,75.26c-0.02,1.67,0.44,3.35,0.77,5.74c10.07-0.86,19.98,1.96,29.86-2.9c0-7.5-0.17-14.64,0.03-21.77
		c0.46-15.96,1.21-31.92,1.65-47.88c0.44-15.97,0.68-31.95,0.97-47.92c0.35-19.33,0.65-38.66,0.99-58
		c0.3-16.77,0.63-33.55,0.93-50.32c0.34-19.33,0.65-38.66,0.99-58c0.29-16.13,0.62-32.27,0.92-48.4
		c0.33-17.57,0.65-35.15,0.98-52.72c0.32-17.09,0.64-34.19,0.95-51.28c0.34-18.85,0.65-37.71,0.98-56.56
		c0.31-17.57,0.62-35.15,0.93-52.72c0.33-18.37,0.63-36.75,0.99-55.12c0.27-14.06,0.66-28.11,0.91-42.17
		c0.68-38.66,1.39-77.33,1.94-115.99c0.24-17.11,0.11-34.22,0.13-51.33c0-1.24-0.16-2.47-0.31-4.7
		C859.75,280.12,848.77,281.11,837.39,282.14z M531.21,248.18c-0.18,2.68-0.48,4.7-0.44,6.72c0.61,28.12,1.25,56.23,1.91,84.35
		c0.25,10.7,0.59,21.4,0.87,32.1c0.66,25.72,1.33,51.43,1.96,77.15c0.35,14.38,0.62,28.76,0.93,43.13
		c0.65,29.24,1.3,58.47,1.96,87.71c0.29,12.62,0.6,25.24,0.92,37.86c0.65,25.88,1.32,51.75,1.94,77.63
		c0.66,27.64,1.25,55.27,1.91,82.91c0.62,26.36,1.29,52.71,1.93,79.07c0.65,26.84,1.28,53.67,1.91,80.51
		c0.66,28.28,1.31,56.55,1.93,84.83c0.36,16.14,0.67,32.27,0.98,48.41c0.35,18.38,0.62,36.75,1.06,55.13
		c0.11,4.59,0.78,9.17,1.21,14.02c8.86,3.66,14.06,12.51,23.99,15.65c0.23-2.64,0.56-4.35,0.5-6.05c-0.23-6.86-0.7-13.72-0.87-20.58
		c-0.69-28.12-1.33-56.23-1.94-84.35c-0.36-16.78-0.64-33.55-0.96-50.33c-0.32-16.62-0.64-33.23-0.98-49.85
		c-0.31-15.34-0.61-30.67-0.96-46.01c-0.62-27.32-1.34-54.63-1.89-81.95c-0.71-34.67-1.28-69.35-1.95-104.02
		c-0.28-14.7-0.62-29.4-0.95-44.09c-0.64-28.6-1.31-57.19-1.91-85.79c-0.38-18.22-0.6-36.43-0.97-54.65
		c-0.61-30.52-1.27-61.03-1.93-91.54c-0.61-28.28-1.35-56.55-1.87-84.83c-0.47-25.25-0.73-50.51-1.06-75.76
		c-0.08-6.24-0.01-12.48-0.12-18.71c-0.04-2-0.44-4-0.76-6.63C548.69,249.52,540.19,248.87,531.21,248.18z M790.86,286.2
		c-0.38,4.23-0.91,7.52-0.93,10.82c-0.36,47.8-0.64,95.59-0.95,143.39c-0.32,49.08-0.64,98.15-0.98,147.23
		c-0.29,41.56-0.56,83.12-0.94,124.68c-0.18,19.01-0.74,38.03-0.91,57.04c-0.4,44.28-0.68,88.56-0.99,132.84
		c-0.34,49.4-0.71,98.79-0.99,148.19c-0.11,19.99-0.01,39.98-0.06,59.97c-0.03,11.83-0.28,23.66-0.18,35.49
		c0.14,17.55,0.43,35.09,0.81,52.64c0.19,8.93,0.99,17.86,1.03,26.79c0.05,11.02-0.61,22.04-0.55,33.06
		c0.04,6.85,8.41,13.94,15.37,13.07c0.19-1.87,0.54-3.87,0.56-5.87c0.36-29.89,0.69-59.77,0.99-89.66
		c0.35-34.84,0.65-69.69,1-104.53c0.27-27.01,0.57-54.02,0.91-81.03c0.28-21.89,0.68-43.78,0.95-65.68
		c0.36-28.93,0.67-57.86,0.96-86.78c0.36-36.12,0.67-72.25,1.02-108.37c0.28-29.09,0.57-58.18,0.92-87.26
		c0.27-22.21,0.7-44.42,0.94-66.64c0.38-35.48,0.68-70.97,0.96-106.45c0.39-50.04,0.72-100.07,1.12-150.11
		c0.09-10.54,0.41-21.08,0.56-31.63c0.01-0.88-0.46-1.76-0.87-3.22C804.22,284.83,797.97,285.47,790.86,286.2z M779.46,1258.21
		c0.81-1.34,1.22-1.73,1.26-2.15c0.18-1.74,0.37-3.5,0.32-5.25c-0.61-23.47-1.56-46.94-1.82-70.42c-0.3-26.99-0.09-53.99,0.06-80.98
		c0.08-14.06,0.52-28.12,0.76-42.17c0.35-20.45,0.77-40.91,0.96-61.36c0.4-43.8,0.67-87.61,0.98-131.41
		c0.33-45.4,0.66-90.8,0.98-136.21c0.34-47.64,0.66-95.28,0.99-142.92c0.31-44.28,0.58-88.57,0.93-132.85
		c0.26-33.41,0.87-66.82,0.87-100.22c0-26.92,1.21-53.88-1.67-80.77c-0.96-8.97-7.82-14.57-17.76-13.1
		c-0.14,1.59-0.41,3.29-0.43,4.99c-0.31,38.05-0.67,76.09-0.86,114.14c-0.38,73.71-0.67,147.42-1,221.12
		c-0.31,71.47-0.58,142.94-0.95,214.41c-0.24,45.56-0.81,91.12-0.91,136.69c-0.18,82.2-0.1,164.4-0.17,246.6
		c-0.02,17.43-0.3,34.85-0.27,52.27c0,1.65,1.02,4.29,2.23,4.76C769.07,1255.37,774.43,1256.71,779.46,1258.21z M704.84,256.67
		c-0.15,3.09-0.38,5.59-0.37,8.08c0.29,112.09,0.73,224.18,0.86,336.28c0.17,138.65,0.01,277.31,0.15,415.96
		c0.04,44.44,0.56,88.89,0.89,133.33c0.01,1.86,0.38,3.72,0.65,6.24c8.46,0.49,10.73,8.96,16.83,13.33c0-304.79,0-608.8,0-913.22
		C717.44,256.67,711.61,256.67,704.84,256.67z M816.4,284.42c-0.26,2.23-0.57,3.77-0.59,5.32c-0.34,19.81-0.72,39.62-0.95,59.44
		c-0.36,30.85-0.57,61.69-0.91,92.54c-0.28,25.57-0.69,51.14-0.94,76.71c-0.37,37.72-0.63,75.45-0.99,113.17
		c-0.27,27.97-0.59,55.94-0.95,83.91c-0.27,21.25-0.68,42.5-0.93,63.76c-0.37,30.85-0.67,61.69-0.98,92.54
		c-0.33,32.45-0.65,64.89-0.96,97.34c-0.34,35.96-0.65,71.93-1.01,107.89c-0.26,26.37-0.55,52.74-0.9,79.11
		c-0.25,18.85-0.74,37.71-0.92,56.56c-0.17,17.27-0.09,34.54-0.08,51.81c0,1.7,0.3,3.39,0.45,4.99c11.16,1.1,14.62-1.99,14.72-12.25
		c0.24-24.29,0.59-48.58,0.9-72.87c0.32-24.93,0.65-49.86,0.96-74.79c0.34-27.01,0.66-54.02,0.99-81.03
		c0.33-27.65,0.65-55.3,0.97-82.94c0.31-26.53,0.56-53.06,0.97-79.59c0.56-36.27,1.3-72.54,1.85-108.81
		c0.43-28.77,0.69-57.54,1.03-86.3c0.31-25.73,0.59-51.46,0.95-77.19c0.6-43.14,1.27-86.29,1.88-129.43
		c0.36-25.25,0.79-50.5,0.93-75.75c0.18-33.1,0.12-66.2,0.11-99.3c0-1.82-0.47-3.64-0.84-6.3
		C825.95,283.47,821.31,283.93,816.4,284.42z M547.15,1137.54c-0.4-6.77-0.91-12.77-1.08-18.78c-0.7-24.75-1.35-49.51-1.91-74.27
		c-0.42-18.85-0.65-37.71-1.02-56.56c-0.26-13.42-0.6-26.84-0.93-40.25c-0.64-26.36-1.3-52.71-1.93-79.07
		c-0.35-14.7-0.6-29.4-0.96-44.09c-0.6-24.12-1.34-48.23-1.9-72.35c-0.71-30.51-1.25-61.03-1.96-91.54
		c-0.56-24.28-1.29-48.55-1.87-72.83c-0.69-28.75-1.31-57.51-1.96-86.26c-0.3-13.42-0.61-26.84-0.93-40.25
		c-0.65-27.95-1.31-55.91-1.96-83.86c-0.32-14.06-0.64-28.11-0.92-42.17c-0.38-18.85-0.69-37.71-1.11-56.56
		c-0.2-8.94-0.54-17.88-0.89-26.82c-0.05-1.22-0.48-2.43-0.88-4.32c-5.17-0.62-10.22-1.22-15.82-1.89c-0.21,3.3-0.52,5.49-0.47,7.67
		c0.59,22.84,1.24,45.67,1.86,68.51c0.66,24.28,1.3,48.55,1.93,72.83c0.65,24.6,1.28,49.19,1.92,73.79
		c0.63,23.96,1.28,47.91,1.91,71.87c0.65,24.6,1.28,49.19,1.92,73.79c0.64,24.44,1.28,48.87,1.92,73.31
		c0.63,24.12,1.27,48.23,1.91,72.35c0.64,24.12,1.31,48.23,1.91,72.35c0.68,26.99,1.25,53.99,1.95,80.99
		c0.56,21.72,1.29,43.43,1.87,65.15c0.7,26.19,1.39,52.39,1.94,78.59c0.48,23.01,0.69,46.03,1.16,69.04
		c0.08,3.76,0.88,7.5,1.39,11.66C537.24,1137.54,541.57,1137.54,547.15,1137.54z M964.54,242.56
		c-61.28,4.56-121.61,9.05-181.95,13.53c-0.25,0.44-0.49,0.87-0.74,1.31c7.31,6.6,7.04,15.45,6.95,24.41
		c5.52-0.61,9.94-1.21,14.37-1.57c21.15-1.72,42.3-3.46,63.47-5.04c26.09-1.95,52.2-3.64,78.28-5.75c3.79-0.31,8.34-1.29,11-3.67
		C962.26,260.08,964.02,252.07,964.54,242.56z M861.93,1078.43c0.7,0.1,1.39,0.19,2.09,0.29c0.51-1.52,1.39-3.02,1.46-4.56
		c0.72-15,1.45-29.99,1.87-45c0.5-17.73,0.73-35.47,1.02-53.2c0.37-22.21,0.8-44.42,0.97-66.63c0.17-22.03-0.02-44.07,0.12-66.1
		c0.06-10.38,0.61-20.76,0.78-31.14c0.38-23.33,0.65-46.67,1-70c0.29-19.18,0.62-38.35,0.94-57.53c0.32-19.5,0.64-38.99,0.98-58.49
		c0.31-17.9,0.63-35.79,0.94-53.69c0.33-18.54,0.64-37.07,0.98-55.61c0.3-16.62,0.63-33.23,0.93-49.85
		c0.33-18.06,0.65-36.11,0.99-54.17c0.29-15.5,0.65-30.99,0.92-46.49c0.39-22.69,0.71-45.39,1.09-68.08
		c0.09-5.43,0.36-10.86,0.46-16.29c0.02-0.98-0.39-1.97-0.6-2.96c-0.37-0.08-0.74-0.16-1.11-0.24c-0.49,0.97-1.28,1.89-1.42,2.91
		c-0.46,3.48-0.92,6.99-0.97,10.49c-0.4,27.01-0.68,54.02-1.05,81.03c-0.25,18.38-0.57,36.75-0.87,55.13
		c-0.33,20.13-0.66,40.27-1.02,60.4c-0.27,15.34-0.61,30.67-0.89,46.01c-0.35,19.02-0.65,38.03-1,57.05
		c-0.29,15.5-0.62,30.99-0.91,46.49c-0.34,18.06-0.67,36.11-1,54.17c-0.31,16.94-0.63,33.87-0.93,50.81
		c-0.34,19.49-0.65,38.99-1,58.48c-0.29,15.98-0.63,31.95-0.92,47.93c-0.35,19.17-0.66,38.35-1,57.53
		c-0.29,16.3-0.62,32.59-0.92,48.89c-0.35,19.33-0.66,38.67-1.01,58c-0.3,16.3-0.65,32.59-0.92,48.89
		C861.86,1068.08,861.93,1073.26,861.93,1078.43z M371.79,211.08c-3.46-6.17-8.71-8.35-15.18-8.81c-3.25-0.23-5.66,0.33-7.11,3.43
		c-1.77,3.78-1.08,7.29,2.45,10.31c2.52,2.15,5.34,4.8,8.94,2.73C364.58,216.61,367.9,213.85,371.79,211.08z M367.35,219.58
		c0.07,0.23,0.14,0.46,0.21,0.69c4.87-0.62,9.73-1.23,14.6-1.85c0.04-0.3,0.08-0.61,0.13-0.91c-1.72-1.05-3.43-2.1-5.29-3.24
		C373.65,216.11,370.5,217.85,367.35,219.58z"/>
</g>
</svg>
