<svg width="345" height="247" viewBox="0 0 345 247" fill="none" xmlns="http://www.w3.org/2000/svg">
<path d="M95.7635 84.7201C96.2691 84.3475 96.7748 83.9483 97.3071 83.629C98.4516 82.9104 99.1968 82.0055 98.9307 80.5684C98.9041 80.4353 98.9839 80.2757 99.0105 80.116C101.379 80.9144 103.748 80.6216 106.09 80.4087C107.102 80.3023 108.113 80.1426 109.124 80.0894C109.71 80.0628 109.923 79.8765 109.79 79.2643C109.577 78.3329 109.444 77.3748 109.178 76.4699C109.071 76.1506 108.752 75.7514 108.432 75.6449C106.463 75.0328 104.52 75.0328 102.497 75.5917C100.288 76.2038 98.0257 76.5764 95.7635 76.949C95.0715 77.0554 94.2996 76.8957 93.6342 76.6828C91.3187 75.9377 89.5887 76.4433 88.2047 78.4659C87.5394 79.3974 87.0337 80.4353 86.4481 81.42C85.9957 82.1918 85.5964 82.9902 85.0908 83.7354C82.5889 87.3815 79.9806 90.9743 77.5586 94.7002C75.3762 98.0269 72.3421 100.449 69.2547 102.817C64.9963 106.117 60.658 109.338 56.2931 112.478C54.2969 113.889 52.0879 114.98 50.0119 116.31C46.2858 118.706 42.5862 121.154 38.9133 123.629C34.4154 126.69 29.6779 129.298 24.8871 131.853C19.9101 134.487 15.1193 137.521 10.2487 140.369C9.79629 140.635 9.31721 140.848 8.83814 141.088C8.75829 140.981 8.70507 140.875 8.62522 140.768C8.86476 140.555 9.07768 140.289 9.34383 140.129C15.5984 136.244 21.9861 132.545 28.4802 129.085C33.6435 126.317 38.4343 122.884 43.3847 119.744C45.7268 118.253 48.0424 116.736 50.4111 115.272C50.9967 114.9 51.2362 114.527 51.316 113.835C51.9016 107.421 52.5403 101.008 53.1525 94.5937C53.6848 88.9783 54.2171 83.3628 54.7494 77.7474C55.0422 74.7134 55.3349 71.6529 55.6543 68.6189C55.8939 66.4366 56.0802 64.2543 56.4262 62.0986C56.9585 58.9316 59.0078 56.7759 61.696 55.3122C64.0381 54.0347 66.6464 53.4492 69.3079 53.1831C69.7072 53.1299 70.133 53.1299 70.5588 53.1831C75.669 53.9283 80.8057 53.396 85.9158 53.4226C89.7484 53.4226 93.581 53.3694 97.4136 53.3428C97.7862 53.3428 98.1588 53.3428 98.7444 53.3428C98.5314 52.7839 98.3717 52.3315 98.1854 51.9323C96.1361 47.541 96.5619 43.2296 98.2919 38.865C100.102 34.2609 106.037 33.4093 109.257 36.2835C113.09 39.7167 115.272 43.8418 114.394 49.1645C114.234 50.0959 114.181 51.0806 113.942 51.9855C113.729 52.8637 113.968 53.1299 114.847 53.1033C118.014 53.1033 121.181 53.1033 124.348 53.1033C134.382 53.0234 144.389 52.9702 154.423 52.8903C160.279 52.8371 166.161 52.7839 172.016 52.7307C172.442 52.7307 172.841 52.8105 173.267 52.8371C173.267 52.9702 173.267 53.0766 173.294 53.2097C172.921 53.2629 172.575 53.3694 172.202 53.396C164.058 53.4758 155.914 53.5291 147.796 53.6089C139.519 53.6621 131.268 53.742 122.991 53.8218C120.196 53.8484 117.375 53.9283 114.58 53.9283C113.782 53.9283 113.409 54.1944 113.25 54.9662C113.09 55.7114 112.824 56.4299 112.558 57.3348C113.063 57.3348 113.516 57.3348 113.942 57.3348C137.656 57.2816 161.37 57.2283 185.084 57.2017C197.114 57.1751 209.144 57.2017 221.174 57.2284C228.014 57.255 234.828 57.3082 241.668 57.3348C242.333 57.3348 242.999 57.2816 243.664 57.2284C245.607 57.0421 246.885 58.0268 247.071 59.9962C247.177 60.9542 247.098 61.9656 247.098 62.9236C248.242 62.9503 249.147 62.0986 249.307 60.7946C249.387 60.1292 249.36 59.4639 249.333 58.7985C249.307 57.5477 249.2 56.3235 249.2 55.0727C249.2 54.2476 248.801 54.0081 248.082 54.0081C246.991 54.0081 245.9 54.0081 244.835 54.0081C238.794 53.9815 232.779 53.9815 226.737 53.9283C218.779 53.875 210.848 53.7952 202.89 53.742C195.171 53.6888 187.453 53.6089 179.708 53.5557C177.978 53.5291 176.275 53.4758 174.545 53.4226C174.252 53.4226 173.959 53.3162 173.666 53.2629C173.666 53.1565 173.666 53.05 173.64 52.917C173.986 52.8637 174.358 52.7307 174.704 52.7573C178.697 52.8105 182.689 52.917 186.654 52.9436C193.282 52.9702 199.935 52.9702 206.563 52.9968C216.676 53.05 226.79 53.1299 236.904 53.2097C244.596 53.2629 252.288 53.3428 259.979 53.396C264.637 53.4492 269.295 53.5025 273.952 53.5557C274.325 53.5557 274.724 53.5557 275.097 53.5025C279.728 52.7839 283.827 54.0347 287.393 56.9356C289.496 58.6389 290.454 60.9809 290.747 63.6954C291.572 71.8658 292.53 80.0361 293.382 88.2065C294.233 96.4833 294.952 104.76 295.75 113.064C296.549 121.34 297.374 129.617 298.172 137.921C298.838 144.947 299.503 151.946 300.168 158.972C300.328 160.515 300.514 162.086 300.621 163.629C300.674 164.428 301.047 164.614 301.765 164.614C305.491 164.587 309.244 164.614 312.97 164.561C313.795 164.561 314.195 164.8 314.594 165.545C322.153 180.422 329.738 195.273 337.323 210.15C337.536 210.575 337.722 211.028 337.909 211.48C337.802 211.534 337.722 211.587 337.616 211.64C337.43 211.374 337.19 211.108 337.03 210.788C333.704 204.295 330.377 197.774 327.076 191.254C322.818 182.897 318.533 174.541 314.301 166.184C313.902 165.412 313.449 165.146 312.598 165.146C309.111 165.199 305.651 165.173 302.165 165.199C300.86 165.199 300.807 165.226 300.94 166.557C301.339 170.815 301.765 175.073 302.165 179.305C302.644 184.148 303.096 189.019 303.575 193.862C303.655 194.528 303.442 195.007 302.777 195.193C301.845 195.432 300.887 195.805 299.929 195.805C298.412 195.805 297.773 195.113 297.613 193.623C297.187 189.551 296.815 185.506 296.416 181.434C295.91 176.191 295.378 170.975 294.872 165.732C294.792 164.907 294.26 164.987 293.701 164.987C290.188 164.987 286.674 165.013 283.161 165.013C274.245 165.04 265.356 165.04 256.44 165.066C252.9 165.066 249.36 165.12 245.82 165.173C245.634 165.173 245.447 165.226 245.128 165.253C245.128 166.876 245.155 168.446 245.128 170.043C245.075 173.183 244.835 176.271 243.851 179.278C243.345 180.848 242.36 181.913 240.843 182.525C239.379 183.11 237.942 183.456 236.318 183.456C226.817 183.456 217.289 183.563 207.787 183.643C200.148 183.696 192.536 183.776 184.898 183.829C179.601 183.882 174.305 183.935 169.009 183.935C160.465 183.909 151.895 183.802 143.351 183.749C135.527 183.696 127.702 183.643 119.903 183.563C116.55 183.536 113.196 183.456 109.843 183.403C109.55 183.403 109.257 183.376 108.991 183.35C104.706 182.764 103.056 181.247 102.311 176.67C101.938 174.328 101.938 171.933 101.779 169.537C101.699 168.34 101.725 167.116 101.619 165.918C101.592 165.678 101.193 165.439 100.927 165.226C100.82 165.146 100.607 165.199 100.448 165.199C84.7714 165.146 69.095 165.093 53.4186 165.013C52.5936 165.013 52.2476 165.253 52.1677 166.104C51.7153 170.921 51.2096 175.738 50.7305 180.582C50.3047 184.867 49.8522 189.152 49.453 193.436C49.24 195.592 48.5747 195.911 46.3922 195.858C45.5671 195.832 44.7421 195.432 43.9702 195.06C43.7041 194.927 43.5178 194.341 43.5444 193.969C43.8638 190.19 44.2098 186.41 44.5824 182.631C45.1147 177.149 45.647 171.64 46.2059 166.157C46.2591 165.492 46.0728 165.226 45.3808 165.226C41.6015 165.226 37.8487 165.226 34.0694 165.199C33.2975 165.199 33.0314 165.678 32.7652 166.237C28.8528 173.955 24.9137 181.647 21.0013 189.338C17.355 196.497 13.6821 203.656 10.0092 210.815C9.84952 211.134 9.60998 211.4 9.42368 211.693C9.34383 211.64 9.23737 211.613 9.15752 211.56C9.23737 211.294 9.2906 211.001 9.42368 210.735C14.9863 199.824 20.5488 188.912 26.1114 178.001C28.214 173.875 30.3432 169.777 32.4192 165.625C32.7918 164.853 33.2443 164.561 34.096 164.587C37.7423 164.641 41.3619 164.614 45.0082 164.641C46.339 164.641 46.3124 164.641 46.4455 163.363C47.0576 157.082 47.6698 150.801 48.2819 144.521C48.415 143.163 48.5214 141.806 48.4416 140.289C47.4568 141.274 46.4721 142.205 45.5139 143.217C42.6661 146.224 39.8183 149.231 36.9704 152.265C35.48 153.835 34.096 155.512 32.5257 157.029C29.944 159.531 27.3357 162.006 24.621 164.374C20.8682 167.648 17.0622 170.841 13.2297 174.035C11.8723 175.153 10.3818 176.084 8.94461 177.096C8.70507 177.255 8.4123 177.362 8.14615 177.495C8.09292 177.415 8.01307 177.335 7.95984 177.255C8.11953 177.042 8.2526 176.776 8.46553 176.643C14.0281 172.971 18.9785 168.553 23.929 164.135C25.446 162.778 27.1228 161.58 28.5866 160.143C30.5295 158.227 32.3394 156.151 34.2291 154.155C34.9743 153.356 35.7195 152.585 36.4647 151.813C39.5255 148.593 42.533 145.346 45.6204 142.152C46.9778 140.768 48.4682 139.517 49.8788 138.16C52.8597 135.312 55.814 132.465 58.7683 129.617C59.1143 129.298 59.4603 128.952 59.8595 128.686C64.3575 125.785 67.9772 121.926 71.4638 117.907C74.631 114.288 78.3039 111.254 82.2163 108.459C83.3342 107.661 84.1858 106.517 85.1972 105.532C85.5432 105.186 85.9424 104.813 86.3683 104.68C89.5355 103.696 92.1704 101.833 94.3529 99.4374C96.9345 96.643 99.8888 94.3542 103.056 92.3316C103.801 91.8525 104.68 91.613 105.531 91.3469C108.166 90.5751 110.801 89.8565 113.463 89.1113C114.075 88.9251 114.687 88.7121 115.246 88.446C117.269 87.5411 117.402 85.8645 115.672 84.5604C115.805 85.3322 116.151 86.1839 116.071 86.9823C115.964 87.9936 114.953 88.3129 114.101 88.5791C112.691 89.0315 111.28 88.446 110.854 87.3282C110.349 85.8911 111.147 84.8 113.489 83.5491C112.611 83.6556 111.679 83.6556 110.828 83.8951C109.071 84.4008 107.314 84.8798 105.664 85.5984C103.003 86.7694 100.235 87.5145 97.387 87.8605C96.2958 87.9936 95.1779 87.7807 94.0601 87.7008C93.8738 87.6742 93.7141 87.5145 93.581 87.1686C94.1932 87.1419 94.8319 87.0887 95.657 87.0355C94.7521 85.0129 93.927 83.1233 93.1019 81.2604C93.235 81.1805 93.3415 81.1273 93.4745 81.0475C94.3262 81.5797 94.273 82.7773 94.965 83.4959C96.0296 82.591 95.9764 81.3136 96.0562 80.0894C96.1893 80.116 96.349 80.116 96.4821 80.1426C96.5353 80.6216 96.7216 81.1539 96.6152 81.6063C96.4022 82.3515 95.9498 83.0435 95.6836 83.762C95.7102 83.9483 95.7901 84.3475 95.7635 84.7201C96.003 85.3588 96.1893 86.0242 96.4821 86.6629C96.7216 87.2218 97.1475 87.2484 97.4934 86.7427C97.9991 85.971 98.1854 85.0927 97.9725 84.3209C97.1741 84.454 96.4821 84.587 95.7635 84.7201ZM117.668 118.466C117.615 117.96 117.641 117.721 117.588 117.481C116.177 110.535 114.767 103.589 113.356 96.6696C113.17 95.818 112.265 95.2058 111.413 95.4986C109.55 96.1373 107.767 95.7381 105.984 95.1792C104.892 94.8333 103.775 94.5139 102.657 94.301C101.326 94.0615 101.22 94.1679 101.246 95.5252C101.326 100.582 101.459 105.665 101.539 110.722C101.672 118.652 101.805 126.61 101.912 134.541C101.991 140.422 102.071 146.277 102.151 152.159C102.231 157.987 102.337 163.842 102.391 169.67C102.417 172.944 102.604 176.164 103.695 179.278C104.094 180.449 104.786 181.327 105.93 181.753C107.022 182.152 108.166 182.525 109.337 182.658C111.041 182.844 112.771 182.818 114.501 182.818C122.485 182.897 130.47 182.951 138.428 183.004C146.971 183.084 155.541 183.164 164.085 183.19C172.149 183.217 180.24 183.137 188.305 183.11C196.981 183.057 205.658 182.977 214.361 182.924C221.281 182.871 228.227 182.897 235.147 182.818C237.223 182.791 239.299 182.738 241.216 181.726C241.642 181.487 242.041 181.194 242.6 180.848C241.482 180.848 240.604 180.848 239.725 180.848C235.839 180.795 231.927 180.715 228.041 180.688C217.901 180.609 207.734 180.555 197.593 180.476C197.221 180.476 196.848 180.369 196.502 180.342C196.502 180.236 196.529 180.13 196.529 180.023C196.848 179.997 197.167 179.97 197.487 179.97C202.278 179.997 207.068 179.997 211.859 180.023C212.578 180.023 212.897 179.837 212.897 179.065C212.924 168.446 212.95 157.827 212.977 147.209C212.977 146.969 212.897 146.73 212.87 146.623C207.201 146.65 201.639 147.049 195.996 145.851C196.156 156.976 196.316 168.047 196.449 179.145C196.289 179.172 196.129 179.172 195.97 179.198C195.917 178.746 195.81 178.267 195.81 177.814C195.73 173.29 195.677 168.766 195.624 164.215C195.544 157.162 195.464 150.11 195.358 143.084C195.304 138.932 195.225 134.78 195.171 130.655C195.145 129.564 195.278 129.564 196.316 129.67C197.966 129.857 199.616 130.043 201.266 130.043C204.114 130.07 206.935 129.936 209.783 129.883C211.061 129.857 211.061 129.857 211.061 128.606C211.007 120.915 210.981 113.223 210.928 105.532C210.901 102.737 210.848 99.9164 210.928 97.122C210.954 95.951 210.049 95.7647 209.41 95.2857C208.852 94.8599 208.399 95.1526 207.947 95.4454C207.015 96.0575 206.084 96.6962 205.099 97.2019C204.221 97.6809 203.981 98.3196 203.981 99.2777C204.034 108.965 204.034 118.679 204.034 128.366C204.034 128.765 203.954 129.191 203.901 129.591C203.795 129.591 203.688 129.591 203.582 129.591C203.529 129.245 203.449 128.899 203.422 128.553C203.395 118.413 203.369 108.273 203.369 98.1067C203.369 97.8406 203.608 97.468 203.848 97.3083C204.966 96.5631 206.217 96.0043 207.228 95.1526C208.426 94.1413 209.357 94.4074 210.475 95.2058C211.167 95.7115 211.513 96.1639 211.54 97.0422C211.566 107.288 211.62 117.535 211.673 127.754C211.673 128.659 211.353 129.697 212.711 130.123C212.152 130.282 211.673 130.336 211.194 130.336C208.745 130.362 206.27 130.389 203.821 130.389C201.479 130.389 199.11 130.389 196.768 130.256C196.023 130.229 195.783 130.336 195.81 131.081C195.89 135.472 195.943 139.89 195.996 144.281C195.996 144.893 196.236 145.239 196.821 145.399C197.647 145.585 198.498 145.931 199.323 145.958C203.236 146.064 207.175 146.118 211.087 146.171C211.3 146.171 211.54 146.118 211.753 146.091C212.658 146.038 213.004 145.638 212.977 144.68C212.924 142.259 212.95 139.837 212.95 137.415C212.95 135.392 212.95 133.396 212.95 131.374C212.95 130.256 213.083 130.176 214.201 130.389C214.334 130.416 214.441 130.442 214.574 130.442C216.064 130.682 216.091 130.682 216.064 129.191C215.931 120.835 215.798 112.478 215.612 104.121C215.585 102.844 215.905 101.726 216.41 100.635C217.049 99.2511 218.353 98.7987 219.95 99.3842C221.52 99.9697 221.893 100.821 221.414 102.471C221.174 103.323 220.749 104.175 220.722 105.053C220.589 110.109 220.562 115.193 220.509 120.276C220.509 120.702 220.589 121.234 220.855 121.527C222.266 123.07 222.745 124.853 222.665 126.903C222.638 127.967 222.851 129.058 222.984 130.309C224.501 128.952 225.859 130.336 227.323 130.07C227.323 129.324 227.269 128.606 227.323 127.887C227.429 126.557 227.509 125.226 227.748 123.922C227.961 122.751 228.733 122.298 229.824 122.458C231.102 122.644 232.326 124.374 231.794 125.545C231.208 126.876 231.395 128.233 231.368 129.564C231.341 130.176 231.661 130.495 232.22 130.416C233.098 130.309 233.976 130.096 234.855 129.99C235.52 129.91 236.212 129.83 236.877 129.857C239.299 129.936 241.695 130.096 244.117 130.203C244.835 130.229 245.155 129.83 245.155 129.058C245.235 123.257 245.368 117.455 245.474 111.653C245.607 103.882 245.74 96.0841 245.847 88.3129C245.953 81.1273 246.033 73.9683 246.139 66.7826C246.139 65.9842 245.9 65.7713 245.101 65.7713C226.577 65.7979 208.08 65.8245 189.556 65.8245C163.898 65.8511 138.215 65.8511 112.558 65.8511C111.227 65.8511 111.174 65.9044 111.413 67.2084C111.919 69.7633 112.451 72.3448 112.93 74.8997C113.063 75.5917 113.383 75.9377 114.048 76.1506C115.086 76.4699 116.097 76.8425 117.135 77.2151C118.413 77.6942 119.691 78.1998 120.941 78.7587C121.633 79.0781 122.166 79.6103 122.166 80.462C122.139 81.287 121.607 81.766 120.941 82.1386C119.557 82.937 118.147 82.8838 116.683 82.4314C115.964 82.2184 115.246 82.0055 114.554 81.7926C114.474 81.8991 114.394 81.9789 114.341 82.0854C114.66 82.458 114.926 82.9104 115.326 83.1499C116.417 83.7886 117.428 84.6137 117.535 85.8645C117.641 87.0089 118.2 87.7274 118.945 88.446C119.105 88.6057 119.238 88.792 119.345 88.9783C119.85 89.8565 120.116 90.788 119.478 91.6662C118.865 92.4647 117.987 92.7308 117.002 92.4114C116.896 92.3848 116.763 92.3848 116.364 92.3582C116.736 92.8639 116.949 93.2098 117.215 93.5292C117.694 94.0881 117.934 94.6736 117.641 95.4454C117.455 95.951 117.322 96.5631 117.428 97.0688C118.573 103.19 119.77 109.284 120.941 115.379C121.5 118.28 121.5 118.28 124.375 117.747C124.481 117.721 124.561 117.721 124.668 117.694C126.823 117.029 128.979 116.656 131.242 117.348C131.934 117.561 132.679 117.614 133.424 117.694C134.702 117.827 135.952 117.907 137.23 118.014C136.219 117.002 135.127 116.284 134.089 115.485C132.333 114.155 131.055 112.531 130.709 110.242C130.044 106.011 130.656 101.966 132.572 98.1599C134.143 95.0196 138.481 93.9816 141.409 95.8712C143.511 97.2285 145.055 99.1446 146.519 101.114C147.849 102.871 148.222 104.84 148.036 106.996C147.743 110.269 146.678 113.197 144.336 115.618C143.831 116.151 143.458 116.763 143.618 117.694C145.135 117.428 146.572 117.162 148.009 116.949C148.861 116.816 149.739 116.603 150.564 116.736C152.693 117.056 154.796 117.561 156.925 117.907C158.123 118.093 159.347 118.093 160.838 118.2C159.454 115.539 158.975 112.718 156.233 111.36C155.435 110.961 155.515 110.509 156.153 109.87C156.606 109.417 156.925 108.885 157.378 108.246C156.499 108.007 155.861 107.874 155.302 107.634C155.036 107.528 154.769 107.155 154.716 106.863C154.69 106.729 155.089 106.437 155.355 106.304C155.914 105.984 156.499 105.745 157.271 105.372C156.366 105.213 155.754 105.159 155.195 104.973C154.902 104.893 154.53 104.574 154.477 104.334C154.45 104.068 154.69 103.669 154.956 103.456C155.328 103.163 155.834 103.057 156.233 102.817C156.553 102.631 156.819 102.338 157.298 101.939C156.606 101.753 156.18 101.7 155.834 101.513C155.435 101.3 155.142 100.954 154.796 100.662C155.115 100.395 155.408 100.05 155.781 99.8366C156.34 99.5439 156.978 99.3576 157.591 99.118C157.458 98.9051 157.458 98.8253 157.404 98.7987C156.659 98.3729 156.02 97.7874 156.366 96.8825C156.712 95.951 157.564 96.4035 158.203 96.4833C159.081 96.6164 159.56 96.3502 159.72 95.4188C159.8 95.0728 160.359 94.4873 160.572 94.5405C160.971 94.647 161.343 95.0728 161.636 95.4454C161.849 95.7115 161.876 96.1107 162.062 96.6962C162.488 96.1639 162.754 95.818 162.994 95.472C163.659 94.4873 164.085 94.4607 164.803 95.3921C164.99 95.6317 165.176 95.8446 165.203 95.8712C165.948 95.4454 166.746 94.7002 167.066 94.8865C167.625 95.1526 167.891 96.0309 168.263 96.643C168.796 96.6164 169.434 96.4567 170.047 96.5631C170.419 96.6164 170.872 97.0156 171.005 97.3615C171.085 97.6011 170.765 98.0801 170.499 98.3462C170.233 98.5858 169.834 98.6922 169.488 98.8785C169.594 99.0382 169.701 99.1979 169.807 99.3576C170.153 99.4374 170.579 99.464 170.872 99.6237C171.324 99.8898 171.777 100.183 172.069 100.608C172.495 101.221 172.389 101.726 171.51 101.886C171.138 101.939 170.792 102.232 170.419 102.418C170.446 102.525 170.446 102.631 170.472 102.737C171.031 102.924 171.59 103.11 172.149 103.296C172.708 103.509 173.187 103.908 172.948 104.494C172.841 104.76 172.202 104.867 171.803 104.946C171.404 105.026 170.978 104.973 170.552 104.973C170.552 105.079 170.552 105.159 170.552 105.266C171.431 105.878 172.415 106.384 172.655 107.688C172.282 107.714 171.989 107.714 171.723 107.767C171.351 107.874 171.005 108.06 170.632 108.193C170.818 108.513 170.978 108.885 171.218 109.151C171.51 109.524 171.936 109.79 172.229 110.163C172.841 110.988 172.708 111.413 171.697 111.6C170.978 111.733 170.605 112.105 170.366 112.797C170.047 113.649 169.567 114.474 169.168 115.299C168.742 116.204 168.343 117.135 167.944 118.04C167.997 118.12 168.077 118.2 168.13 118.28C170.339 117.907 172.522 117.508 174.731 117.135C174.731 117.268 174.757 117.402 174.757 117.561C167.012 119.61 159.267 119.105 151.336 117.455C151.549 126.716 151.735 135.925 151.948 145.106C152.401 145.239 152.747 145.372 153.119 145.479C156.313 146.49 159.507 147.634 162.94 147.262C166.666 146.836 170.393 146.277 174.119 145.772C174.864 145.665 174.917 145.186 174.917 144.601C174.944 140.875 175.024 137.149 175.024 133.396C175.05 128.553 175.05 123.709 175.077 118.839C175.077 118.413 175.157 118.014 175.183 117.588C175.29 117.588 175.423 117.588 175.529 117.561C175.583 117.96 175.662 118.36 175.662 118.759C175.609 127.142 175.556 135.525 175.503 143.935C175.503 144.574 175.263 145.372 176.115 145.372C175.902 145.931 175.529 146.463 175.529 146.996C175.449 152.132 175.396 157.269 175.37 162.405C175.343 167.754 175.343 173.13 175.316 178.48C175.316 179.837 175.077 180.05 173.773 180.05C165.788 180.103 157.804 180.183 149.819 180.236C143.671 180.289 137.496 180.316 131.348 180.396C126.957 180.449 122.538 180.555 118.147 180.635C116.31 180.662 114.447 180.662 112.611 180.609C111.2 180.582 109.87 180.263 108.725 179.411C107.66 178.586 106.702 177.628 106.649 176.138C106.356 169.378 106.064 162.618 105.797 155.885C105.451 146.73 105.105 137.601 104.759 128.446C104.626 124.72 104.44 120.994 104.28 117.268C104.28 116.949 104.36 116.63 104.36 116.497C108.805 117.189 113.17 117.827 117.668 118.466ZM246.006 114.66C245.873 121.34 245.74 128.632 245.607 135.951C245.447 145 245.341 154.075 245.208 163.124C245.181 164.507 245.208 164.507 246.539 164.507C253.565 164.481 260.592 164.428 267.591 164.401C276.241 164.374 284.891 164.374 293.541 164.348C294.739 164.348 294.712 164.321 294.606 163.177C294.047 157.721 293.515 152.265 292.982 146.809C292.45 141.38 291.918 135.951 291.385 130.522C290.773 124.401 290.161 118.28 289.549 112.159C288.937 106.091 288.351 100.05 287.766 93.9816C287.074 87.0887 286.435 80.2224 285.69 73.3295C285.424 70.8279 285.078 68.3262 284.572 65.8777C284.173 63.8551 282.895 62.3115 281.112 61.247C279.675 60.3687 278.025 60.3155 276.374 60.2889C275.975 60.2889 275.576 60.2091 275.177 60.1292C274.777 60.0228 274.378 59.7566 273.952 59.7566C266.314 59.6768 258.702 59.6502 251.063 59.5703C250.158 59.5703 249.733 59.73 249.733 60.768C249.706 62.1252 248.907 63.2164 247.683 63.4559C246.778 63.6422 246.698 64.0946 246.698 64.8398C246.592 72.3714 246.459 79.9031 246.352 87.4081C246.273 96.2172 246.139 105.133 246.006 114.66ZM100.634 94.9397C100.341 95.0462 100.182 95.0728 100.075 95.1526C98.8242 96.2172 97.4668 97.2285 96.3224 98.3995C93.5278 101.3 90.6001 103.962 86.6344 105.159C86.3417 105.239 86.0489 105.479 85.8892 105.718C84.9044 107.262 83.5205 108.353 82.03 109.391C78.3039 111.999 74.8971 114.953 71.9162 118.413C69.1216 121.66 66.2472 124.853 62.7606 127.355C60.312 129.111 58.0497 131.081 55.9737 133.237C55.6809 133.556 55.4414 134.035 55.3882 134.487C55.1486 136.563 54.9623 138.666 54.7494 140.768C54.0042 148.167 53.2589 155.539 52.5403 162.937C52.4073 164.295 52.4605 164.321 53.8179 164.348C63.559 164.401 73.2736 164.454 83.0148 164.507C88.7903 164.534 94.5658 164.534 100.341 164.534C101.672 164.534 101.699 164.534 101.672 163.23C101.566 156.284 101.433 149.338 101.326 142.365C101.193 133.955 101.06 125.519 100.927 117.109C100.82 110.056 100.741 103.004 100.661 95.951C100.687 95.6317 100.661 95.3655 100.634 94.9397ZM106.489 145.851C106.516 145.745 106.516 145.665 106.543 145.559C106.968 145.585 107.394 145.585 107.794 145.665C114.421 147.182 121.048 146.57 127.675 145.745C128.42 145.638 128.713 145.346 128.686 144.574C128.607 142.525 128.553 140.502 128.527 138.453C128.394 131.799 128.261 125.119 128.128 118.466C128.128 118.2 128.074 117.907 128.048 117.668C127.915 117.614 127.835 117.588 127.782 117.588C127.462 117.641 127.143 117.694 126.85 117.774C122.964 118.652 119.078 119.211 115.086 118.626C112.025 118.173 108.965 117.747 105.904 117.215C104.972 117.056 104.733 117.295 104.839 118.147C104.866 118.28 104.839 118.413 104.866 118.519C105.105 124.827 105.372 131.134 105.611 137.442C105.744 140.848 105.877 144.255 106.01 147.661C106.383 156.843 106.809 165.998 107.075 175.179C107.155 177.628 108.778 179.305 110.668 179.757C111.679 179.997 112.744 180.13 113.782 180.13C118.573 180.05 123.337 179.917 128.128 179.81C129.432 179.784 129.458 179.81 129.405 178.48C129.299 174.488 129.192 170.522 129.086 166.53C128.953 160.09 128.82 153.649 128.713 147.209C128.686 146.357 128.447 146.144 127.569 146.251C120.888 147.129 114.181 147.688 107.501 146.144C107.181 146.091 106.835 145.958 106.489 145.851ZM57.7569 110.509C58.2094 110.189 58.4755 110.03 58.7151 109.843C61.9887 107.395 65.289 105 68.5095 102.498C71.7033 100.023 74.8705 97.5212 77.1594 94.0615C80.4331 89.0847 84.1326 84.4008 86.9272 79.1047C87.1401 78.7055 87.3797 78.3329 87.6724 77.9869C89.2693 76.0707 91.0526 74.9263 93.7939 76.0175C94.2464 76.2038 94.8053 76.2836 95.2844 76.257C96.7482 76.0973 98.1854 75.8844 99.6227 75.6183C99.8888 75.5651 100.261 75.0594 100.261 74.7667C100.235 71.2537 100.182 67.7407 100.102 64.2543C100.102 63.9882 99.809 63.6156 99.5694 63.5358C97.8661 62.9503 97.1741 62.2051 97.0942 60.4486C97.041 59.6502 96.7216 59.4905 96.0296 59.5171C94.3795 59.5703 92.7027 59.6236 91.0526 59.6236C85.0908 59.6502 79.1289 59.6768 73.1405 59.6768C72.7945 59.6768 72.3155 59.597 72.1291 59.7833C71.4904 60.422 70.7185 60.2357 69.9733 60.2623C65.7415 60.3155 63.0001 62.4978 62.0952 66.6495C61.8823 67.6076 61.8823 68.6189 61.7758 69.577C61.35 73.7553 60.9507 77.9603 60.5249 82.1386C59.966 87.6476 59.4337 93.1832 58.8748 98.6922C58.5288 102.525 58.1562 106.41 57.7569 110.509ZM178.723 65.2124C178.723 65.1858 178.723 65.1592 178.723 65.1326C200.814 65.1326 222.904 65.1326 244.968 65.1326C246.219 65.1326 246.459 64.7866 246.193 63.5624C246.113 63.243 246.113 62.7906 246.273 62.5244C246.938 61.3268 246.619 60.1558 246.246 59.0115C245.953 58.1598 245.288 57.6808 244.33 57.7074C243.664 57.734 242.999 57.7606 242.333 57.7606C219.231 57.7606 196.129 57.734 173.027 57.734C153.093 57.734 133.131 57.7606 113.196 57.7606C112.345 57.7606 111.946 58.1066 111.653 58.8518C110.987 60.7413 111.12 62.6841 111.147 64.6269C111.174 65.2656 111.626 65.2922 112.105 65.2922C113.755 65.2656 115.432 65.2124 117.082 65.2124C137.629 65.2124 158.176 65.2124 178.723 65.2124ZM174.678 162.857C174.731 162.857 174.811 162.857 174.864 162.857C174.864 157.668 174.864 152.452 174.864 147.262C174.864 146.41 174.678 146.118 173.773 146.33C172.442 146.65 171.085 146.836 169.727 147.076C166.028 147.688 162.302 148.114 158.602 147.528C156.766 147.235 154.982 146.543 153.172 146.038C152.028 145.718 151.948 145.772 151.975 146.943C152.081 151.281 152.188 155.619 152.294 159.957C152.427 166.131 152.587 172.332 152.667 178.506C152.693 179.438 153.013 179.677 153.891 179.677C160.465 179.597 167.039 179.544 173.613 179.517C174.465 179.517 174.704 179.225 174.704 178.4C174.651 173.183 174.678 168.02 174.678 162.857ZM129.325 146.011C129.325 146.543 129.325 146.943 129.325 147.342C129.432 152.851 129.565 158.36 129.671 163.895C129.778 168.792 129.858 173.716 129.911 178.613C129.911 179.438 130.124 179.81 131.055 179.81C137.709 179.73 144.389 179.677 151.07 179.624C151.895 179.624 152.108 179.278 152.081 178.533C152.001 176.776 151.975 175.02 151.922 173.263C151.762 165.199 151.602 157.136 151.443 149.072C151.416 148.326 151.363 147.608 151.336 146.863C151.309 146.33 151.123 146.144 150.564 146.224C148.648 146.517 146.705 146.756 144.789 147.022C141.329 147.528 137.869 147.741 134.409 147.076C132.785 146.809 131.162 146.41 129.325 146.011ZM285.929 69.2843C286.009 70.2158 286.089 71.2005 286.195 72.2118C286.781 78.2796 287.393 84.3209 287.979 90.3888C288.591 96.5365 289.203 102.684 289.815 108.859C290.347 114.288 290.88 119.717 291.412 125.146C292.024 131.267 292.636 137.388 293.248 143.509C293.781 148.939 294.313 154.368 294.845 159.797C295.457 165.971 296.07 172.172 296.682 178.346C297.187 183.51 297.693 188.699 298.225 193.862C298.252 194.182 298.385 194.634 298.598 194.794C299.769 195.645 300.993 195.353 302.244 194.847C303.282 194.421 302.91 193.569 302.857 192.877C302.404 187.901 301.872 182.924 301.419 177.921C300.754 170.975 300.115 164.028 299.423 157.082C298.571 148.167 297.667 139.251 296.815 130.336C295.963 121.367 295.111 112.372 294.26 103.403C293.248 92.8372 292.237 82.2717 291.199 71.7061C291.093 70.5085 290.933 69.3375 290.826 68.2463C289.23 68.5657 287.686 68.9117 285.929 69.2843ZM128.82 117.508C128.793 118.014 128.74 118.413 128.766 118.812C128.846 123.31 128.899 127.807 129.006 132.305C129.086 136.004 129.192 139.704 129.299 143.403C129.378 145.638 128.926 145.213 131.375 145.958C137.762 147.874 144.15 146.756 150.511 145.772C151.363 145.638 151.363 145.08 151.336 144.414C151.176 137.202 151.043 130.016 150.91 122.804C150.884 121.207 150.804 119.61 150.777 118.014C150.777 117.375 150.644 117.082 149.899 117.215C148.701 117.455 147.503 117.561 146.306 117.801C141.701 118.785 137.07 118.865 132.439 118.093C131.215 117.907 130.07 117.721 128.82 117.508ZM227.269 145.559C227.296 145.053 227.349 144.654 227.349 144.255C227.349 140.529 227.349 136.803 227.323 133.05C227.323 130.762 227.323 130.762 225.087 130.282C223.996 130.043 223.942 130.096 223.942 131.214C223.942 135.658 223.942 140.076 223.969 144.521C223.969 144.947 224.209 145.399 224.342 145.905C224.235 146.224 223.969 146.676 223.969 147.129C223.942 157.801 223.969 168.499 223.942 179.172C223.942 179.997 224.235 180.209 225.007 180.209C228.227 180.183 231.448 180.183 234.668 180.236C235.547 180.263 235.76 179.943 235.733 179.118C235.653 176.324 235.626 173.503 235.6 170.708C235.52 162.937 235.44 155.14 235.36 147.368C235.36 147.076 235.334 146.756 235.307 146.41C231.687 147.076 228.281 146.703 225.007 145.426C225.034 145.292 225.06 145.159 225.06 145.026C225.779 145.159 226.444 145.346 227.269 145.559ZM113.809 82.591C113.755 82.1918 113.729 81.7926 113.649 81.3934C112.638 76.3102 111.546 71.2271 110.641 66.0907C110.162 63.2962 110.109 60.4486 111.413 57.7606C113.037 54.4605 113.702 50.9209 113.888 47.3015C114.128 42.6708 111.839 39.1578 108.299 36.4432C105.212 34.0746 100.714 35.2722 99.0637 38.7852C97.6798 41.7393 97.1208 44.8531 97.6798 48.0999C98.2387 51.4 99.8622 54.221 102.098 56.6429C105.079 59.8631 107.341 63.4293 108.193 67.8205C109.018 72.1053 109.923 76.3901 110.774 80.6749C111.227 82.9636 111.227 82.9636 113.569 82.7241C113.596 82.6975 113.622 82.6975 113.809 82.591ZM213.429 162.964C213.403 168.287 213.429 173.609 213.403 178.932C213.403 179.757 213.642 180.05 214.494 180.05C217.076 180.023 219.657 180.023 222.239 180.076C223.064 180.103 223.357 179.81 223.357 178.985C223.33 168.473 223.33 157.961 223.357 147.422C223.357 146.543 223.037 146.33 222.212 146.463C219.711 146.863 217.209 146.836 214.734 146.091C213.536 145.718 213.429 145.798 213.429 147.102C213.429 152.372 213.429 157.668 213.429 162.964ZM131.029 106.623C131.029 107.608 130.975 108.3 131.029 108.965C131.188 110.748 131.481 112.531 132.892 113.755C134.622 115.272 136.485 116.603 138.268 118.014C138.348 118.093 138.508 118.12 138.614 118.12C139.812 118.04 141.036 117.987 142.234 117.827C142.5 117.801 142.766 117.455 142.926 117.189C143.351 116.47 143.618 115.592 144.15 114.98C146.599 112.265 147.53 109.018 147.397 105.452C147.37 104.467 147.104 103.403 146.652 102.551C145.321 100.103 143.485 98.0535 141.196 96.4833C138.268 94.4341 134.116 95.6849 132.679 98.985C131.641 101.513 130.789 104.121 131.029 106.623ZM244.915 146.197C244.702 146.224 244.569 146.197 244.463 146.251C242.067 146.916 239.672 146.889 237.277 146.224C236.052 145.878 235.999 145.931 235.999 147.235C236.052 151.281 236.106 155.326 236.159 159.371C236.239 165.945 236.292 172.492 236.345 179.065C236.345 179.89 236.558 180.289 237.49 180.236C238.74 180.156 239.965 180.263 241.216 180.209C242.733 180.156 243.292 179.81 243.584 178.346C244.037 175.925 244.516 173.45 244.569 170.975C244.782 163.629 244.809 156.257 244.915 148.885C244.915 148.007 244.915 147.129 244.915 146.197ZM54.7494 134.807C54.6696 134.754 54.6163 134.727 54.5365 134.674C54.2969 134.913 54.0574 135.126 53.7913 135.366C52.6468 136.43 51.5556 137.548 50.3579 138.533C49.6127 139.145 49.3465 139.837 49.2667 140.742C48.9473 144.388 48.5747 148.034 48.2287 151.68C47.6964 157.322 47.1374 162.964 46.6051 168.633C46.1261 173.609 45.647 178.586 45.1679 183.589C44.8485 186.996 44.5025 190.376 44.1832 193.782C44.1565 194.075 44.3428 194.554 44.5558 194.634C45.3808 194.927 46.2591 195.246 47.1108 195.273C48.3617 195.299 48.7876 194.767 48.9207 193.516C49.0804 191.999 49.2134 190.482 49.3731 188.939C49.9054 183.456 50.4643 177.974 50.9967 172.465C51.529 166.983 52.0879 161.5 52.6202 155.991C53.0993 151.201 53.5783 146.41 54.0574 141.62C54.3236 139.358 54.5365 137.096 54.7494 134.807ZM51.8217 114.368C52.1943 114.288 52.354 114.288 52.4871 114.208C53.9243 113.25 55.3616 112.292 56.7455 111.28C57.0117 111.094 57.1714 110.642 57.198 110.296C57.6238 106.33 57.9965 102.365 58.3691 98.3995C58.928 92.8106 59.4869 87.2218 60.0458 81.6596C60.4451 77.7474 60.8177 73.8618 61.2169 69.9496C61.2967 69.2843 61.0572 69.0448 60.3918 69.0181C59.62 68.9915 58.8748 68.8851 58.1295 68.7254C57.5174 68.6189 56.9319 68.3794 56.2665 68.1931C54.776 83.629 53.3122 98.9051 51.8217 114.368ZM155.036 104.121C155.036 104.228 155.062 104.334 155.062 104.414C155.701 104.521 156.34 104.6 156.952 104.76C157.245 104.813 157.511 104.973 157.777 105.079C157.591 105.372 157.484 105.745 157.245 105.904C156.659 106.304 155.994 106.596 155.355 106.942C155.355 107.022 155.355 107.102 155.355 107.182C155.861 107.288 156.34 107.421 156.845 107.475C157.83 107.608 158.043 107.9 157.591 108.779C157.245 109.444 156.766 110.03 156.313 110.695C156.446 110.801 156.579 110.988 156.792 111.068C157.963 111.547 158.655 112.478 159.188 113.543C159.826 114.793 160.359 116.097 161.024 117.322C161.21 117.668 161.61 118.12 161.929 118.12C163.526 118.2 165.123 118.2 166.693 118.147C166.959 118.147 167.358 117.881 167.492 117.614C168.37 115.805 169.142 113.968 170.02 112.159C170.233 111.759 170.685 111.44 171.085 111.174C171.324 111.014 171.67 110.988 172.176 110.828C171.723 110.349 171.404 109.976 171.058 109.63C170.632 109.178 169.754 109.018 170.02 108.113C170.259 107.288 171.005 107.209 171.723 107.129C171.777 107.129 171.803 107.049 171.936 106.889C171.537 106.57 171.085 106.25 170.712 105.904C170.419 105.638 170.206 105.266 169.967 104.973C170.366 104.76 170.739 104.494 171.164 104.388C171.59 104.281 172.043 104.361 172.495 104.361C172.522 104.254 172.548 104.148 172.575 104.015C171.963 103.775 171.324 103.589 170.712 103.296C170.419 103.163 169.993 102.844 170.02 102.631C170.047 102.285 170.313 101.886 170.605 101.62C170.898 101.38 171.351 101.3 171.723 101.141C171.643 100.183 170.978 100.05 170.259 99.9164C169.887 99.8632 169.355 99.6237 169.301 99.3576C169.221 99.0648 169.567 98.639 169.807 98.3196C170.047 98.0003 170.393 97.7874 170.685 97.4946C170.047 96.7228 169.355 96.8825 168.689 97.1486C167.864 97.4946 167.491 97.2285 167.465 96.3502C167.465 96.1373 167.412 95.8978 167.332 95.6849C167.145 95.1792 166.826 95.126 166.48 95.5252C166.32 95.7115 166.187 95.951 166.107 96.1905C165.841 97.0156 165.389 96.8825 164.936 96.3768C164.617 96.0043 164.324 95.605 163.952 95.126C163.712 95.4454 163.552 95.7115 163.366 95.8978C162.914 96.3236 162.461 96.6962 162.009 97.0954C161.743 96.6164 161.503 96.1373 161.21 95.6583C161.077 95.4188 160.864 95.2325 160.705 95.0196C160.545 95.2058 160.252 95.3921 160.226 95.6051C159.986 97.1486 159.427 96.9357 158.283 96.9357C157.99 96.9357 157.724 96.8825 157.431 96.8559C156.792 96.8027 156.712 97.1752 156.952 97.6277C157.085 97.8672 157.324 98.0535 157.564 98.2132C158.469 98.8519 158.442 99.2777 157.431 99.7301C156.792 100.023 156.1 100.262 155.461 100.502C155.461 100.582 155.461 100.662 155.461 100.768C155.914 100.901 156.366 101.008 156.792 101.167C157.112 101.3 157.644 101.566 157.644 101.753C157.617 102.152 157.404 102.604 157.112 102.871C156.766 103.19 156.286 103.323 155.861 103.536C155.488 103.775 155.275 103.935 155.036 104.121ZM223.357 138.24C223.357 136.084 223.33 133.902 223.357 131.746C223.357 131.028 223.197 130.762 222.372 130.815C219.657 131.028 216.916 131.48 214.175 130.895C213.429 130.735 213.429 131.241 213.429 131.773C213.429 136.004 213.429 140.236 213.429 144.494C213.429 144.973 213.589 145.186 214.068 145.372C216.756 146.33 219.498 146.277 222.292 145.958C223.117 145.878 223.383 145.532 223.383 144.76C223.33 142.578 223.357 140.422 223.357 138.24ZM235.866 130.469C235.866 130.442 235.813 130.549 235.813 130.682C235.866 135.339 235.919 139.996 235.999 144.627C235.999 144.893 236.292 145.292 236.531 145.399C238.953 146.304 241.429 146.384 243.957 145.825C244.702 145.665 244.942 145.239 244.942 144.467C244.942 142.019 245.022 139.571 245.048 137.122C245.075 134.993 245.048 132.864 245.048 130.895C242.014 130.735 239.007 130.602 235.866 130.469ZM84.5052 59.0647C84.5052 59.0381 84.5052 59.0115 84.5052 59.0115C88.258 59.0115 92.0373 58.9582 95.7901 59.0381C96.8281 59.0647 97.2273 58.6921 97.2273 57.7074C97.2273 56.909 97.2805 56.1106 97.2805 55.3122C97.3071 54.088 97.2805 54.0613 96.0828 54.0613C90.6267 54.088 85.1706 54.088 79.7411 54.1412C77.5054 54.1678 75.2697 54.221 73.0607 54.2476C72.555 54.2476 72.0759 54.2743 72.0759 54.9662C72.0493 55.9509 71.9961 56.9356 71.9162 57.9203C71.8364 58.8252 72.209 59.0647 73.0607 59.0647C76.84 59.0381 80.6726 59.0647 84.5052 59.0647ZM262.322 54.2476C262.322 54.1944 262.322 54.1412 262.322 54.1146C262.055 54.1146 261.816 54.1146 261.55 54.1146C257.903 54.088 254.284 54.088 250.637 54.0613C250.105 54.0613 249.573 54.0081 249.626 54.8331C249.706 55.9243 249.759 56.9888 249.759 58.08C249.759 58.7985 250.079 59.0115 250.744 59.0115C252.687 58.9848 254.63 59.0115 256.573 59.0115C262.322 59.0381 268.044 59.0381 273.793 59.0647C274.99 59.0647 275.017 59.0381 275.017 57.8138C275.017 56.9888 274.937 56.1638 274.99 55.3388C275.044 54.4605 274.671 54.2476 273.873 54.2476C270.013 54.2743 266.181 54.2476 262.322 54.2476ZM71.4371 59.597C71.4371 58.1066 71.4371 56.563 71.4371 55.0194C71.4371 53.8218 71.3307 53.6888 70.1064 53.7154C67.0456 53.742 64.0913 54.4605 61.4831 56.0041C59.0345 57.4413 57.2246 59.5437 56.8254 62.5511C56.6657 63.9083 56.3463 65.2656 56.2132 66.6229C56.1866 66.9689 56.506 67.6076 56.7988 67.7141C57.8102 68.0601 58.8748 68.2463 59.9394 68.4593C60.8443 68.6455 61.35 68.3528 61.4298 67.3149C61.4564 66.6762 61.6427 66.064 61.8557 65.4519C62.8937 62.4712 64.7833 60.3954 68.057 59.8897C69.1216 59.73 70.1862 59.7034 71.4371 59.597ZM275.603 55.5783C275.603 56.6695 275.629 57.734 275.603 58.8252C275.576 59.5171 275.789 59.73 276.561 59.7034C280.447 59.5437 283.348 61.2736 284.732 64.6269C285.104 65.5318 285.317 66.5165 285.503 67.4746C285.636 68.2197 285.982 68.5923 286.728 68.4593C287.792 68.273 288.857 68.1133 289.895 67.8471C290.587 67.6875 290.853 67.2084 290.693 66.4632C290.507 65.6116 290.374 64.76 290.321 63.9083C290.108 60.3687 288.378 57.7074 285.397 55.9509C282.948 54.5138 280.207 53.8484 277.359 53.7154C275.469 53.6089 275.443 53.6621 275.603 55.5783ZM216.224 113.942C216.304 113.942 216.357 113.942 216.437 113.942C216.437 114.847 216.437 115.725 216.437 116.63C216.49 119.398 216.543 122.165 216.597 124.933C216.597 125.412 216.65 125.811 217.289 125.838C218.619 125.891 219.95 125.971 221.307 126.024C221.946 126.051 222.266 125.705 222.053 125.146C221.68 124.161 221.281 123.123 220.695 122.272C220.163 121.5 219.844 120.781 219.87 119.823C219.977 116.443 220.003 113.064 220.057 109.684C220.11 107.155 219.95 104.6 220.908 102.152C221.387 100.954 220.882 100.236 219.657 99.81C218.38 99.3842 217.315 99.7568 216.836 100.848C216.33 101.966 216.144 103.11 216.197 104.361C216.304 107.555 216.224 110.748 216.224 113.942ZM119.371 118.36C120.755 118.333 120.808 118.253 120.569 116.949C120.356 115.911 120.17 114.873 119.983 113.862C118.466 106.091 116.949 98.293 115.459 90.5219C115.193 89.1912 115.219 89.271 113.888 89.5638C112.877 89.7767 112.717 90.2557 112.957 91.1606C113.25 92.2784 113.436 93.3961 113.676 94.5139C115.219 102.099 116.763 109.684 118.28 117.268C118.386 117.987 118.546 118.546 119.371 118.36ZM108.672 75.0062C108.752 74.9263 108.832 74.8199 108.911 74.7401C108.326 71.9456 107.74 69.1512 107.075 66.3834C107.022 66.1439 106.463 65.8511 106.117 65.8511C104.653 65.7979 103.189 65.8511 101.725 65.8245C101.033 65.7979 100.741 66.0374 100.767 66.756C100.82 68.6988 100.794 70.6416 100.847 72.5844C100.874 73.436 100.953 74.2876 101.033 75.3522C103.588 74.3941 106.117 73.9416 108.672 75.0062ZM235.121 130.655C233.95 130.735 232.885 130.788 231.82 130.948C231.581 130.974 231.262 131.453 231.262 131.746C231.128 134.887 231.022 138.054 230.995 141.194C230.995 141.726 231.102 142.445 231.448 142.791C232.379 143.722 232.938 144.734 232.912 146.038C234.881 146.33 235.387 145.905 235.36 144.095C235.307 139.917 235.254 135.765 235.201 131.587C235.201 131.241 235.147 130.948 235.121 130.655ZM229.425 142.179C230.277 142.471 230.33 141.966 230.383 141.194C230.782 135.845 230.17 130.442 231.395 125.146C231.581 124.321 230.596 123.07 229.771 122.964C228.84 122.857 228.334 123.336 228.148 124.561C228.041 125.359 227.961 126.131 227.961 126.929C227.961 131.507 227.961 136.111 227.988 140.688C227.961 142.046 227.961 142.046 229.425 142.179ZM106.197 84.4008C107.554 84.0016 108.778 83.6556 110.029 83.2564C110.588 83.0701 110.641 82.5644 110.242 82.2983C109.178 81.5797 108.086 80.8345 106.649 80.941C104.972 81.0741 103.269 81.2071 101.592 81.2337C99.6493 81.2604 99.6759 81.2337 99.7557 83.1765C99.7824 83.8685 100.022 84.2943 100.687 84.4008C101.752 84.5871 102.816 84.7467 103.881 84.8532C104.786 84.933 105.398 84.5072 105.664 83.6024C105.771 83.2564 105.984 82.9636 106.143 82.6443C106.25 82.6975 106.356 82.7241 106.463 82.7773C106.41 83.2564 106.303 83.762 106.197 84.4008ZM103.721 65.3189C104.36 65.3189 104.999 65.3189 105.638 65.3189C106.729 65.3189 106.756 65.2124 106.436 64.1479C105.744 61.8857 104.067 60.2623 102.71 58.426C102.151 57.6808 101.725 57.8937 101.299 58.4792C100.368 59.6502 100.554 60.9809 100.661 62.3115C100.714 62.8438 100.794 63.4027 100.767 63.935C100.661 65.1592 100.794 65.3455 102.018 65.3455C102.577 65.3189 103.162 65.3189 103.721 65.3189ZM113.489 76.6562C113.622 77.3748 113.676 77.8804 113.782 78.4127C114.288 81.0208 114.288 81.0208 116.869 81.7394C118.067 82.0588 119.265 82.2717 120.383 81.6063C120.835 81.3402 121.421 80.8345 121.421 80.4353C121.421 80.0361 120.888 79.424 120.436 79.2377C118.919 78.5724 117.348 78.0401 115.778 77.4812C115.086 77.2151 114.368 76.9756 113.489 76.6562ZM101.672 57.3348C100.9 56.2703 100.208 55.2323 99.4097 54.3009C99.2234 54.0613 98.6379 54.0347 98.3185 54.1146C98.079 54.1678 97.8128 54.5936 97.7862 54.8597C97.6798 56.6429 97.5999 58.426 97.5999 60.2091C97.5999 61.8325 98.4782 62.8172 99.9154 62.897C100.102 60.9276 99.6493 58.7453 101.672 57.3348ZM218.673 126.477C218.353 126.477 218.034 126.503 217.714 126.477C216.863 126.37 216.543 126.716 216.623 127.568C216.676 128.34 216.676 129.111 216.65 129.857C216.65 130.442 216.889 130.682 217.448 130.655C218.806 130.575 220.19 130.495 221.547 130.416C222.106 130.389 222.345 130.096 222.266 129.537C222.186 128.872 222.133 128.207 222.106 127.541C222.106 126.929 221.813 126.69 221.228 126.69C220.403 126.61 219.551 126.53 218.673 126.477ZM110.987 94.8865C110.402 94.4074 110.056 94.0615 109.657 93.8219C108.778 93.2897 107.9 92.8106 106.995 92.3316C105.664 91.6396 103.562 92.2251 102.63 93.609C105.398 93.8486 107.82 95.7381 110.987 94.8865ZM227.988 142.764C227.988 143.616 227.961 144.388 228.014 145.186C228.014 145.399 228.227 145.745 228.387 145.772C229.691 145.958 230.995 146.091 232.3 146.224C232.433 143.563 231.049 142.498 227.988 142.764ZM111.972 90.1227C110.295 90.6283 108.805 91.0807 107.155 91.5598C107.9 92.0921 108.486 92.5445 109.231 91.7461C109.816 93.6357 111.307 94.2478 113.01 95.0728C112.638 93.2897 112.318 91.7727 111.972 90.1227ZM114.022 84.3475C112.638 84.3741 111.493 85.3588 111.546 86.4766C111.6 87.3016 112.371 87.9404 113.383 87.9137C114.634 87.8871 115.725 87.0887 115.672 86.2371C115.618 85.2258 114.847 84.3209 114.022 84.3475ZM119.451 90.4953C118.839 89.6436 118.333 88.9517 117.801 88.2597C117.481 87.8605 117.189 87.8605 116.763 88.2065C115.885 88.9517 115.618 90.2557 116.337 91.1872C116.816 91.7993 117.535 91.9856 118.227 91.6929C118.679 91.5066 118.945 91.0009 119.451 90.4953ZM103.695 85.7314C102.258 85.3855 101.14 85.0661 99.9687 84.8798C99.5961 84.8266 99.0371 85.0661 98.7976 85.3855C98.5048 85.7314 98.4516 86.2903 98.2121 87.0355C100.128 86.5831 101.779 86.1839 103.695 85.7314Z" fill="black"/>
<path d="M106.153 85.9287C106.545 87.3458 106.876 88.5793 107.237 89.8914C105.973 89.3666 105.311 87.1097 106.153 85.9287Z" fill="black"/>
<path d="M108.696 89.2657C108.174 88.2348 107.704 87.2038 107.913 86.0101C108.017 85.983 108.148 85.9558 108.252 85.9287C108.539 87.0411 108.826 88.1263 109.114 89.2386C108.983 89.2115 108.826 89.2386 108.696 89.2657Z" fill="black"/>
<path d="M107.499 86.7627C107.6 87.3284 107.721 87.8684 107.862 88.6398C107.175 88.0998 107.054 87.5598 107.499 86.7627Z" fill="black"/>
<path d="M176.175 117.359C177.138 117.969 177.861 118.605 178.717 118.949C179.84 119.4 180.001 119.241 180.242 118.048C180.349 117.545 180.509 117.068 180.643 116.591C180.696 116.379 180.804 116.167 180.777 115.955C180.643 114.789 180.482 113.65 180.322 112.484C180.242 111.848 180.509 111.424 181.098 111.239C181.606 111.08 182.141 110.921 182.676 110.894C184.603 110.815 186.529 110.709 188.428 110.762C189.953 110.788 190.515 111.371 190.702 112.829C190.836 113.862 190.756 114.895 190.836 115.929C190.917 116.803 191.077 117.651 191.264 118.499C191.291 118.631 191.666 118.79 191.88 118.79C193.057 118.79 194.181 118.578 194.983 117.359C195.117 117.704 195.251 117.889 195.251 118.048C195.224 125.096 195.17 132.144 195.197 139.192C195.197 140.305 194.716 140.862 193.806 141.127C192.95 141.365 192.067 141.577 191.184 141.63C187.572 141.868 183.96 142.133 180.349 142.239C179.332 142.266 178.289 141.895 177.325 141.524C176.657 141.286 176.416 140.65 176.416 139.881C176.362 134.767 176.282 129.654 176.202 124.54C176.175 122.5 176.095 120.486 176.068 118.446C176.041 118.128 176.122 117.757 176.175 117.359ZM176.737 118.34C176.71 118.817 176.683 119.055 176.683 119.294C176.79 126.156 176.924 132.992 177.031 139.855C177.058 140.835 177.593 141.339 178.422 141.524C179.305 141.71 180.215 141.816 181.098 141.763C183.853 141.63 186.609 141.471 189.338 141.259C190.676 141.153 192.013 140.968 193.324 140.756C194.207 140.623 194.582 140.067 194.582 139.139C194.582 132.701 194.635 126.262 194.662 119.824C194.662 119.506 194.635 119.214 194.609 118.896C193.645 119.082 192.789 119.347 191.906 119.4C188.134 119.559 184.362 119.691 180.563 119.771C179.225 119.771 177.887 119.559 176.737 118.34ZM181.071 113.146C180.589 114.948 181.125 116.114 182.65 116.432C185.031 116.909 187.358 116.644 189.686 116.061C190.034 115.982 190.515 115.505 190.515 115.213C190.569 114.471 190.355 113.729 190.274 113.014C187.144 113.835 184.094 113.623 181.071 113.146ZM183.479 119.188C183.479 119.108 183.479 119.029 183.479 118.976C185.539 118.976 187.572 118.976 189.632 118.976C190.649 118.976 190.81 118.711 190.676 117.465C190.569 116.591 190.087 116.618 189.365 116.723C186.823 117.174 184.282 117.518 181.74 116.75C181.553 116.697 181.125 116.909 181.018 117.121C180.83 117.465 180.777 117.916 180.723 118.313C180.616 118.949 180.884 119.267 181.553 119.241C182.195 119.161 182.837 119.188 183.479 119.188ZM186.101 111.292C186.101 111.239 186.101 111.186 186.101 111.106C184.656 111.265 183.185 111.398 181.74 111.583C181.499 111.61 181.312 111.875 181.071 112.007C181.258 112.219 181.472 112.458 181.686 112.67C181.767 112.749 181.927 112.776 182.034 112.776C184.335 112.802 186.609 112.855 188.91 112.802C189.231 112.802 189.552 112.299 189.873 112.06C189.552 111.795 189.231 111.371 188.883 111.345C187.947 111.212 187.037 111.292 186.101 111.292Z" fill="black"/>
<path d="M176.956 159.306C177.839 159.836 178.614 160.313 179.39 160.764C179.47 160.685 179.577 160.605 179.657 160.552C179.631 159.279 180.593 158.245 180.219 156.839C179.952 155.858 180.219 154.771 180.246 153.71C180.272 152.782 180.834 152.225 181.637 151.96C184.258 151.164 186.879 151.218 189.446 152.305C190.276 152.65 190.623 153.233 190.49 154.188C190.329 155.62 190.222 157.105 190.276 158.563C190.302 159.253 190.704 159.942 191.025 160.605C191.105 160.764 191.559 160.844 191.773 160.764C192.763 160.419 193.699 159.995 194.662 159.597C194.769 159.544 194.876 159.465 194.983 159.412C195.036 159.385 195.09 159.438 195.277 159.491C194.956 160.313 194.261 160.711 193.512 160.87C192.014 161.189 190.49 161.507 188.965 161.613C185.622 161.878 182.305 161.719 179.015 161.056C178.534 160.95 178.053 160.738 177.33 160.473C177.33 161.905 177.33 163.204 177.33 164.53C177.304 169.144 177.304 173.758 177.277 178.346C177.277 179.089 177.491 179.619 178.16 179.858C179.122 180.176 180.085 180.627 181.075 180.653C183.589 180.759 186.13 180.759 188.671 180.68C191.185 180.6 193.806 181.184 196.133 179.619C196.187 179.725 196.24 179.858 196.294 179.964C195.732 180.282 195.224 180.759 194.609 180.865C193.351 181.104 192.068 181.184 190.784 181.21C187.547 181.263 184.311 181.237 181.075 181.237C179.524 181.237 178.24 180.521 176.983 179.778C176.769 179.672 176.688 179.221 176.688 178.956C176.715 172.591 176.795 166.254 176.849 159.889C176.822 159.73 176.902 159.518 176.956 159.306ZM180.727 153.975C180.727 154.877 180.781 155.673 180.727 156.442C180.674 157.29 181.102 157.768 181.797 158.165C184.338 159.544 186.852 159.253 189.366 158.192C189.58 158.112 189.848 157.794 189.874 157.582C189.928 156.574 189.901 155.567 189.901 154.479C186.745 155.487 183.803 155.434 180.727 153.975ZM190.276 161.082C190.383 159.147 189.821 158.669 188.296 159.147C186.023 159.836 183.83 159.783 181.663 158.722C181.423 158.616 180.861 158.59 180.834 158.669C180.62 159.2 180.433 159.783 180.379 160.34C180.353 160.473 180.807 160.764 181.048 160.817C181.904 160.976 182.76 161.109 183.616 161.135C185.836 161.162 188.056 161.109 190.276 161.082ZM185.675 154.771C186.959 154.559 188.029 154.4 189.072 154.161C189.366 154.082 189.714 153.71 189.821 153.419C189.874 153.259 189.446 152.835 189.179 152.729C186.772 151.774 184.338 151.642 181.851 152.437C181.53 152.543 181.316 152.915 181.048 153.153C181.316 153.392 181.53 153.79 181.851 153.869C183.134 154.241 184.472 154.506 185.675 154.771Z" fill="black"/>
<path d="M208.807 125.174C208.361 125.462 207.942 125.879 207.467 125.957C206.881 126.062 206.378 125.618 206.546 125.07C206.685 124.679 207.188 124.209 207.607 124.104C207.942 124.026 208.388 124.496 208.807 124.731C208.807 124.887 208.807 125.044 208.807 125.174Z" fill="black"/>
<path d="M208.599 118.244C208.185 118.565 207.826 119.06 207.385 119.09C207.109 119.119 206.584 118.478 206.529 118.099C206.419 117.458 206.888 116.904 207.55 117.02C207.936 117.079 208.24 117.516 208.599 117.807C208.599 117.953 208.599 118.099 208.599 118.244Z" fill="black"/>
<path d="M207.464 109.705C208.119 109.705 208.623 110.287 208.598 110.98C208.573 111.645 207.993 112.283 207.389 112.2C206.734 112.145 206.331 111.701 206.305 110.98C206.28 110.342 206.86 109.705 207.464 109.705ZM208.296 110.952C207.893 110.675 207.641 110.37 207.389 110.37C207.212 110.37 207.036 110.758 206.835 110.98C207.061 111.202 207.238 111.535 207.49 111.59C207.666 111.645 207.893 111.285 208.296 110.952Z" fill="black"/>
<path d="M239.611 63.1943C238.637 63.2202 237.798 62.4186 237.798 61.5135C237.798 60.6343 238.61 59.8585 239.53 59.8585C240.477 59.8327 241.343 60.6343 241.343 61.5394C241.37 62.3927 240.531 63.1943 239.611 63.1943ZM238.664 61.4359C239.097 61.7204 239.34 62.0048 239.557 62.0048C239.773 62.0048 239.99 61.6945 240.233 61.5135C240.044 61.3325 239.882 61.048 239.665 61.0222C239.421 60.9963 239.151 61.229 238.664 61.4359Z" fill="black"/>
<path d="M168.763 103.079C168.763 106.782 167.885 109.233 166.183 111.391C165.465 112.323 164.189 112.483 163.099 111.737C161.822 110.858 160.812 109.713 160.227 108.247C159.296 105.796 159.057 103.292 159.881 100.761C160.838 97.7768 164.482 96.8443 166.769 98.9757C168.284 100.308 168.736 102.093 168.763 103.079ZM168.178 104.224C168.258 104.198 168.337 104.198 168.417 104.171C168.125 103.052 167.992 101.853 167.54 100.787C166.822 99.1089 165.067 98.0698 163.71 98.283C161.742 98.576 160.546 99.7217 160.2 101.8C160.014 102.892 159.961 104.038 160.041 105.13C160.253 107.528 161.157 109.659 163.152 111.151C164.162 111.924 165.226 111.871 165.864 110.965C167.274 108.94 168.364 106.809 168.178 104.224Z" fill="black"/>
</svg>
