<svg width="248" height="247" viewBox="0 0 248 247" fill="none" xmlns="http://www.w3.org/2000/svg">
<g clip-path="url(#clip0_1533_227603)">
<path d="M103.1 128.79C103.688 128.309 104.277 127.827 104.865 127.328C105.971 126.418 107.148 125.634 108.361 124.867C109.662 124.047 110.964 123.262 112.266 122.46C112.373 122.388 112.48 122.317 112.587 122.246C112.783 122.103 112.837 121.96 112.801 121.711C112.391 119.713 111.999 117.716 111.606 115.736C111.374 114.577 111.178 113.4 110.946 112.241C110.608 110.529 110.269 108.835 109.93 107.123C109.698 105.964 109.484 104.787 109.27 103.628C109.092 102.665 108.913 101.72 108.717 100.757C108.468 99.5085 108.218 98.2602 107.986 97.0119C107.665 95.3534 107.326 93.6949 107.005 92.0186C106.773 90.806 106.559 89.6112 106.31 88.3985C105.989 86.7401 105.65 85.0816 105.329 83.4053C105.097 82.1926 104.883 80.9978 104.633 79.7852C104.313 78.1267 103.974 76.4683 103.653 74.792C103.385 73.401 103.118 72.01 102.85 70.6012C102.672 69.6382 102.494 68.6931 102.297 67.7301C102.048 66.4818 101.816 65.2335 101.566 63.9852C101.245 62.3267 100.906 60.6682 100.585 58.9919C100.354 57.7793 100.14 56.5667 99.8899 55.3718C99.7651 54.712 99.5689 54.0522 99.4441 53.3924C99.3549 52.9644 99.3371 52.5186 99.2479 52.0727C98.8734 50.1824 98.499 48.2922 98.1245 46.4019C97.8926 45.2605 97.6786 44.1192 97.4825 42.9601C97.429 42.6213 97.4646 42.3359 97.7143 42.0149C98.6773 40.7845 99.8721 39.8393 101.192 39.0368C102.85 38.0204 104.634 37.2535 106.488 36.6829C107.719 36.2906 108.985 36.0409 110.269 35.8091C111.374 35.6129 112.48 35.4702 113.603 35.3097C113.71 35.2919 113.817 35.3097 113.924 35.2919C114.566 35.2562 115.191 35.2027 115.833 35.1849C116.207 35.1849 116.599 35.2384 116.974 35.2562C117.509 35.2741 118.044 35.2741 118.579 35.2919C118.846 35.3097 119.132 35.3811 119.399 35.3811C119.863 35.3632 120.327 35.3276 120.79 35.2384C121.824 35.0244 122.859 34.7391 123.893 34.5608C124.892 34.3824 125.908 34.2754 126.907 34.1328C127.745 34.0079 128.583 33.9009 129.421 33.7761C129.867 33.7226 130.313 33.6691 130.759 33.6334C131.633 33.5621 132.489 33.4729 133.362 33.4194C133.505 33.4016 133.683 33.5086 133.826 33.5978C134.004 33.7048 133.862 33.8474 133.844 33.9901C133.826 34.1328 133.844 34.2933 133.897 34.4181C134.29 35.4524 134.736 36.4689 135.092 37.5032C135.752 39.4113 136.412 41.3016 137.018 43.2276C137.553 44.9396 138.035 46.6872 138.498 48.417C139.247 51.2168 140.014 54.0165 140.71 56.8342C141.013 58.1003 141.173 59.4199 141.405 60.7039C141.601 61.8987 141.815 63.0757 142.011 64.2705C142.154 65.1622 142.279 66.0716 142.439 66.9633C142.618 67.9619 142.814 68.9606 143.01 69.9592C143.046 70.1911 143.117 70.4051 143.153 70.6369C143.188 70.9044 143.064 71.0649 142.778 71.1184C142.653 71.1362 142.529 71.154 142.404 71.1897C141.78 71.4215 141.78 71.4572 141.904 72.117C142.297 74.0608 142.671 76.0224 143.081 77.9841C143.438 79.7495 143.83 81.515 144.187 83.2626C144.544 85.0459 144.9 86.8292 145.257 88.6304C145.525 89.95 145.828 91.2875 146.095 92.6071C146.381 93.9802 146.648 95.3534 146.916 96.7265C147.183 98.0818 147.468 99.4193 147.736 100.775C147.896 101.577 148.057 102.397 148.217 103.2C148.324 103.735 148.431 103.788 148.824 103.432C149.43 102.897 150.018 102.326 150.625 101.791C151.195 101.274 151.766 100.757 152.355 100.275C152.515 100.133 152.586 99.99 152.586 99.7938C152.604 99.3301 152.64 98.8665 152.693 98.4028C152.765 97.7252 153.104 97.208 153.639 96.8157C153.87 96.6374 154.138 96.4769 154.352 96.2807C154.566 96.0845 154.566 95.9419 154.352 95.7457C154.067 95.4604 153.835 95.1751 153.853 94.7649C153.853 94.1051 153.746 93.4096 154.209 92.8568C154.655 92.3218 155.101 91.7511 155.654 91.3231C156.527 90.6098 157.348 89.8252 158.168 89.0405C158.685 88.559 159.22 88.1132 159.773 87.6674C160.148 87.3642 160.593 87.2215 161.039 87.0967C162.074 86.8114 163.126 86.6687 164.196 86.7044C164.641 86.7222 165.087 86.7044 165.551 86.7044C167.281 86.6687 169.011 86.6866 170.74 86.5439C171.525 86.4904 172.256 86.5974 173.023 86.5974C173.843 86.5974 174.521 87.0432 175.199 87.4355C176.554 88.238 177.535 89.3793 178.355 90.7168C179.14 92.0008 179.942 93.2848 180.745 94.5687C180.834 94.7114 180.976 94.8184 181.119 94.8897C182.011 95.2999 182.902 95.6922 183.794 96.1202C184.828 96.6195 185.863 97.101 186.826 97.7608C187.771 98.4028 188.252 99.3301 188.52 100.364C188.966 102.094 189.322 103.824 189.715 105.572C189.839 106.089 189.982 106.606 190.125 107.105C190.66 108.853 191.195 110.601 191.748 112.33C191.944 112.937 192.211 113.525 192.461 114.096C192.996 115.308 193.549 116.503 194.119 117.698C194.565 118.625 195.011 119.535 195.493 120.444C196.277 121.942 196.901 123.494 197.436 125.099C198.221 127.435 199.255 129.628 200.718 131.626C201.877 133.213 202.982 134.871 204.07 136.512C205.087 138.046 206.032 139.651 207.084 141.166C208.261 142.86 209.527 144.501 210.758 146.142C212.291 148.175 213.843 150.208 215.376 152.241C216.518 153.774 217.641 155.326 218.8 156.842C219.763 158.108 220.762 159.356 221.778 160.586C222.741 161.763 223.74 162.887 224.703 164.046C225.648 165.187 226.593 166.346 227.538 167.506C228.466 168.611 229.411 169.717 230.32 170.84C231.141 171.839 231.943 172.873 232.763 173.872C233.316 174.55 233.905 175.192 234.475 175.869C235.242 176.761 236.009 177.653 236.776 178.526C237.4 179.258 238.042 179.971 238.666 180.702C239.273 181.415 239.861 182.147 240.467 182.86C240.788 183.234 241.109 183.591 241.43 183.965C243.035 185.856 244.765 187.621 246.566 189.351C246.762 189.547 247.012 189.672 247.226 189.833C247.226 190.136 247.226 190.439 247.226 190.724C246.852 190.421 246.459 190.118 246.103 189.779C245.496 189.226 244.89 188.691 244.319 188.121C243.659 187.461 243.017 186.765 242.393 186.07C242.001 185.642 241.662 185.178 241.288 184.75C240.271 183.573 239.273 182.378 238.256 181.201C237.614 180.452 236.972 179.721 236.33 178.99C235.599 178.152 234.886 177.314 234.172 176.476C233.602 175.816 233.031 175.156 232.46 174.496C231.765 173.658 231.087 172.82 230.392 171.982C229.714 171.161 229.036 170.341 228.359 169.521C227.396 168.362 226.433 167.185 225.47 166.025C224.917 165.348 224.328 164.706 223.776 164.028C223.223 163.368 222.688 162.709 222.153 162.067C221.671 161.496 221.19 160.925 220.726 160.355C219.692 159.053 218.675 157.751 217.659 156.431C216.589 155.023 215.537 153.614 214.485 152.187C213.54 150.921 212.612 149.655 211.649 148.407C211.114 147.711 210.561 147.033 210.044 146.338C209.331 145.411 208.618 144.483 207.922 143.538C207.084 142.379 206.246 141.22 205.461 140.043C204.819 139.08 204.284 138.063 203.66 137.1C202.84 135.816 201.984 134.55 201.11 133.284C200.557 132.464 199.969 131.644 199.398 130.823C198.399 129.414 197.704 127.863 197.151 126.258C196.456 124.243 195.689 122.263 194.708 120.373C193.905 118.839 193.174 117.288 192.443 115.719C191.462 113.597 190.66 111.403 190.071 109.138C189.804 108.14 189.447 107.159 189.198 106.142C188.823 104.644 188.502 103.129 188.163 101.631C188.038 101.131 187.896 100.65 187.753 100.168C187.503 99.3301 186.968 98.7238 186.255 98.2423C185.435 97.6895 184.561 97.2615 183.651 96.887C183.116 96.673 182.599 96.4055 182.082 96.1737C181.226 95.7814 180.388 95.3712 179.532 94.9789C178.266 94.4082 177.142 93.5879 176.019 92.7854C174.628 91.769 173.201 90.7881 171.686 89.9857C170.705 89.4685 169.67 89.0583 168.511 89.2188C167.976 89.2902 167.423 89.4328 166.906 89.5933C165.48 90.0392 164.089 90.5028 162.626 90.8238C161.842 91.0021 161.057 91.1983 160.272 91.3945C159.22 91.6441 158.275 92.1256 157.437 92.7854C157.187 92.9816 156.955 93.2134 156.795 93.4809C156.385 94.1229 156.028 94.8006 155.654 95.4782C155.475 95.8171 155.547 95.9062 155.885 95.9062C156.01 95.9062 156.153 95.924 156.26 95.8884C156.795 95.7101 157.259 95.9062 157.722 96.1024C158.703 96.4947 159.541 97.1189 160.308 97.8143C160.433 97.9213 160.504 97.9213 160.629 97.8143C161.093 97.4398 161.271 96.9049 161.396 96.3699C161.467 96.1024 161.307 95.7457 161.2 95.4604C161.039 95.0146 160.825 94.6044 160.647 94.1764C160.593 94.0337 160.558 93.8554 160.576 93.6949C160.593 93.4988 160.825 93.4453 160.968 93.5879C161.075 93.7128 161.182 93.8554 161.253 93.9981C161.628 94.7649 162.038 95.5139 162.091 96.3877C162.109 96.566 162.216 96.6552 162.395 96.673C162.484 96.673 162.573 96.6909 162.644 96.673C163.518 96.5839 164.374 96.5125 165.23 96.3877C165.908 96.2985 166.567 96.1737 167.227 96.0489C167.566 95.9775 167.548 95.9775 167.495 95.5852C167.459 95.3712 167.459 95.1572 167.477 94.9432C167.477 94.7827 167.584 94.6401 167.762 94.6579C167.851 94.6757 167.976 94.7827 168.03 94.8719C168.083 94.9789 168.101 95.1216 168.119 95.2286C168.155 95.4426 168.19 95.6387 168.244 95.8527C168.386 96.3877 168.707 96.7622 169.242 97.0119C170.509 97.636 171.793 98.171 173.112 98.6703C173.594 98.8486 173.736 98.7952 173.968 98.3315C174.057 98.1532 174.129 97.9927 174.253 97.8322C174.36 97.6895 174.574 97.7252 174.61 97.8857C174.646 98.064 174.646 98.2602 174.61 98.4385C174.592 98.5812 174.503 98.7238 174.414 98.8486C174.236 99.1161 174.218 99.4193 174.289 99.7225C174.396 100.168 174.521 100.632 174.735 101.042C175.323 102.148 176.019 103.2 176.875 104.127C177.624 104.948 178.141 105.875 178.373 106.963C178.391 107.07 178.426 107.159 178.462 107.266C178.516 107.408 178.569 107.498 178.712 107.355C178.908 107.177 179.104 107.034 179.3 106.873C179.372 106.82 179.443 106.749 179.514 106.731C179.639 106.731 179.8 106.731 179.853 106.802C179.907 106.873 179.907 107.052 179.871 107.159C179.817 107.284 179.693 107.391 179.586 107.498C178.355 108.496 177.428 109.727 176.821 111.189C176.5 111.938 176.304 111.974 177.321 112.241C177.874 112.384 178.426 112.509 178.997 112.651C179.14 112.687 179.3 112.705 179.425 112.794C179.532 112.865 179.657 113.008 179.675 113.115C179.693 113.311 179.532 113.418 179.336 113.418C179.193 113.418 179.033 113.383 178.89 113.347C178.07 113.133 177.249 112.919 176.429 112.705C176.197 112.651 175.965 112.634 175.751 112.544C174.414 111.938 173.005 111.457 171.81 110.583C170.883 109.887 170.045 109.103 169.332 108.193C168.832 107.551 168.279 106.963 167.762 106.339C167.138 105.59 166.55 104.805 165.925 104.056C164.98 102.932 164.017 101.827 162.858 100.899C161.753 100.026 160.7 99.0983 159.613 98.2067C159.309 97.957 158.953 97.7608 158.614 97.529C158.382 97.3685 158.204 97.1724 157.972 97.0119C157.152 96.5125 156.724 96.4234 155.796 96.6374C155.03 96.8335 154.298 97.1545 153.781 97.7965C153.639 97.9748 153.496 98.171 153.442 98.385C153.3 98.9378 153.157 99.4906 153.318 100.079C153.442 100.543 153.442 101.042 153.478 101.541C153.514 102.076 153.728 102.522 153.995 102.968C154.566 103.895 155.261 104.734 156.01 105.518C156.313 105.839 156.652 106.16 156.955 106.481C158.115 107.694 159.434 108.692 160.736 109.709C161.396 110.226 162.02 110.743 162.662 111.278C162.983 111.546 163.304 111.831 163.625 112.134C164.534 112.99 165.283 113.971 166.032 114.952C166.496 115.54 166.942 116.147 167.441 116.699C168.315 117.662 169.011 118.75 169.653 119.892C170.33 121.069 171.044 122.228 171.703 123.423C172.898 125.598 174.485 127.488 175.805 129.575C176.661 130.93 177.535 132.268 178.516 133.516C178.926 134.033 179.372 134.515 179.817 135.014C180.459 135.745 181.119 136.476 181.779 137.207C182.171 137.635 182.546 138.063 182.938 138.491C183.598 139.223 184.293 139.918 184.935 140.649C185.667 141.469 186.362 142.343 187.093 143.164C187.967 144.162 188.787 145.197 189.75 146.106C190.464 146.784 191.141 147.497 191.855 148.175C192.3 148.603 192.782 148.995 193.21 149.441C194.423 150.725 195.617 152.027 196.563 153.542C197.026 154.291 197.472 155.04 197.864 155.807C199.077 158.179 200.29 160.569 201.431 162.958C202.323 164.813 203.143 166.721 203.945 168.611C204.659 170.288 205.283 172.017 205.961 173.712C206.157 174.211 206.371 174.692 206.602 175.174C207.441 176.904 208.261 178.633 209.117 180.345C210.205 182.539 211.346 184.714 212.434 186.908C213.129 188.299 213.771 189.708 214.485 191.099C215.465 193.025 216.482 194.915 217.481 196.823C218.372 198.517 219.264 200.211 220.156 201.923C221.707 204.919 223.259 207.897 224.756 210.911C225.951 213.319 227.039 215.762 228.216 218.187C229.25 220.327 230.338 222.467 231.426 224.589C232.282 226.265 233.174 227.906 234.047 229.564C234.814 230.991 235.617 232.4 236.366 233.826C237.311 235.592 238.22 237.375 239.148 239.159C239.255 239.373 239.326 239.587 239.415 239.801C239.487 239.979 239.397 240.086 239.237 240.157C239.112 240.211 239.005 240.139 238.934 240.015C238.738 239.658 238.541 239.319 238.345 238.962C237.186 236.805 236.027 234.647 234.85 232.489C234.511 231.847 234.154 231.205 233.816 230.581C232.924 228.887 232.014 227.193 231.141 225.481C229.875 223.038 228.626 220.577 227.414 218.116C226.736 216.76 226.147 215.369 225.488 214.014C224.025 211.018 222.563 208.04 221.065 205.062C220.013 202.975 218.907 200.907 217.819 198.82C216.963 197.198 216.107 195.593 215.269 193.952C213.754 190.992 212.256 188.014 210.758 185.053C209.349 182.253 207.94 179.454 206.549 176.636C205.747 174.995 205.051 173.301 204.409 171.589C203.928 170.323 203.41 169.057 202.893 167.809C201.199 163.814 199.166 159.998 197.24 156.128C196.509 154.63 195.582 153.239 194.547 151.955C193.941 151.188 193.281 150.457 192.586 149.762C191.213 148.389 189.786 147.069 188.413 145.678C187.646 144.893 186.968 144.002 186.237 143.164C185.952 142.825 185.667 142.486 185.363 142.147C184.846 141.576 184.329 141.024 183.812 140.453C182.76 139.276 181.708 138.099 180.655 136.922C180.424 136.672 180.192 136.423 179.942 136.191C178.997 135.317 178.212 134.301 177.463 133.266C176.661 132.161 175.948 131.002 175.181 129.878C174.271 128.558 173.308 127.292 172.434 125.955C171.668 124.778 170.972 123.565 170.259 122.353C169.581 121.193 168.957 119.999 168.226 118.875C167.78 118.18 167.209 117.573 166.692 116.913C166.086 116.164 165.497 115.415 164.891 114.684C164.517 114.221 164.142 113.757 163.732 113.311C163.465 113.008 163.144 112.741 162.876 112.437C162.02 111.492 161.021 110.743 160.005 109.994C159.078 109.317 158.168 108.621 157.33 107.819C156.813 107.319 156.242 106.856 155.743 106.321C154.923 105.429 154.031 104.591 153.425 103.521C153.3 103.307 153.175 103.075 153.05 102.861C152.907 102.629 152.818 102.611 152.604 102.772C152.569 102.79 152.533 102.825 152.515 102.861C151.374 103.949 150.232 105.055 149.091 106.142C148.895 106.321 148.824 106.499 148.895 106.802C149.269 108.478 149.59 110.173 149.929 111.849C150.232 113.4 150.553 114.97 150.874 116.521C151.142 117.859 151.427 119.178 151.695 120.498C151.98 121.871 152.248 123.244 152.533 124.599C152.765 125.741 152.997 126.882 153.228 128.023C153.514 129.414 153.799 130.805 154.084 132.196C154.316 133.338 154.548 134.479 154.78 135.62C155.012 136.779 155.261 137.939 155.493 139.116C155.778 140.489 156.046 141.862 156.331 143.235C156.563 144.394 156.795 145.553 157.045 146.73C157.312 148.086 157.597 149.423 157.865 150.778C158.186 152.383 158.507 153.97 158.846 155.575C159.167 157.127 159.506 158.678 159.827 160.248C160.112 161.621 160.362 162.994 160.647 164.367C160.914 165.722 161.2 167.06 161.467 168.415C161.753 169.806 162.02 171.197 162.305 172.588C162.573 173.943 162.858 175.281 163.144 176.636C163.465 178.205 163.785 179.793 164.106 181.362C164.427 182.967 164.766 184.554 165.087 186.159C165.408 187.746 165.729 189.315 166.05 190.902C166.318 192.204 166.585 193.524 166.853 194.826C167.049 195.735 167.245 196.645 167.423 197.554C167.441 197.643 167.441 197.733 167.441 197.804C167.441 198 167.37 198.161 167.174 198.178C167.049 198.178 166.906 198.071 166.835 197.964C166.764 197.875 166.728 197.733 166.692 197.608C166.246 195.432 165.818 193.239 165.39 191.063C165.212 190.171 164.998 189.28 164.82 188.388C164.534 187.015 164.267 185.642 163.999 184.269C163.732 182.913 163.447 181.576 163.179 180.221C162.947 179.061 162.698 177.902 162.466 176.725C162.181 175.352 161.913 173.979 161.628 172.606C161.342 171.233 161.075 169.86 160.79 168.486C160.504 167.113 160.237 165.74 159.951 164.385C159.63 162.833 159.309 161.264 158.988 159.713C158.614 157.929 158.257 156.146 157.883 154.363C157.651 153.221 157.419 152.08 157.187 150.939C156.938 149.762 156.688 148.567 156.456 147.39C156.224 146.249 156.01 145.107 155.778 143.966C155.493 142.593 155.208 141.22 154.94 139.865C154.655 138.491 154.388 137.118 154.12 135.745C153.853 134.39 153.567 133.052 153.3 131.697C152.979 130.092 152.64 128.505 152.319 126.9C151.998 125.295 151.659 123.708 151.338 122.103C151.017 120.551 150.714 118.982 150.393 117.431C150.125 116.093 149.84 114.774 149.573 113.454C149.287 112.063 149.002 110.672 148.734 109.281C148.592 108.603 148.467 107.908 148.324 107.23C148.271 106.963 148.182 106.945 147.95 107.087C146.559 107.926 145.186 108.746 143.777 109.566C143.563 109.691 143.438 109.798 143.456 110.066C143.474 110.387 143.563 110.476 143.884 110.494C144.223 110.511 144.562 110.476 144.918 110.494C145.382 110.529 145.846 110.565 146.309 110.636C146.933 110.743 147.433 111.671 147.147 112.241C147.04 112.473 146.844 112.58 146.577 112.58C145.917 112.562 145.257 112.562 144.579 112.562C143.902 112.562 143.92 112.562 144.062 113.258C144.383 114.827 144.704 116.414 145.025 118.001C145.293 119.303 145.56 120.623 145.828 121.925C146.113 123.316 146.398 124.706 146.684 126.097C146.951 127.453 147.236 128.79 147.504 130.146C147.825 131.751 148.164 133.338 148.485 134.943C148.806 136.494 149.145 138.046 149.466 139.615C149.751 140.97 150.001 142.308 150.286 143.663C150.518 144.822 150.767 145.981 150.999 147.158C151.231 148.317 151.463 149.476 151.695 150.653C151.962 152.009 152.248 153.346 152.515 154.702C152.836 156.307 153.157 157.894 153.496 159.499C153.817 161.05 154.156 162.602 154.477 164.171C154.762 165.526 155.012 166.881 155.279 168.219C155.564 169.592 155.832 170.965 156.117 172.338C156.349 173.498 156.581 174.657 156.831 175.834C157.098 177.189 157.383 178.526 157.651 179.882C157.972 181.433 158.293 182.985 158.614 184.554C158.899 185.927 159.185 187.3 159.452 188.656C159.684 189.815 159.916 190.974 160.148 192.151C160.415 193.506 160.7 194.844 160.968 196.199C161.164 197.162 161.36 198.107 161.556 199.07C161.646 199.552 161.699 199.605 162.181 199.551C162.787 199.48 163.393 199.391 163.999 199.284C164.641 199.177 165.283 199.034 165.943 198.927C166.246 198.874 166.514 198.785 166.728 198.571C166.764 198.517 166.817 198.464 166.871 198.446C166.978 198.446 167.12 198.446 167.209 198.499C167.263 198.535 167.281 198.696 167.263 198.767C167.174 199.106 166.906 199.302 166.585 199.391C166.264 199.498 165.925 199.569 165.604 199.623C164.659 199.783 163.714 199.908 162.769 200.051C162.751 200.051 162.733 200.051 162.698 200.051C161.77 200.158 161.753 200.211 161.949 201.121C162.163 202.048 162.359 202.975 162.555 203.921C162.609 204.152 162.519 204.349 162.323 204.473C161.628 204.919 160.932 205.383 160.13 205.65C158.311 206.257 156.474 206.703 154.584 207.006C153.532 207.184 152.497 207.398 151.463 207.594C150.767 207.719 150.09 207.808 149.394 207.897C148.324 208.022 147.254 208.147 146.167 208.272C146.131 208.272 146.077 208.272 146.042 208.272C144.847 208.325 143.652 208.325 142.457 208.432C140.317 208.628 138.177 208.539 136.055 208.504C134.789 208.486 133.505 208.415 132.257 208.165C131.65 208.04 131.044 207.969 130.438 207.897C130.313 207.88 130.188 207.933 130.063 207.969C129.689 208.058 129.546 207.986 129.457 207.612C129.35 207.148 129.279 206.703 129.19 206.239C128.815 204.313 128.423 202.369 128.048 200.443C127.727 198.803 127.442 197.144 127.121 195.503C126.711 193.417 126.283 191.348 125.873 189.28C125.569 187.728 125.266 186.159 124.963 184.607C124.66 183.092 124.357 181.576 124.071 180.06C123.75 178.348 123.447 176.636 123.126 174.924C122.823 173.337 122.466 171.768 122.163 170.198C121.878 168.807 121.628 167.416 121.361 166.008C121.04 164.331 120.701 162.637 120.362 160.961C120.077 159.463 119.809 157.965 119.524 156.467C119.31 155.361 119.096 154.256 118.864 153.168C118.615 151.937 118.365 150.725 118.133 149.494C117.794 147.782 117.455 146.088 117.117 144.376C116.796 142.753 116.51 141.131 116.189 139.508C115.833 137.635 115.44 135.763 115.084 133.89C114.852 132.678 114.638 131.483 114.388 130.27C114.067 128.612 113.728 126.953 113.407 125.277C113.354 124.992 113.3 124.689 113.247 124.403C113.211 124.243 113.158 124.171 112.997 124.278C111.731 125.027 110.465 125.759 109.217 126.543C108.164 127.203 107.201 127.97 106.328 128.862C105.793 129.414 105.24 129.949 104.687 130.502C104.437 130.752 104.455 130.752 104.705 131.019C105.061 131.412 105.418 131.804 105.775 132.196C106.417 132.927 106.773 133.819 107.059 134.746C107.398 135.87 107.558 137.011 107.719 138.17C107.843 139.044 108.022 139.918 108.396 140.738C108.521 141.006 108.557 141.309 108.592 141.594C108.664 142.201 108.682 142.825 108.753 143.431C108.824 144.091 108.896 144.733 108.985 145.393C109.074 146.07 109.145 146.748 109.252 147.408C109.413 148.3 109.573 149.209 109.823 150.083C110.197 151.456 110.59 152.829 111.178 154.113C111.446 154.702 111.695 155.29 111.999 155.843C113.158 158.09 114.192 160.408 115.101 162.78C115.422 163.636 115.85 164.456 116.189 165.294C116.796 166.739 117.277 168.237 117.687 169.753C118.204 171.607 118.704 173.462 119.043 175.37C119.221 176.369 119.453 177.349 119.631 178.348C119.756 179.061 119.827 179.775 119.934 180.488C120.041 181.184 120.166 181.861 120.273 182.557C120.362 183.145 120.398 183.734 120.541 184.322C120.737 185.232 121.022 186.123 121.236 187.033C121.361 187.55 121.414 188.067 121.468 188.602C121.504 189.119 121.468 189.636 121.486 190.136C121.539 191.116 121.628 192.079 121.717 193.06C121.717 193.078 121.717 193.096 121.717 193.132C121.771 193.934 121.824 194.754 121.86 195.557C121.914 196.752 121.914 197.947 122.021 199.141C122.128 200.318 122.235 201.495 122.484 202.672C122.734 203.831 122.823 205.026 123.055 206.185C123.215 207.041 123.215 207.897 123.305 208.753C123.358 209.377 123.465 210.019 123.536 210.644C123.59 211.089 123.626 211.535 123.679 211.981C123.733 212.57 123.768 213.176 123.822 213.764C123.893 214.389 123.982 215.031 124.054 215.655C124.107 216.118 124.161 216.582 124.196 217.046C124.25 217.723 124.285 218.401 124.339 219.079C124.392 219.738 124.499 220.38 124.571 221.04C124.624 221.575 124.678 222.092 124.713 222.627C124.767 223.822 124.803 225.017 124.856 226.212C124.892 227.3 124.927 228.387 124.999 229.475C125.052 230.474 125.159 231.473 125.248 232.453C125.338 233.345 125.391 234.237 125.516 235.11C125.73 236.805 125.926 238.517 126.336 240.193C126.532 240.995 126.711 241.798 126.889 242.6C126.925 242.725 126.907 242.85 126.907 242.993C126.907 243.135 126.871 243.26 126.711 243.26C126.604 243.242 126.443 243.189 126.408 243.117C126.301 242.868 126.211 242.6 126.158 242.333C125.873 241.013 125.605 239.676 125.355 238.356C125.248 237.821 125.195 237.268 125.124 236.715C125.052 236.163 124.963 235.628 124.892 235.075C124.874 234.968 124.874 234.861 124.874 234.754C124.785 233.559 124.731 232.382 124.589 231.187C124.428 229.814 124.357 228.441 124.339 227.05C124.321 225.962 124.268 224.874 124.214 223.787C124.143 222.699 124.054 221.629 123.964 220.541C123.893 219.631 123.804 218.722 123.715 217.812C123.59 216.546 123.465 215.28 123.322 214.014C123.215 213.033 123.073 212.035 122.966 211.054C122.894 210.394 122.894 209.734 122.805 209.074C122.645 207.844 122.609 206.578 122.342 205.365C122.074 204.117 121.878 202.868 121.7 201.602C121.61 201.014 121.575 200.425 121.539 199.819C121.486 198.696 121.468 197.554 121.396 196.431C121.325 195.272 121.272 194.095 121.129 192.935C121.022 192.151 121.04 191.366 121.004 190.581C120.969 189.743 120.951 188.923 120.879 188.103C120.844 187.621 120.737 187.14 120.594 186.676C120.22 185.517 119.97 184.34 119.774 183.145C119.649 182.396 119.595 181.629 119.488 180.88C119.328 179.793 119.15 178.705 118.953 177.617C118.775 176.636 118.561 175.673 118.347 174.692C118.08 173.515 117.83 172.338 117.527 171.161C117.134 169.663 116.724 168.165 116.154 166.721C115.797 165.794 115.387 164.866 115.012 163.957C114.424 162.548 113.889 161.121 113.265 159.713C112.837 158.714 112.32 157.769 111.82 156.788C110.964 155.076 110.197 153.328 109.68 151.474C109.27 150.047 108.896 148.62 108.682 147.14C108.503 146.035 108.378 144.911 108.307 143.788C108.254 142.967 108.164 142.147 108.04 141.327C107.986 140.988 107.843 140.685 107.719 140.364C107.398 139.472 107.255 138.563 107.148 137.635C106.987 136.334 106.666 135.05 106.185 133.819C105.935 133.177 105.525 132.624 105.044 132.143C105.008 132.107 104.937 132.107 104.901 132.089C104.901 132.143 104.901 132.214 104.919 132.268C105.365 132.856 105.721 133.48 105.81 134.211C105.864 134.657 105.9 135.103 105.864 135.549C105.828 136.013 105.489 136.316 105.097 136.53C104.099 137.1 103.011 137.386 101.852 137.297C101.459 137.261 101.049 137.19 100.71 136.94C100.193 136.583 99.9969 136.066 99.9791 135.46C99.9613 134.818 99.8899 134.194 99.8364 133.552C99.8364 133.462 99.8008 133.391 99.7651 133.32C99.7473 133.284 99.7116 133.248 99.6581 133.248C99.6403 133.248 99.6046 133.302 99.5868 133.338C99.4976 133.837 99.3549 134.336 99.3371 134.836C99.3014 135.602 99.3193 136.369 99.3371 137.154C99.3549 138.028 99.3906 138.902 99.4619 139.775C99.5154 140.328 99.5868 140.881 99.7651 141.398C100.086 142.343 100.3 143.324 100.443 144.305C100.532 144.947 100.728 145.535 100.906 146.16C101.424 148.032 102.173 149.851 102.565 151.759C102.618 151.991 102.654 152.223 102.654 152.455C102.654 155.219 102.69 157.983 102.618 160.729C102.583 162.12 102.529 163.529 102.012 164.866C101.905 165.134 101.762 165.401 101.62 165.651C101.584 165.722 101.406 165.811 101.37 165.776C101.281 165.704 101.21 165.58 101.174 165.473C101.156 165.401 101.21 165.312 101.245 165.241C101.655 164.224 101.834 163.172 101.941 162.084C102.066 160.765 101.994 159.445 102.048 158.125C102.066 157.626 102.03 157.59 101.531 157.501C99.8721 157.216 98.178 157.145 96.5017 157.252C95.9845 157.287 95.4673 157.448 94.9502 157.573C94.7362 157.626 94.5222 157.68 94.3795 157.43C94.3082 157.287 94.4509 157.073 94.7362 156.984C95.0929 156.877 95.4673 156.77 95.8418 156.717C96.3233 156.645 96.8227 156.628 97.3041 156.574C97.5181 156.556 97.5538 156.503 97.4646 156.289C97.0188 155.344 96.5017 154.434 95.8775 153.596C95.0394 152.472 94.1655 151.367 93.1312 150.404C92.9529 150.225 92.7924 150.065 92.5427 150.315C92.4714 150.386 92.3466 150.404 92.2574 150.404C92.1504 150.404 91.9721 150.35 91.9364 150.279C91.9007 150.19 91.9543 150.011 92.0434 149.94C92.3287 149.69 92.6319 149.459 92.9529 149.227C93.4344 148.87 93.791 148.442 93.9694 147.872C94.0585 147.64 94.1299 147.39 94.2369 147.158C94.6292 146.267 94.6827 145.339 94.5935 144.394C94.5222 143.645 94.2369 142.95 93.9515 142.272C93.8624 142.058 93.6841 141.969 93.4701 141.897C92.7924 141.666 92.1147 141.398 91.4371 141.131C91.2409 141.059 91.0269 140.97 90.8664 140.863C90.7951 140.81 90.7416 140.631 90.7773 140.542C90.8129 140.471 90.9734 140.382 91.0626 140.399C91.2944 140.435 91.5084 140.542 91.7224 140.613C92.5249 140.899 93.3096 141.202 94.112 141.487C94.3082 141.559 94.433 141.541 94.4865 141.309C94.54 141.059 94.6292 140.827 94.7005 140.578C94.754 140.346 94.7184 140.293 94.4687 140.257C94.1477 140.221 93.8445 140.168 93.5236 140.114C93.3809 140.096 93.2382 140.043 93.0956 139.989C92.8281 139.882 92.6676 139.686 92.7211 139.544C92.7924 139.383 92.9886 139.312 93.2917 139.419C93.6306 139.526 93.9872 139.597 94.3439 139.633C94.9502 139.686 95.4317 139.437 95.8418 139.062C96.5017 138.474 97.0723 137.814 97.3933 136.976C97.5181 136.637 97.6073 136.298 97.6786 135.941C97.7321 135.656 97.6251 135.531 97.3398 135.513C96.4838 135.513 95.7705 135.157 95.1463 134.604C94.861 134.354 94.647 134.033 94.433 133.73C94.3617 133.641 94.3439 133.498 94.3617 133.373C94.3617 133.195 94.5222 133.159 94.6292 133.213C94.7719 133.302 94.8967 133.427 94.9859 133.569C95.6278 134.515 96.5552 134.907 97.643 134.978C97.7856 134.996 97.9461 134.978 98.0888 134.978C98.6951 134.978 98.6951 134.978 98.8021 134.372C98.8913 133.926 98.927 133.498 99.0339 133.052C99.3728 131.572 100.3 130.609 101.727 130.163C102.262 130.003 102.636 129.718 102.993 129.361C102.975 128.986 103.046 128.879 103.1 128.79ZM138.784 207.612C138.784 207.63 138.784 207.648 138.784 207.665C139.764 207.612 140.745 207.559 141.726 207.523C143.064 207.469 144.419 207.434 145.756 207.362C146.381 207.327 146.987 207.309 147.593 207.22C148.681 207.077 149.769 206.899 150.857 206.738C151.98 206.56 153.121 206.417 154.245 206.185C155.885 205.864 157.526 205.543 159.131 205.062C159.88 204.83 160.611 204.545 161.307 204.152C161.699 203.938 161.788 203.653 161.699 203.189C161.574 202.583 161.485 201.977 161.36 201.37C161.128 200.247 160.879 199.141 160.647 198.018C160.308 196.413 159.987 194.826 159.666 193.221C159.399 191.865 159.113 190.528 158.846 189.173C158.614 188.014 158.382 186.854 158.15 185.677C157.918 184.518 157.669 183.359 157.437 182.2C157.152 180.827 156.884 179.454 156.599 178.098C156.367 176.957 156.135 175.816 155.903 174.674C155.671 173.515 155.44 172.356 155.208 171.179C154.887 169.628 154.566 168.076 154.245 166.507C153.924 164.938 153.603 163.351 153.282 161.781C153.05 160.658 152.818 159.534 152.586 158.429C152.301 157.02 152.016 155.611 151.73 154.184C151.463 152.829 151.178 151.492 150.91 150.136C150.625 148.763 150.357 147.39 150.09 146.017C149.769 144.465 149.448 142.914 149.127 141.345C148.806 139.775 148.485 138.188 148.164 136.619C147.878 135.246 147.611 133.873 147.326 132.517C147.04 131.144 146.773 129.771 146.488 128.416C146.22 127.096 145.935 125.759 145.667 124.439C145.346 122.87 145.025 121.283 144.704 119.713C144.419 118.322 144.134 116.931 143.866 115.54C143.688 114.649 143.545 113.739 143.313 112.865C143.171 112.348 143.313 112.384 142.671 112.384C141.673 112.384 140.674 112.473 139.693 112.634C138.819 112.776 137.928 112.83 137.036 112.919C136.644 112.955 136.234 113.008 135.841 113.079C134.878 113.258 133.933 113.472 133.006 113.739C132.471 113.9 131.882 113.882 131.347 114.06C131.098 114.149 130.812 114.149 130.545 114.239C129.885 114.453 129.207 114.684 128.565 114.952C127.388 115.451 126.211 115.933 125.07 116.485C124.018 117.003 122.984 117.573 121.967 118.144C120.862 118.768 119.738 119.41 118.668 120.088C117.687 120.712 116.742 121.407 115.779 122.067C115.315 122.388 114.852 122.745 114.388 123.084C114.085 123.298 113.907 123.547 113.996 123.957C114.192 124.831 114.352 125.705 114.531 126.579C114.87 128.237 115.191 129.896 115.512 131.572C115.779 132.981 116.047 134.408 116.314 135.816C116.635 137.493 116.974 139.187 117.313 140.863C117.545 142.04 117.759 143.235 117.99 144.43C118.311 146.088 118.65 147.747 118.971 149.423C119.203 150.636 119.417 151.83 119.649 153.043C119.97 154.702 120.309 156.36 120.63 158.036C120.862 159.249 121.093 160.444 121.325 161.656C121.646 163.315 121.985 164.973 122.306 166.65C122.573 168.058 122.841 169.485 123.126 170.894C123.394 172.267 123.697 173.622 123.964 174.995C124.285 176.707 124.589 178.419 124.927 180.114C125.195 181.487 125.498 182.842 125.766 184.215C126.087 185.927 126.39 187.639 126.711 189.333C126.996 190.849 127.299 192.365 127.602 193.881C127.941 195.646 128.28 197.412 128.637 199.177C129.011 201.103 129.386 203.047 129.778 204.973C129.885 205.526 130.028 206.096 130.135 206.649C130.188 206.881 130.295 206.97 130.527 206.988C130.919 207.024 131.329 207.095 131.722 207.148C132.524 207.255 133.309 207.434 134.111 207.487C135.574 207.576 137.054 207.576 138.516 207.63C138.57 207.612 138.677 207.612 138.784 207.612ZM121.86 45.9382C121.29 45.9739 120.612 46.0452 119.934 46.0809C118.918 46.1344 117.883 46.17 116.867 46.2235C116.314 46.2592 115.761 46.277 115.208 46.384C113.728 46.6694 112.266 46.9725 110.804 47.3292C109.609 47.6323 108.45 48.0425 107.291 48.4348C106.524 48.7023 105.775 49.0055 105.061 49.3621C103.385 50.1468 101.941 51.2524 100.639 52.5899C100.318 52.9287 100.211 53.2676 100.282 53.6777C100.407 54.4267 100.568 55.1757 100.71 55.9247C101.031 57.5831 101.37 59.2416 101.691 60.9179C101.923 62.1306 102.155 63.3254 102.387 64.538C102.708 66.1965 103.046 67.8549 103.367 69.5312C103.599 70.7439 103.813 71.9387 104.063 73.1513C104.384 74.7385 104.705 76.3078 105.026 77.8771C105.329 79.4107 105.614 80.9622 105.9 82.4958C106.078 83.4588 106.274 84.4039 106.452 85.3669C106.666 86.5261 106.88 87.703 107.112 88.8622C107.451 90.5742 107.79 92.2683 108.111 93.9803C108.343 95.1394 108.557 96.3164 108.771 97.4755C109.11 99.1875 109.448 100.882 109.787 102.594C110.037 103.824 110.287 105.037 110.518 106.267C110.732 107.391 110.964 108.514 111.178 109.638C111.428 110.904 111.66 112.17 111.927 113.436C112.034 113.953 112.052 113.953 112.605 113.9C112.712 113.882 112.819 113.9 112.926 113.9C113.603 113.846 114.281 113.811 114.959 113.757C115.654 113.686 116.35 113.579 117.045 113.543C117.919 113.49 118.793 113.472 119.667 113.436C121.61 113.329 123.554 113.329 125.498 113.293C125.89 113.293 126.265 113.276 126.657 113.293C127.103 113.311 127.495 113.204 127.888 113.026C128.458 112.776 129.029 112.544 129.6 112.313C129.689 112.277 129.814 112.259 129.903 112.241C130.277 112.17 130.652 112.099 131.026 112.027C131.775 111.902 132.506 111.635 133.291 111.724C133.452 111.742 133.63 111.724 133.808 111.688C134.807 111.528 135.823 111.367 136.822 111.189C137.036 111.153 137.232 111.082 137.411 110.993C138.409 110.404 139.408 109.78 140.424 109.192C140.924 108.906 141.441 108.657 141.94 108.371C142.279 108.175 142.297 108.104 142.208 107.694C142.136 107.391 142.101 107.07 142.029 106.749C141.797 105.59 141.566 104.43 141.334 103.253C140.977 101.47 140.603 99.6868 140.228 97.9035C139.943 96.5482 139.675 95.2107 139.39 93.8554C139.105 92.5001 138.837 91.1626 138.552 89.8073C138.267 88.4164 137.999 87.0254 137.714 85.6344C137.482 84.4931 137.25 83.3518 137.018 82.2105C136.769 81.0335 136.537 79.8387 136.287 78.6617C135.966 77.1281 135.645 75.5944 135.342 74.0608C135.181 73.3118 135.057 72.5628 134.914 71.8139C134.593 70.2624 134.272 68.7109 133.951 67.1416C133.63 65.5723 133.309 63.9852 132.988 62.4159C132.756 61.2567 132.506 60.0976 132.275 58.9384C132.043 57.7793 131.793 56.6202 131.561 55.461C131.294 54.1057 131.008 52.7682 130.741 51.4129C130.491 50.1824 130.224 48.9698 129.992 47.7393C129.921 47.3648 129.742 47.1865 129.386 47.1152C129.083 47.0438 128.779 46.9368 128.476 46.8477C127.353 46.5089 126.211 46.2592 125.052 46.1344C124.018 46.0095 123.001 45.9917 121.86 45.9382ZM121.789 45.3319C121.789 45.314 121.789 45.2962 121.789 45.2784C122.966 45.3319 124.125 45.3675 125.302 45.4745C126.372 45.5815 127.442 45.8134 128.476 46.1165C128.797 46.2057 129.136 46.2949 129.457 46.3484C129.618 46.384 129.671 46.2949 129.635 46.1165C129.475 45.2427 129.207 44.3867 129.083 43.5129C128.904 42.3538 128.637 41.2303 128.405 40.089C128.191 39.0725 127.959 38.056 127.781 37.0395C127.727 36.772 127.585 36.6651 127.388 36.6116C126.711 36.4689 126.015 36.2906 125.338 36.2192C124.392 36.1301 123.429 36.0944 122.466 36.0766C121.307 36.0587 120.148 36.1479 119.007 36.0409C117.794 35.9339 116.582 35.9339 115.369 35.9517C114.549 35.9517 113.71 36.0052 112.89 36.0944C111.838 36.2192 110.804 36.3976 109.752 36.5937C108.575 36.8255 107.38 37.093 106.238 37.4854C105.561 37.7172 104.901 38.0204 104.206 38.2344C103.171 38.5732 102.208 39.0547 101.299 39.661C100.193 40.3921 99.1231 41.159 98.3028 42.2111C98.1601 42.3894 98.0888 42.5499 98.1423 42.7818C98.285 43.4059 98.4098 44.0301 98.5346 44.6542C98.9983 46.9368 99.4619 49.2195 99.9078 51.5021C99.9613 51.7517 99.9256 52.0192 100.14 52.1976C100.318 52.0549 100.514 51.9301 100.675 51.7696C101.852 50.5034 103.26 49.5583 104.812 48.8093C106.024 48.2208 107.273 47.775 108.539 47.347C109.573 46.9903 110.643 46.6694 111.695 46.3662C112.302 46.1879 112.926 46.0452 113.55 45.956C114.62 45.7955 115.69 45.6529 116.76 45.5459C117.759 45.4389 118.757 45.3675 119.738 45.314C120.416 45.314 121.111 45.3319 121.789 45.3319ZM142.386 70.1019C142.35 69.8701 142.279 69.5491 142.208 69.2102C142.065 68.4256 141.904 67.6409 141.762 66.8385C141.601 65.8576 141.441 64.8768 141.298 63.896C141.155 62.9687 141.013 62.0592 140.87 61.1319C140.763 60.4542 140.71 59.7766 140.567 59.1168C140.299 57.8506 140.032 56.6023 139.711 55.354C139.122 53.0357 138.48 50.7353 137.874 48.417C137.464 46.9012 137.054 45.4032 136.626 43.8874C136.555 43.6377 136.483 43.4059 136.394 43.1563C136.269 42.8531 136.251 42.8709 135.913 42.9601C134.914 43.2276 133.915 43.4951 132.917 43.7804C132.078 44.0122 131.258 44.2797 130.42 44.5294C130.099 44.6364 130.081 44.6899 130.135 44.9931C130.491 46.705 130.866 48.4348 131.222 50.1468C131.508 51.5021 131.757 52.8574 132.025 54.1949C132.31 55.568 132.596 56.9412 132.863 58.2965C133.184 59.8123 133.487 61.3281 133.808 62.8439C134.147 64.4667 134.468 66.0716 134.807 67.6944C135.074 69.0497 135.342 70.3872 135.609 71.7425C135.699 72.2062 135.788 72.652 135.877 73.1157C135.93 73.3832 136.091 73.4545 136.341 73.3475C136.412 73.3118 136.501 73.2762 136.572 73.2405C137.642 72.5807 138.819 72.117 139.961 71.5999C140.674 71.2789 141.387 70.94 142.101 70.619C142.297 70.5655 142.422 70.4586 142.386 70.1019ZM147.682 104.145C147.647 103.985 147.629 103.878 147.611 103.771C147.379 102.647 147.129 101.541 146.898 100.418C146.612 98.9913 146.327 97.5468 146.024 96.1202C145.721 94.6044 145.4 93.0886 145.097 91.5728C144.74 89.7895 144.383 88.0062 144.027 86.2229C143.706 84.6179 143.367 83.0308 143.046 81.4258C142.725 79.8209 142.404 78.2337 142.065 76.6288C141.797 75.3091 141.512 73.9716 141.245 72.652C141.031 71.5999 141.066 71.8852 140.299 72.117C140.282 72.117 140.264 72.1349 140.246 72.1527C139.087 72.7055 137.946 73.2583 136.786 73.8111C136.644 73.8825 136.519 73.936 136.394 74.0073C136.18 74.15 136.091 74.2926 136.144 74.5958C136.483 76.1294 136.804 77.6631 137.107 79.1967C137.428 80.766 137.732 82.3531 138.053 83.9225C138.374 85.5274 138.712 87.1146 139.033 88.7195C139.354 90.2888 139.675 91.876 139.996 93.4453C140.228 94.6044 140.478 95.7635 140.71 96.9227C140.995 98.2958 141.262 99.669 141.548 101.024C141.833 102.397 142.101 103.771 142.386 105.126C142.529 105.804 142.653 106.499 142.796 107.177C142.885 107.587 143.028 107.64 143.349 107.426C144.793 106.535 146.095 105.429 147.468 104.43C147.593 104.377 147.629 104.216 147.682 104.145ZM101.976 154.131C101.959 154.131 101.959 154.131 101.976 154.131C101.959 153.846 101.941 153.578 101.976 153.293C102.083 152.062 101.816 150.885 101.406 149.726C101.21 149.209 100.996 148.71 100.835 148.175C100.585 147.319 100.371 146.463 100.157 145.589C100.033 145.072 99.8899 144.572 99.7829 144.055C99.5868 143.128 99.4619 142.183 99.1409 141.273C98.8734 140.524 98.8021 139.74 98.7665 138.955C98.713 137.885 98.6773 136.833 98.6238 135.763C98.6238 135.674 98.6238 135.585 98.5881 135.513C98.5346 135.442 98.4276 135.406 98.3563 135.335C98.3206 135.406 98.2493 135.46 98.2493 135.531C98.1245 136.476 97.7856 137.35 97.1793 138.081C96.787 138.563 96.3233 138.973 95.8597 139.401C95.4852 139.74 95.2712 140.15 95.1285 140.649C95.0215 141.077 95.0037 141.541 94.7005 141.897C94.6292 141.987 94.647 142.183 94.6827 142.325C94.7897 142.736 94.9145 143.146 95.0215 143.556C95.075 143.752 95.1464 143.806 95.3425 143.752C95.4674 143.716 95.5922 143.681 95.6992 143.627C96.4482 143.271 97.4111 143.788 97.7143 144.501C97.8926 144.929 97.8748 145.375 97.8035 145.821C97.6965 146.427 97.4111 146.98 97.1436 147.551C96.6265 148.638 95.8775 149.459 94.754 149.904C94.5579 149.976 94.3795 150.101 94.2012 150.208C94.326 150.386 94.4687 150.564 94.5935 150.743C94.7005 150.903 94.8075 151.064 94.9324 151.206C95.8775 152.241 96.68 153.4 97.3933 154.612C97.6251 154.987 97.8035 155.415 97.964 155.825C98.1066 156.217 98.071 156.235 98.4633 156.235C99.4976 156.271 100.532 156.414 101.548 156.61C101.869 156.663 101.959 156.592 101.959 156.235C101.976 155.54 101.976 154.844 101.976 154.131ZM166.96 100.133C166.639 100.15 166.318 100.15 165.997 100.15C165.373 100.15 164.784 100.329 164.231 100.596C163.982 100.721 163.982 100.721 164.178 100.935C164.998 101.862 165.801 102.79 166.621 103.717C166.674 103.771 166.764 103.788 166.835 103.824C166.871 103.753 166.924 103.681 166.924 103.61C166.924 103.485 166.906 103.36 166.888 103.236C166.835 102.932 166.746 102.611 166.692 102.308C166.657 102.112 166.692 101.916 166.906 101.827C167.049 101.773 167.227 101.88 167.299 102.148C167.513 102.861 167.655 103.592 167.548 104.341C167.513 104.573 167.566 104.734 167.673 104.93C167.851 105.251 168.137 105.411 168.476 105.5C168.672 105.554 168.886 105.607 169.1 105.643C169.349 105.679 169.599 105.697 169.849 105.732C169.742 105.554 169.617 105.376 169.563 105.179C169.528 105.09 169.581 104.93 169.653 104.841C169.688 104.787 169.849 104.787 169.92 104.841C170.063 104.912 170.223 105.019 170.33 105.144C170.633 105.483 170.919 105.804 171.186 106.178C171.703 106.909 172.203 107.64 172.666 108.407C173.041 109.013 173.451 109.62 173.522 110.369C173.54 110.511 173.736 110.69 173.879 110.761C174.36 110.993 174.842 111.189 175.341 111.385C175.805 111.581 175.876 111.546 176.055 111.118C176.5 110.101 176.982 109.103 177.731 108.264C177.909 108.068 177.998 107.872 177.891 107.569C177.749 107.123 177.713 106.659 177.553 106.214C177.41 105.821 177.214 105.429 176.982 105.09C176.643 104.609 176.233 104.163 175.858 103.699C175.216 102.915 174.628 102.076 174.182 101.149C174.004 100.757 173.754 100.65 173.397 100.632C173.183 100.614 172.969 100.632 172.755 100.596C171.828 100.489 170.901 100.329 169.974 100.257C168.975 100.204 167.958 100.186 166.96 100.133ZM132.524 34.1506C132.061 34.1863 131.597 34.2398 131.133 34.2754C130.598 34.3289 130.081 34.3646 129.546 34.4359C128.672 34.5429 127.781 34.6678 126.907 34.7926C126.176 34.8818 125.427 34.9709 124.696 35.0779C124.375 35.1136 124.071 35.2027 123.768 35.2741C123.697 35.2919 123.643 35.3632 123.59 35.3989C123.643 35.4167 123.715 35.4346 123.768 35.4346C124.464 35.5059 125.159 35.6129 125.855 35.6664C126.461 35.7021 126.996 36.0052 127.585 36.0587C128.137 36.1301 128.405 36.4511 128.512 36.9504C128.744 38.0917 128.958 39.233 129.19 40.3743C129.404 41.4621 129.618 42.5321 129.849 43.6021C129.903 43.8339 130.045 43.9231 130.259 43.8874C130.402 43.8696 130.545 43.8161 130.687 43.7804C131.668 43.5129 132.649 43.2276 133.612 42.9601C134.308 42.7639 135.003 42.5678 135.681 42.3538C136.109 42.2111 136.127 42.1933 135.984 41.7831C135.752 41.1055 135.52 40.4278 135.271 39.7502C134.736 38.3235 134.201 36.8969 133.666 35.4702C133.541 35.1314 133.398 34.7926 133.255 34.4716C133.166 34.2576 133.041 34.1149 132.774 34.1506C132.703 34.1684 132.613 34.1506 132.524 34.1506ZM154.405 94.2299C154.477 94.5152 154.495 94.8184 154.619 95.0681C154.726 95.2999 154.905 95.2821 155.03 95.0502C155.368 94.4796 155.707 93.9089 156.01 93.3383C156.581 92.2683 157.49 91.6085 158.56 91.1448C159.363 90.7881 160.183 90.5385 161.039 90.3602C161.539 90.2532 162.02 90.1105 162.519 90.0035C162.68 89.9678 162.716 89.843 162.662 89.7182C162.644 89.6647 162.591 89.6112 162.555 89.5577C162.466 89.4507 162.412 89.3437 162.519 89.2188C162.644 89.094 162.787 89.0762 162.93 89.1653C163.09 89.2723 163.268 89.3615 163.393 89.5042C163.572 89.7003 163.75 89.7182 164.017 89.6468C165.052 89.308 166.086 89.0405 167.12 88.7017C167.762 88.4877 168.404 88.345 169.046 88.3807C170.188 88.452 171.258 88.8265 172.238 89.3972C173.005 89.843 173.772 90.3245 174.503 90.8238C175.644 91.6085 176.75 92.4288 177.909 93.1956C178.409 93.5344 178.944 93.7841 179.461 94.0872C179.496 94.1051 179.55 94.0872 179.568 94.0694C179.586 94.0516 179.568 93.9981 179.568 93.9624C179.532 93.8911 179.496 93.8019 179.461 93.7306C178.908 92.8389 178.373 91.9473 177.82 91.0735C177.125 89.9857 176.34 88.987 175.27 88.238C174.325 87.5782 173.326 87.0967 172.131 87.168C170.847 87.2215 169.581 87.275 168.297 87.2929C167.12 87.3107 165.943 87.3107 164.766 87.3107C163.803 87.3107 162.858 87.3999 161.913 87.5604C160.932 87.7209 160.058 88.131 159.327 88.8265C158.543 89.5755 157.758 90.3245 156.955 91.0735C156.474 91.5193 155.939 91.9116 155.457 92.3575C154.905 92.8746 154.352 93.3739 154.405 94.2299ZM112.444 116.254C112.462 116.254 112.462 116.254 112.48 116.254C112.658 117.27 112.855 118.304 113.033 119.321C113.158 119.945 113.282 120.569 113.407 121.193C113.479 121.568 113.603 121.604 113.907 121.372C114.531 120.89 115.155 120.409 115.761 119.909C116.831 119 117.99 118.215 119.221 117.52C120.541 116.771 121.878 116.057 123.198 115.326C123.305 115.273 123.394 115.166 123.483 115.095C123.358 115.077 123.233 115.041 123.108 115.041C122.145 115.077 121.2 115.112 120.237 115.166C118.953 115.219 117.687 115.273 116.403 115.308C116.368 115.308 116.314 115.308 116.278 115.308C115.155 115.433 114.049 115.558 112.926 115.683C112.765 115.701 112.569 115.736 112.462 115.843C112.391 115.915 112.444 116.129 112.444 116.254ZM167.334 96.5482C166.942 96.6017 166.532 96.6195 166.139 96.7087C164.873 97.0297 163.571 97.0654 162.288 97.1545C161.895 97.1902 161.646 97.3329 161.449 97.6182C161.342 97.7608 161.253 97.9035 161.128 98.0105C161.004 98.1532 160.986 98.2602 161.128 98.385C161.378 98.599 161.628 98.7952 161.86 98.9913C162.323 99.3658 162.787 99.7403 163.233 100.133C163.375 100.24 163.465 100.257 163.625 100.15C164.303 99.669 165.087 99.455 165.908 99.4728C167.12 99.4906 168.333 99.4193 169.546 99.5976C170.402 99.7225 171.275 99.776 172.149 99.8651C172.524 99.9008 172.916 99.9543 173.29 99.99C173.522 100.008 173.594 99.9365 173.594 99.7046C173.594 99.5085 173.522 99.3836 173.344 99.3123C173.183 99.2588 173.041 99.1696 172.88 99.1161C171.454 98.6168 170.063 98.0462 168.725 97.315C168.476 97.1724 168.208 96.994 168.012 96.7979C167.816 96.6017 167.62 96.4947 167.334 96.5482ZM102.297 136.369C103.011 136.423 103.742 136.155 104.437 135.87C104.776 135.727 105.115 135.513 105.168 135.121C105.222 134.675 105.275 134.194 105.133 133.783C104.83 132.91 104.366 132.089 103.546 131.537C102.815 131.037 102.101 131.091 101.406 131.519C101.067 131.733 100.764 132.036 100.55 132.357C100.389 132.589 100.318 132.91 100.336 133.195C100.371 133.926 100.496 134.657 100.568 135.406C100.603 135.745 100.746 135.995 101.067 136.155C101.424 136.387 101.816 136.369 102.297 136.369ZM132.078 112.473C131.864 112.527 131.65 112.562 131.454 112.598C130.473 112.776 129.511 113.026 128.583 113.418C127.478 113.9 126.372 114.381 125.302 114.988C123.947 115.736 122.538 116.414 121.165 117.145C120.416 117.538 119.685 118.001 118.953 118.411C117.509 119.232 116.261 120.337 114.959 121.372C114.388 121.818 113.817 122.263 113.211 122.638C111.909 123.458 110.572 124.189 109.288 125.027C107.451 126.204 105.614 127.399 103.992 128.897C103.778 129.093 103.564 129.307 103.35 129.539C103.296 129.593 103.278 129.753 103.314 129.807C103.528 130.074 103.885 130.11 104.134 129.896C104.223 129.825 104.295 129.753 104.366 129.664C105.436 128.576 106.506 127.524 107.701 126.579C108.271 126.133 108.824 125.687 109.466 125.331C110.376 124.831 111.285 124.296 112.159 123.743C112.623 123.458 113.051 123.084 113.496 122.763C114.263 122.228 115.03 121.693 115.797 121.176C117.063 120.32 118.311 119.446 119.613 118.625C121.129 117.68 122.734 116.878 124.321 116.057C126.425 114.952 128.637 114.149 130.866 113.383C131.044 113.329 131.24 113.276 131.419 113.258C131.793 113.24 132.114 113.062 132.417 112.865C132.542 112.776 132.524 112.634 132.382 112.562C132.275 112.509 132.168 112.491 132.078 112.473ZM139.301 110.815C139.354 110.797 139.461 110.779 139.568 110.761C140.21 110.636 140.763 110.297 141.316 109.994C142.689 109.245 144.027 108.478 145.382 107.712C146.612 107.016 147.789 106.249 148.841 105.322C149.822 104.448 150.767 103.503 151.73 102.594C151.998 102.344 152.265 102.112 152.551 101.88C152.836 101.648 152.872 101.506 152.747 101.149C152.658 100.899 152.569 100.882 152.39 101.042C151.677 101.702 150.981 102.362 150.286 103.004C149.894 103.36 149.501 103.717 149.091 104.056C148.199 104.769 147.272 105.465 146.363 106.16C144.776 107.373 143.117 108.496 141.316 109.388C140.87 109.602 140.46 109.852 140.032 110.101C139.747 110.28 139.461 110.458 139.176 110.654C139.122 110.69 139.087 110.725 139.051 110.761C139.105 110.779 139.176 110.797 139.229 110.797C139.212 110.815 139.229 110.815 139.301 110.815ZM97.2863 145.393C97.3755 144.501 96.5195 143.913 95.7348 144.287C95.6457 144.341 95.5387 144.358 95.4317 144.376C95.2177 144.448 95.1285 144.59 95.1463 144.804C95.2177 145.714 94.9145 146.552 94.6114 147.39C94.4152 147.943 94.1834 148.496 93.7019 148.888C93.6306 148.942 93.577 149.013 93.5414 149.084C93.4344 149.262 93.5057 149.494 93.7197 149.548C93.8445 149.566 93.9694 149.566 94.0942 149.53C94.7005 149.334 95.2712 149.066 95.7348 148.585C96.3055 147.996 96.6978 147.283 96.9653 146.534C97.0901 146.16 97.1793 145.767 97.2863 145.393ZM125.569 113.953C125.48 113.918 125.427 113.9 125.355 113.9C123.911 113.935 122.449 113.846 121.004 113.989C119.792 114.114 118.579 114.096 117.366 114.149C117.027 114.167 116.689 114.149 116.332 114.185C115.636 114.256 114.941 114.346 114.245 114.417C113.657 114.47 113.051 114.506 112.462 114.56C112.248 114.577 112.177 114.702 112.213 114.916C112.266 115.13 112.391 115.201 112.641 115.166C113.496 115.041 114.352 114.916 115.226 114.827C116.439 114.72 117.634 114.631 118.846 114.577C120.309 114.506 121.789 114.488 123.251 114.435C123.768 114.417 124.268 114.346 124.767 114.292C124.981 114.274 125.177 114.185 125.373 114.132C125.462 114.078 125.48 114.042 125.569 113.953ZM168.939 106.339C168.939 106.392 168.921 106.463 168.939 106.499C169.207 106.838 169.456 107.177 169.742 107.48C170.384 108.157 171.044 108.835 171.721 109.477C171.917 109.673 172.167 109.798 172.399 109.959C172.452 109.994 172.559 109.994 172.631 110.012C172.631 109.941 172.648 109.852 172.631 109.78C172.613 109.673 172.577 109.566 172.524 109.477C171.989 108.621 171.436 107.747 170.883 106.909C170.794 106.766 170.651 106.624 170.491 106.606C170.009 106.481 169.51 106.428 168.939 106.339ZM143.402 111.51C144.241 111.581 144.936 111.635 145.632 111.688C145.81 111.706 145.97 111.688 146.149 111.706C146.345 111.706 146.398 111.581 146.398 111.421C146.398 111.278 146.398 111.118 146.184 111.082C145.739 111.029 145.293 110.975 144.847 110.957C144.312 110.939 143.795 110.975 143.26 111.064C142.386 111.207 141.494 111.243 140.603 111.35C140.335 111.385 140.068 111.457 139.8 111.546C139.64 111.599 139.497 111.706 139.354 111.778C139.515 111.795 139.675 111.813 139.836 111.831C139.907 111.831 139.961 111.831 140.032 111.831C141.209 111.706 142.368 111.617 143.402 111.51ZM138.873 111.902C138.837 111.885 138.819 111.831 138.784 111.831C138.623 111.778 138.463 111.688 138.302 111.706C137.963 111.724 137.625 111.778 137.304 111.831C136.109 112.009 134.914 112.188 133.719 112.366C133.666 112.384 133.559 112.384 133.541 112.42C133.487 112.527 133.452 112.634 133.416 112.741C133.505 112.758 133.594 112.794 133.683 112.776C134.397 112.634 135.092 112.455 135.788 112.348C136.626 112.223 137.464 112.17 138.32 112.063C138.463 112.045 138.605 111.992 138.748 111.938C138.801 111.956 138.837 111.92 138.873 111.902ZM102.618 130.288C102.262 130.36 101.994 130.377 101.745 130.467C101.21 130.663 100.71 130.93 100.336 131.412C100.318 131.43 100.336 131.483 100.336 131.519C100.371 131.519 100.407 131.519 100.443 131.501C100.692 131.305 100.924 131.073 101.192 130.912C101.834 130.556 102.529 130.413 103.26 130.681C103.457 130.752 103.617 130.966 103.867 130.859C103.688 130.752 103.528 130.609 103.332 130.538C103.064 130.449 102.815 130.36 102.618 130.288Z" fill="black"/>
<path d="M103.118 128.772C101.976 128.897 100.835 129.021 99.7116 129.146C98.8913 129.235 98.071 129.307 97.2507 129.432C96.4304 129.539 95.6992 129.842 95.0929 130.43C94.2191 131.304 93.3988 132.231 92.5963 133.176C92.097 133.783 91.562 134.371 90.9913 134.924C90.2423 135.637 89.6717 136.476 89.1367 137.349C88.8514 137.813 88.5839 138.312 88.2807 138.776C87.817 139.472 87.6387 140.238 87.4426 141.023C87.2999 141.629 87.2999 142.253 87.2999 142.86C87.2999 143.805 87.2642 144.75 87.3356 145.677C87.4247 146.747 87.1751 147.782 87.0681 148.816C87.0681 148.887 87.0681 148.941 87.0502 149.012C87.0146 150.225 86.9611 151.437 86.9254 152.65C86.9254 152.793 86.9432 152.953 86.9076 153.096C86.8897 153.167 86.7827 153.256 86.6936 153.274C86.5687 153.31 86.4261 153.274 86.4082 153.096C86.3904 152.953 86.3904 152.793 86.3904 152.65C86.3904 151.616 86.3726 150.599 86.4082 149.565C86.4261 148.941 86.5687 148.299 86.6222 147.675C86.6579 147.122 86.6579 146.569 86.6579 146.016C86.6579 145.731 86.6757 145.463 86.6579 145.178C86.6579 145.053 86.6401 144.911 86.5687 144.821C86.3369 144.447 86.0694 144.09 85.8554 143.698C85.2491 142.592 84.0008 142.557 83.0735 143.092C82.8951 143.199 82.7346 143.341 82.5563 143.448C82.3423 143.591 82.0927 143.573 82.057 143.43C81.9857 143.234 82.0392 143.056 82.2353 142.931C82.913 142.467 83.6085 142.093 84.4644 142.129C85.0173 142.164 85.1064 142.004 84.8389 141.504C84.8033 141.433 84.6784 141.362 84.5893 141.362C84.4466 141.362 84.304 141.415 84.1613 141.433C83.8046 141.504 83.448 141.469 83.0913 141.344C82.9308 141.29 82.913 141.183 82.9308 141.041C82.9308 140.88 83.0556 140.827 83.1983 140.827C83.5193 140.827 83.8403 140.845 84.1613 140.827C84.7141 140.791 85.2134 140.381 85.2313 139.846C85.2669 138.812 85.5879 137.849 85.8376 136.868C86.0694 135.941 86.0694 135.762 85.8911 134.924C85.7841 134.443 85.6771 134.407 85.2313 134.282C84.4644 134.05 83.6976 133.783 82.9486 133.515C82.699 133.426 82.4672 133.301 82.485 132.98C82.485 132.82 82.806 132.838 83.1805 132.98C83.876 133.248 84.5714 133.497 85.2848 133.676C85.6593 133.765 85.8911 133.676 86.1586 133.48C86.7827 132.98 87.1394 132.303 87.4426 131.589C87.9775 130.341 88.5304 129.093 89.0654 127.844C89.3329 127.202 89.6003 126.543 89.7965 125.883C90.0818 124.92 89.4042 123.957 88.4055 123.886C88.1202 123.868 87.8527 123.886 87.5674 123.886C87.3356 123.886 87.1572 123.975 87.0146 124.135C86.6401 124.599 86.2834 125.062 85.9268 125.544C85.2669 126.453 84.4823 127.22 83.6263 127.934C82.7525 128.683 81.9143 129.485 81.308 130.484C81.1297 130.787 80.987 131.126 80.8444 131.465C80.7909 131.572 80.7552 131.732 80.7909 131.839C81.0049 132.57 80.7374 133.266 80.6125 133.961C80.238 136.03 79.7922 138.081 79.3642 140.131C79.1324 141.29 78.8649 142.45 78.6509 143.609C78.5261 144.322 78.4904 145.018 78.7401 145.731C79.0967 146.712 79.4355 147.693 79.917 148.62C80.4699 149.672 81.0048 150.724 81.843 151.616C81.9678 151.741 82.0035 151.955 82.057 152.133C82.0748 152.186 82.0213 152.311 81.9678 152.347C81.9143 152.383 81.7717 152.383 81.736 152.347C81.5398 152.186 81.3615 152.008 81.201 151.812C80.9513 151.509 80.7195 151.17 80.452 150.849C80.3985 150.795 80.3094 150.778 80.238 150.742C80.2202 150.813 80.1667 150.885 80.1667 150.956C80.1845 151.223 80.2202 151.509 80.2737 151.776C80.345 152.097 80.4164 152.454 80.5947 152.739C80.9692 153.328 81.3972 153.881 81.8608 154.416C82.7703 155.486 83.7333 156.52 84.6249 157.59C85.3026 158.41 85.8019 159.337 86.0872 160.39C86.3726 161.424 86.7114 162.476 87.3712 163.368C87.7814 163.921 88.2094 164.438 88.6195 164.991C89.2794 165.882 89.9035 166.792 90.5455 167.683C91.0626 168.397 91.5798 169.092 92.0791 169.805C92.4001 170.251 92.6854 170.733 92.9529 171.214C93.4879 172.159 94.0051 173.105 94.5222 174.068C95.1642 175.298 95.8241 176.511 96.4304 177.759C97.4825 179.952 98.4812 182.164 99.4977 184.357C100.05 185.552 100.603 186.747 101.156 187.959C102.155 190.099 103.082 192.257 103.778 194.522C104.116 195.61 104.33 196.733 104.562 197.857C104.758 198.784 104.919 199.729 105.062 200.674C105.151 201.298 105.151 201.94 105.222 202.582C105.454 204.366 105.329 206.167 105.311 207.95C105.311 208.967 105.169 209.983 105.097 211C105.097 211.107 105.097 211.214 105.097 211.321C105.079 212.159 104.972 212.961 104.848 213.782C104.723 214.602 104.669 215.422 104.562 216.243C104.491 216.849 104.366 217.455 104.277 218.061C104.152 218.9 104.045 219.738 103.938 220.576C103.831 221.432 103.706 222.306 103.599 223.162C103.51 223.857 103.403 224.553 103.296 225.23C103.207 225.854 103.1 226.479 103.011 227.121C102.922 227.727 102.832 228.333 102.761 228.94C102.672 229.76 102.601 230.58 102.529 231.401C102.511 231.525 102.529 231.65 102.511 231.793C102.422 232.72 102.351 233.648 102.262 234.575C102.19 235.359 102.101 236.144 101.994 236.911C101.852 237.91 101.673 238.908 101.513 239.925C101.459 240.246 101.406 240.549 101.37 240.87C101.352 240.941 101.37 240.995 101.352 241.066C101.281 241.369 101.156 241.494 100.96 241.476C100.764 241.458 100.692 241.334 100.746 240.977C100.835 240.388 100.942 239.8 101.031 239.229C101.156 238.48 101.263 237.731 101.37 236.964C101.477 236.233 101.602 235.502 101.691 234.771C101.762 234.307 101.816 233.844 101.852 233.38C101.905 232.56 101.941 231.722 101.994 230.901C102.083 229.76 102.119 228.619 102.351 227.477C102.547 226.496 102.636 225.498 102.779 224.517C102.939 223.429 103.118 222.341 103.26 221.254C103.367 220.415 103.421 219.559 103.546 218.721C103.671 217.794 103.831 216.885 103.974 215.957C104.045 215.547 104.116 215.119 104.17 214.709C104.277 213.71 104.348 212.729 104.455 211.731C104.527 210.928 104.634 210.126 104.687 209.323C104.723 208.646 104.705 207.95 104.723 207.273C104.741 206.898 104.794 206.506 104.812 206.131C104.83 205.81 104.794 205.489 104.776 205.168C104.758 204.865 104.723 204.58 104.723 204.277C104.723 202.868 104.562 201.477 104.348 200.086C104.116 198.517 103.795 196.965 103.421 195.414C103.171 194.308 102.743 193.274 102.351 192.221C101.959 191.187 101.531 190.171 101.085 189.154C100.157 187.086 99.1767 185.017 98.2493 182.931C96.9654 180.024 95.5387 177.188 94.0586 174.371C93.2383 172.784 92.418 171.196 91.3658 169.734C90.4207 168.397 89.4042 167.113 88.4412 165.793C87.7814 164.884 87.1037 163.992 86.5152 163.029C86.1586 162.458 85.8911 161.798 85.7306 161.156C85.3561 159.551 84.5358 158.214 83.4123 157.037C82.3602 155.931 81.3615 154.754 80.4342 153.524C79.9349 152.864 79.6495 152.115 79.6495 151.277C79.6495 151.045 79.596 150.813 79.5782 150.581C79.5604 150.385 79.5069 150.171 79.5782 150.011C79.7387 149.618 79.5782 149.28 79.4534 148.959C79.1324 148.174 78.7579 147.407 78.4369 146.623C78.2229 146.088 77.9911 145.553 77.9197 145C77.8484 144.483 77.9554 143.948 78.0446 143.413C78.3121 141.915 78.6152 140.417 78.9184 138.919C79.1146 137.938 79.3642 136.975 79.5604 135.994C79.7744 134.942 79.9705 133.872 80.1667 132.82C80.1667 132.784 80.1845 132.731 80.1667 132.695C79.8992 132 80.2559 131.411 80.4877 130.805C80.773 130.056 81.3258 129.485 81.7895 128.843C82.3602 128.023 83.1448 127.434 83.9116 126.81C84.2326 126.543 84.5358 126.222 84.8033 125.901C85.3561 125.205 85.9089 124.51 86.4261 123.778C86.6222 123.493 86.8897 123.297 87.1751 123.226C88.245 122.994 89.2437 123.083 90.0283 123.957C90.5633 124.563 90.7773 125.241 90.4742 126.025C90.1888 126.774 89.8857 127.523 89.5825 128.272C89.1545 129.307 88.7265 130.359 88.2629 131.393C87.9419 132.124 87.6209 132.873 87.1037 133.515C86.9789 133.658 86.8006 133.747 86.6757 133.89C86.5866 133.979 86.5509 134.086 86.4974 134.211C86.4796 134.229 86.5152 134.3 86.5509 134.318C86.5866 134.336 86.6401 134.336 86.6579 134.318C87.1216 133.801 87.6031 133.266 88.0667 132.748C88.4412 132.338 88.78 131.91 89.1545 131.5C89.4042 131.233 89.7073 131.108 90.0818 131.161C90.8487 131.251 91.5441 131.465 91.9543 132.178C92.0078 132.267 92.0791 132.356 92.1326 132.445C92.204 132.57 92.311 132.57 92.3823 132.481C92.7389 132.089 93.0599 131.661 93.4166 131.268C93.9873 130.626 94.5401 129.984 95.2534 129.503C95.9489 129.021 96.7514 128.825 97.5895 128.718C98.5347 128.611 99.4798 128.469 100.425 128.362C101.192 128.29 101.959 128.237 102.708 128.201C103.029 128.255 103.064 128.308 103.118 128.772ZM90.0283 131.857C89.7608 131.821 89.529 131.928 89.3507 132.107C89.1724 132.267 89.0119 132.428 88.887 132.624C88.4412 133.337 87.9062 133.961 87.2999 134.532C87.2286 134.603 87.1572 134.692 87.0681 134.764C86.7471 135.102 86.5687 135.477 86.5687 135.976C86.5687 136.333 86.5152 136.69 86.4261 137.046C86.2299 137.884 85.9981 138.723 85.8733 139.596C85.8019 140.078 85.8554 140.631 85.4988 141.059C85.4631 141.094 85.4453 141.183 85.4631 141.237C85.6593 141.808 85.5701 142.467 86.0872 142.931C86.2834 143.092 86.3191 143.413 86.6044 143.52C86.6222 143.27 86.6579 143.02 86.6579 142.771C86.6401 141.255 86.9611 139.81 87.7279 138.491C87.9597 138.098 88.2094 137.742 88.4412 137.349C89.1189 136.19 89.85 135.067 90.8843 134.175C91.1162 133.961 91.348 133.729 91.562 133.48C91.6333 133.39 91.7046 133.194 91.669 133.087C91.4371 132.338 90.7773 131.857 90.0283 131.857Z" fill="black"/>
<path d="M157.526 103.289C157.116 103.182 156.688 103.111 156.314 102.95C155.582 102.629 154.94 102.201 154.495 101.524C154.334 101.256 154.388 100.9 154.084 100.703C154.049 100.686 154.067 100.507 154.102 100.418C154.798 99.2055 155.582 98.0999 157.045 97.6719C157.669 97.4935 158.132 97.654 158.578 98.0107C159.238 98.5457 159.559 99.2768 159.737 100.079C159.809 100.436 159.862 100.793 159.862 101.149C159.88 101.631 159.702 102.077 159.345 102.398C158.828 102.879 158.293 103.289 157.526 103.289ZM159.22 100.917C159.167 100.365 159.006 99.7048 158.685 99.1163C158.525 98.831 158.239 98.5992 157.99 98.3852C157.811 98.2425 157.58 98.1712 157.33 98.2782C156.759 98.4922 156.171 98.7062 155.761 99.2055C155.422 99.6335 155.083 100.061 154.762 100.525C154.566 100.81 154.584 100.828 154.887 101.06C154.976 101.131 155.065 101.185 155.119 101.274C155.404 101.756 155.886 102.023 156.349 102.255C156.777 102.487 157.241 102.629 157.758 102.594C158.507 102.54 159.22 101.809 159.22 100.917Z" fill="black"/>
<path d="M160.486 107.052C160.255 107.069 160.094 106.873 160.148 106.713C160.219 106.534 160.308 106.374 160.433 106.213C160.807 105.75 161.164 105.286 161.556 104.84C162.091 104.234 162.644 103.646 163.197 103.057C163.304 102.95 163.411 102.825 163.536 102.772C163.625 102.736 163.803 102.772 163.875 102.825C163.946 102.897 163.964 103.057 163.928 103.164C163.91 103.253 163.803 103.342 163.732 103.414C162.68 104.466 161.753 105.625 160.807 106.766C160.7 106.891 160.558 106.98 160.486 107.052Z" fill="black"/>
<path d="M106.399 142.771C106.577 142.771 106.738 142.753 106.898 142.789C106.988 142.806 107.148 142.931 107.13 143.003C107.112 143.11 107.005 143.234 106.916 143.27C106.684 143.341 106.417 143.377 106.167 143.413C105.383 143.555 104.58 143.68 103.795 143.823C103.564 143.859 103.35 143.966 103.136 144.037C103.029 144.073 102.922 144.073 102.815 144.073C102.618 144.09 102.404 144.09 102.351 143.859C102.297 143.645 102.511 143.573 102.672 143.52C102.975 143.413 103.278 143.324 103.581 143.252C104.509 143.056 105.436 142.896 106.363 142.717C106.399 142.735 106.399 142.753 106.399 142.771Z" fill="black"/>
<path d="M162.448 108.603C162.27 108.603 162.109 108.353 162.198 108.21C162.27 108.086 162.377 107.961 162.484 107.872C163.268 107.247 163.999 106.57 164.659 105.821C164.766 105.696 164.891 105.553 165.034 105.482C165.123 105.429 165.283 105.446 165.373 105.5C165.497 105.571 165.515 105.714 165.426 105.821C165.052 106.284 164.695 106.748 164.285 107.194C163.964 107.533 163.607 107.836 163.233 108.121C163.037 108.282 162.805 108.407 162.591 108.531C162.555 108.567 162.484 108.585 162.448 108.603Z" fill="black"/>
<path d="M106.916 141.808C106.881 141.861 106.863 141.933 106.827 141.95C106.684 142.022 106.524 142.129 106.381 142.129C105.383 142.182 104.42 142.396 103.457 142.664C103.403 142.682 103.35 142.717 103.278 142.735C103.082 142.789 102.922 142.717 102.868 142.539C102.797 142.343 102.904 142.2 103.082 142.147C103.546 142.004 104.009 141.843 104.491 141.754C105.062 141.647 105.65 141.558 106.239 141.505C106.435 141.487 106.631 141.612 106.827 141.683C106.863 141.701 106.881 141.754 106.916 141.808Z" fill="black"/>
<path d="M164.374 105.054C164.338 105.143 164.338 105.215 164.303 105.268C164.231 105.393 164.142 105.518 164.053 105.625C163.643 106.106 163.215 106.57 162.787 107.051C162.68 107.158 162.573 107.248 162.412 107.123C162.27 106.998 162.198 106.873 162.305 106.695C162.359 106.606 162.395 106.499 162.448 106.409C162.84 105.964 163.233 105.518 163.625 105.072C163.786 104.894 163.982 104.858 164.196 104.911C164.267 104.929 164.321 105.001 164.374 105.054Z" fill="black"/>
<path d="M105.704 144.322C105.757 144.34 105.864 144.358 105.935 144.411C106.096 144.518 106.096 144.732 105.935 144.822C105.846 144.875 105.739 144.929 105.65 144.946C105.008 145.107 104.348 145.267 103.688 145.428C103.617 145.446 103.528 145.464 103.439 145.446C103.26 145.41 103.189 145.196 103.314 145.053C103.385 144.982 103.474 144.893 103.564 144.857C104.206 144.661 104.848 144.501 105.507 144.322C105.561 144.322 105.614 144.322 105.704 144.322Z" fill="black"/>
</g>
<defs>
<clipPath id="clip0_1533_227603">
<rect width="246.523" height="246.523" fill="white" transform="translate(0.524628)"/>
</clipPath>
</defs>
</svg>
