<?xml version="1.0" encoding="utf-8"?>
<!-- Generator: Adobe Illustrator 25.4.1, SVG Export Plug-In . SVG Version: 6.00 Build 0)  -->
<svg version="1.1" id="Calque_1" xmlns="http://www.w3.org/2000/svg" xmlns:xlink="http://www.w3.org/1999/xlink" x="0px" y="0px"
	 viewBox="0 0 2268 2268" style="enable-background:new 0 0 2268 2268;" xml:space="preserve">
<style type="text/css">
	.st0{fill:#FFEFAE;}
</style>
<path class="st0" d="M414.42,1033.39l267.37,655.02c0,0,48.43,89.25,603-87.47s597.36-373.36,597.36-373.36L1655.7,568.92
	c0,0-309.21,179.65-602.45,273.97C824.64,916.42,754.26,969.23,414.42,1033.39z"/>
<g>
	<path d="M1880.87,1218.26c-0.71-3.26-1.6-6.54-2.75-9.86c-19.52-56.08-38.9-112.79-57.64-167.64l-0.51-1.51
		c-13.89-40.66-28.26-82.69-42.52-123.99c-17.93-51.92-36.3-104.68-54.06-155.7l-0.82-2.35c-16.33-46.89-33.21-95.37-49.71-143.09
		c-0.31-0.89-0.68-1.78-1.05-2.68c-1.13-2.72-2.11-5.07-1.35-7.53c3.15-10.2-0.39-18.89-3.82-27.34c-0.64-1.57-1.3-3.2-1.9-4.79
		c-0.49-1.31-1.21-2.42-1.85-3.41c-1.16-1.79-1.57-2.55-1.29-3.51c0.03-0.11,0.06-0.21,0.09-0.32l0.28-0.17l-0.16-0.25
		c4.77-17.27-1.92-31.8-8.41-45.88c-1.04-2.25-2.11-4.58-3.11-6.87c-0.2-0.46-0.5-0.84-0.86-1.14c0.19-10.28-7.75-12.99-13.78-14.12
		c-14.06-2.63-27.88-0.62-41.25,1.32c-2.2,0.32-4.4,0.64-6.6,0.94c-35.19,4.79-70.04,13.49-103.75,21.91
		c-13.96,3.48-28.39,7.09-42.63,10.36c-12.69,2.92-23.69,0.78-35.68-6.92c-29-18.63-39-47.27-49.59-77.61
		c-2.21-6.34-4.5-12.89-6.97-19.32c-2.51-6.52-4.73-13.33-6.91-20.01c-5.14-15.76-10.45-32.06-20.22-46.4
		c-6.51-9.55-14.04-18.84-28.31-18.39c-3.7,0.13-6.68,1.28-9.57,2.41c-1.15,0.45-2.33,0.91-3.51,1.27
		c-15.08,4.57-29.49,10.9-43.5,17.65c-0.41-0.46-0.93-0.79-1.53-0.96c-9.7-2.74-18.07,1.03-25.5,4.37
		c-2.24,1.01-4.35,1.96-6.47,2.73c-12.42,4.55-25.17,8.93-37.54,13.17c-24.57,8.43-49.98,17.15-74.28,27.79
		c-18.39,8.05-37.63,16.32-54.6,23.63l-1.23,0.53c-13.86,5.97-28.2,12.14-42.27,18.26c-38.56,16.77-89.38,38.9-140.5,61.34
		c-19.97,8.77-40.25,17.74-59.86,26.42l-0.96,0.43c-23.89,10.58-48.6,21.52-73.01,32.19c-21.89,9.57-44.18,19.23-65.79,28.58
		l-0.17,0.07c-28.09,12.17-57.14,24.75-85.63,37.29c-3.85,1.69-15.26,6.78-29.79,13.25c-19.17,8.54-45.26,20.16-52.18,23.18
		c-16.61,7.43-24.71,20.51-26.1,42.01c-1.31,20.35,5.63,38.4,12.38,55.95c1.15,2.99,2.3,5.99,3.42,9.01
		c4.51,12.21,9.57,24.36,14.46,36.11c8.02,19.29,16.32,39.23,22.27,59.56c0.48,1.64,0.92,3.25,1.35,4.84
		c-0.23,0.06-0.46,0.14-0.68,0.26c-4.63,2.41-9.27,4.8-13.92,7.19l-0.76,0.39c-32.68,16.81-66.48,34.2-96.12,57.55
		c-1.72,1.36-3.32,2.6-4.81,3.76c-20.23,15.77-20.66,17.31-11.65,41.43c0.6,1.61,1.25,3.33,1.93,5.18
		c4.25,11.53,8.65,23.45,18.73,32.5c0.44,0.39,0.97,0.65,1.54,0.76c0.3,0.58,0.78,1.08,1.42,1.4c2.89,1.43,4.97,3.04,6.43,6.62
		c3.7,9.08,7.41,18.15,11.12,27.23l0.09,0.22c10.09,24.68,20.53,50.19,30.52,75.36c12.09,30.46,24.52,61.21,36.54,90.96
		c9.01,22.31,18.33,45.37,27.51,68.3c26.17,65.43,54.29,135.56,82.54,205.17c5.83,14.37,11.69,28.72,17.56,43.08l0.08,0.2
		c15.65,38.34,31.84,77.98,47.15,117.2c3.18,8.15,7.15,14.95,11.93,20.5l-2.16,7.57c-0.34,1.19,0.02,2.44,0.93,3.28
		c19.93,18.18,44.9,29.36,78.58,35.2c23.35,4.05,47.69,6.01,74.42,6.01c17.71,0,36.3-0.85,56.82-2.59
		c19.57-1.66,39.37-3.91,59.52-6.75c0.31,0.6,0.62,1.19,0.95,1.81c0.77,1.42,1.5,2.77,1.98,4.12c11.31,31.42,23.95,62.9,36.2,93.41
		c4.03,10.04,8.6,21.42,13.04,32.63c1.2,3.03,2.53,6.15,4.06,9.21c0.2,0.49,0.49,1.05,0.88,1.69c3.1,5.82,7.01,11.26,12.31,15.15
		c6.53,7.11,13.47,13.94,15.93,15.75c25.91,19,55.69,23.74,78.74,25.75c12.88,1.12,26.09,1.69,39.25,1.69
		c21.48,0,43.4-1.51,65.17-4.48c44.77-6.12,89.41-15.7,136.47-29.3c50.2-14.51,101-33.29,151.01-55.83
		c52.23-23.55,101.14-50.69,145.38-80.68c0.05-0.03,0.09-0.08,0.13-0.11c0.06-0.04,0.12-0.08,0.17-0.12
		c3.48-3.03,7.69-6.62,12.56-10.78l0.33-0.28c24.15-20.6,60.65-51.72,74.79-70.67c26.89-36.02,32.41-73.55,16.87-114.74
		c-2.87-7.61-5.59-15.44-8.25-23.08c-3.1-8.9-6.3-18.11-9.77-27.05c-3.53-9.09-6.75-18.5-9.9-27.67
		c-4.99-14.56-10.15-29.62-16.73-43.95c-0.21-0.45-0.51-0.82-0.86-1.11c36.43-24.52,72.94-50.59,103.53-72.99
		c0.04-0.03,0.07-0.07,0.11-0.1c0.05-0.04,0.1-0.06,0.14-0.1c23.77-21.4,50.52-47.05,67.47-80.92c0.16-0.26,0.28-0.54,0.36-0.84
		c0.02-0.06,0.03-0.13,0.05-0.19c0.01-0.04,0.03-0.09,0.03-0.13c0.21-0.72,1.98-4.1,2.75-5.57c1.5-2.86,2.29-4.4,2.56-5.34
		C1890.45,1263.07,1884.79,1232.12,1880.87,1218.26z M1880.45,1274.35c-0.14,0.45-1.46,2.97-2.1,4.18c-1.9,3.62-2.86,5.54-3.24,6.81
		c-16.41,32.81-42.6,57.94-65.9,78.93c-62.48,45.73-149.59,106.8-210,138.29c-45.35,23.63-83.3,42.2-119.43,58.44
		c-52.16,23.45-108.93,46.18-173.54,69.49c-73.68,26.59-150.15,49.65-227.29,68.55c-67.92,16.65-130.12,27.22-190.14,32.32
		c-50.46,4.29-91.64,3.23-129.58-3.35c-31.62-5.48-55.11-15.74-73.85-32.28l0.62-2.15c6.45,5.63,14.11,9.45,23.08,11.47
		c0.23,0.05,0.47,0.08,0.71,0.08c0.09,0,0.18-0.01,0.27-0.02c0.44,0.29,0.95,0.48,1.49,0.52c1.99,0.16,4.04,0.94,6.22,1.76
		c2.74,1.04,5.84,2.22,9.28,2.22c1.65,0,3.21-0.26,4.78-0.81c0.07-0.02,0.13-0.06,0.2-0.09c3.79,2.59,8.06,3.04,11.8,3.43
		c2.85,0.3,5.71,0.54,8.57,0.75c0.51,0.34,1.12,0.55,1.78,0.55c0.18,0,0.36-0.01,0.53-0.04c0.3-0.05,0.58-0.15,0.84-0.28
		c5.12,0.34,10.21,0.6,15.21,0.85l0.8,0.04c3.44,0.17,6.87,0.34,10.32,0.54l0.17,0c0.48,0,0.92-0.11,1.33-0.3
		c3.36,1.96,7.44,2.96,12.22,2.96c2.52,0,5.27-0.28,8.18-0.84c12.75-2.44,22.81-3.07,32.6-2.06c7.34,0.75,14.18-1.87,20.5-5.02
		c1.01,1.1,2.18,1.97,3.52,2.58c1.54,0.7,3.31,1.05,5.26,1.05c3.77,0,7.66-1.29,10.8-2.47l0.12,0.31c0.42,1.05,1.36,1.81,2.48,2
		c0.18,0.03,0.35,0.04,0.52,0.04c0.95,0,1.84-0.41,2.45-1.13c5.14-6.01,10.52-5.33,17.35-4.47c5.62,0.7,11.43,1.43,17.06-2.06
		c0.28-0.18,0.52-0.4,0.73-0.64c0.54-0.03,1.07-0.2,1.53-0.49c5.24-3.32,11.27-2.99,17.65-2.64c6.63,0.36,13.48,0.73,20.06-2.82
		c0.35-0.19,0.65-0.44,0.89-0.73c1,0.01,2,0.02,3,0.02c5.66,0,12.21-0.29,18.45-3.78c0.16-0.09,0.3-0.19,0.43-0.3
		c0.86,0.33,1.84,0.52,2.98,0.52c1.49,0,3.14-0.33,5.05-0.99c4.55-1.6,9.31-2.33,14.38-3.1c6.41-0.98,13.04-2,19.33-4.94
		c0.78-0.36,1.38-1.01,1.67-1.82c0.03-0.08,0.04-0.16,0.06-0.24c1.22,0.45,2.6,0.67,4.22,0.67c3.78,0,8.91-1.18,15.75-2.85
		l0.97-0.24l-0.21-0.87c0.23,0.05,0.46,0.09,0.7,0.09c0.25,0,0.5-0.03,0.72-0.08c2.06-0.47,3.75-1.43,5.25-2.28
		c0.98-0.56,1.91-1.09,2.85-1.43c4.54-1.67,9.41-1.91,14.57-2.17c6.84-0.34,13.92-0.7,20.58-4.5c0.33-0.19,0.61-0.43,0.85-0.71
		c0.71-0.05,1.39-0.32,1.92-0.79c3.42-3.01,7.84-3.81,12.95-4.74c3.19-0.58,6.48-0.95,9.68-1.32c8.69-1,17.68-2.03,25.95-6.98
		c0.97-0.58,1.57-1.64,1.57-2.77c0-0.11,0.01-0.24,0.02-0.36c0.72,0.13,1.44,0.22,2.18,0.22c3.3,0,6.24-1.32,8.84-2.49
		c2.34-1.05,4.56-2.05,6.55-1.83c9.22,1.05,17.78-1.17,27.74-7.19c6.59-3.99,13.83-6.46,20.92-7.15
		c10.06-0.98,20.76-2.93,30.89-10.54c6.04-4.54,15.31-5.76,20.29-6.08c9.4-0.61,16.98-3.02,23.86-7.59
		c0.25-0.17,0.46-0.37,0.65-0.59c1.31-0.08,2.44-0.94,2.86-2.2c0.01-0.03,0.02-0.06,0.03-0.09c4.08-0.42,7.6-2.01,11.01-3.56
		c3.51-1.61,6.83-3.12,10.43-3.12c8.14,0,16.04-2.72,24.14-8.31c0.23-0.16,0.43-0.35,0.6-0.56c0.6-0.04,1.17-0.23,1.66-0.58
		c2.12-1.51,4.57-2.5,7.17-3.56c1.41-0.57,3-1.22,4.53-1.97c4.41-2.16,9.28-3.08,14.47-4.05c7.53-1.41,15.31-2.87,21.96-8.41
		c0.66-0.55,1.07-1.33,1.15-2.19c0.01-0.15,0-0.3,0-0.45c0.3-0.04,0.6-0.11,0.89-0.24c2.01-0.9,4.14-2.03,6.24-3.14
		c4.06-2.15,9.11-4.83,11.53-4.55c9.11,0.93,15.55-2.47,21.8-5.77c2.24-1.18,4.36-2.3,6.61-3.23c1.2-0.49,1.93-1.62,1.99-2.84
		c0.97-0.14,1.92-0.5,2.83-1.11c5.78-3.83,12.43-5.45,19.47-7.16c7.96-1.94,16.2-3.94,23.29-9.39c0.76-0.58,1.18-1.44,1.24-2.33
		c0.17-0.09,0.34-0.19,0.5-0.3c6.11-4.59,13.39-6.62,21.11-8.77c7.26-2.02,14.78-4.11,21.55-8.52c0.72-0.47,1.22-1.2,1.4-2.04
		c0.03-0.15,0.04-0.29,0.05-0.44c0,0,0,0,0.01,0c5.68-4.86,12.54-7.2,19.81-9.68c2.9-0.99,6.2-2.11,9.34-3.42
		c7.14-2.98,13.91-6.85,20.46-10.59c9.57-5.47,19.47-11.12,30.4-13.83c2.76-0.69,5.66-3.8,7.61-6.28c2.52-3.22,6.7-5.44,12.43-6.61
		c5.76-1.17,11.38-3.52,17.67-7.4c15.15-9.33,30.7-17.91,45.34-25.89c0.6-0.33,1.05-0.83,1.34-1.4c0.4-0.09,0.78-0.22,1.13-0.41
		c11.69-6.19,22.51-13.91,33.04-21.42c8.29-5.92,16.87-12.03,25.76-17.29c3.54-2.09,6.94-4.6,10.24-7.02l0.09-0.07
		c4.88-3.6,9.94-7.32,15.45-9.71c2.38-1.03,3.95-2.71,5.2-4.06c0.66-0.71,1.33-1.44,2.04-1.94c0.7-0.5,1.17-1.25,1.31-2.1
		c0.02-0.1,0.01-0.21,0.02-0.31c0.33-0.28,0.61-0.63,0.81-1.04c1.78-3.66,5.15-5.06,9.42-6.85c3.69-1.54,7.51-3.14,10.56-6.49
		c0.5-0.55,1.05-1.08,1.61-1.64l0.12-0.12c1.73-1.71,3.69-3.64,5.47-6.5c0.21-0.34,0.35-0.72,0.42-1.09
		c1.62-1.05,3.39-1.98,5.28-2.96c6.2-3.22,13.23-6.86,15.43-16.26c0.12-0.52,0.73-0.9,2.83-1.74c1.22-0.49,2.48-1,3.66-1.83
		l0.58-0.41c8.35-5.88,11.48-8.72,10.91-13.86c0.01-0.01,0.03-0.01,0.04-0.01c10.58-4.3,15.76-13,20.78-21.42
		c1.9-3.19,3.7-6.21,5.77-8.98c0.28-0.38,0.59-0.77,0.9-1.17l0.14-0.18c1.56-1.98,3.34-4.26,4.56-7.12
		C1881.65,1266.16,1881.42,1271,1880.45,1274.35z M1704.62,1446.17c6.44,14.04,11.55,28.93,16.5,43.38
		c3.14,9.17,6.39,18.66,9.97,27.88c3.42,8.81,6.59,17.93,9.66,26.75l0.04,0.13c2.65,7.61,5.38,15.48,8.3,23.21
		c14.69,38.97,9.46,74.49-16.01,108.59c-13.7,18.35-49.86,49.2-73.8,69.62c-4.49,3.83-9.13,7.78-12.78,10.95
		c-43.9,29.75-92.44,56.68-144.27,80.04c-49.73,22.42-100.25,41.1-150.14,55.51c-46.76,13.51-91.1,23.03-135.56,29.1
		c-34.79,4.75-69.44,5.68-102.99,2.75c-22.21-1.94-50.87-6.47-75.48-24.52c-2.19-1.6-7.67-7.05-13.14-12.9
		c-0.21-0.78-0.69-1.45-1.38-1.88c-0.33-0.21-0.64-0.43-0.96-0.65c-4.53-4.96-8.71-9.87-10.56-12.69
		c-1.92-3.51-3.53-7.24-4.95-10.83c-4.31-10.88-8.74-21.92-13.05-32.66c-12.2-30.39-24.82-61.81-36.11-93.19
		c-0.61-1.7-1.42-3.24-2.23-4.72c39.88-5.86,81.17-14.05,124.82-24.75c77.37-18.96,154.06-42.09,227.94-68.75
		c64.74-23.36,121.66-46.15,174-69.67c36.27-16.3,74.32-34.92,119.76-58.6c29.73-15.49,65.83-38.08,102.29-62.47
		C1704.53,1445.93,1704.56,1446.06,1704.62,1446.17z M386.77,971.54c1.04-3.7,5.56-7.22,14.56-14.23c1.49-1.16,3.1-2.42,4.84-3.78
		c29.16-22.96,62.67-40.2,95.08-56.88c4.66-2.4,9.32-4.8,13.97-7.21c5.28,23.41,4.1,42.33-3.59,60.2
		c-4.56,10.6-11.69,16.72-22.44,19.24c-30.38,7.14-56.11,11.96-82.92,12.22c-6.39,0.07-12.31-0.62-18.1-2.15
		c-0.26-0.07-0.52-0.09-0.78-0.1C386.5,975.69,386.25,973.4,386.77,971.54z M405.47,987.57l0.86,0
		c29.02-0.29,57.68-6.12,84.33-12.39c12.73-2.99,21.52-10.51,26.89-22.98c12.34-28.67,6.46-56.98,0.95-75.78
		c-6.05-20.67-14.42-40.78-22.5-60.23c-4.86-11.69-9.89-23.79-14.36-35.87c-1.13-3.07-2.31-6.13-3.48-9.18
		c-6.76-17.59-13.15-34.2-11.93-53.13c1.21-18.79,7.77-29.84,21.75-36.3c0,0,0.01,0,0.01,0c0.22-0.09,0.47-0.2,0.73-0.32
		c0.74-0.33,1.49-0.66,2.28-0.96c18.08-7.03,36.88-12.85,55.12-18.5l8.26-2.56c31.19-9.71,62.55-20.91,92.89-31.74
		c4.57-1.63,12.23-3.7,20.37-5.89c5.59-1.51,11.55-3.12,17.09-4.75c-5.9,8.22-8.1,18.09-9.36,27.97c-1.3,10.2-1.23,18.39,0.22,26.57
		c0.03,0.16,0.07,0.31,0.12,0.47c1.1,3.22,1.85,7.45,2.51,11.19l0.31,1.74c0.01,0.04,0.02,0.08,0.03,0.12
		c0.01,0.04,0.01,0.08,0.02,0.12c3.88,14.85,9.79,29.1,15.5,42.88c1.63,3.93,3.31,7.99,4.94,12.04c3.16,7.89,6.1,16.02,8.94,23.89
		c7.07,19.57,14.38,39.8,25.72,58.05c15.9,25.58,35.46,41.06,59.81,47.32l1.11,0.29c2.63,0.69,5.34,1.4,8.17,1.4
		c2.65,0,5.05-0.65,7.31-1.95c4.22,1.73,8.91,2.6,14.17,2.6c4.56,0,8.99-0.61,12.9-1.16c0.96-0.13,1.91-0.26,2.87-0.38l0.22-0.03
		c6.67-0.87,13.56-1.77,20.02-4.97c77.93-26.5,177.93-62.89,267.57-97.36c70.67-27.18,144.36-57.42,231.91-95.17
		c55.89-24.1,106.65-47.82,155.19-72.5c33.9-17.24,83.56-43.76,123.25-74.91c0.1-0.08,0.18-0.17,0.27-0.26
		c0.05-0.05,0.11-0.09,0.15-0.14l0.05-0.05c0,0,0,0,0.01-0.01l7.03-7.9c0.6,1.32,1.21,2.66,1.87,4.09
		c6.08,13.19,11.83,25.68,8.38,40.12l-22.62,14.17c-2.17,0.36-3.51,1.56-4.42,2.56c-0.17-0.06-0.35-0.11-0.54-0.14
		c-1.17-0.2-2.35,0.26-3.08,1.2c-4.82,6.17-10.79,9.72-16.58,13.17c-2.42,1.44-4.91,2.93-7.29,4.59c-0.63,0-1.25,0.16-1.79,0.52
		c-14.51,9.67-29.29,18.29-45.18,26.36c-0.3,0.16-0.56,0.36-0.79,0.59c-0.44,0.05-0.87,0.18-1.28,0.42
		c-13.48,7.9-28.1,15.57-44.71,23.44c-3.96,1.88-7.58,3.97-9.24,7.59c-0.08-0.01-0.15-0.04-0.23-0.04
		c-8.18-0.68-14.79,3.25-20.64,6.73c-1.11,0.66-2.19,1.3-3.26,1.9c-13.61,7.58-28.08,14.06-42.1,20.34
		c-11.94,5.35-24.28,10.88-36.13,17.1c-0.3,0.16-0.56,0.37-0.79,0.6c-0.31,0.01-0.61,0.07-0.91,0.17
		c-9.63,3.42-18.83,7.8-27.75,12.05l-0.2,0.1c-3.38,1.61-6.87,3.27-10.32,4.84c-0.32,0.14-0.59,0.34-0.83,0.57
		c-0.6-0.08-1.22,0.01-1.8,0.29c-4.26,2.01-8.71,3.83-13.03,5.6c-8.71,3.57-17.71,7.26-25.94,12.69c-0.86-0.52-1.93-0.62-2.88-0.23
		c-9.11,3.69-18.27,7.61-27.23,11.45c-15.02,6.43-30.55,13.09-46.2,18.75c-6.13,2.22-10.01,4.21-11.69,7.82
		c-0.13,0.28-0.24,0.56-0.34,0.84c-0.29,0.01-0.73-0.11-1.36-0.29c-1.63-0.47-4.1-1.18-7.15,0.31c-5.62,2.73-11.63,5.01-17.46,7.21
		c-6.77,2.56-13.77,5.21-20.42,8.66c-0.71,0.37-1.23,0.98-1.51,1.71c-0.05-0.02-0.09-0.05-0.14-0.07c-2.69-1.07-5.19-0.16-7.08,0.74
		c-11.72,5.65-23.68,10.02-36.34,14.66l-6.29,2.31c-0.62,0.23-1.15,0.65-1.53,1.19c-1.31-0.12-2.64,0.14-3.78,0.66
		c-12.17,5.53-24.95,10.27-37.35,14.87c-10.71,3.97-21.78,8.09-32.49,12.72c-0.5-0.06-1.01-0.02-1.5,0.16l-22.82,8.34
		c-15.99,5.85-31.62,11.56-47.26,17.23c-7.74,2.81-15.5,5.58-23.25,8.36l-0.82,0.29c-14.4,5.15-29.29,10.47-43.95,15.97
		c-6.72,2.52-13.71,4.68-20.49,6.78c-11.88,3.68-24.17,7.48-35.63,13.37c-0.77,0.39-1.34,1.06-1.6,1.89
		c-0.1,0.32-0.14,0.65-0.14,0.98c-2.76-1.35-6.39-1.57-11.3,0.22c-7.41,2.7-15.07,5.14-22.49,7.49l0.3,0.95l0,0l-0.42-0.91
		c-3.24,1.03-6.48,2.06-9.71,3.11c-0.01,0-0.03,0.01-0.04,0.02c-0.01,0-0.02,0-0.02,0.01l-0.1,0.04
		c-6.22,2.18-25.15,8.83-35.26,11.77c-16.71,4.88-33.6,10.13-49.97,15.22c-24.81,7.72-50.47,15.69-76.01,22.51
		c-0.38,0.1-1.69,0.4-3.59,0.84l-0.51,0.12c-27.11,6.26-31.97,7.89-33.56,9.17c-2.02,1.34-4.49,1.84-7.11,2.36
		c-2.84,0.57-5.75,1.15-8.42,2.77c-0.81-0.52-1.82-0.67-2.79-0.33c-2.69,0.94-5.19,2.01-7.65,3.07c-3.89,1.67-7.57,3.26-10.57,3.52
		c-10.05,0.88-19.21,3.53-28.49,6.4c-0.23,0.07-0.44,0.17-0.64,0.28c-0.93-0.89-2.29-1.14-3.48-0.63c-3.29,1.4-6.91,2.1-10.76,2.86
		c-4.84,0.95-9.85,1.93-14.64,4.4c-0.06,0.03-0.11,0.07-0.16,0.1c-0.02-0.02-0.03-0.03-0.05-0.05c-0.8-0.66-1.88-0.9-2.88-0.63
		c-14.08,3.75-28.95,5.92-43.36,8.03c-7.13,1.04-14.5,2.12-21.74,3.38c-0.27,0.05-0.51,0.13-0.75,0.24
		c-0.64-0.39-1.39-0.56-2.15-0.44c-1.77,0.26-3.55,0.22-5.45,0.17c-3.3-0.08-6.72-0.17-10.23,1.37c-0.86,0.38-1.46,1.08-1.74,1.9
		c-4.97-1.02-12.54,0.14-17.43,3.39c-0.13-0.07-0.25-0.14-0.39-0.21c-0.26-0.13-0.53-0.21-0.81-0.26c-0.18-0.34-0.41-0.66-0.7-0.92
		c-8.89-7.98-13.01-19.14-16.99-29.93c-0.69-1.86-1.33-3.59-1.94-5.21c-0.74-1.98-1.41-3.77-2.01-5.41
		C394.78,987.04,399.95,987.57,405.47,987.57z M1129.71,452.28c4.84,5.8,6.91,12.87,9.12,20.4c0.74,2.51,1.5,5.11,2.37,7.64
		c3.14,9.11,6.69,18.23,10.13,27.07c7.35,18.88,14.95,38.39,18.79,58.66c-0.46,0.43-0.81,1-0.95,1.67
		c-0.74,3.37-1.36,6.9-1.92,10.04c-1.57,8.83-3.05,17.17-6.84,24.85c-6.52,13.22-17.65,23.02-35.01,30.81
		c-15.2,5.35-31.35,10.84-48.53,16.68c-32.6,11.09-66.31,22.55-95.2,33.65l-5.78,2.22c-61.23,23.51-124.55,47.82-186.15,73.48
		c-11.33,4.72-22.83,9.59-33.94,14.3l-1.23,0.52c-4.4,1.86-8.8,3.73-13.21,5.59c-4.95-14.04-10.56-27.97-16.03-41.53
		c-7.5-18.6-15.25-37.84-21.22-57.25c-6.31-20.52-5.34-33.43,17.81-42.83c14.69-5.97,25.75-10.81,35.86-15.7
		c48.63-23.53,98.65-46.25,147.03-68.23l0.15-0.07c19.45-8.83,39.56-17.97,59.29-27.03c53.78-24.69,109.28-49.89,165.33-75.1
		C1129.64,452.17,1129.67,452.23,1129.71,452.28z M1219.55,372.02c-12.07,6.04-24.56,12.29-37.17,17.58
		c-35.4,14.85-70.86,31.04-105.16,46.69c-16.74,7.64-34.06,15.54-51.17,23.2c-29.96,13.41-60.47,26.94-89.97,40.04l-2.05,0.91
		c-16.15,7.17-32.3,14.34-48.45,21.52c-16.9,7.52-33.78,15.07-50.66,22.62l-1.63,0.73c-42.75,19.13-86.95,38.91-130.67,57.76
		c-2.32,1-4.44,2.11-6.37,3.3c-7.42,2.95-19.57,6.23-30.37,9.14c-8.21,2.22-15.97,4.31-20.97,6.09
		c-30.18,10.78-61.38,21.92-92.44,31.59l-1,0.31c8.97-3.99,16.12-7.17,18.99-8.44c28.61-12.59,57.66-25.18,85.76-37.35
		c21.41-9.27,43.54-18.86,65.81-28.59c24.33-10.64,49.02-21.57,72.89-32.14l1.07-0.48c19.61-8.68,39.9-17.66,59.87-26.43
		c50.95-22.37,101.84-44.52,140.48-61.33c14.26-6.2,28.78-12.45,42.83-18.5l0.65-0.28c17.87-7.69,36.35-15.65,54.63-23.65
		c24.06-10.53,49.34-19.2,73.84-27.61c12.36-4.24,25.13-8.62,37.62-13.2c2.32-0.85,4.63-1.89,6.92-2.92
		c5.04-2.27,9.89-4.44,14.98-4.7C1225.04,369.28,1222.29,370.65,1219.55,372.02z M1665.86,613.94c0.33,0.79,0.64,1.54,0.9,2.29
		c16.81,48.6,34.35,98.98,49.83,143.43c17.98,51.63,36.57,105.01,54.76,157.71c14.54,42.12,29.02,84.49,43.02,125.47
		c18.7,54.73,38.04,111.32,57.65,167.68c5.11,14.68,4.99,28.96,4.38,43.51c-0.08,1.91-0.65,3.59-1.45,5.12
		c-7.93-20.02-14.89-40.76-21.61-60.85l-0.05-0.16c-2.88-8.61-5.86-17.51-8.94-26.42c-21.98-63.52-44.44-128.09-66.17-190.54
		l-2.27-6.52c-18.85-54.19-38.35-110.23-57.45-165.37c-15.06-43.45-30.2-87.57-44.84-130.24c-9.97-29.06-19.94-58.12-29.95-87.16
		c-1.22-3.55-2.75-6.96-4.26-10.32l-0.06-0.13c-0.34-0.76-0.67-1.52-1-2.27l17.26-10.81c0.49,1.37,1.25,2.54,1.89,3.53
		c0.5,0.77,0.97,1.49,1.2,2.13c0.65,1.75,1.39,3.55,1.98,5.01c3.13,7.7,6.09,14.97,3.63,22.96
		C1662.85,606.68,1664.51,610.69,1665.86,613.94z M1757.5,1377.62L1757.5,1377.62L1757.5,1377.62L1757.5,1377.62z M1114.19,1649.81
		c-5.15-12.64-10.11-25.59-14.9-38.12c-2.52-6.58-5.04-13.16-7.59-19.73c-5.8-14.89-11.62-29.78-17.46-44.67
		c-9.29-23.72-18.89-48.25-28.21-72.42c-9.36-24.29-18.76-49.05-27.84-73l-0.18-0.48c-6.13-16.15-13.07-34.45-19.97-52.49
		c-12.48-32.62-25.11-65.42-37.34-97.14l-7.26-18.84c-10.14-26.33-20.55-53.52-29.74-77.52l-0.29-0.75
		c-9.62-25.11-19.56-51.08-29.39-76.6l-7.13-18.52c-16.92-43.97-34.42-89.41-52.15-133.96c3.99-1.31,8-2.67,11.95-4.11
		c5.85-2.14,7.92-0.97,10.53,5.95c21.88,57.99,41.55,109.44,60.14,157.28c27.6,71.06,57.17,147.42,86.44,224.3
		c8.51,22.35,17.04,44.69,25.57,67.03c18.34,48.03,37.31,97.69,55.72,146.66c3.07,8.17,6.1,16.36,9.16,24.6
		c12.36,33.37,25.15,67.87,40.48,100.75c0.11,0.3,0,1.42-0.06,2.02c-0.01,0.07-0.01,0.14-0.02,0.21c-6.24,3.3-13.1,4.26-20.34,5.1
		C1114.88,1654.05,1115.18,1652.24,1114.19,1649.81z M823.91,929.07c1.55-0.49,3.11-0.99,4.68-1.49
		c17.72,44.5,35.21,89.94,52.13,133.89l7.28,18.91c10.26,26.64,20.57,53.58,29.67,77.34c9.7,25.34,19.74,51.54,29.75,77.53
		l7.26,18.84c12.16,31.56,24.73,64.19,37.33,97.12c6.68,17.48,13.44,35.27,19.97,52.48l0.36,0.95c9.03,23.8,18.37,48.41,27.68,72.56
		c9.38,24.35,18.96,48.81,28.22,72.47c5.83,14.88,11.65,29.75,17.44,44.64c2.54,6.53,5.05,13.08,7.55,19.63l0.93-0.36l0,0
		l-0.87,0.51c4.8,12.54,9.76,25.51,14.92,38.16c0.23,0.57,0.23,0.57-0.23,1.26c-0.33,0.5-0.79,1.18-1.11,2.04
		c-0.09,0.25-0.14,0.5-0.17,0.75c-1.39,0.19-2.8,0.41-4.25,0.67c-1.69,0.3-3.57,0.65-5.45,1.12l-11.85-30.58
		c-7.47-19.28-14.94-38.57-22.43-57.85c-6.77-17.44-13.56-34.88-20.35-52.32l-1.83-4.71c-8.22-21.13-16.44-42.26-24.64-63.4
		c-20.51-52.88-37.51-96.81-53.52-138.26c-7.43-19.24-14.83-38.5-22.22-57.75c-7.46-19.41-14.91-38.81-22.4-58.21
		c-8.93-23.12-17.88-46.22-26.83-69.33c-8.9-22.98-17.8-45.96-26.68-68.95c-6.09-15.78-12.17-31.57-18.24-47.37
		c-8.58-22.32-17.45-45.4-26.44-68.58l-0.65-1.64c-1.03-2.58-2.01-5.02-2.37-7.74c2.41-0.78,4.83-1.55,7.25-2.31L823.91,929.07z
		 M1086.57,1663.18c-0.11,0.1-0.21,0.21-0.3,0.33c-0.48,0.03-0.96,0.16-1.39,0.41c-4.96,2.83-10.53,3.28-16.43,3.59
		c0.33-3.14-0.93-5.99-1.88-8.11c-0.24-0.54-0.48-1.06-0.67-1.57c-9.14-23.79-18.63-47.89-27.82-71.2l-0.3-0.76
		c-4.33-10.98-8.65-21.96-12.96-32.95c-13.64-34.81-27.26-69.96-40.43-103.95l-1.1-2.83c-7.25-18.7-14.5-37.41-21.77-56.1
		c-3.52-9.06-7.05-18.11-10.59-27.16l-0.1-0.27c-12.42-31.85-25.27-64.78-37.45-97.33c-19.03-50.85-38.76-101.63-57.33-149.28
		c-7.63-19.57-15.32-39.45-22.79-58.75c-14.74-38.09-29.98-77.45-45.35-116.07c7.83-2.55,16.74-5.64,22.46-7.64
		c0.55,2.94,1.57,5.52,2.57,8.03l0.63,1.58c9.03,23.29,18.28,47.34,26.43,68.56l0.7,1.82c5.84,15.19,11.68,30.38,17.54,45.56
		c8.88,22.99,17.78,45.97,26.68,68.95c8.95,23.1,17.9,46.21,26.82,69.32c7.31,18.93,14.59,37.88,21.87,56.83l0.53,1.37
		c7.4,19.26,14.8,38.52,22.23,57.76c16.29,42.19,33.8,87.42,53.52,138.27c8.34,21.51,16.7,43,25.07,64.5l1.4,3.61
		c6.79,17.44,13.57,34.88,20.35,52.32c7.96,20.51,15.91,41.02,23.85,61.54l10.36,26.74
		C1089.28,1661.09,1087.86,1662.04,1086.57,1663.18z M1050.7,1670.12c-1.44,0.53-2.65,1.21-3.83,1.88
		c-0.42,0.24-0.83,0.46-1.23,0.68c-0.36-0.54-0.75-1-1.14-1.45c-0.42-0.48-0.69-0.79-0.84-1.18
		c-10.75-27.84-21.79-56.11-32.46-83.45l-13.14-33.68c-13.13-33.68-26.24-67.36-39.35-101.05l-17.52-45.02
		c-5.53-14.2-11.08-28.38-16.64-42.56l-0.85-2.18c-12.99-33.15-26.42-67.42-39.28-101.34c-12.78-33.72-26.02-67.77-38.82-100.7
		l-0.12-0.31c-8.98-23.11-18.27-47.01-27.31-70.55c-17.13-44.63-35.64-92.52-54.93-140.59c5.1-1.54,10.21-3.07,15.31-4.55
		c0.99-0.29,2.05-0.61,3.18-0.96c15.4,38.7,30.68,78.17,45.46,116.36l0.26,0.67c7.38,19.07,15.02,38.8,22.57,58.17
		c18.56,47.61,38.27,98.35,57.3,149.2c12.21,32.63,25.08,65.63,37.53,97.54l0.06,0.15c3.53,9.05,7.06,18.1,10.58,27.15
		c7.46,19.17,14.89,38.35,22.32,57.53l0.66,1.71c13.17,33.99,26.79,69.14,40.32,103.66c4.41,11.24,8.83,22.48,13.26,33.72l0.2,0.51
		c9.11,23.13,18.54,47.05,27.6,70.64c0.24,0.62,0.52,1.26,0.81,1.92c1.26,2.82,1.75,4.34,0.99,5.86
		C1058.02,1668.23,1054.33,1668.79,1050.7,1670.12z M935.8,1694.87c-0.02-0.96,0.05-1.93,0.12-2.95c0.2-2.8,0.42-5.97-1.08-9.8
		c-4.78-12.2-9.56-24.41-14.33-36.62l-0.29-0.73c-12.92-33.02-26.27-67.17-39.63-100.65c-15.06-37.73-30.17-76.17-44.79-113.35
		l-0.29-0.74c-16.08-40.9-32.71-83.19-49.32-124.68c-19.48-48.67-40.64-102.2-66.6-168.46c-5.89-15.03-11.92-30.3-17.77-45.06
		l-0.38-0.97c-14.32-36.18-29.11-73.58-42.93-110.68c3.94-1.08,7.89-2.18,11.83-3.3c9.15,23.11,18.32,46.21,27.49,69.32l0.1,0.25
		c20.78,52.37,42.27,106.52,63.24,159.84c18.94,48.15,37.94,96.77,56.3,143.79c13.65,34.95,27.76,71.08,41.87,107.06
		c24.49,62.44,49.48,125.89,73.64,187.25l18.91,48.03c0.14,0.35,0.32,0.65,0.51,0.91c-4.74,2.17-10.07,1.89-15.7,1.58
		C936.42,1694.9,936.11,1694.89,935.8,1694.87z M918.32,1696.93c-0.29-0.4-0.59-0.78-0.91-1.14c-0.45-0.52-0.71-0.83-0.87-1.22
		c-7.56-19.2-15.44-38.97-22.39-56.42l-0.07-0.18c-11.67-29.31-23.74-59.62-35.32-89.53c-13.5-34.89-27.5-70.22-41.04-104.38
		c-7.13-17.99-14.26-35.98-21.35-53.99l-13.77-34.99c-17.35-44.11-35.3-89.73-53.18-134.5c-9.53-23.85-18.91-48.24-27.99-71.82
		l-0.13-0.33c-9.75-25.34-19.84-51.54-30.13-77.17c-3.32-8.27-6.62-16.72-9.81-24.89l-0.05-0.13c-7.81-20-15.89-40.67-25.01-60.61
		c3.36-0.81,7.27-1.72,11.84-2.78c2.21-0.51,3.57-0.83,4.14-0.97c13.91,37.37,28.79,74.97,43.18,111.35
		c5.94,15.01,12.08,30.53,18.14,46c26.01,66.41,47.17,119.95,66.61,168.51c16.69,41.68,33.39,84.16,49.54,125.24
		c14.59,37.11,29.68,75.49,44.85,113.53c13.36,33.47,26.71,67.63,39.63,100.66l0.5,1.29c4.7,12.01,9.39,24.02,14.1,36.02
		c0.97,2.47,0.83,4.46,0.65,7.01c-0.07,1.03-0.15,2.09-0.14,3.22C925.64,1694.8,921.94,1695.33,918.32,1696.93z M880.85,1703.97
		L600.54,996.67c1.8-1.23,4.03-1.69,6.73-2.23c2.02-0.4,4.11-0.82,6.17-1.63c2.03,4.88,4.08,9.73,6.13,14.56
		c5.3,12.51,10.78,25.45,15.52,38.32c16.93,46.01,35.38,92.28,53.22,137.02l0.1,0.26c8.69,21.8,17.68,44.34,26.41,66.63
		c29.36,75.03,56.6,143.66,83.25,209.81c12.98,32.2,25.88,65.07,38.35,96.85l0.12,0.31c14.51,36.97,29.52,75.21,44.74,112.65
		c1.12,2.74,2.44,5.47,3.74,8.15c3.67,7.56,7.14,14.71,6.5,22.88C887.97,1700.42,884.35,1701.35,880.85,1703.97z M890.83,1674.53
		c-1.3-2.67-2.52-5.19-3.57-7.76c-15.25-37.5-30.24-75.7-44.77-112.73c-12.5-31.85-25.42-64.78-38.43-97.06
		c-26.62-66.06-53.85-134.67-83.23-209.75c-8.71-22.26-17.71-44.83-26.42-66.67c-17.86-44.79-36.33-91.1-53.26-137.12
		c-4.79-13.03-10.3-26.03-15.63-38.61l-0.04-0.09c-2.04-4.81-4.13-9.76-6.19-14.71c1.92-0.6,5.2-1.5,10.62-2.84
		c9.25,20.1,17.44,41.08,25.38,61.4l0.1,0.26c3.18,8.14,6.47,16.56,9.79,24.82c10.32,25.7,20.41,51.91,30.18,77.29
		c9.1,23.64,18.51,48.09,28.07,72.02c18.03,45.13,36.01,90.84,53.4,135.05l13.54,34.41c7.09,18.01,14.22,36.01,21.39,54.08
		c13.53,34.14,27.52,69.44,40.99,104.26c11.62,30.03,23.72,60.4,35.42,89.77c7.36,18.47,14.97,37.58,22.37,56.39
		c0.55,1.41,1.36,2.35,1.96,3.04c-3.57,1.9-7.81,1.38-12.3,0.82c-0.72-0.09-1.46-0.18-2.2-0.27
		C898.68,1690.7,894.7,1682.48,890.83,1674.53z M957.04,1690.3L957.04,1690.3l0.13-0.21l0.06-0.02L957.04,1690.3z M715.66,1028.27
		l0.58,1.46c17.72,44.68,36.04,90.89,53.85,136.41c15.74,40.23,31.61,81.19,46.97,120.8l0.3,0.76
		c16.27,41.98,33.09,85.38,49.85,128.17c15.89,40.57,32.12,81.59,47.82,121.26l0.07,0.18c14.62,36.95,29.75,75.17,44.5,112.79
		l1.59,4.06c3.8,9.68,7.72,19.67,11.33,29.58c-0.69,0.12-1.41,0.22-2.2,0.32c-3.87,0.49-9,1.15-11.88,6.18
		c-0.04-0.05-0.08-0.11-0.13-0.16c-0.17-0.17-0.36-0.34-0.56-0.5l-19.6-49.76c-23.88-60.63-48.57-123.33-72.77-185.03
		c-14.2-36.22-28.27-72.23-41.87-107.06l-0.77-1.96c-18.17-46.51-36.95-94.6-55.54-141.85c-20.88-53.06-42.26-106.96-62.94-159.08
		l-0.96-2.42c-8.9-22.44-17.81-44.89-26.7-67.34c5.38-1.56,10.76-3.15,16.12-4.76C700.35,989.65,708,1008.96,715.66,1028.27z
		 M967.18,1651.76l-1.58-4.02c-14.73-37.55-29.82-75.69-44.41-112.57l-0.28-0.7c-15.68-39.62-31.9-80.6-47.7-120.95
		c-16.77-42.82-33.58-86.2-49.84-128.15c-15.45-39.86-31.42-81.07-47.27-121.58c-17.89-45.74-36.21-91.94-53.93-136.61l-0.46-1.15
		c-7.61-19.19-15.22-38.38-22.81-57.58c4.58-1.39,9.13-2.79,13.67-4.19c3.91,9.83,7.86,19.66,11.8,29.48
		c8.87,22.08,18.04,44.9,26.71,67.58c21.87,57.26,44.68,115.24,66.74,171.31l12.45,31.65c21.16,53.82,42.47,108.63,63.08,161.63
		l0.37,0.94c12.31,31.66,24.63,63.32,36.98,94.96c14.96,38.33,29.97,76.59,44.49,113.59l19.37,49.39c-3.17,0.58-6.36,1.31-9.48,2.4
		c-3.94,1.39-4.06,1.06-6.04-4.4l-0.14-0.38C975.15,1672.06,971.1,1661.74,967.18,1651.76z M845.93,1706.86
		c-0.35-0.77-0.7-1.54-1.06-2.33c-1-2.18-2.03-4.44-2.91-6.66c-7-17.77-14.04-35.87-20.86-53.43
		c-14.54-37.4-29.58-76.06-45.12-113.8c-20.01-48.58-39.65-98.27-58.64-146.33l-0.2-0.51c-15.96-40.39-32.47-82.16-49.12-123.07
		c-12.23-30.06-24.35-60.76-36.07-90.45l-0.08-0.21c-13.11-33.22-26.66-67.57-40.48-101.27c-1.95-4.74-3.98-9.55-5.95-14.2
		l-0.92,0.39l0.88-0.48c-6.76-15.96-13.74-32.45-18.33-49.42c3.02-0.63,6.08-1.11,9.2-1.42c5.36,13.34,10.87,26.86,16.23,40
		c12.01,29.44,24.42,59.89,35.86,90.16c12.58,33.31,26.05,66.9,39.07,99.38l0.08,0.2c13.09,32.65,26.63,66.42,39.26,99.89
		c7.19,19.03,15.15,38.08,22.85,56.5c7.97,19.07,16.22,38.79,23.59,58.48c10.59,28.29,22.06,56.76,33.16,84.28l0.1,0.24
		c12.19,30.24,24.8,61.5,36.25,92.61c4.9,13.3,10.36,26.6,15.65,39.47c5.2,12.66,10.57,25.74,15.39,38.79
		C851.19,1704.91,848.58,1706.06,845.93,1706.86z M827.57,1707.4c-1.1-10.97-5.51-20.75-9.79-30.21c-1.38-3.04-2.8-6.19-4.08-9.32
		c-21.62-53.02-42.96-107.06-63.58-159.31l-0.12-0.3c-10.09-25.56-20.52-51.98-30.85-77.95c-11.46-28.79-22.97-57.48-34.11-85.23
		l-0.36-0.91c-18.42-45.91-37.48-93.38-55.83-140.21c-10.7-27.31-21.81-54.86-32.57-81.53c-14.92-37.01-30.34-75.26-44.81-113.18
		c3.1-0.95,6.19-1.86,9.3-2.67c4.71,17.48,11.81,34.25,18.68,50.48c1.97,4.65,4.01,9.46,5.96,14.21
		c13.73,33.49,27.25,67.73,40.31,100.84l0.24,0.6c11.72,29.69,23.83,60.39,36.07,90.47c16.72,41.09,33.25,82.91,49.23,123.35
		c19.02,48.13,38.69,97.9,58.74,146.58c15.53,37.7,30.56,76.36,45.1,113.74l0.09,0.23c6.78,17.43,13.79,35.46,20.76,53.16
		c0.94,2.4,2.02,4.74,3.06,7.02c0.11,0.24,0.22,0.49,0.33,0.73c-0.76,0.02-1.52-0.01-2.29-0.09
		C833.94,1707.57,830.79,1707.41,827.57,1707.4z M780.64,1701.19c-9.79-24.48-19.71-49.38-29.3-73.46l-1.61-4.04
		c-7.92-19.88-15.83-39.75-23.77-59.62c-27.71-69.36-54.87-137.33-82.52-206.29c-22.64-56.46-45.69-113.76-66.02-164.31
		l-70.34-174.96c2.76-0.6,5.51-1.23,8.23-1.92c0.8,1.01,1.25,2.15,1.75,3.46c10.97,28.23,22.37,56.84,33.4,84.5l0.85,2.13
		c5.37,13.48,10.75,26.96,16.09,40.44c20.51,51.79,41.79,104.27,62.36,155.02l0.15,0.37c17.14,42.27,34.86,85.99,52.05,129.07
		c11.02,27.63,22.01,55.27,33.01,82.91l1.13,2.84c20.82,52.36,42.35,106.5,63.74,159.67c1.11,2.77,2.41,5.51,3.67,8.16
		c3.72,7.86,7.57,15.99,6.53,24.92C785.59,1708.82,782.52,1705.89,780.64,1701.19z M757.04,1706.74c-0.17-1.48-0.41-2.98-1.06-4.49
		c-11.4-26.2-22.07-53.24-32.41-79.44c-4.75-12.04-10.13-25.68-15.4-38.72c-21.52-53.25-43.2-107.24-64.16-159.45l-161.48-401.77
		c2.29-0.35,4.58-0.7,6.88-1.08c7.51,18.84,15.02,37.68,22.53,56.53l0.26,0.64c16.92,42.47,34.41,86.39,51.71,129.55
		c34.38,85.81,62.73,156.32,89.21,221.9c13.85,34.29,27.74,69.24,41.17,103.03l0.12,0.31c19.38,48.76,39.42,99.18,59.81,148.82
		c0.9,2.19,1.95,4.34,2.97,6.42c2.93,6,5.71,11.69,5.16,18.05C760.57,1706.96,758.81,1706.86,757.04,1706.74z M713.2,1699.31
		c-0.12-3.14-1.24-5.7-2.19-7.86c-0.21-0.48-0.42-0.96-0.62-1.44l-7.06-17.14c-9.43-22.86-19.17-46.51-28.41-69.87
		c-20.48-51.78-41.71-104.26-62.26-155.06c-12.24-30.27-24.9-61.57-37.27-92.38c-14.34-35.73-29.08-71.99-43.34-107.07l-0.54-1.33
		c-11.65-28.64-24.84-61.1-37.43-92.36c-11.95-29.67-23.9-59.92-35.46-89.18l-0.97-2.45c-4.67-11.82-9.34-23.63-14.02-35.45
		c0.72,0.01,1.44,0,2.19-0.03c9.09,22.56,18.2,45.12,27.3,67.67c20.99,52.01,42.7,105.79,63.94,158.88
		c28.93,72.34,58.31,145.45,87.32,217.31c6.95,17.22,13.89,34.45,20.83,51.68l1.02,2.54c22.6,56.13,45.96,114.17,69.49,171.08
		c0.45,1.09,0.31,1.75,0.01,2.99C714.91,1699.63,714.07,1699.44,713.2,1699.31z M436.75,1027.88c5.27,13.3,10.53,26.6,15.78,39.9
		l0.15,0.38c6.65,16.82,13.42,33.98,20.26,51.16c-1.52-3.78-3.04-7.55-4.56-11.32c-5.38-13.35-11.01-27.09-15.97-39.21l-0.22-0.53
		c-5.29-12.92-10.76-26.28-16.06-39.46c-0.09-0.23-0.22-0.48-0.37-0.73C436.08,1027.99,436.41,1027.92,436.75,1027.88
		C436.74,1027.87,436.74,1027.87,436.75,1027.88z M721.68,1694.4c-23.53-56.91-46.88-114.92-69.47-171.02
		c-7.28-18.08-14.56-36.16-21.85-54.23c-29.01-71.86-58.38-144.97-87.31-217.29c-21.17-52.93-42.87-106.69-63.85-158.67l-0.39-0.97
		c-8.71-21.59-17.43-43.18-26.13-64.78c0.68-0.12,1.36-0.23,2.04-0.34c20.01,50.49,40.5,101.33,60.31,150.5
		c11.64,28.89,23.68,58.77,35.72,88.81c13.24,33.05,26.78,66.62,39.87,99.09l0.81,2c17.73,43.96,36.06,89.43,53.93,134.25
		c11.35,28.48,23.12,57.33,34.52,85.27l0.12,0.3c14.95,36.64,30.4,74.53,45.08,111.99c0.57,1.44,1.19,2.71,1.86,3.84
		c-1.64-0.01-3.28-0.48-5.08-1.12c0.03-0.16,0.07-0.31,0.11-0.47l0.02-0.1C722.39,1699.76,722.95,1697.45,721.68,1694.4z
		 M685.86,1584.57c-11.38-27.89-23.14-56.73-34.5-85.22c-17.82-44.71-36.12-90.09-53.82-133.98l-0.39-0.96
		c-13.27-32.9-26.98-66.92-40.4-100.41c-11.79-29.42-23.83-59.3-35.48-88.21l-0.57-1.42c-19.58-48.58-39.81-98.8-59.44-148.32
		c1.25-0.19,2.5-0.38,3.76-0.57c4.28,10.43,8.57,20.86,12.86,31.29l1.03,2.49c10.31,25.04,20.97,50.94,31.41,76.81
		c22,54.51,44.16,109.68,65.58,163.05c9.37,23.33,18.74,46.66,28.11,69.98l32.63,81.15c18.86,46.91,37.73,93.83,56.57,140.75
		c4.48,11.17,8.95,22.35,13.42,33.53l0.23,0.57c9.41,23.55,19.14,47.91,28.91,71.78c0.94,2.3,1.47,4.58,1.69,7.45
		c-2.68-1.1-4.69-3.13-6.35-7.37C716.32,1659.22,700.83,1621.27,685.86,1584.57z M741.74,1694.42
		c-9.89-24.15-19.67-48.63-29.12-72.3c-4.47-11.18-8.93-22.37-13.42-33.54c-19.91-49.57-39.83-99.13-59.76-148.68L610,1366.68
		c-9.38-23.33-18.74-46.65-28.11-69.98l-0.62-1.55c-21.26-52.95-43.25-107.71-64.97-161.51c-10.4-25.77-21.09-51.74-31.43-76.86
		l-0.72-1.75c-4.19-10.18-8.38-20.36-12.56-30.55c0.45-0.07,0.9-0.13,1.34-0.2l0.12-0.02c0.96-0.14,1.93-0.28,2.89-0.42L638,1427.06
		l0.48,1.2c20.84,51.89,42.39,105.54,63.69,158.26c5.17,12.8,10.33,25.87,15.32,38.51l0.06,0.16c10.34,26.21,21.04,53.31,32.5,79.65
		c0.18,0.41,0.3,0.9,0.39,1.43c-1.98-0.16-3.96-0.34-5.93-0.55c-0.17-0.02-0.34-0.04-0.5-0.06
		C743.88,1702.39,743.44,1698.58,741.74,1694.42z M762.98,1686.17c-1.02-2.09-1.98-4.06-2.8-6.04
		c-20.29-49.39-40.35-99.85-59.74-148.65l-0.3-0.75c-13.39-33.69-27.24-68.54-41.05-102.73c-26.36-65.26-54.7-135.77-89.2-221.88
		c-17.18-42.87-34.56-86.49-51.36-128.68l-1.36-3.42c-7.08-17.77-14.16-35.54-21.25-53.31c1.58-0.28,3.16-0.57,4.74-0.87
		l70.78,176.05c21.65,53.85,44.04,109.53,66.01,164.31c27.25,67.95,54.58,136.35,82.52,206.28c7.85,19.64,15.67,39.3,23.5,58.95
		l1.04,2.62c9.86,24.77,20.06,50.39,30.14,75.56c0.62,1.54,1.34,2.94,2.16,4.22c-1.73-0.09-3.46-0.19-5.19-0.27l-0.52-0.03
		c-0.76-0.04-1.54-0.08-2.3-0.12C769.42,1699.38,766.16,1692.67,762.98,1686.17z M789.35,1682.38c-1.27-2.68-2.47-5.21-3.51-7.81
		c-21.55-53.57-43.21-108.04-64.15-160.71c-11.23-28.24-22.46-56.47-33.72-84.69c-17.32-43.43-35.02-87.07-52.13-129.27l-0.22-0.54
		c-20.52-50.63-41.75-102.99-62.21-154.64c-5.39-13.61-10.82-27.22-16.24-40.82l-0.69-1.73c-11.03-27.66-22.43-56.26-33.4-84.48
		c-0.23-0.6-0.48-1.24-0.78-1.89c2.23-1.05,4.57-1.78,7.01-2.35c7.31,20.92,15.8,41.73,24.02,61.85
		c3.48,8.52,7.07,17.32,10.58,26.16c26,65.44,53.99,135.73,82.53,206.3l2.46,6.09c22.67,56.05,46.11,114.02,68.45,171.33
		c11.57,29.68,23.65,59.63,35.33,88.59c17.82,44.2,36.26,89.91,53.16,135.32c0.05,0.12,0.11,0.22,0.17,0.33
		c-1.13,0.19-2.27,0.4-3.44,0.62c-2.21,0.42-4.24,0.66-6.12,0.72C797.69,1700.02,793.46,1691.05,789.35,1682.38z M813.34,1707.92
		c-0.33-0.32-0.68-0.62-1.02-0.89c-0.16-0.13-0.38-0.31-0.49-0.4c-16.89-45.36-35.29-90.98-53.07-135.09l-0.12-0.29
		c-11.67-28.94-23.74-58.86-35.26-88.42c-22.36-57.36-45.81-115.34-68.48-171.41l-2.46-6.09c-28.53-70.55-56.52-140.83-82.52-206.26
		c-3.48-8.75-7.09-17.61-10.61-26.22c-8.07-19.78-16.41-40.23-23.61-60.72c2.93-0.58,5.92-1.22,8.83-2.25
		c0.15,0.13,0.3,0.25,0.38,0.32c14.65,38.46,30.27,77.21,45.42,114.76c10.74,26.64,21.85,54.18,32.5,81.37
		c18.53,47.29,37.69,95.01,56.21,141.16c11.21,27.92,22.79,56.79,34.1,85.22c10.37,26.06,20.84,52.58,30.97,78.23l0.15,0.38
		c20.6,52.19,41.91,106.15,63.46,159c1.3,3.18,2.74,6.37,4.13,9.45l0.04,0.1c4,8.84,8.12,17.98,9.2,27.73
		c-2.41,0.15-4.89,0.38-7.46,0.69C813.54,1708.16,813.45,1708.03,813.34,1707.92z M828.76,1623.17
		c-11.52-31.27-24.14-62.57-36.35-92.84c-11.11-27.55-22.59-56.04-33.18-84.32c-7.41-19.79-15.68-39.58-23.68-58.72
		c-7.68-18.38-15.62-37.38-22.76-56.29c-12.62-33.43-26.13-67.13-39.19-99.72l-0.16-0.39c-13.02-32.48-26.49-66.06-39.06-99.35
		c-11.44-30.28-23.86-60.75-35.88-90.21l-0.12-0.3c-5.17-12.68-10.51-25.77-15.71-38.7c2.28-0.75,4.6-1.74,7-2.78
		c1.4-0.6,2.85-1.23,4.33-1.82l280.08,706.72c-4.21,1.56-8.35,2.74-11.01,1.54c-1.28-0.58-2.25-1.79-2.95-3.71
		c-4.94-13.43-10.45-26.85-15.81-39.89C839.06,1649.61,833.63,1636.38,828.76,1623.17z M703.17,1690.08l-0.06-0.11
		c-0.21-0.37-0.41-0.71-0.55-1.05l-17.85-44.02c-17.56-43.3-35.72-88.08-53.51-132.15c-18.6-46.09-37.45-92.99-55.67-138.33
		l-50.54-125.71c-5.46-13.58-10.98-27.31-16.53-41.1c5.87,14.48,11.64,28.66,17.06,42c14.42,35.47,29.33,72.14,43.86,108.36
		c12.22,30.46,24.73,61.39,36.83,91.31l0.44,1.09c20.5,50.68,41.7,103.08,62.24,155.02c9.29,23.48,19.06,47.19,28.51,70.11
		l6.99,16.98c0.22,0.53,0.45,1.06,0.68,1.59c0.56,1.28,1.07,2.43,1.37,3.61c-0.74-0.23-1.45-0.48-2.17-0.74
		C705.41,1694.01,704,1691.53,703.17,1690.08z M1001.1,1683.74l-21.14-53.9c-14.19-36.16-28.85-73.56-43.22-110.36
		c-12.1-30.99-24.15-61.99-36.21-93l-0.85-2.18c-20.61-53-41.92-107.8-63.37-162.37l-12.33-31.36
		c-22.09-56.14-44.93-114.19-66.84-171.54c-8.67-22.7-17.86-45.57-26.75-67.68l-0.33-0.81c-3.77-9.39-7.54-18.77-11.28-28.17
		c3.32-1.03,6.63-2.06,9.92-3.08c2.2-0.68,4.43-1.38,6.65-2.07c6.87,13.54,12.18,28,17.32,42.02l0.04,0.1
		c2.36,6.45,4.81,13.13,7.38,19.64c13.57,34.38,31.42,79.63,49.06,124.87c10.58,27.15,21.15,54.45,31.37,80.86l0.51,1.31
		c7.96,20.56,15.92,41.12,23.9,61.66c8.82,22.68,17.67,45.34,26.53,68l0.12,0.3c6.36,16.26,12.71,32.52,19.05,48.79
		c6.87,17.64,13.74,35.28,20.6,52.92l2.32,5.96c11.12,28.58,22.61,58.14,33.98,87.18c8.74,22.34,17.68,45.03,26.34,66.97l0.13,0.34
		c5.66,14.36,11.33,28.73,16.97,43.09c0.2,0.5,0.33,1.14,0.48,1.86c0.16,0.79,0.33,1.61,0.64,2.47c2.24,6.42,3.91,10.96,5.99,13.91
		C1012.79,1681.89,1007.11,1682.81,1001.1,1683.74z M1024.73,1677.03c-2.17-1.09-3.82-5.8-6.55-13.62
		c-0.17-0.47-0.27-0.99-0.38-1.53l-0.03-0.17c-0.19-0.91-0.39-1.86-0.78-2.86c-5.29-13.45-10.59-26.9-15.89-40.35l-1.26-3.19
		c-8.64-21.9-17.57-44.55-26.29-66.86c-11.84-30.27-23.64-60.63-35.06-89.99l-1.2-3.08c-6.87-17.67-13.74-35.33-20.63-52.99
		c-6.38-16.37-12.78-32.73-19.17-49.09l-1.17-3c-8.46-21.66-16.93-43.32-25.35-64.99c-7.99-20.55-15.95-41.12-23.91-61.68
		l-0.49-1.28c-9.68-25-20.65-53.34-31.38-80.87c-17.54-44.98-35.44-90.38-49.07-124.9c-2.54-6.44-4.97-13.07-7.32-19.48l-0.04-0.12
		c-5.08-13.86-10.34-28.16-17.13-41.73c5.12-1.58,10.27-3.17,15.44-4.74c19.36,48.22,37.92,96.27,55.1,141.02
		c9.13,23.78,18.44,47.73,27.44,70.88c12.8,32.92,26.03,66.96,38.8,100.65c12.84,33.88,26.28,68.17,39.3,101.41l0.18,0.45
		c5.78,14.75,11.56,29.51,17.31,44.27l20.18,51.84c12.23,31.41,24.45,62.83,36.7,94.23l12.91,33.08
		c10.75,27.53,21.86,56.01,32.69,84.04c0.48,1.24,1.15,2.11,1.72,2.77C1031.61,1677.05,1026.86,1678.1,1024.73,1677.03z
		 M1839.59,1304.5c-23.62-65.93-46.87-133.23-69.36-198.32l-0.17-0.5c-5.36-15.52-10.72-31.04-16.09-46.55
		c-20.18-58.3-40.91-117.09-60.96-173.95c-17.57-49.84-35.74-101.37-53.64-152.85c-4.22-12.13-8.39-24.27-12.57-36.41
		c-9.99-29.03-20.32-59.05-31.06-88.47c-0.01-0.02-0.02-0.03-0.02-0.04c1.35-0.86,2.69-1.72,4.03-2.59l2.38,6.7
		c2.58,7.27,5.1,14.4,7.6,21.53l24.9,71.22c21.1,60.34,42.92,122.73,64.29,184.12c15.11,43.41,30.19,86.83,45.26,130.24
		c22.95,66.1,48.96,141.03,74.18,213.15c2.14,6.12,4.25,12.59,6.12,18.33c4.44,13.61,9.03,27.67,15.02,41.08
		c2.33,5.2,3.73,8.47,3.3,9.94C1842.53,1302,1841.43,1303.08,1839.59,1304.5z M1806.82,1331.29c-2.41-2.65-3.56-6.27-4.76-10.07
		c-0.37-1.16-0.73-2.32-1.13-3.46c-8.59-24.48-17.21-48.95-25.83-73.41l-0.24-0.69c-20.78-59-42.26-120.02-63.02-180.15
		c-20.38-59.04-37.55-108.53-55.09-158.2c-10.09-28.56-20.22-57.59-30.03-85.66c-17.29-49.5-35.16-100.68-53.3-150.86
		c-1.49-4.12-2.83-8.4-4.13-12.53c-2.9-9.23-5.89-18.74-10.76-27.58c2.78-1.42,5.52-2.86,8.23-4.31
		c10.89,27.99,20.78,56.88,30.36,84.85c3.85,11.24,8.2,23.98,12.58,36.45c23.96,68.32,48.42,138.32,70,200.09l7.31,20.93
		c8.8,25.19,17.61,50.38,26.42,75.57c8.11,23.17,16.22,46.34,24.33,69.51l0.12,0.35c12.67,36.18,25.34,72.36,37.97,108.55
		c8.7,24.92,17.48,50.28,25.99,74.85l11.19,32.28c-0.07,0.03-0.13,0.07-0.2,0.1C1810.84,1328.92,1808.78,1330,1806.82,1331.29z
		 M1782.67,1350.09c-1.95-0.84-2.73-2.61-3.9-6.17l-0.15-0.46c-13.57-41.01-28.58-84.21-47.25-135.97
		c-19.09-52.94-38-106.65-56.28-158.58l-0.54-1.53c-8.33-23.65-16.65-47.3-25.02-70.93c-17.61-49.77-35.84-101.76-51.93-147.64
		l-0.36-1.03c-21.24-60.55-43.2-123.16-65.06-184.64c-0.01-0.04-0.04-0.07-0.05-0.11c2.8-1.45,5.53-2.9,8.22-4.36
		c10.34,26.93,19.91,54.61,29.19,81.47c3.63,10.52,7.39,21.4,11.18,32.19c19.5,55.5,38.96,111.01,58.43,166.52l38.59,110
		c21.51,61.31,43.76,124.7,65.79,187.33c10.78,30.64,21.59,61.26,32.41,91.88l13.6,38.51
		C1787.27,1347.54,1784.86,1348.58,1782.67,1350.09z M1774.02,1360.25c-1.02,1.09-1.89,2.03-3.04,2.53
		c-0.79,0.34-1.56,0.71-2.33,1.09c-8.64-24.41-17.29-48.8-25.95-73.2l-2.84-8.01c-21.71-61.2-44.17-124.49-66-186.82
		c-16.23-46.33-32.89-93.39-49-138.89l-0.22-0.63c-26.95-76.13-54.83-154.84-81.6-232.76l-2.49-7.27
		c-7.4-21.6-15.06-43.94-24.01-65.44c3.35-1.63,6.61-3.24,9.8-4.86c22.14,62.26,44.99,127.43,65.17,184.95
		c16.96,48.35,34.49,98.35,51.94,147.65c8.45,23.88,16.86,47.77,25.27,71.67l0.43,1.23c18.27,51.89,37.16,105.54,56.14,158.18
		c18.66,51.75,33.66,94.91,47.19,135.82l0.15,0.45c0.99,3.02,2.19,6.61,5.39,8.91c-0.32,0.5-0.62,1.02-0.89,1.58
		c-0.19,0.39-0.29,0.79-0.31,1.19C1775.71,1358.45,1774.85,1359.36,1774.02,1360.25z M1722.84,1394.28
		c-0.03-0.02-0.04-0.04-0.07-0.06c-3.87-2.68-5.24-7.03-6.7-11.65c-1.74-5.51-3.85-10.96-5.89-16.23l-0.05-0.12
		c-1.34-3.46-2.73-7.04-3.98-10.58c-38.32-107.96-81.75-230.33-123.78-349c-28.18-79.59-56.56-159.9-81.6-230.76l-35.28-99.82
		c4.02-2.02,8.01-4.11,11.94-6.29c0.1-0.06,0.21-0.12,0.31-0.18l18.77,52.65c14.71,41.25,29.41,82.5,44.08,123.77l4.41,12.4
		c30.38,85.47,61.8,173.85,92.59,260.79c9.83,27.76,19.64,55.7,29.13,82.72c9.09,25.88,18.48,52.64,27.79,78.94
		c7.25,20.48,14.71,41.26,21.3,59.59c5.15,14.34,10.3,28.68,15.42,43.03c0.39,1.09,0.54,2.41,0.71,3.81
		c0.02,0.2,0.06,0.41,0.08,0.61C1728.92,1390,1725.86,1392.14,1722.84,1394.28z M1663.84,1431.16c-0.44-0.35-0.95-0.59-1.51-0.67
		c-3.97-0.61-4.86-2.87-6.08-8.27c-0.3-1.34-0.64-2.86-1.13-4.22c-12.79-35.59-25.93-72.79-37.52-105.62l-0.22-0.63
		c-15.06-42.65-30.63-86.75-46.33-129.99c-11.68-32.18-23.66-65.78-34.24-95.43l-0.23-0.64c-9.5-26.63-19.32-54.17-29.09-81.21
		c-37.81-104.67-71.88-199.16-105.82-295.5c-0.31-0.88-0.75-1.65-1.24-2.36c7.04-3.65,14.27-7.09,21.51-10.4l259.04,725.49
		C1675.56,1424.64,1669.78,1427.82,1663.84,1431.16z M1622.02,1453.03c-5.99-22.57-14.32-44.63-22.38-65.98l-0.46-1.22
		c-1.68-4.44-3.35-8.88-5-13.33c-14.69-39.5-29.11-79.59-43.05-118.36c-8.29-23.05-16.87-46.89-25.39-70.31
		c-14.84-40.79-29.76-82.33-44.18-122.51l-0.24-0.67c-16.45-45.82-33.45-93.2-50.52-139.91c-17-46.51-33.9-93.95-50.24-139.82
		l-1.43-4.01c-5.83-16.35-11.65-32.7-17.5-49.04c-0.39-1.09-0.83-2.2-1.44-3.31c3.07-1.42,6.16-2.88,9.22-4.34
		c4.11-1.96,8.28-3.94,12.52-5.84l262.01,728.29c-2.06,1.23-4.12,2.48-6.17,3.74c-5.63,3.47-10.58,5.56-15.57,6.57
		C1622.14,1453,1622.08,1453.02,1622.02,1453.03z M1609.7,1458.31c-2.05-0.11-2.35-0.82-3.01-4.25c-0.21-1.13-0.46-2.41-0.92-3.66
		l-6.43-17.5c-5.61-15.25-11.97-32.54-18.09-49.4l-9.89-27.24c-20.91-57.58-42.53-117.11-63.68-175.7
		c-8.2-22.71-16.34-45.59-24.22-67.71c-6.66-18.69-13.54-38.02-20.42-57.16c-31.56-87.76-60.06-166.96-89.24-247.53
		c-2.55-7.05-5.08-14.24-7.52-21.2l-0.13-0.37c-6.47-18.41-13.16-37.44-20.98-55.77c2.97-1.22,5.97-2.47,8.94-3.82
		c0.64,0.91,1.04,1.92,1.43,3.03c6.3,17.63,12.59,35.26,18.87,52.9c16.35,45.9,33.26,93.37,50.31,140.01
		c17.05,46.67,34.06,94.05,50.51,139.88l0.31,0.87c14.4,40.12,29.29,81.61,44.12,122.34c8.6,23.64,17.13,47.35,25.38,70.29
		l0.16,0.44c13.93,38.71,28.33,78.75,42.92,117.98c1.66,4.47,3.35,8.93,5.03,13.4l0.45,1.18c8.03,21.26,16.32,43.23,22.23,65.55
		C1613.52,1455.81,1611.47,1456.95,1609.7,1458.31z M1523.29,1501.79c-0.19-0.57-0.53-1.08-1.01-1.48c-0.84-0.7-1.16-1.66-1.67-3.69
		c-0.25-0.97-0.47-1.84-0.79-2.71c-10.25-27.75-20.49-56.04-30.39-83.4l-0.49-1.36c-7.8-21.55-15.87-43.83-23.89-65.72
		c-22.28-60.78-44.66-122.12-66.3-181.43l-0.53-1.46c-6.31-17.3-12.65-34.58-18.98-51.87l-1.54-4.2
		c-7.87-21.47-16-43.67-23.96-65.52c-20-54.93-46.44-127.38-73.65-200.71c-2.62-7.07-5.13-14.34-7.55-21.38l-0.03-0.1
		c-5.43-15.76-11.05-32.03-18.45-47.47c6.1-2.41,12.16-4.9,18.16-7.43c19.89,49.71,248.21,676.59,250.5,682.94
		c1.5,4.16,3.08,8.31,4.63,12.37c2.32,6.09,4.73,12.4,6.82,18.67c2.14,6.4,3.06,12.1,2.89,17.93c-0.01,0.51,0.1,1,0.31,1.44
		C1532.56,1496.94,1527.75,1498.88,1523.29,1501.79z M1499.04,1514.41c0.01-3.94-1.36-7.43-2.61-10.56
		c-5.14-12.87-9.87-26.16-14.46-39.06l-0.21-0.58c-2.13-5.98-4.33-12.17-6.55-18.23c-16.3-44.57-32.99-89.73-49.13-133.4
		c-14.43-39.04-26.45-71.58-38.82-105.27c-11.76-32.04-23.56-64.56-34.97-96c-8.45-23.29-18.02-49.69-27.52-75.69
		c-17.58-48.09-35.14-95.99-54.62-149.12l-2.39-6.52c-11.1-30.26-22.19-60.52-33.27-90.79c-1.87-5.1-2.88-8.58-2.13-10.19
		c0.62-1.32,3.02-2.66,8.04-4.48c2.55-0.92,5.09-1.88,7.63-2.85c7.34,15.24,12.96,31.49,18.37,47.23
		c2.43,7.07,4.95,14.38,7.64,21.62c27.4,73.87,53.75,146.04,73.63,200.67c7.85,21.55,15.87,43.45,23.63,64.62l1.21,3.3
		c6.56,17.89,13.11,35.77,19.64,53.67l1.69,4.64c21.33,58.43,43.38,118.85,65.15,178.25c7.84,21.39,15.72,43.17,23.35,64.24
		l0.83,2.29c9.43,26.05,20.11,55.58,30.59,83.97c0.23,0.61,0.39,1.25,0.56,1.93l0.03,0.13c0.56,2.21,1.26,4.97,3.82,7.08
		c0.13,0.11,0.28,0.21,0.42,0.29c-0.26,0.42-0.43,0.9-0.47,1.4C1512.37,1510.66,1505.89,1512.51,1499.04,1514.41z M1477.87,1522.65
		c-2.58-3.14-3.85-6.26-4.67-8.66c-4-11.69-8.44-23.41-12.74-34.74l-0.04-0.11c-3.15-8.31-6.4-16.9-9.47-25.44
		c-17.37-48.37-35.32-96.91-52.68-143.85l-0.84-2.28c-8.78-23.74-17.86-48.29-26.73-72.46c-10.35-28.2-20.72-56.39-31.1-84.58
		c-16.09-43.7-32.72-88.9-49.18-133.96c-24.56-67.25-53.68-146.89-83.6-227.85c4.56-1.75,9.17-3.61,13.64-5.79
		c0.75-0.37,1.15-0.31,2.54,0.09c0.8,0.23,1.82,0.51,2.98,0.54c0.44,2.18,1.27,4.71,2.41,7.84c10.18,27.81,20.38,55.62,30.58,83.43
		l5.09,13.89c19.4,52.91,36.9,100.65,54.62,149.12c9.19,25.14,18.47,50.73,27.45,75.48l0.25,0.69
		c11.36,31.33,23.12,63.72,34.8,95.53c12.95,35.26,26.1,70.86,38.83,105.28l0.11,0.3c16.11,43.6,32.78,88.69,49.01,133.08
		c2.26,6.17,4.5,12.47,6.67,18.56l0.07,0.2c4.59,12.91,9.34,26.25,14.55,39.31c1.23,3.1,2.51,6.3,2.06,9.47
		c-0.03,0.19-0.03,0.38-0.02,0.57C1487.46,1517.85,1482.47,1519.71,1477.87,1522.65z M1453.24,1535.13
		c-0.13-8.37-3.4-15.69-6.58-22.78l-0.04-0.1c-1.09-2.44-2.13-4.74-3.02-7.07c-11.7-30.41-23.03-61.48-33.99-91.53l-0.15-0.41
		c-5.42-14.88-11.03-30.26-16.62-45.37c-13.59-36.76-27.18-73.8-40.33-109.62c-8.95-24.38-17.9-48.76-26.87-73.13l-11.7-31.78
		c-17.15-46.62-34.88-94.83-52.74-142.27c-11.62-30.88-23.03-62.16-34.07-92.42c-14.05-38.52-28.58-78.36-43.56-117.4
		c-0.34-0.89-0.71-1.69-1.11-2.4c0.09-0.04,0.19-0.06,0.28-0.11c5.77-3,11.98-5.41,18.05-7.71
		c29.84,80.74,58.98,160.43,83.57,227.77c16.26,44.53,32.91,89.77,49.01,133.51l0.17,0.47c10.38,28.19,20.75,56.38,31.1,84.58
		c9.07,24.73,18.36,49.85,27.34,74.14l0.23,0.63c17.41,47.07,35.41,95.74,52.65,143.77c3.12,8.69,6.51,17.64,9.51,25.54l0.08,0.22
		c4.26,11.25,8.67,22.88,12.62,34.44c1.54,4.48,3.51,8.01,6.22,11.17C1467.5,1531.59,1460.58,1533.34,1453.24,1535.13z
		 M1431.27,1543.3c-0.04,0.03-0.08,0.05-0.11,0.07c-0.32-0.2-1.51-1.14-3.05-4.87c-3.96-9.58-7.55-19.52-11.05-29.21
		c-1.6-4.43-3.41-9.46-5.23-14.33c-29.37-78.72-58.12-156.59-85.93-231.89c-12.38-33.51-24.91-67.6-37.04-100.56l-0.49-1.34
		c-11.49-31.23-24.51-66.63-37.21-101.03c-20.43-55.31-41.24-111.54-61.37-165.91l-31.86-86.07c5.36-2.16,10.69-4.44,15.89-6.94
		c1.34-0.65,1.77-0.61,1.89-0.56c0.08,0.03,0.86,0.4,1.82,2.9c14.96,38.99,29.48,78.8,43.52,117.3
		c11.06,30.33,22.5,61.7,34.09,92.48c17.77,47.19,35.47,95.32,52.59,141.87l11.83,32.15c8.97,24.37,17.92,48.75,26.87,73.12
		l0.48,1.31c13.04,35.51,26.52,72.24,39.86,108.33c5.66,15.3,11.3,30.78,16.76,45.76c10.96,30.06,22.29,61.14,34.02,91.63
		c0.97,2.53,2.11,5.05,3.21,7.51c3.11,6.94,6.32,14.11,5.99,21.76C1441.45,1538.22,1436.15,1540.07,1431.27,1543.3z
		 M1406.46,1555.23c-0.09-4.13-1.5-7.78-2.89-11.32l-0.14-0.36c-0.22-0.57-0.45-1.14-0.66-1.71c-5.71-15.25-11.52-30.59-17.14-45.43
		l-0.26-0.69c-7.83-20.69-15.93-42.09-23.75-63.17c-7.52-20.3-15.04-40.99-22.32-61l-0.18-0.5c-7.92-21.78-16.1-44.3-24.43-66.7
		c-10.51-28.27-21.49-57.4-31.18-83.1c-10.24-27.16-20.82-55.25-31.17-83.08c-8.25-22.19-16.48-44.82-24.43-66.71l-0.16-0.44
		c-6.89-18.97-14.71-40.46-22.32-61.04c-16.85-45.5-34.14-91.83-50.88-136.68l-2.2-5.9c-6.22-16.66-12.44-33.34-18.68-50.07
		l3.24-1.19c4.96-1.82,9.99-3.67,15.02-5.6l27.96,75.53c23.3,62.94,44.3,119.66,65.22,176.32c12.15,32.89,24.04,65.21,37.2,101.02
		c11.56,31.42,24.65,67.04,37.53,101.91l0.24,0.65c27.76,75.16,56.46,152.89,85.7,231.25c1.74,4.66,3.46,9.42,5.12,14.03l0.08,0.24
		c3.49,9.69,7.1,19.71,11.15,29.5c1.16,2.81,2.43,4.91,3.82,6.38c-1.93,0.88-3.78,1.85-5.59,2.8
		C1415.9,1552.51,1411.62,1554.77,1406.46,1555.23z M1382.64,1562.74c-9.53-20.08-17.12-41.4-24.46-62.01
		c-2.11-5.92-4.29-12.03-6.48-18.04c-14.99-41.03-30.49-82.91-47.38-128.05c-19.45-51.95-39.56-105.66-59.65-159.65
		c-6.96-18.71-13.98-37.75-20.77-56.18l-0.22-0.59c-8.11-22-17.29-46.93-26.4-71.27c-6.38-17.03-12.72-34.16-18.85-50.71
		c-13.23-35.7-26.9-72.62-40.99-108.91c-3.7-9.52-7.2-19.31-10.59-28.78c-6-16.75-12.2-34.04-19.72-50.63
		c6.27-2.46,12.52-5.03,18.66-7.82c0.12-0.05,0.29-0.1,0.4-0.11c0.51,0.75,1.28,1.21,2.11,1.36c6.75,18.11,13.49,36.17,20.22,54.2
		c16.65,44.63,33.88,90.77,50.87,136.67c7.5,20.26,15,40.91,22.26,60.88l0.05,0.12c7.97,21.93,16.21,44.61,24.61,67.2
		c10.47,28.15,21.47,57.35,31.18,83.1c10.25,27.2,20.85,55.32,31.17,83.08c8.22,22.12,16.42,44.68,24.35,66.49l0.25,0.69
		c7.28,20.01,14.8,40.71,22.32,61.01c7.76,20.96,15.81,42.21,23.59,62.77l0.43,1.15c5.62,14.83,11.42,30.17,17.13,45.41
		c0.26,0.69,0.53,1.37,0.79,2.06l0.04,0.11c1.2,3.06,2.34,5.98,2.44,8.97c-3.9,0.45-8.32,2.78-12.97,5.24
		C1385.57,1561.25,1384.07,1562.05,1382.64,1562.74z M1342.52,1578.85c-1.31,0.64-2.68,1.2-4.13,1.79c-1.5,0.61-3.03,1.24-4.54,1.97
		c-0.04-0.3-0.12-0.6-0.25-0.89c-7.49-16.06-13.62-32.99-19.54-49.37l-0.04-0.1c-2.98-8.23-6.06-16.75-9.28-25.06
		c-11.9-30.71-23.5-61.71-34.71-91.69l-0.06-0.15c-7.49-20-15.23-40.69-22.95-61c-9.45-24.86-18.83-50.15-27.9-74.61
		c-4.54-12.25-9.09-24.51-13.66-36.75c-10.72-28.74-21.48-57.46-32.23-86.19l-3.24-8.65c-9.73-26-19.47-52-29.18-78
		c-9.91-26.55-19.8-53.11-29.68-79.67c-10.18-27.34-20.35-54.68-30.56-82c-2.45-6.57-5-13.22-7.46-19.65l-0.13-0.34
		c-4.48-11.7-9.11-23.8-13.33-35.79c-0.56-1.59-1.4-2.78-2.14-3.83c-0.39-0.54-0.7-1-0.95-1.45c7.08-3.04,14.33-5.86,21.54-8.58
		l13.12,34.98c10.06,26.8,20.11,53.6,30.14,80.41c5.69,15.21,11.33,30.44,16.99,45.68c10.45,28.18,21.26,57.32,32.15,85.89
		c15.83,41.52,31.54,83.6,46.73,124.3l1.02,2.75c6.56,17.56,13.12,35.12,19.7,52.67c10.04,26.77,20.07,54.08,29.77,80.49l0.1,0.26
		c9.43,25.67,19.17,52.21,28.97,78.38c5.29,14.14,10.67,28.92,15.42,41.97c11.72,32.24,23.85,65.57,37.49,97.8
		c0.24,0.57,0.52,1.16,0.81,1.78c1.89,4.02,2.48,6.18,0.95,8.35c-0.29,0.41-0.46,0.86-0.54,1.34
		C1348.07,1576.6,1345.24,1577.52,1342.52,1578.85z M1278.7,1603.82c-5.49,3.65-11.59,5.68-19.04,6.38
		c0.7-5.42-1.34-10.19-3.19-14.47l-0.11-0.26c-0.34-0.79-0.67-1.56-0.97-2.33c-13.04-32.79-25.6-66.41-37.75-98.94l-1.04-2.79
		c-3.31-8.85-6.62-17.71-9.94-26.56c-4.39-11.69-8.77-23.39-13.15-35.09l-1.64-4.37c-8.42-22.48-17.12-45.73-25.76-68.55
		c-6.41-16.92-12.83-33.83-19.25-50.75l-0.63-1.65c-10.97-28.89-22.31-58.77-33.38-88.19c-15.35-40.79-31.21-82.97-47.08-124.8
		c-5.69-15.01-11.38-30.03-17.06-45.05l-0.05-0.14c-14.05-37.12-28.58-75.5-43.01-113.19c-2.11-5.52-4.14-11.2-6.13-16.77
		c-5.01-14.03-10.2-28.51-17.39-42.06c0.58-0.21,1.17-0.42,1.75-0.63c5.52-2,11.05-4.01,16.58-6.03
		c7.37,16.34,13.59,33.47,19.6,50.07c3.16,8.73,6.43,17.75,9.84,26.6l1.52,3.93c14.58,37.77,29.66,76.83,43.94,115.43
		c10.6,28.66,21.53,57.52,32.1,85.44c7.51,19.83,15.27,40.34,22.83,60.54c5.59,14.93,11.17,29.87,16.74,44.81l0.31,0.84
		c10.11,27.08,20.56,55.07,30.91,82.58c8.96,23.83,18.13,48.04,26.23,69.39c6.87,18.13,13.74,36.25,20.58,54.39l8.57,22.7
		c13.33,35.29,27.12,71.77,40.17,107.83c0.8,2.21,2.14,3.93,3.44,5.6c1.98,2.54,2.86,3.91,2.65,5.62
		C1279.47,1603.41,1279.07,1603.57,1278.7,1603.82z M1236.33,1616.32c-1.97-3.21-3.7-6.81-5.25-10.93l-2.65-7.06
		c-8.2-21.82-16.68-44.39-25.23-66.56c-16.64-43.19-33.39-87.17-49.59-129.71l-7.98-20.97c-4.56-11.96-9.12-23.92-13.68-35.88
		l-1.98-5.2c-19.1-50.07-38.86-101.84-57.92-152.91c-12-32.13-24.39-64.73-36.37-96.26l-0.18-0.48
		c-15.28-40.21-31.08-81.78-46.23-122.81c-3.5-9.46-7.22-19.01-10.83-28.23l-0.06-0.15c-7.13-18.26-14.51-37.14-20.38-56.16
		c-0.01-0.03-0.03-0.06-0.04-0.09c0.55-0.2,1.12-0.4,1.67-0.6l0.16-0.06c5.41-1.93,10.81-3.88,16.21-5.82
		c7.21,13.37,12.42,27.93,17.45,42.05c1.87,5.26,4,11.21,6.17,16.89c14.47,37.8,29,76.19,43.06,113.31l1.8,4.75
		c5.09,13.44,10.17,26.87,15.27,40.3c15.8,41.67,31.65,83.81,46.99,124.56l0.08,0.22c11.17,29.69,22.62,59.85,33.69,89.01l1.23,3.23
		c6.12,16.12,12.24,32.24,18.34,48.36c8.76,23.13,17.44,46.34,25.85,68.79c4.89,13.07,9.79,26.15,14.69,39.21
		c3.2,8.51,6.38,17.02,9.56,25.53l1.58,4.23c12.11,32.41,24.64,65.92,37.64,98.64c0.36,0.91,0.76,1.83,1.16,2.76
		c1.77,4.1,3.59,8.33,2.4,12.58C1247.88,1611.59,1241.55,1613.12,1236.33,1616.32z M1157.36,1624.84c-0.81-1.7-1.57-3.31-2.19-4.94
		c-14.12-36.99-28.58-74.56-42.56-110.9l-0.1-0.25c-13.32-34.62-27.1-70.42-40.82-106.35c-8.87-23.21-17.69-46.73-26.23-69.48
		c-9.24-24.63-18.79-50.09-28.51-75.44c-10.83-28.24-21.99-56.9-32.78-84.61l-0.04-0.1c-10.79-27.69-21.94-56.32-32.86-84.81
		c-16.04-41.85-32.01-84.12-47.46-125.01c-6.82-18.04-13.64-36.08-20.47-54.12c3.93-1.3,7.86-2.52,11.76-3.73
		c2.19-0.68,4.4-1.37,6.62-2.07l50.15,130.39c4.95,12.86,9.9,25.71,14.85,38.56l0.68,1.76c11.38,29.54,23.15,60.08,34.62,90.15
		c8.01,20.99,16.07,42.37,23.86,63.04l0.63,1.68c8.41,22.29,17.1,45.33,25.74,67.95c6.8,17.8,13.83,35.84,20.64,53.31l0.06,0.16
		c7.12,18.28,14.49,37.19,21.59,55.83c6.78,17.77,13.7,36.27,19.8,52.6l0.04,0.11c10.23,27.35,20.8,55.63,31.66,83.27
		c3.91,9.96,7.63,20.22,11.24,30.18c7.59,20.95,15.44,42.59,25.67,63.01c0,0-0.01,0-0.01,0.01c-7.85,4.75-14.58,6.78-21.51,6.47
		C1162.24,1635.13,1159.67,1629.7,1157.36,1624.84z M1163.38,1569.82c-3.61-9.97-7.35-20.28-11.3-30.34
		c-10.82-27.55-21.36-55.75-31.56-83.02l-0.17-0.45c-6.43-17.21-13.09-35-19.75-52.46c-7.14-18.72-14.53-37.69-21.67-56.03
		l-0.22-0.56c-6.72-17.26-13.68-35.12-20.4-52.71c-8.73-22.84-17.5-46.11-25.99-68.61l-0.25-0.65c-7.82-20.75-15.92-42.2-24-63.4
		c-11.46-30.05-23.22-60.57-34.6-90.09l-0.42-1.09c-5.05-13.1-10.1-26.2-15.14-39.3l-50.03-130.08c2.69-0.9,5.38-1.83,8.03-2.82
		c3.58-1.34,7.19-2.68,10.8-4.01c5.85,15.39,11.68,30.79,17.52,46.18l2.43,6.41c15.21,40.1,30.93,81.56,46.49,122.31
		c10.19,26.69,20.57,53.71,30.62,79.83l0.23,0.59c12.2,31.74,24.82,64.57,37.12,96.89c22.05,57.97,44.81,118.12,64.89,171.2
		c11.45,30.28,22.91,60.55,34.38,90.82c16.95,44.73,30.03,79.11,42.42,111.49c0.24,0.64,0.52,1.27,0.79,1.89
		c1.22,2.79,1.53,3.8,0.59,5.23c-0.06,0.09-0.1,0.19-0.15,0.29c-5.19,0.77-10.39,2.35-15.37,4.68
		C1178.65,1611.93,1170.89,1590.54,1163.38,1569.82z M1209.53,1619.21c-0.23-0.53-0.47-1.07-0.68-1.61
		c-12.54-32.8-25.63-67.18-42.41-111.48c-11.47-30.27-22.92-60.54-34.38-90.81l-0.9-2.38c-20.95-55.35-42.61-112.59-64-168.83
		c-12.35-32.48-25.03-65.45-37.29-97.34l-0.06-0.16c-9.99-25.98-20.31-52.84-30.61-79.81c-15.54-40.72-31.26-82.16-46.46-122.23
		l-0.97-2.55c-6.32-16.67-12.65-33.35-18.98-50.02c6.38-2.33,12.76-4.62,19.08-6.89c5.93,19.18,13.32,38.11,20.48,56.42
		c3.6,9.22,7.33,18.76,10.84,28.27c15.19,41.12,30.98,82.68,46.25,122.87l0.16,0.42c11.98,31.53,24.37,64.14,36.37,96.27
		c19.07,51.06,38.82,102.83,57.94,152.96l1.59,4.18c4.69,12.3,9.39,24.6,14.07,36.9l8.05,21.13
		c16.18,42.49,32.91,86.42,49.54,129.56c8.38,21.73,16.72,43.92,24.78,65.37l3.08,8.2c1.74,4.62,3.69,8.65,5.94,12.29
		c-6.13,3.77-12.56,5.52-19.82,6.52C1211.47,1623.67,1210.39,1621.19,1209.53,1619.21z M1282.32,1593.73
		c-1.03-1.33-2-2.58-2.45-3.81c-13.14-36.31-26.95-72.84-40.3-108.17l-8.47-22.44c-6.84-18.14-13.71-36.27-20.58-54.41
		c-8.59-22.67-17.47-46.1-26.22-69.37c-10.08-26.8-20.26-54.07-30.11-80.44l-2.14-5.73c-5.23-14.02-10.47-28.03-15.71-42.04
		c-7.51-20.07-15.23-40.45-22.69-60.15l-0.24-0.64c-10.56-27.88-21.47-56.72-31.99-85.15c-14.3-38.65-29.39-77.74-43.99-115.55
		l-1.5-3.89c-3.38-8.76-6.64-17.77-9.79-26.47c-5.99-16.55-12.2-33.65-19.59-50.08c7.16-2.61,14.36-5.24,21.62-7.9
		c7.67,22.63,16.31,45.26,24.68,67.16l0.04,0.1c3.81,9.98,7.76,20.29,11.61,30.62c5.83,15.63,11.64,31.26,17.46,46.9l0.84,2.26
		c14.39,38.7,29.27,78.73,44.21,118.1c28.84,76.01,57.72,153.47,85.66,228.44l2.53,6.78c11.71,31.4,23.69,62.87,35.28,93.3
		c16.84,44.22,34.25,89.94,50.73,135.21c0.78,2.13,1.03,4.19,1.3,6.38c0.04,0.34,0.09,0.69,0.13,1.03c-3.04,0.69-5.8,1.93-8.5,3.16
		c-2.8,1.28-5.46,2.5-8.23,2.93C1285.15,1597.36,1283.6,1595.37,1282.32,1593.73z M1308.92,1591.99l-0.01-0.1
		c-0.3-2.44-0.61-4.96-1.64-7.79c-16.46-45.21-33.86-90.92-50.7-135.12l-0.07-0.18c-11.61-30.49-23.62-62.02-35.26-93.26l-2.53-6.78
		c-27.87-74.77-56.69-152.08-85.68-228.47c-14.94-39.38-29.81-79.38-44.19-118.06c-6.09-16.39-12.19-32.78-18.3-49.16
		c-3.77-10.1-7.68-20.34-11.47-30.24l-0.16-0.42c-8.38-21.91-17.03-44.56-24.69-67.16l16.1-5.88c0.54,1.31,1.28,2.36,1.9,3.25
		c0.59,0.83,1.05,1.49,1.31,2.24c4.27,12.11,8.93,24.29,13.44,36.08c2.47,6.44,5.02,13.1,7.52,19.81
		c10.2,27.33,20.38,54.66,30.55,82c9.89,26.56,19.77,53.12,29.69,79.67c10.36,27.76,20.75,55.5,31.14,83.25
		c11.18,29.86,22.36,59.72,33.51,89.59c4.57,12.24,9.11,24.49,13.66,36.74l0.17,0.47c9.03,24.34,18.37,49.52,27.75,74.19
		c7.49,19.72,15.02,39.82,22.3,59.26l0.69,1.85c11.25,30.05,22.87,61.13,34.74,91.76c3.19,8.24,6.26,16.7,9.22,24.89l0.07,0.18
		c5.97,16.51,12.15,33.58,19.75,49.86c0.21,0.45,0.52,0.83,0.89,1.13c-0.32,0.09-0.63,0.22-0.91,0.42
		c-6.36,4.39-12.48,6.72-18.65,7.1C1309.02,1592.73,1308.97,1592.36,1308.92,1591.99z M1356.33,1563.41
		c-0.25-0.53-0.49-1.04-0.69-1.52c-13.56-32.04-25.66-65.29-37.37-97.49c-4.75-13.07-10.14-27.89-15.44-42.03
		c-9.89-26.42-20.02-54-28.96-78.34l-0.46-1.25c-9.59-26.1-19.5-53.08-29.42-79.54c-6.92-18.46-13.82-36.93-20.72-55.41
		c-15.2-40.71-30.92-82.8-46.75-124.34c-10.82-28.38-21.57-57.35-31.96-85.36l-0.18-0.49c-5.65-15.23-11.3-30.46-16.99-45.68
		c-9.68-25.9-19.39-51.78-29.11-77.67l-14.15-37.72c1.28-0.48,2.57-0.96,3.85-1.43c4.32-1.6,8.7-3.23,13.08-4.9
		c7.48,16.45,13.68,33.74,19.68,50.48c3.39,9.48,6.9,19.29,10.65,28.94c13.98,36.01,27.63,72.86,40.83,108.49l0.67,1.81
		c5.99,16.15,12.17,32.85,18.32,49.26c8.93,23.87,17.81,47.95,26.39,71.23c6.82,18.5,13.87,37.63,21,56.78
		c20.1,54,40.21,107.71,59.66,159.66c16.87,45.08,32.37,86.95,47.37,128c2.06,5.64,4.11,11.4,6.1,16.96l0.37,1.03
		c7.39,20.77,15.04,42.24,24.72,62.62c0.28,0.6,0.75,1.08,1.31,1.4c-0.16,0.09-0.31,0.19-0.45,0.31c-5.36,4.47-12,5.71-19.06,7.03
		c-0.03,0.01-0.07,0.01-0.1,0.02C1359.44,1570.05,1357.58,1566.07,1356.33,1563.41z M1540.3,1473.81
		c-2.13-6.36-4.54-12.7-6.87-18.82l-0.06-0.15c-1.52-3.98-3.08-8.09-4.57-12.21c-2.29-6.33-229.83-631.2-250.64-683.26
		c2.94-1.25,5.87-2.5,8.77-3.75l0.13-0.06c2.6-1.12,5.24-2.24,7.89-3.37c15.77,42,31.14,84.87,46.01,126.35l9.11,25.4
		c12.37,34.43,25.23,69.11,37.67,102.64c13.26,35.75,26.97,72.71,40.06,109.33c14.72,41.17,30.82,85.66,49.21,136
		c22.54,61.72,45.91,126.37,66.52,183.42l2.62,7.24c1.29,3.57,2.5,7.2,3.68,10.74c3.33,10,6.78,20.33,12.19,29.88
		c0.25,0.44,0.59,0.8,0.99,1.07c-4.21,2.32-8.52,4.54-12.91,6.38c-2.14,0.89-4.36,1.69-6.57,2.46
		C1543.61,1486.8,1542.58,1480.64,1540.3,1473.81z M1568.04,1481.45c-0.03-0.49-0.15-0.98-0.4-1.42
		c-5.1-9.01-8.44-19.04-11.69-28.78c-1.19-3.57-2.42-7.26-3.72-10.86l-2.62-7.24c-21.65-59.91-44.03-121.86-66.53-183.44
		c-18.3-50.1-34.39-94.57-49.2-135.97c-13.08-36.59-26.81-73.6-40.08-109.4c-12.44-33.54-25.31-68.23-37.64-102.58l-9.12-25.43
		c-14.91-41.59-30.32-84.57-46.13-126.67c3.67-1.55,7.35-3.09,11.02-4.59c0.47,0.76,0.85,1.69,1.25,2.8l7.91,21.95
		c14.49,40.22,29.47,81.81,44.49,123.02c12.51,34.35,25.49,70.32,36.93,102.06c10.51,29.15,21.37,59.29,32.41,89.65
		c8.01,22.04,16.01,44.09,24,66.14l2.4,6.61c14.48,39.92,30.88,85.17,46.96,129.17c4.35,11.91,8.95,24.31,12.64,34.27
		c9.89,26.71,20.11,54.33,29.52,81.7c2.87,8.34,6,16.57,9.04,24.54c6.15,16.16,12.5,32.86,16.5,49.97c-2.06,1.14-4.09,2.3-6.11,3.46
		C1569.25,1480.77,1568.64,1481.11,1568.04,1481.45z M1565.47,1424.61c-3.02-7.93-6.14-16.13-8.93-24.26
		c-9.42-27.4-19.65-55.02-29.53-81.73l-0.68-1.83c-3.94-10.66-8.02-21.67-11.98-32.53c-15.66-42.83-31.47-86.44-46.76-128.6
		l-0.2-0.54c-8.79-24.26-17.59-48.51-26.4-72.76c-10.51-28.91-21.12-58.34-31.38-86.8l-1.02-2.84
		c-12.07-33.46-24.54-68.07-36.94-102.08c-14.95-41.03-29.96-82.7-44.48-123l-7.91-21.95c-0.24-0.67-0.51-1.37-0.82-2.07
		c6.49-4.22,13.66-7.4,20.77-10.35c7.75,18.15,14.41,37.1,20.88,55.51c2.48,7.07,5.05,14.38,7.65,21.57
		c29.17,80.55,57.67,159.76,89.23,247.52c7.08,19.67,14.16,39.58,20.41,57.14l0.52,1.46c7.74,21.74,15.75,44.21,23.71,66.28
		c21.53,59.65,43.31,119.61,64.38,177.61l9.2,25.34c5.91,16.29,11.99,32.82,17.87,48.8l6.66,18.1c0.27,0.75,0.46,1.72,0.63,2.65
		c0.48,2.49,1.2,6.16,4.39,8.13c-1.49,1.66-2.58,2.44-2.85,2.53c-7.14,1.77-13.73,4.63-20.04,7.88
		C1577.75,1456.89,1571.53,1440.53,1565.47,1424.61z M1530.27,1087.19l0.46,1.3c10.55,29.58,22.5,63.1,34.25,95.46
		c15.76,43.41,31.39,87.7,46.53,130.57l0.04,0.12c12.22,34.61,24.86,70.4,37.49,105.53c0.35,0.97,0.62,2.16,0.91,3.45
		c0.49,2.17,1.1,4.84,2.44,7.24c-1,1.45-2.7,2.05-4.86,2.72L1387.87,711.8c2.14-0.9,4.3-1.76,6.48-2.57
		c0.56,0.69,1.05,1.34,1.24,1.87c34.04,96.6,68.07,191,105.84,295.55C1511.11,1033.46,1520.85,1060.77,1530.27,1087.19z
		 M1471.1,767.5c4.1,11.79,8.35,23.98,12.67,36.13c16.52,46.35,33.39,93.45,49.72,138.99l0.5,1.4
		c13.5,37.68,27.47,76.64,41.15,114.98c16.07,45.03,32.24,90.67,47.87,134.8l13.47,38.02c14.68,41.41,29.34,82.83,44,124.25
		l19.09,53.94c-0.14-0.12-0.29-0.23-0.46-0.32c-6.52-3.74-11.05,0.03-14.04,2.52c-0.16,0.13-0.32,0.27-0.48,0.4l-256.76-719.09
		c2.36-1.07,4.72-2.12,7.06-3.17c2.36-1.06,4.73-2.12,7.11-3.2C1452.36,713.71,1461.89,741.05,1471.1,767.5z M1692.15,1415.03
		c-0.21,0.12-0.41,0.25-0.62,0.37C1691.75,1415.25,1691.96,1415.13,1692.15,1415.03z M1686.57,1353.91
		c-14.66-41.42-29.32-82.83-44-124.25l-13.58-38.34c-15.62-44.09-31.77-89.69-47.76-134.49c-14.25-39.92-29.17-81.54-41.15-114.98
		l-0.58-1.62c-16.29-45.47-33.15-92.49-49.63-138.76c-4.26-11.96-8.51-24.16-12.62-35.96l-0.04-0.12
		c-9.26-26.6-18.83-54.08-29.29-80.91c3.92-1.8,7.84-3.63,11.76-5.52l35.03,99.1c30.2,85.46,55.38,156.71,81.61,230.76
		c41.59,117.46,83.37,235.17,123.78,349.01c1.3,3.66,2.7,7.28,4.09,10.85c2,5.18,4.08,10.53,5.76,15.86
		c1.46,4.63,3.1,9.8,7.46,13.66c-3.98,2.84-8.02,5.7-12.12,8.5L1686.57,1353.91z M1737.31,1381.32
		c-4.88-13.69-9.79-27.37-14.71-41.05l-0.83-2.32c-6.97-19.41-14.18-39.47-21.18-59.24c-9.38-26.52-18.74-53.16-27.78-78.92
		c-9.5-27.08-19.33-55.07-29.13-82.74c-31.29-88.37-62.79-176.96-93.24-262.63l-3.75-10.56c-14.67-41.27-29.37-82.52-44.08-123.77
		l-19.17-53.8c4.45-2.55,9.07-4.75,14.14-4.34c0.19,1.71,0.64,3.63,1.43,5.81c14.05,39.05,27.85,78.88,41.18,117.39l0.11,0.3
		c7.76,22.41,15.79,45.59,23.78,68.35c9.79,27.91,19.79,55.85,29.46,82.87c6.75,18.87,14.41,40.26,21.76,61.01
		c9.3,26.27,18.79,53.32,27.17,77.19l0.88,2.5c7.38,21.01,14.75,42.03,22.17,63.02c11.6,32.84,23.16,65.45,35.99,101.6
		c8.82,24.86,17.63,49.72,26.43,74.58c6.26,17.69,11.71,33.36,16.68,47.92c1.66,4.87,3.61,8.32,6.32,11.18
		c-2.13,1.54-4.24,2.99-6.43,4.28c-2.19,1.29-4.35,2.64-6.49,4.01C1737.83,1383.09,1737.62,1382.21,1737.31,1381.32z
		 M1755.61,1371.24c-2.05-2.16-3.56-4.89-4.91-8.84c-5.07-14.86-10.53-30.56-16.7-48c-8.35-23.59-16.71-47.17-25.08-70.76
		l-1.36-3.83c-12.01-33.86-24.02-67.72-35.98-101.6c-7.37-20.85-14.81-42.06-22.01-62.58l-1.03-2.93
		c-10.03-28.59-18.4-52.42-27.18-77.2c-6.99-19.74-14.17-39.79-21.1-59.18l-0.66-1.86c-9.71-27.12-19.75-55.17-29.45-82.82
		c-8.09-23.07-16.11-46.23-23.87-68.63l-0.03-0.1c-13.34-38.52-27.14-78.35-41.17-117.37c-2.71-7.52-0.87-8.81,5.37-11.77
		c0.09-0.04,0.18-0.09,0.27-0.13c8.81,21.23,16.4,43.36,23.74,64.77l2.48,7.23c26.71,77.76,54.61,156.55,81.61,232.82
		c16.11,45.49,32.76,92.52,49.22,139.5c21.89,62.49,44.37,125.85,66.11,187.12c9.7,27.34,19.4,54.68,29.08,82.03
		c-2.37,1.51-4.65,3.13-6.88,4.76C1755.95,1371.66,1755.8,1371.44,1755.61,1371.24z M1782.04,1305.93
		c-10.82-30.62-21.63-61.24-32.41-91.88c-22.58-64.18-45.54-129.6-65.79-187.32l-37.07-105.67
		c-19.98-56.96-39.95-113.91-59.96-170.86c-3.78-10.76-7.54-21.64-11.17-32.16c-9.37-27.14-19.06-55.19-29.57-82.5
		c2.28-1.27,4.55-2.55,6.77-3.83c4.59,8.33,7.49,17.54,10.29,26.46l0.05,0.17c1.31,4.15,2.66,8.44,4.17,12.62
		c18.2,50.37,36.03,101.42,53.27,150.79l0.11,0.3c9.78,28,19.89,56.95,29.93,85.38c17.61,49.84,34.75,99.27,55.07,158.16
		c20.89,60.54,42.44,121.71,63.27,180.88c8.62,24.47,17.23,48.93,25.82,73.41c0.36,1.03,0.69,2.07,1.02,3.12l0.05,0.16
		c1.5,4.75,3.05,9.65,7.04,13.41c-0.92,1.09-1.88,2.05-2.84,2.99c-0.74,0.73-1.36,1.35-1.96,2c-0.79,0.87-1.72,1.59-2.73,2.22
		L1782.04,1305.93z M1807.95,1293.39c-8.44-24.37-17.17-49.57-26-74.86c-12.02-34.44-24.08-68.87-36.13-103.3l-1.97-5.61
		c-8.11-23.17-16.23-46.34-24.33-69.51c-10.46-29.9-20.91-59.81-31.36-89.71l-2.37-6.78c-22.74-65.08-46.26-132.38-70-200.09
		c-4.17-11.89-8.32-24.02-12.33-35.74l-0.24-0.71c-9.67-28.27-19.68-57.49-30.74-85.84c1.86-1.03,3.71-2.07,5.54-3.13
		c5.35,15.16,10.71,30.31,16.07,45.46c11.44,32.32,24.41,68.96,36.78,104.39c25.14,71.98,50.83,145.8,73.5,210.92
		c13.04,37.48,26.09,74.95,39.15,112.43c26.91,77.23,51.2,146.9,75.96,217.39c0.1,0.3,0.18,0.62,0.27,0.95l0.03,0.11
		c0.48,1.89,1.28,5.06,4.74,6.48c0.1,0.04,0.21,0.06,0.31,0.09c-1.02,3.85-3.19,6.23-6.09,8.2L1807.95,1293.39z M1826.97,1310.26
		c-0.33-0.13-0.52-0.47-0.93-2.09c-0.16-0.62-0.29-1.13-0.46-1.62c-25.25-71.89-50.33-143.85-75.95-217.38
		c-11.82-33.92-23.63-67.85-35.44-101.77l-3.71-10.65c-22.62-64.99-48.26-138.65-73.5-210.93c-12.12-34.7-24.59-69.93-36.65-104
		l-0.15-0.41c-5.5-15.54-11-31.08-16.48-46.62c2.15-1.28,4.29-2.57,6.42-3.88c10.51,28.85,20.67,58.34,30.49,86.89l0.08,0.22
		c4.18,12.15,8.36,24.3,12.58,36.43c17.69,50.89,35.9,102.55,53.52,152.52l0.13,0.36c20.08,56.95,40.84,115.85,60.94,173.92
		c5.37,15.51,10.73,31.03,16.09,46.55l0.07,0.22c22.64,65.52,46.04,133.27,69.83,199.65c0.09,0.26,0.22,0.49,0.37,0.71l-0.21,0.15
		c-0.57,0.4-1.43,0.75-2.35,1.11c-1.05,0.42-2.27,0.91-3.39,1.64C1827.95,1310.84,1827.51,1310.48,1826.97,1310.26z
		 M1845.39,1288.53c-5.86-13.1-10.4-27.01-14.79-40.47c-1.87-5.72-3.98-12.21-6.15-18.42c-24.67-70.56-49.61-142.37-73.72-211.82
		l-2.65-7.63c-14.35-41.32-28.69-82.63-43.07-123.94c-21.49-61.73-43.31-124.12-64.41-184.46l-24.78-70.89
		c-2.51-7.18-5.05-14.35-7.65-21.67l-2.68-7.57c1.36-0.93,2.77-1.82,4.22-2.7c6.46,15.93,12.02,32.47,17.41,48.5l0.17,0.51
		c2.28,6.8,4.64,13.82,7.05,20.71c15.43,44.24,31.04,88.65,46.13,131.59l0.12,0.34c25.13,71.48,51.11,145.39,76.15,218.26
		c16.51,48.05,33.39,96.64,49.71,143.64c13.9,40.01,29.62,85.28,44.61,128.79c-1.12,0.74-2.34,1.4-3.64,1.97
		C1846.86,1291.85,1846.18,1290.29,1845.39,1288.53z M1812.9,1161.4l-0.35-1.01c-15.49-44.58-33.04-95.12-49.71-143.61
		c-25.02-72.83-50.99-146.69-76.1-218.13l-0.18-0.52c-15.11-42.99-30.74-87.45-46.13-131.57c-2.49-7.14-4.88-14.27-7.19-21.15
		c-5.52-16.42-11.22-33.38-17.93-49.81c0.97-0.59,1.94-1.21,2.9-1.85c7.4,21.32,14.79,42.65,22.18,63.97l2.62,7.57
		c18.62,53.78,37.87,109.39,57.1,163.98c19.12,54.26,38.16,109.46,56.61,162.91c25.63,74.29,52.14,151.12,79.16,226.35
		c4.13,11.5,8.04,23.34,11.82,34.79l0.03,0.1c1.78,5.39,3.99,12.1,6.16,18.51l0.1,0.3c1.14,3.37,2.42,7.16,6.02,9.76
		c-1.15,1.68-2.36,3.27-3.69,4.74C1841.9,1244.88,1827.17,1202.46,1812.9,1161.4z M1863.47,1276.5c-1.7-1.42-2.45-3.63-3.36-6.34
		l-0.1-0.3c-1.97-5.82-3.93-11.76-5.82-17.5l-0.32-0.96c-3.8-11.52-7.74-23.44-11.9-35.05c-27.03-75.26-53.53-152.07-79.16-226.35
		c-18.38-53.25-37.38-108.32-56.59-162.88c-19.24-54.6-38.49-110.21-57.1-163.98l-1.36-3.94c-8.02-23.16-16.04-46.32-24.08-69.48
		c0.98-0.82,1.96-1.68,2.92-2.62l238.18,687.27c-0.08,0.14-0.17,0.29-0.26,0.43C1864.15,1275.36,1863.81,1275.93,1863.47,1276.5z
		 M1632.24,583.72c0.26-0.24,0.5-0.49,0.7-0.73c0.18,0.41,0.37,0.83,0.56,1.24c1.43,3.17,2.9,6.45,4.05,9.78
		c9.94,28.83,19.83,57.67,29.73,86.5l0.22,0.65c13.86,40.4,29.58,86.2,44.84,130.26c19.49,56.24,39.2,112.9,58.26,167.69
		c22.15,63.67,45.05,129.5,67.63,194.74c2.99,8.65,5.95,17.47,8.81,26.01l0.15,0.43c6.94,20.73,14.13,42.17,22.4,62.88
		c0.28,0.71,0.79,1.26,1.43,1.61c-0.12,0.16-0.25,0.32-0.37,0.47c-0.51,0.68-1,1.38-1.49,2.09L1632.24,583.72z M860.48,918.05
		c5.38-2.77,11.03-5.07,16.75-7.13c6.86,18.1,13.7,36.2,20.54,54.3l0.33,0.88c15.39,40.72,31.3,82.83,47.14,124.16
		c10.85,28.29,22.03,57,32.87,84.85c10.8,27.73,21.97,56.4,32.81,84.68c9.6,25.04,19.18,50.59,28.45,75.29l0.04,0.11
		c8.1,21.6,17.29,46.08,26.24,69.52c13.79,36.08,27.53,71.81,40.83,106.36c13.26,34.47,28.29,73.54,42.65,111.13
		c0.71,1.87,1.56,3.67,2.39,5.4c2.22,4.69,4.32,9.14,3.37,14.05c-1.94,0.45-3.75,1.25-5.52,2.05c-3.35,1.51-6.01,2.7-8.96,1.22
		c-15.15-32.55-27.84-66.79-40.11-99.92l-0.19-0.52c-2.97-8.03-5.95-16.05-8.96-24.05c-18.35-48.82-37.27-98.35-55.57-146.26
		l-0.17-0.43c-8.53-22.34-17.06-44.68-25.57-67.03c-29.29-76.94-58.86-153.29-86.46-224.34c-18.55-47.75-38.21-99.18-60.11-157.23
		c-0.9-2.39-2.04-4.83-3.64-6.8C859.93,918.28,860.21,918.19,860.48,918.05z M428.78,1030.85c0.88,0.19,1.27,0.42,1.41,0.51
		c5.45,13.52,10.93,26.91,16.23,39.87l0.19,0.46c5.19,12.68,10.56,25.79,15.77,38.72c19.1,47.38,38.47,95.56,57.21,142.16
		l48.99,121.85c18.44,45.89,37.52,93.34,56.64,140.74c18.03,44.69,36.21,89.51,53.79,132.86l17.57,43.32
		c0.27,0.67,0.62,1.3,0.99,1.93c0.18,0.31,0.32,0.57,0.42,0.78c-10.2-5.59-17.81-15.01-23.11-28.58
		c-15.32-39.24-31.5-78.87-47.15-117.2l-0.12-0.29c-5.86-14.35-11.72-28.7-17.55-43.06c-28.11-69.25-56.28-139.52-82.53-205.14
		c-9.12-22.8-18.47-45.94-27.51-68.33l-0.09-0.22c-12-29.71-24.41-60.42-36.43-90.71c-10.02-25.23-20.47-50.79-30.58-75.52
		l-0.05-0.12c-3.71-9.07-7.42-18.15-11.12-27.22c-0.88-2.16-1.99-3.96-3.41-5.51C421.65,1030.77,426.03,1030.26,428.78,1030.85z
		 M1337.09,408.45l-0.92,0.41c2.17,6.67,4.42,13.57,6.99,20.24c2.42,6.29,4.7,12.81,6.9,19.13c10.48,30.03,21.31,61.08,52.19,80.91
		c13.39,8.6,26.3,11.08,40.62,7.78c14.28-3.28,28.73-6.89,42.79-10.4c33.52-8.37,68.19-17.03,103.02-21.77
		c2.16-0.29,4.32-0.61,6.48-0.92l0.18-0.03c12.84-1.87,26.12-3.8,39.13-1.36c7.33,1.37,8.64,3.7,8.52,7.77
		c-0.1,0.09-0.21,0.18-0.3,0.28l-8.72,9.81c-39.22,30.73-88.38,56.98-121.97,74.07c-48.41,24.62-99.05,48.28-154.82,72.33
		c-87.45,37.71-161.06,67.92-231.67,95.07c-88.83,34.16-187.83,70.2-265.39,96.62c-0.55,0-1.1,0.12-1.59,0.39
		c-5.77,3.21-12.25,4.05-19.11,4.95l-0.27,0.04c-0.95,0.12-1.91,0.25-2.87,0.38c-11.2,1.55-20.45,2.25-28.96-3.92
		c-2-1.45-4.05-3-5.85-4.37c-4.01-3.04-8.15-6.18-12.38-8.8c-21.57-13.36-36.05-32.75-45.58-61.03c-0.01-0.02-0.01-0.04-0.02-0.06
		c4.19-1.77,8.39-3.55,12.58-5.32l1.87-0.79c11.2-4.75,22.79-9.66,34.3-14.45c61.55-25.64,124.84-49.94,186.04-73.44l5.72-2.2
		c28.79-11.06,62.46-22.51,95.11-33.61c17.17-5.84,33.38-11.35,48.58-16.7c0.04-0.02,0.08-0.04,0.13-0.06
		c0.04-0.02,0.08-0.02,0.12-0.04c18.87-8.45,31.04-19.23,38.27-33.9c4.2-8.51,5.83-17.71,7.41-26.6c0.54-3.05,1.15-6.51,1.87-9.77
		c0.04-0.16,0.04-0.32,0.06-0.48c0.21-0.18,0.4-0.38,0.57-0.61c0.49-0.71,0.67-1.57,0.51-2.42c-3.91-21.12-11.72-41.16-19.27-60.55
		c-3.41-8.76-6.94-17.82-10.04-26.82c-0.82-2.39-1.57-4.92-2.29-7.39c-2.15-7.33-4.37-14.89-9.36-21.44
		c7.4-3.32,14.8-6.65,22.22-9.97c39.95-17.91,82.88-37.67,135.09-62.21c6.39-3,10.68-2.25,15.33,2.69
		c3.63,3.85,7.55,8.45,9.04,13.33c4.06,13.36,9.07,26.57,13.92,39.35c7.79,20.54,15.84,41.78,20.02,63.87
		c4.86,25.7,7.96,48.82-3.42,71.62c-0.39,0.77-0.45,1.65-0.17,2.47c0.27,0.82,0.85,1.48,1.62,1.86c0.77,0.39,1.64,0.45,2.46,0.18
		c0.82-0.27,1.49-0.85,1.87-1.62c12.28-24.59,9.07-48.83,3.99-75.7c-4.29-22.65-12.44-44.16-20.33-64.97
		c-4.81-12.68-9.78-25.79-13.77-38.94c-1.88-6.16-6.37-11.49-10.52-15.88c-6.6-7-13.84-8.3-22.78-4.1
		c-52.24,24.54-95.13,44.29-134.98,62.16c-65.65,29.43-130.81,58.98-193.66,87.82c-19.68,9.03-39.72,18.13-59.1,26.94l-0.23,0.1
		c-48.44,22-98.53,44.76-147.26,68.34c-9.97,4.83-20.92,9.62-35.48,15.53c-27.41,11.13-28.44,28.33-21.55,50.72
		c6.05,19.69,13.86,39.05,21.41,57.79c6.22,15.43,12.65,31.38,18.02,47.34c10.03,29.78,25.38,50.26,48.3,64.46
		c3.95,2.45,7.97,5.49,11.88,8.45c1.56,1.18,3.17,2.39,4.79,3.58c-1.83-0.06-3.79-0.58-6.1-1.18l-1.14-0.3
		c-22.66-5.83-40.96-20.37-55.93-44.47c-10.99-17.69-18.18-37.6-25.14-56.87c-2.86-7.92-5.82-16.11-9.01-24.07
		c-1.62-4.05-3.32-8.14-4.97-12.11c-5.62-13.55-11.42-27.57-15.19-41.96l-0.28-1.57c-0.69-3.87-1.46-8.25-2.67-11.9
		c-1.29-7.43-1.33-14.96-0.13-24.39c1.88-14.78,5.78-26.36,17.66-33.78c0.01,0,0.01-0.01,0.02-0.01c1.73-1.08,3.63-2.07,5.72-2.97
		c43.79-18.88,88.05-38.68,130.85-57.84l0.36-0.16c17.26-7.73,34.53-15.45,51.81-23.14c16.55-7.36,33.1-14.71,49.65-22.05l0.27-0.12
		c29.7-13.18,60.4-26.8,90.56-40.3c17.1-7.65,34.43-15.56,51.22-23.22c34.27-15.64,69.7-31.81,104.98-46.61
		c12.82-5.38,25.41-11.68,37.6-17.78c19.23-9.63,39.12-19.58,60.06-25.93c1.39-0.42,2.7-0.93,3.98-1.43
		c2.49-0.97,4.85-1.88,7.45-1.97c10.98-0.38,16.8,6.82,22.76,15.57c9.25,13.57,14.41,29.42,19.41,44.74L1337.09,408.45
		L1337.09,408.45z"/>
</g>
</svg>
