<?xml version="1.0" encoding="utf-8"?>
<!-- Generator: Adobe Illustrator 25.4.1, SVG Export Plug-In . SVG Version: 6.00 Build 0)  -->
<svg version="1.1" id="Calque_1" xmlns="http://www.w3.org/2000/svg" xmlns:xlink="http://www.w3.org/1999/xlink" x="0px" y="0px"
	 viewBox="0 0 2268 2268" style="enable-background:new 0 0 2268 2268;" xml:space="preserve">
<g>
	<path d="M1440.32,1664.61c-0.03,0-0.05,0-0.08,0c-2.06-0.04-3.7-1.75-3.66-3.81l0.79-39.58c0.58-29.13,1.16-58.26,1.69-87.39
		c0.59-32.96,1.13-65.92,1.67-98.88l4.46-265.85c0.45-26.97,0.89-53.94,1.35-80.92c0.41-24.07,0.83-48.13,1.24-72.2
		c0.42-24.07,0.83-48.13,1.24-72.2c0.42-24.9,0.83-49.79,1.25-74.69s0.83-49.79,1.25-74.69c0.28-16.31,0.57-32.63,0.87-48.94
		c0.56-31.28,1.15-63.63,1.59-95.45c0.58-41.18,1.07-82.37,1.56-123.56c0.32-26.45,0.63-52.9,0.97-79.35
		c0.29-22.89,0.69-47.47,1.28-79.69c0.03-1.85,0.47-3.57,0.85-5.09c0.15-0.6,0.3-1.2,0.42-1.8c0.41-2.02,2.37-3.33,4.4-2.93
		c2.02,0.4,3.33,2.37,2.93,4.39c-0.14,0.72-0.32,1.43-0.5,2.15c-0.31,1.24-0.61,2.42-0.62,3.42c-0.59,32.2-0.99,56.77-1.28,79.65
		c-0.34,26.45-0.65,52.89-0.97,79.34c-0.49,41.19-0.98,82.38-1.56,123.57c-0.45,31.83-1.03,64.19-1.59,95.48
		c-0.29,16.31-0.59,32.62-0.86,48.93c-0.42,24.9-0.83,49.79-1.25,74.69s-0.83,49.79-1.25,74.69c-0.41,24.07-0.83,48.13-1.24,72.2
		c-0.42,24.07-0.83,48.13-1.24,72.2c-0.46,26.97-0.9,53.94-1.35,80.91l-4.46,265.85c-0.54,32.96-1.08,65.93-1.67,98.89
		c-0.52,29.13-1.11,58.27-1.69,87.4l-0.79,39.57C1444.01,1662.99,1442.35,1664.61,1440.32,1664.61z"/>
	<path d="M1451.51,1658.39c-1.89,0-3.52-1.44-3.71-3.36c-0.13-1.27-0.3-2.54-0.47-3.81c-0.39-2.93-0.8-5.97-0.72-9.09
		c0.31-12.95,0.7-25.89,1.08-38.84c0.47-15.83,0.96-32.2,1.29-48.29c0.72-34.96,1.31-70.52,1.89-104.9l1.78-105.55
		c0.45-26.53,0.89-53.05,1.35-79.57l1.11-63.49c0.46-26.14,0.92-52.28,1.37-78.42c0.43-24.9,0.84-49.79,1.25-74.69
		c0.41-24.9,0.82-49.79,1.25-74.69c0.45-26.14,0.91-52.29,1.37-78.43l1.11-63.48c0.42-24.48,0.84-48.96,1.25-73.44
		c0.41-24.48,0.83-48.96,1.25-73.45c0.28-16.49,0.58-32.97,0.88-49.46c0.56-30.81,1.11-61.63,1.58-92.45
		c0.65-42.53,1.22-85.07,1.78-127.6l0.73-54.13c0.03-2.04,1.69-3.68,3.73-3.68c0.02,0,0.03,0,0.05,0c2.06,0.03,3.71,1.72,3.68,3.79
		l-0.73,54.13c-0.57,42.54-1.14,85.08-1.78,127.62c-0.47,30.82-1.03,61.65-1.59,92.47c-0.3,16.48-0.6,32.97-0.88,49.45
		c-0.42,24.48-0.83,48.96-1.25,73.44c-0.41,24.48-0.83,48.96-1.25,73.45l-1.11,63.49c-0.46,26.14-0.92,52.28-1.37,78.42
		c-0.43,24.9-0.84,49.79-1.25,74.69c-0.41,24.9-0.82,49.79-1.25,74.69c-0.45,26.14-0.91,52.29-1.37,78.43l-1.11,63.49
		c-0.46,26.52-0.9,53.05-1.35,79.57l-1.78,105.55c-0.57,34.39-1.16,69.96-1.88,104.93c-0.33,16.13-0.82,32.51-1.3,48.36
		c-0.39,12.93-0.77,25.86-1.08,38.79c-0.06,2.53,0.29,5.15,0.66,7.93c0.18,1.35,0.36,2.71,0.5,4.06c0.21,2.05-1.29,3.88-3.34,4.09
		C1451.76,1658.38,1451.64,1658.39,1451.51,1658.39z"/>
	<path d="M1477.94,1654.82c-2.93,0-5.23-0.78-6.98-2.36c-3.15-2.83-3.47-7.25-3.35-11.61c0.97-33.23,1.8-67.42,2.55-104.53
		c0.72-35.58,1.34-71.17,1.96-106.75l0.55-31.41c0.46-25.85,0.9-51.7,1.35-77.55l4.42-251.05c0.57-31.96,1.14-63.92,1.69-95.89
		c0.38-22.08,0.75-44.16,1.13-66.24c0.45-26.88,0.9-53.76,1.38-80.65c0.33-18.63,0.68-37.25,1.03-55.88c0.5-26.6,1-53.2,1.43-79.8
		c0.92-56.44,1.74-113.34,2.5-166.8c0.34-24,0.62-48.01,0.91-72.01l0.35-28.81c0.01-0.55,0-1.11,0-1.66c0-0.7-0.01-1.39,0-2.09
		c0.12-6.8,0.28-13.6,0.44-20.4c0.4-16.95,0.81-34.47,0.5-51.66c-0.13-7.09-2.92-14.58-5.63-21.83l-0.2-0.53
		c-1.59-4.27-5.97-7.89-12.02-9.92c-6.47-2.17-13.39-1.99-17.24,0.45c-26.27,16.68-46.64,29.36-66.04,41.12
		c-4.64,2.81-9.26,5.66-13.88,8.51c-16.1,9.93-32.76,20.2-50.01,28.72c-25.95,12.83-54.36,12.47-81.83,12.15l-4.36-0.05
		c-42.8-0.46-86.33-0.35-128.43-0.24c-15.27,0.04-30.53,0.08-45.8,0.09c-2.69,0-5.38,0.22-8.22,0.45c-0.17,0.01-0.33,0.03-0.5,0.04
		v19.39c0,2.06-1.67,3.73-3.73,3.73c-2.06,0-3.73-1.67-3.73-3.73v-22.85c0-1.97,1.53-3.6,3.49-3.73c1.29-0.08,2.57-0.19,3.86-0.29
		c2.87-0.23,5.83-0.48,8.82-0.48c15.26-0.01,30.53-0.05,45.79-0.09c42.13-0.11,85.68-0.22,128.53,0.24l4.37,0.05
		c26.59,0.32,54.09,0.66,78.43-11.38c16.94-8.37,33.44-18.55,49.4-28.39c4.64-2.86,9.28-5.72,13.93-8.54
		c19.36-11.73,39.68-24.39,65.91-41.04c5.73-3.64,15-4.12,23.62-1.22c8.19,2.75,14.25,7.99,16.63,14.39l0.2,0.53
		c2.92,7.83,5.95,15.94,6.1,24.31c0.31,17.34-0.11,34.94-0.51,51.97c-0.16,6.79-0.32,13.57-0.43,20.36c-0.01,0.64-0.01,1.28,0,1.92
		c0,0.6,0.01,1.2,0,1.79l-0.35,28.81c-0.28,24.01-0.57,48.02-0.91,72.03c-0.76,53.46-1.58,110.37-2.5,166.81
		c-0.43,26.61-0.93,53.22-1.43,79.82c-0.35,18.62-0.7,37.25-1.03,55.87c-0.47,26.88-0.93,53.76-1.38,80.64
		c-0.37,22.08-0.74,44.17-1.13,66.25c-0.55,31.96-1.12,63.93-1.69,95.89l-4.42,251.05c-0.45,25.85-0.89,51.7-1.35,77.55l-0.55,31.41
		c-0.62,35.59-1.24,71.18-1.96,106.77c-0.75,37.14-1.59,71.35-2.56,104.6c-0.12,4.07,0.41,5.42,0.87,5.84
		c0.19,0.17,1,0.68,3.69,0.32c2.03-0.27,3.92,1.15,4.21,3.19c0.28,2.04-1.15,3.93-3.19,4.21
		C1479.7,1654.75,1478.8,1654.82,1477.94,1654.82z"/>
	<path d="M1618.33,2275.45c-0.03,0-0.05,0-0.08,0c-2.06-0.05-3.7-1.85-3.66-4.03l0.39-19.88c0.3-14.89,0.6-29.78,0.84-44.67
		c0.81-49.47,1.59-98.93,2.37-148.4l0.84-52.39c0.62-38.25,1.26-77.8,1.75-116.7c0.25-19.64,0.39-39.29,0.54-58.93
		c0.2-27.32,0.41-55.58,0.9-83.37c0.13-7.43,0.92-14.89,1.69-22.09c0.79-7.46,1.61-15.17,1.66-22.66c0.06-9.65-0.5-19.52-1.03-29.08
		c-0.53-9.45-1.08-19.21-1.05-28.87c0.04-13.51,0.62-27.2,1.18-40.43c0.43-10.09,0.87-20.53,1.06-30.77
		c0.7-36.55,1.25-73.72,1.78-109.67c0.25-17.02,0.5-34.03,0.77-51.05c0.41-25.91,0.83-51.82,1.24-77.73
		c0.42-25.91,0.83-51.82,1.24-77.73c0.42-26.79,0.84-53.59,1.25-80.38c0.41-26.78,0.83-53.56,1.25-80.34
		c0.28-17.65,0.57-35.3,0.86-52.95c0.57-34.17,1.13-68.34,1.6-102.5c0.39-28.18,0.65-56.84,0.91-84.56
		c0.12-12.65,0.24-25.3,0.36-37.95c0.02-2.17,1.69-3.91,3.73-3.91c0.01,0,0.03,0,0.04,0c2.06,0.02,3.72,1.81,3.69,3.99
		c-0.13,12.65-0.25,25.29-0.36,37.94c-0.26,27.73-0.52,56.4-0.91,84.6c-0.47,34.18-1.03,68.35-1.6,102.53
		c-0.29,17.65-0.58,35.29-0.86,52.94c-0.42,26.78-0.83,53.56-1.25,80.34c-0.41,26.79-0.83,53.59-1.25,80.39
		c-0.41,25.91-0.83,51.82-1.24,77.73c-0.42,25.91-0.83,51.82-1.24,77.73c-0.27,17.01-0.52,34.02-0.77,51.04
		c-0.53,35.95-1.08,73.13-1.78,109.7c-0.2,10.34-0.64,20.83-1.07,30.97c-0.56,13.16-1.13,26.76-1.17,40.11
		c-0.03,9.42,0.51,19.06,1.03,28.38c0.54,9.68,1.11,19.69,1.05,29.6c-0.05,7.9-0.89,15.83-1.71,23.49
		c-0.75,7.02-1.52,14.29-1.64,21.35c-0.49,27.75-0.7,55.98-0.9,83.28c-0.15,19.66-0.29,39.32-0.54,58.97
		c-0.49,38.91-1.13,78.47-1.75,116.73l-0.84,52.39c-0.78,49.47-1.55,98.94-2.37,148.41c-0.25,14.9-0.54,29.8-0.84,44.7l-0.39,19.87
		C1622.02,2273.73,1620.35,2275.45,1618.33,2275.45z"/>
	<path d="M1643.22,753.4c-2.06,0-3.73-1.97-3.73-4.39c0-7.32-0.02-14.63-0.05-21.95c-0.05-15.84-0.1-32.23,0.09-48.36
		c0.47-39.64,1.06-79.95,1.64-118.92c0.27-18.42,0.54-36.83,0.8-55.25l2.49-178.55c0.27-18.83,0.54-37.66,0.82-56.49
		c0.58-39.04,1.17-79.41,1.63-119.12c0.41-35.43,0.67-71.46,0.92-106.3c0.11-15.78,0.23-31.57,0.36-47.35
		c0.02-2.41,1.69-4.35,3.73-4.35c0.01,0,0.02,0,0.04,0c2.06,0.02,3.72,2.01,3.7,4.43c-0.13,15.78-0.24,31.56-0.36,47.34
		c-0.26,34.85-0.52,70.89-0.92,106.34c-0.46,39.72-1.05,80.1-1.63,119.15c-0.28,18.83-0.55,37.65-0.82,56.48l-2.49,178.55
		c-0.26,18.42-0.53,36.84-0.8,55.25c-0.57,38.97-1.17,79.26-1.64,118.89c-0.19,16.05-0.14,32.4-0.09,48.2
		c0.02,7.33,0.05,14.66,0.05,21.98C1646.96,751.44,1645.28,753.4,1643.22,753.4z"/>
	<path d="M1414.18,2092.83c-0.33,0-0.66-0.04-0.98-0.13c-1.99-0.54-3.16-2.6-2.62-4.59c0.42-1.52,0.93-3.04,1.45-4.56
		c1-2.92,1.94-5.68,2-8.25c1.06-42.68,1.94-86.64,2.61-130.66c0.54-35.94,1.01-71.88,1.47-107.82c0.35-27.13,0.7-54.26,1.08-81.39
		c0.11-7.94,0.32-15.87,0.53-23.81c0.27-10.14,0.54-20.63,0.6-30.93c0.04-7.35-0.33-14.87-0.69-22.15
		c-0.17-3.35-0.33-6.7-0.46-10.05c-0.08-2.06,1.53-3.8,3.59-3.88c2.09-0.12,3.8,1.53,3.88,3.59c0.13,3.32,0.29,6.64,0.46,9.97
		c0.37,7.38,0.74,15.01,0.7,22.56c-0.06,10.37-0.34,20.9-0.6,31.09c-0.21,7.91-0.42,15.81-0.53,23.72
		c-0.38,27.13-0.73,54.25-1.08,81.38c-0.46,35.95-0.92,71.89-1.47,107.84c-0.67,44.05-1.55,88.03-2.61,130.74
		c-0.09,3.71-1.27,7.15-2.4,10.48c-0.47,1.37-0.94,2.74-1.31,4.11C1417.33,2091.74,1415.82,2092.83,1414.18,2092.83z"/>
	<path d="M1385.5,2095.45c-0.03,0-0.05,0-0.08,0c-2.06-0.04-3.7-1.75-3.66-3.81c0.64-30.84,1.27-69.45,1.83-103.52
		c0.24-14.39,0.47-28.28,0.69-41c0.74-43.01,1.69-99.71,2.48-156.84c0.38-27.46,0.65-55.39,0.91-82.4
		c0.12-12.37,0.24-24.73,0.36-37.09c0.02-2.05,1.69-3.7,3.73-3.7c0.01,0,0.03,0,0.04,0c2.06,0.02,3.72,1.71,3.7,3.77
		c-0.13,12.36-0.25,24.72-0.37,37.08c-0.26,27.02-0.53,54.95-0.9,82.43c-0.79,57.14-1.74,113.84-2.48,156.86
		c-0.22,12.72-0.45,26.61-0.69,40.99c-0.56,34.07-1.2,72.69-1.83,103.55C1389.19,2093.83,1387.52,2095.45,1385.5,2095.45z"/>
	<path d="M957.33,1985.78c-0.2,0-0.41-0.02-0.62-0.05c-2.03-0.34-3.41-2.26-3.07-4.3c0.14-0.85,0.32-1.69,0.5-2.54
		c0.33-1.55,0.64-3.02,0.65-4.34c0.48-99.59,0.91-199.17,1.28-298.76c0.08-19.92,0.05-39.83,0.04-59.75
		c-0.01-9.12-0.02-18.25-0.02-27.37c0-2.06,1.67-3.73,3.73-3.73c2.06,0,3.73,1.67,3.73,3.73c0,9.12,0.01,18.24,0.02,27.36
		c0.02,19.93,0.04,39.86-0.04,59.79c-0.37,99.59-0.8,199.17-1.28,298.76c-0.01,2.08-0.42,4-0.81,5.85
		c-0.16,0.74-0.31,1.48-0.44,2.22C960.7,1984.48,959.12,1985.78,957.33,1985.78z"/>
	<path d="M1045.71,1228.92c-0.24,0-0.49-0.02-0.74-0.07c-2.02-0.4-3.33-2.37-2.93-4.39c0.14-0.72,0.32-1.43,0.5-2.15
		c0.31-1.24,0.6-2.41,0.62-3.41c0.13-7.58,0.3-15.16,0.46-22.74c0.43-19.86,0.88-40.4,0.71-60.57c-0.21-25.52-0.67-51.48-1.11-76.58
		c-0.47-26.72-0.96-54.34-1.15-81.52c-0.18-25.52,0.29-51.44,0.74-76.51c0.15-8.13,0.29-16.27,0.42-24.4
		c0.06-3.92,0.53-47.81,1.17-108.55c1.39-131.35,3.49-329.85,3.78-338.41c0.07-2.06,1.78-3.66,3.86-3.61
		c2.06,0.07,3.68,1.8,3.61,3.86c-0.28,8.47-2.38,206.92-3.77,338.24c-0.64,60.75-1.11,104.65-1.17,108.59
		c-0.13,8.14-0.27,16.28-0.42,24.42c-0.45,25.03-0.92,50.9-0.74,76.32c0.19,27.14,0.68,54.75,1.15,81.45
		c0.44,25.12,0.9,51.09,1.11,76.65c0.17,20.28-0.28,40.87-0.72,60.79c-0.17,7.57-0.33,15.13-0.46,22.7
		c-0.03,1.85-0.46,3.57-0.84,5.09c-0.15,0.6-0.3,1.2-0.42,1.8C1049.01,1227.7,1047.45,1228.92,1045.71,1228.92z"/>
	<path d="M886.21,399.67l-2.96-2.29l-2.81-2.46c6.13-7,7.32-7.55,15.91-7.48c24.32,0.18,48.64,0.37,72.96,0.56
		c29.62,0.23,59.24,0.46,88.87,0.67c22.02,0.15,44.04,0.28,66.06,0.4c41.59,0.24,84.6,0.48,126.9,0.93
		c36.05,0.35,64.73-7.26,90.25-24.02c24.05-15.81,49.28-30.62,73.67-44.94c10.53-6.18,21.42-12.58,32.05-18.96
		c1.77-1.06,4.06-0.49,5.12,1.28c1.06,1.77,0.49,4.06-1.28,5.12c-10.67,6.4-21.57,12.8-32.11,18.99
		c-24.31,14.28-49.45,29.04-73.35,44.74c-26.81,17.62-56.88,25.62-94.43,25.25c-42.29-0.44-85.29-0.69-126.87-0.93
		c-22.02-0.13-44.04-0.25-66.07-0.4c-29.62-0.21-59.25-0.44-88.87-0.67c-24.32-0.19-48.64-0.38-72.95-0.55
		C890.44,394.86,890.43,394.86,886.21,399.67z"/>
	<path d="M1439.08,2110.26c-1.13,0-2.24-0.51-2.98-1.48c-1.25-1.64-0.93-3.98,0.71-5.23c0.59-0.45,1.2-0.88,1.8-1.31
		c1.06-0.75,2.06-1.46,2.9-2.23c1.42-1.29,2.85-2.57,4.29-3.85c13.41-11.97,26.08-23.27,25.83-43.12
		c-0.12-9.66,0.51-19.41,1.12-28.84c0.47-7.33,0.96-14.9,1.09-22.31c0.63-37.41,1.14-75.46,1.62-112.25
		c0.32-23.99,0.63-47.98,0.98-71.97c0.08-5.12,0.31-10.3,0.53-15.3c0.31-6.8,0.62-13.83,0.54-20.69
		c-0.07-5.84-0.77-11.86-1.44-17.69c-0.31-2.72-0.63-5.43-0.89-8.15c-0.19-2.05,1.31-3.88,3.36-4.07c2.01-0.21,3.87,1.31,4.07,3.36
		c0.25,2.66,0.56,5.33,0.87,8c0.7,6.01,1.42,12.23,1.49,18.45c0.09,7.07-0.23,14.21-0.54,21.12c-0.22,4.95-0.45,10.07-0.53,15.08
		c-0.35,23.98-0.67,47.97-0.99,71.96c-0.48,36.8-0.98,74.85-1.62,112.28c-0.13,7.59-0.62,15.25-1.1,22.66
		c-0.6,9.29-1.22,18.9-1.1,28.27c0.29,23.25-14.26,36.23-28.33,48.78c-1.41,1.26-2.83,2.53-4.24,3.8c-1.17,1.07-2.4,1.95-3.6,2.79
		c-0.54,0.39-1.09,0.77-1.62,1.17C1440.66,2110.01,1439.86,2110.26,1439.08,2110.26z"/>
	<path d="M1405.43,1673.81c-3.98,0-8.1-0.55-12.32-1.92c-1.75-0.56-3.47-1.21-5.2-1.85c-3.21-1.2-6.24-2.33-9.3-2.91
		c-38.78-7.37-77.61-14.54-120.71-22.48c-20.62-3.8-41.26-7.54-61.9-11.28l-20.25-3.67c-10.98-1.99-21.96-4-32.93-6.02
		c-26.32-4.82-53.53-9.81-80.33-14.44c-8.01-1.38-16.06-3.17-23.84-4.89c-18.24-4.04-37.11-8.2-56.27-7.31
		c-4.8,0.23-9.3-1.85-13.64-3.86c-1.82-0.84-3.53-1.64-5.21-2.23c-1.94-0.7-2.96-2.83-2.26-4.77c0.69-1.94,2.83-2.96,4.77-2.26
		c1.99,0.71,3.95,1.62,5.84,2.49c3.68,1.71,7.17,3.31,10.14,3.18c20.16-0.97,39.51,3.33,58.24,7.48c7.7,1.7,15.65,3.47,23.49,4.82
		c26.84,4.63,54.07,9.63,80.4,14.45c10.97,2.01,21.94,4.02,32.92,6.02l20.24,3.67c20.65,3.74,41.29,7.48,61.92,11.28
		c43.11,7.95,81.95,15.13,120.75,22.49c3.69,0.7,7.16,2,10.52,3.25c1.62,0.61,3.25,1.21,4.89,1.75c10.2,3.3,19.85,0.82,28.76-2.34
		c10.73-3.81,21.73-7.31,32.38-10.69c4.58-1.45,9.17-2.91,13.74-4.39c1.97-0.64,4.07,0.44,4.7,2.4c0.64,1.96-0.44,4.07-2.4,4.7
		c-4.59,1.49-9.19,2.95-13.78,4.41c-10.59,3.36-21.53,6.84-32.14,10.61C1420.3,1671.75,1413.12,1673.81,1405.43,1673.81z"/>
	<path d="M882.64,398.63c-0.09,0-0.17,0-0.26-0.01c-8.45-0.59-13.18-6.3-17.03-12.38c-0.84-1.32-0.76-3.03,0.19-4.27
		c7.72-10.04,18.49-15.27,28.9-20.33c3.8-1.85,7.74-3.76,11.36-5.84c17.61-10.14,35.79-19.9,53.38-29.34
		c11.87-6.37,24.14-12.95,36.1-19.59c11.01-6.1,22.61-9.08,35.47-9.12c100.42-0.26,200.84-0.57,301.26-0.89l110.35-0.35
		c7.91-0.04,16.09-0.08,24.15,0.07c6.28,0.11,11.06,1.84,14.22,5.14c3.05,3.18,4.52,7.75,4.38,13.58c-0.05,2.06-1.82,3.67-3.83,3.64
		c-2.06-0.05-3.69-1.76-3.64-3.83c0.09-3.82-0.66-6.51-2.3-8.23c-1.73-1.81-4.75-2.76-8.97-2.84c-7.98-0.14-16.11-0.1-23.98-0.07
		l-7.06,0.03l-103.31,0.32c-100.42,0.31-200.84,0.62-301.26,0.88c-11.57,0.03-21.99,2.71-31.86,8.18
		c-12.01,6.66-24.31,13.26-36.2,19.63c-17.54,9.41-35.68,19.14-53.18,29.23c-3.85,2.22-7.9,4.19-11.82,6.09
		c-9.26,4.5-18.05,8.76-24.57,16.13c2.83,4.03,5.58,6.39,9.75,6.68c2.06,0.14,3.61,1.93,3.47,3.98
		C886.22,397.12,884.58,398.63,882.64,398.63z"/>
	<path d="M1190.73,1497.83c-0.92,0-1.83-0.34-2.54-0.99l-256.55-237.78c-0.87-0.81-1.3-1.98-1.17-3.16
		c0.13-1.18,0.81-2.22,1.84-2.82c1.9-1.1,2.82-3.88,3.8-6.82c1.04-3.14,2.22-6.69,5.03-9.02c2.81-2.33,6.52-2.93,11.29-1.81
		c0.84-1.33,1.81-3.13,2.09-4.12c-5.35-11.68,0.68-20.17,5.53-27.01c1.12-1.57,2.17-3.06,3.11-4.57c0.59-0.94,1.56-1.58,2.66-1.73
		c1.09-0.16,2.21,0.19,3.03,0.94c4.07,3.7,8.17,7.41,12.3,11.13c8.96,8.09,18.22,16.46,27.25,24.87
		c17.31,16.14,34.59,32.32,51.87,48.5c21.29,19.94,42.58,39.88,63.95,59.74c32.15,29.88,64.47,59.51,94.62,87.08
		c1.97,1.8,4.38,3.27,6.93,4.83c1.27,0.77,2.53,1.54,3.76,2.36c1.72,1.15,2.18,3.46,1.04,5.18c-1.14,1.71-3.46,2.18-5.18,1.04
		c-1.14-0.76-2.32-1.48-3.5-2.2c-2.75-1.67-5.58-3.4-8.09-5.69c-30.16-27.58-62.5-57.22-94.66-87.12
		c-21.37-19.87-42.67-39.81-63.97-59.76c-17.27-16.18-34.54-32.35-51.85-48.48c-8.99-8.38-18.23-16.72-27.16-24.79
		c-3.05-2.75-6.09-5.5-9.11-8.24c-0.3,0.42-0.59,0.84-0.89,1.25c-5.3,7.46-8.35,12.43-4.59,20.09c2.32,4.75-4.44,12.96-4.51,13.04
		c-1.75,2.01-3.55,1.8-4.48,1.49c-3.3-1.1-5.53-1.18-6.65-0.25c-1.16,0.97-1.91,3.23-2.71,5.63c-0.81,2.46-1.76,5.3-3.54,7.68
		l251.35,232.97l18.05-13.15c1.66-1.21,4-0.85,5.22,0.82c1.21,1.67,0.85,4-0.82,5.22l-20.54,14.96
		C1192.27,1497.59,1191.5,1497.83,1190.73,1497.83z"/>
	<path d="M1044.46,1603.62c-0.03,0-0.05,0-0.08,0c-2.06-0.04-3.7-1.75-3.66-3.81c0.13-6.23,0.29-12.47,0.44-18.7
		c0.34-13.44,0.69-27.34,0.75-40.99l0.07-15.94c0.22-46.91,0.58-125.44-0.39-164.16c-0.05-2.06,1.58-3.78,3.64-3.83
		c2.05-0.04,3.77,1.58,3.83,3.64c0.98,38.84,0.61,117.43,0.4,164.38l-0.07,15.93c-0.06,13.73-0.41,27.67-0.75,41.15
		c-0.16,6.22-0.31,12.45-0.44,18.67C1048.15,1602,1046.49,1603.62,1044.46,1603.62z"/>
	<path d="M1203.8,1485.36c-1.65,0-3.17-1.11-3.61-2.78c-2.22-8.41,2.94-13.52,6.7-17.25c1.72-1.7,3.35-3.31,4.23-5
		c5.78-11.08,14.63-21.76,25.58-30.85c4.26-3.54,7.89-6.65,10.88-10.14l-38.83-35.77c-31.67-29.17-63.15-58.16-94.61-87.18
		c-9.8-9.04-19.59-18.09-29.38-27.15c-27.89-25.79-56.73-52.45-85.35-78.38c-0.09-0.08-0.17-0.16-0.25-0.24
		c-5.12-5.58-19.24,5.38-26.02,10.65c-1.87,1.45-3.48,2.7-4.73,3.53c-1.72,1.14-4.04,0.67-5.18-1.05c-1.14-1.72-0.67-4.04,1.05-5.18
		c1.02-0.68,2.53-1.85,4.28-3.21c9.81-7.61,26.2-20.35,35.98-9.93c28.61,25.92,57.42,52.56,85.29,78.32
		c9.79,9.05,19.58,18.1,29.38,27.14c31.46,29.02,62.94,58.01,94.61,87.18l41.38,38.11c1.39,1.28,1.6,3.4,0.49,4.94
		c-3.84,5.3-8.71,9.52-14.21,14.09c-10.05,8.35-18.48,18.5-23.73,28.57c-1.42,2.72-3.54,4.82-5.6,6.85
		c-3.85,3.8-5.8,5.98-4.73,10.03c0.53,1.99-0.66,4.04-2.66,4.56C1204.43,1485.32,1204.11,1485.36,1203.8,1485.36z"/>
	<path d="M1182.64,304.02c-0.05,0-0.1,0-0.16-0.01c-2.06-0.13-3.66-2.87-3.58-6.12c0.13-4.97,0.29-9.95,0.45-14.93
		c0.33-10.48,0.68-21.32,0.75-31.93c0.28-43.59,0.51-87.17,0.74-130.76c0.19-36.12,0.38-72.24,0.6-108.35
		c0.02-3.62,0.41-7.04,0.79-10.34c0.16-1.38,0.32-2.77,0.44-4.15c0.29-3.21,2.2-5.44,4.22-4.99c2.04,0.46,3.46,3.44,3.17,6.65
		c-0.14,1.52-0.31,3.05-0.48,4.57c-0.34,2.96-0.66,5.75-0.67,8.37c-0.22,36.11-0.41,72.23-0.6,108.34
		c-0.23,43.59-0.46,87.19-0.74,130.78c-0.07,10.84-0.42,21.8-0.76,32.4c-0.16,4.94-0.31,9.88-0.45,14.83
		C1186.29,301.55,1184.63,304.02,1182.64,304.02z"/>
	<path d="M1049.44,406.1c-0.24,0-0.49-0.02-0.74-0.07c-1.38-0.27-2.75-0.62-4.13-0.97c-2.69-0.68-5.22-1.33-7.6-1.34
		c-22.8-0.09-45.59-0.09-68.39-0.11c-23.26-0.01-46.52-0.02-69.78-0.11c-3.54-0.01-6.91-0.79-10.18-1.55
		c-1.39-0.32-2.78-0.64-4.17-0.9c-2.03-0.37-3.37-2.31-3.01-4.34c0.37-2.03,2.32-3.37,4.34-3.01c1.5,0.27,3.01,0.62,4.51,0.97
		c3,0.69,5.83,1.34,8.53,1.36c23.25,0.09,46.51,0.1,69.76,0.11c22.81,0.01,45.61,0.02,68.42,0.11c3.3,0.01,6.41,0.8,9.41,1.57
		c1.25,0.32,2.5,0.64,3.76,0.89c2.02,0.4,3.33,2.37,2.93,4.39C1052.75,404.87,1051.19,406.1,1049.44,406.1z"/>
	<path d="M1488.86,767.09c-2.02,0-3.68-1.61-3.73-3.65c-0.05-2.06,1.59-3.77,3.65-3.82c10.32-0.24,20.64-0.43,30.96-0.61
		c24.52-0.44,49.87-0.89,74.74-2.16c2.58-0.13,5.16-0.23,7.76-0.33c14.58-0.56,29.65-1.14,43.08-7.72c1.86-0.9,4.09-0.14,5,1.71
		c0.91,1.85,0.14,4.09-1.71,5c-14.86,7.28-30.73,7.89-46.08,8.48c-2.56,0.1-5.12,0.2-7.67,0.33c-24.99,1.27-50.4,1.73-74.98,2.17
		c-10.31,0.18-20.61,0.37-30.92,0.61C1488.92,767.09,1488.89,767.09,1488.86,767.09z"/>
	<path d="M1404.27,2131.54c-0.27,0-0.56-0.03-0.84-0.09c-19.65-4.5-276.38-67.17-297.61-72.39c-18.58-4.57-37.43-9.36-55.65-13.99
		c-12.58-3.2-25.16-6.4-37.76-9.55c-0.47-0.12-2.25-0.61-4.72-1.3c-5.77-1.61-21.11-5.89-23.2-6.13c-2.06,0-3.63-1.67-3.63-3.73
		c0-2.06,1.77-3.73,3.84-3.73c1.42,0,5.52,0.96,25,6.39c2.36,0.66,4.07,1.14,4.52,1.25c12.6,3.15,25.19,6.35,37.78,9.55
		c18.21,4.63,37.04,9.41,55.59,13.97c21.23,5.22,277.86,67.87,297.49,72.37c2.01,0.46,3.27,2.46,2.81,4.47
		C1407.51,2130.37,1405.97,2131.54,1404.27,2131.54z"/>
	<path d="M1488.86,829.34c-2.01,0-3.67-1.6-3.73-3.63c-0.06-2.06,1.56-3.78,3.62-3.84c8.49-0.25,16.97-0.45,25.46-0.65
		c19.38-0.46,39.43-0.93,59.08-2.02c20.3-1.12,40.93-3.65,60.87-6.08l1.11-0.13c0.84-0.1,1.76-0.16,2.71-0.21
		c5.7-0.33,6.29-0.95,6.35-3.44c0.3-12.94,0.24-26.13,0.18-38.88c-0.02-5.27-0.05-10.53-0.05-15.8c0-2.06,1.67-3.73,3.73-3.73
		s3.73,1.67,3.73,3.73c0,5.26,0.02,10.51,0.05,15.77c0.06,12.81,0.12,26.05-0.18,39.09c-0.23,9.96-9.11,10.48-13.38,10.73
		c-0.79,0.04-1.55,0.09-2.24,0.17l-1.1,0.13c-20.07,2.45-40.82,4.99-61.37,6.13c-19.77,1.09-39.87,1.57-59.32,2.03
		c-8.48,0.2-16.95,0.4-25.42,0.65C1488.94,829.34,1488.9,829.34,1488.86,829.34z"/>
	<path d="M1452.86,1777.18c-5.28,0-10.39-2.89-14.39-8.14c-12.39-16.25-8.22-52.66,7.96-69.57c5.47-5.71,14.25-8.13,21.37-5.86
		c5.15,1.64,8.53,5.42,9.28,10.37c0.48,3.24,1.42,5.39,2.77,6.38c1.92,1.42,5.34,0.89,8.67,0.4c0.8-0.12,1.59-0.24,2.35-0.33
		c22.71-2.8,48.45-5.97,73.09-11.2c20.75-4.4,42.21-8.95,57.95-24.8c1.45-1.47,3.82-1.47,5.28-0.02c1.46,1.45,1.47,3.82,0.02,5.28
		c-17.31,17.43-39.87,22.21-61.69,26.84c-24.96,5.29-50.87,8.49-73.73,11.3c-0.7,0.09-1.42,0.2-2.15,0.31
		c-1.91,0.29-4.07,0.68-6.18,0.6c3.23,15.36,3.7,35.5-16.74,49.43c-0.2,0.56-0.49,1.29-1.04,2.02
		C1462.24,1774.69,1457.69,1777.18,1452.86,1777.18L1452.86,1777.18z M1462.18,1700.24c-3.42,0-7.42,1.33-10.35,4.4
		c-13.52,14.14-17.54,46.6-7.41,59.88c2.55,3.35,5.55,5.19,8.45,5.19c3.05,0,5.35-2.1,6.77-3.92c0.04-0.09,0.07-0.18,0.1-0.27
		c0.3-0.82,0.8-2.21,2.21-3.14c14.88-9.82,18.87-23.53,13.34-45.83c-0.03-0.11-0.05-0.21-0.07-0.32c-2.94-2.27-4.75-5.92-5.53-11.15
		c-0.39-2.64-2.47-3.83-4.15-4.36C1464.54,1700.4,1463.39,1700.24,1462.18,1700.24z M1459.59,1765.88
		C1459.59,1765.88,1459.59,1765.88,1459.59,1765.88S1459.59,1765.88,1459.59,1765.88z M1459.73,1765.66
		C1459.73,1765.66,1459.73,1765.66,1459.73,1765.66C1459.73,1765.66,1459.73,1765.66,1459.73,1765.66z"/>
	<path d="M914.65,1182c-1.4,0-2.87-0.22-4.4-0.66c-16.46-4.81-34.05-10.12-51.23-16.29c-5.77-2.07-9.96-9.2-11.19-19.07
		c-1-7.99,0.15-18.89,6.68-23.3c3.6-2.43,8.97-1.03,10.53-0.54c12.67,3.97,25.48,8.15,37.88,12.19l11.98,3.9
		c0.11,0.04,0.21,0.07,0.31,0.12c14.04,6,18,16.91,12.12,33.36C924.96,1178.37,920.37,1182,914.65,1182z M859.72,1128.77
		c-0.53,0-0.91,0.06-1.09,0.14c-2.82,1.91-4.3,8.86-3.39,16.14c0.83,6.6,3.42,11.93,6.31,12.97c16.99,6.11,34.46,11.37,50.8,16.15
		c2.77,0.8,5.87,0.85,7.95-4.97c5.56-15.57-0.46-20.72-7.87-23.91l-11.83-3.85c-12.38-4.04-25.17-8.21-37.8-12.17
		C861.63,1128.9,860.52,1128.77,859.72,1128.77z"/>
	<path d="M1483.88,1659.63c-1.86,0-3.48-1.4-3.7-3.29c-0.24-2.05,1.22-3.9,3.27-4.15c7.52-0.89,15.18-1.61,22.6-2.3
		c16.7-1.56,33.97-3.17,50.34-6.9c2.18-0.49,4.37-0.98,6.56-1.47c21.99-4.87,44.73-9.91,61.44-26.84c1.45-1.47,3.81-1.48,5.28-0.03
		c1.47,1.45,1.48,3.81,0.03,5.28c-18.26,18.5-42.09,23.78-65.14,28.89c-2.18,0.48-4.36,0.96-6.52,1.46
		c-16.85,3.83-34.36,5.47-51.3,7.05c-7.37,0.69-14.98,1.4-22.41,2.28C1484.18,1659.63,1484.03,1659.63,1483.88,1659.63z"/>
	<path d="M1155.25,2280.55c-0.01,0-0.03,0-0.04,0c-2.06-0.04-3.72-2.85-3.7-6.29l1.24-201.4c0.02-3.44,1.74-6.13,3.77-6.16
		c2.06,0.04,3.72,2.85,3.7,6.29l-1.24,201.4C1158.96,2277.81,1157.3,2280.55,1155.25,2280.55z"/>
	<path d="M1025.79,1596.15c-0.08,0-0.16,0-0.24-0.01c-2.06-0.13-3.62-1.91-3.49-3.97l1.27-19.64c-21.9,4.63-39.21,10.12-62.09,19.6
		c-1.91,0.79-4.09-0.12-4.88-2.02c-0.79-1.91,0.12-4.09,2.02-4.88c24.69-10.23,43.83-16.12,68.26-21.01
		c1.13-0.23,2.32,0.09,3.19,0.85c0.87,0.77,1.34,1.89,1.27,3.05l-1.59,24.53C1029.39,1594.63,1027.74,1596.15,1025.79,1596.15z"/>
	<path d="M1449.45,362.53c-17.99,0-35.97-0.01-53.96-0.06c-2.56-0.01-5.01-0.4-7.38-0.77c-1.01-0.16-2.02-0.32-3.03-0.45
		c-2.05-0.26-3.5-2.12-3.24-4.17c0.26-2.05,2.16-3.49,4.17-3.24c1.09,0.14,2.19,0.31,3.28,0.48c2.19,0.35,4.25,0.67,6.23,0.68
		c25.17,0.07,50.34,0.06,75.51,0.06l21.58,0c2.06,0,3.73,1.67,3.73,3.73s-1.67,3.73-3.73,3.73l-21.58,0
		C1463.83,362.53,1456.64,362.53,1449.45,362.53z"/>
	<path d="M1481.39,1711.92c-2.06,0-3.73-1.67-3.73-3.73v-54.77c0-2.06,1.67-3.73,3.73-3.73c2.06,0,3.73,1.67,3.73,3.73v54.77
		C1485.13,1710.24,1483.46,1711.92,1481.39,1711.92z"/>
	<path d="M1461.48,1769.18c-1,0-2-0.4-2.73-1.19c-13.34-14.32-9.5-31.74-6.02-40.86c0.37-0.99,0.74-2.27,1.13-3.63
		c1.96-6.9,5.31-18.5,19-17.8c2.06,0.09,3.65,1.84,3.56,3.9c-0.09,2.06-1.87,3.63-3.9,3.56c-7.35-0.3-9.28,4.69-11.48,12.39
		c-0.43,1.52-0.84,2.96-1.33,4.25c-2.86,7.49-6.07,21.75,4.51,33.1c1.41,1.51,1.32,3.87-0.19,5.28
		C1463.3,1768.85,1462.39,1769.18,1461.48,1769.18z"/>
	<path d="M984.71,2028.1c-0.31,0-0.62-0.04-0.93-0.12c-22.35-5.75-26.52-23.57-27.69-41.97c-0.13-2.06,1.43-3.83,3.49-3.97
		c2.08-0.11,3.83,1.43,3.97,3.49c1.18,18.54,5.29,30.89,22.1,35.21c2,0.52,3.2,2.55,2.69,4.55
		C987.89,2026.98,986.38,2028.1,984.71,2028.1z"/>
	<path d="M1405.89,2131.7c-3.17,0-6.18-1.18-8.96-3.53c-9.76-6.96-10.53-16.76-11.2-25.41c-0.28-3.6-0.55-7-1.39-10.17
		c-0.28-1.06-0.08-2.2,0.54-3.1c0.63-0.9,1.62-1.48,2.72-1.58c1.65-0.15,3.23-0.25,4.77-0.34c3.16-0.18,5.88-0.34,8.39-0.99
		l1.33-0.35c4.66-1.25,12.45-3.33,16.32,3.71c2.9,5.27,7.71,8.03,12.82,10.95c0.21,0.12,0.43,0.25,0.64,0.37
		c0.04,0.02,0.09,0.05,0.13,0.08c1.81,1.04,3.66,2.13,5.45,3.36c1.7,1.17,2.13,3.49,0.96,5.19c-1.17,1.7-3.5,2.12-5.19,0.96
		c-0.67-0.46-1.36-0.9-2.06-1.34c-0.27,0.4-0.54,0.81-0.83,1.23c-5.56,8.25-13.17,19.55-22.69,20.83
		C1407.06,2131.66,1406.47,2131.7,1405.89,2131.7z M1392.44,2095.05c0.36,2.39,0.54,4.78,0.73,7.12c0.63,8.07,1.17,15.05,8.2,19.99
		c0.1,0.07,0.2,0.15,0.29,0.23c2.22,1.91,3.91,1.93,4.99,1.79c6.19-0.83,13.26-11.33,17.49-17.61c0.19-0.28,0.38-0.56,0.56-0.84
		c-4.71-2.82-9.58-6.28-12.83-12.2c-0.83-1.51-2.44-1.54-7.84-0.09l-1.41,0.37c-3.21,0.82-6.42,1.01-9.82,1.21
		C1392.68,2095.04,1392.56,2095.04,1392.44,2095.05z"/>
	<path d="M1211.26,1482.87c-0.66,0-1.34-0.18-1.95-0.55c-1.76-1.08-2.31-3.38-1.23-5.14c4.02-6.56,12.56-18.27,20.82-29.59
		c8.17-11.2,16.61-22.77,20.47-29.07c1.08-1.76,3.38-2.31,5.13-1.23c1.76,1.08,2.31,3.38,1.23,5.14
		c-4.02,6.56-12.55,18.26-20.8,29.57c-8.17,11.2-16.62,22.79-20.49,29.1C1213.75,1482.23,1212.52,1482.87,1211.26,1482.87z"/>
	<path d="M1457.74,1754.24c-2.06,0-3.73-1.67-3.73-3.73c0-2.06,1.67-3.74,3.73-3.74c7.97-0.01,8.27-3.27,8.93-10.4
		c0.25-2.66,0.51-5.55,1.42-8.26l-5.79-2.9c-1.85-0.92-2.59-3.17-1.67-5.01c0.92-1.85,3.17-2.59,5.01-1.67l9.09,4.54
		c0.97,0.49,1.68,1.37,1.95,2.43c0.27,1.05,0.06,2.17-0.56,3.06c-1.41,2-1.7,5.16-2.01,8.49
		C1473.47,1743.89,1472.52,1754.22,1457.74,1754.24C1457.75,1754.24,1457.75,1754.24,1457.74,1754.24z"/>
</g>
</svg>
