<?xml version="1.0" encoding="utf-8"?>
<!-- Generator: Adobe Illustrator 25.4.1, SVG Export Plug-In . SVG Version: 6.00 Build 0)  -->
<svg version="1.1" id="Calque_1" xmlns="http://www.w3.org/2000/svg" xmlns:xlink="http://www.w3.org/1999/xlink" x="0px" y="0px"
	 viewBox="0 0 2268 2268" style="enable-background:new 0 0 2268 2268;" xml:space="preserve">
<style type="text/css">
	.st0{fill:none;stroke:#000000;stroke-width:3;stroke-linecap:round;stroke-linejoin:round;stroke-miterlimit:10;}
</style>
<g>
	<path d="M762.28,1256.38c-32.2,0-64.33-0.64-95.74-1.27c-52.45-1.05-104.94-4.58-149.37-7.89c-5.08-0.38-10.3-0.62-15.34-0.85
		c-16.07-0.74-32.69-1.5-48.66-6.82c-0.5-0.17-1.22-0.23-1.98-0.3c-1.34-0.12-2.85-0.26-4.31-1.02c-1.85-0.96-3.35-2.27-4.95-3.65
		c-0.65-0.57-1.34-1.16-2.08-1.75c-1.28-1.02-1.48-2.88-0.47-4.16c7.91-9.92,6.08-20.75,4.14-32.22c-0.72-4.24-1.46-8.62-1.67-12.95
		c-1.12-22.78-3.42-45.93-5.64-68.31c-0.96-9.64-1.95-19.61-2.83-29.42c-1.51-16.74-2.99-33.48-4.48-50.23
		c-1.47-16.53-2.94-33.06-4.42-49.58c-1.28-14.24-2.58-28.47-3.88-42.71c-1.68-18.38-3.36-36.75-4.99-55.13
		c-1.51-16.96-2.98-33.93-4.46-50.9c-1.47-16.96-2.95-33.93-4.46-50.89c-1.45-16.31-2.94-32.61-4.43-48.91
		c-1.49-16.31-2.98-32.61-4.44-48.92c-1.58-17.79-3.13-35.59-4.68-53.39c-1.4-16.13-2.81-32.27-4.24-48.4
		c-1.24-14-2.52-27.99-3.79-41.99c-1.04-11.37-2.07-22.74-3.09-34.11c-0.13-1.44-0.1-2.81-0.07-4.54c0-0.11,0-0.23,0.01-0.35
		c-4.18-2.36-7.1-6.21-8.06-10.66c-0.94-4.35,0.08-8.68,2.87-12.19l0.32-0.41c1.91-2.42,6.39-8.1,12.39-4.09
		c5.87,3.92,13.25,3.79,19.76,3.68c0.8-0.01,1.59-0.03,2.36-0.03c22.03-0.17,44.36,0.66,65.95,1.46c11.46,0.43,23.3,0.87,34.95,1.15
		c29.19,0.71,61.18,1.36,97.81,1.98c21.82,0.37,44.02,0.48,65.49,0.58c8.8,0.04,17.59,0.08,26.39,0.14
		c67.07,0.46,135.28-0.05,201.25-0.54l32.92-0.24c22.82-0.16,46.03-0.77,68.48-1.36c7.13-0.19,14.27-0.38,21.4-0.55
		c57.13-1.4,107.88-2.7,155.14-3.96l4.59-0.12c17.6-0.47,35.79-0.95,53.64-1.9c24.83-1.32,50.07-2.89,74.47-4.42
		c7.78-0.49,15.56-0.97,23.34-1.45c9.32-0.57,18.65-1.09,27.98-1.61c21.92-1.21,44.59-2.47,66.78-4.48
		c5.77-0.52,11.53-1.04,17.3-1.55c37.12-3.32,75.51-6.75,113.01-12.12l4.71-0.67c30.14-4.3,61.3-8.75,90.6-18.94
		c1.03-0.36,2.17-0.12,2.97,0.61c6.82,6.21,9.54,11.62,8.33,16.54c-1.14,4.61-5.71,7.99-13.59,10.05c-2.48,0.65-4.96,1.3-7.44,1.96
		c-12.34,3.28-25.1,6.67-38.22,8.61l-6.54,0.97c-24.73,3.67-50.31,7.46-75.58,10.72c-42.56,5.49-85.96,8.94-127.94,12.28
		l-14.55,1.16c-45.39,3.64-91.18,6.03-130.53,7.99c-34.51,1.71-69.6,2.95-103.55,4.14c-8.32,0.29-16.64,0.58-24.96,0.88
		c-6.28,0.23-12.56,0.46-18.84,0.7c-24.61,0.93-50.06,1.88-75.12,2.16c-39.96,0.44-75.83,1.09-109.65,1.99
		c-18.79,0.5-37.88,0.35-56.35,0.2c-4.97-0.04-9.93-0.08-14.9-0.1c-28.34-0.15-57.16-0.09-85.03-0.02
		c-60.57,0.15-123.22,0.29-184.85-1.82c-24.26-0.83-48.95-1.15-72.84-1.46c-14.66-0.19-29.81-0.39-44.72-0.7
		c-4.88-0.1-9.78-0.52-14.53-0.92c-4.65-0.39-9.45-0.8-14.14-0.9c-3.99-0.08-7.97-0.1-11.98-0.11c-11.43-0.04-23.22-0.07-35.44-1.8
		c-0.03,1.38-0.04,2.5,0.05,3.54c1.02,11.37,2.05,22.73,3.09,34.1c1.28,14,2.55,28,3.79,42c1.43,16.13,2.83,32.27,4.24,48.4
		c1.55,17.79,3.1,35.59,4.68,53.38c1.45,16.31,2.94,32.61,4.43,48.91c1.49,16.31,2.98,32.62,4.44,48.92
		c1.51,16.96,2.99,33.93,4.46,50.9c1.47,16.96,2.95,33.93,4.46,50.89c1.64,18.38,3.31,36.75,4.99,55.12
		c1.3,14.24,2.6,28.47,3.88,42.71c1.49,16.53,2.96,33.06,4.42,49.59c1.49,16.74,2.98,33.48,4.48,50.22
		c0.88,9.79,1.87,19.74,2.82,29.37c2.23,22.46,4.53,45.68,5.66,68.6c0.2,3.98,0.88,8,1.6,12.25c1.94,11.46,3.94,23.28-3.64,34.57
		c0.03,0.02,0.05,0.04,0.08,0.07c1.38,1.2,2.58,2.23,3.81,2.87c0.42,0.22,1.28,0.3,2.11,0.37c1.01,0.09,2.16,0.19,3.32,0.58
		c15.19,5.06,31.39,5.8,47.06,6.52c5.09,0.24,10.35,0.48,15.51,0.86c44.35,3.31,96.73,6.83,149.04,7.87
		c46.54,0.93,94.66,1.89,142.18,0.75l14.88-0.36c49.2-1.17,100.08-2.37,150.01-5.92c10.29-0.73,20.76-1.32,30.88-1.89
		c19.03-1.07,38.71-2.18,57.92-4.28l4.03-0.44c49.6-5.42,100.89-11.02,151.04-18.88c90.97-14.25,159.39-29.84,221.83-50.54
		c37.82-12.54,81.37-29.43,117.64-59.69c1.26-1.05,3.13-0.88,4.17,0.38c1.05,1.26,0.88,3.13-0.38,4.18
		c-37.03,30.89-81.23,48.06-119.57,60.77c-62.76,20.8-131.47,36.46-222.78,50.77c-50.29,7.88-101.65,13.49-151.32,18.92l-4.03,0.44
		c-19.36,2.12-39.12,3.23-58.23,4.3c-10.1,0.57-20.55,1.16-30.8,1.89c-50.07,3.56-101.02,4.77-150.29,5.94l-14.87,0.36
		C793.44,1256.23,777.85,1256.38,762.28,1256.38z M813.26,508.26c12.72,0,25.48,0.02,38.14,0.09c4.97,0.03,9.94,0.07,14.91,0.1
		c18.42,0.15,37.46,0.29,56.14-0.2c33.85-0.9,69.75-1.55,109.74-1.99c24.98-0.28,50.39-1.23,74.96-2.16
		c6.28-0.24,12.57-0.47,18.85-0.7c8.32-0.3,16.64-0.59,24.96-0.88c33.92-1.19,69-2.42,103.46-4.13
		c39.31-1.95,85.03-4.34,130.35-7.98l14.55-1.16c41.91-3.33,85.24-6.78,127.65-12.25c25.21-3.25,50.75-7.04,75.46-10.7l6.54-0.97
		c12.78-1.89,25.38-5.24,37.56-8.48c2.49-0.66,4.97-1.32,7.46-1.97c5.45-1.42,8.77-3.46,9.33-5.73c0.56-2.28-1.31-5.64-5.3-9.55
		c-29.33,9.97-60.17,14.37-90,18.62l-4.71,0.67c-37.65,5.39-76.12,8.83-113.32,12.15c-5.77,0.52-11.53,1.03-17.29,1.55
		c-22.3,2.02-45.02,3.28-66.99,4.5c-9.32,0.52-18.64,1.03-27.95,1.6c-7.78,0.48-15.55,0.96-23.33,1.45
		c-24.42,1.52-49.68,3.1-74.53,4.42c-17.93,0.95-36.16,1.43-53.79,1.9l-4.59,0.12c-47.27,1.27-98.02,2.56-155.16,3.96
		c-7.13,0.17-14.26,0.36-21.39,0.55c-22.47,0.59-45.72,1.21-68.59,1.37l-32.91,0.24c-65.99,0.49-134.22,0.99-201.33,0.54
		c-8.79-0.06-17.58-0.1-26.38-0.14c-21.49-0.1-43.7-0.21-65.56-0.58c-36.64-0.62-68.65-1.27-97.86-1.98
		c-11.68-0.29-23.55-0.73-35.02-1.15c-21.52-0.8-43.77-1.63-65.69-1.46c-0.75,0.01-1.52,0.02-2.31,0.03
		c-7.01,0.12-15.75,0.27-23.16-4.68c-0.97-0.65-1.57-0.8-4.44,2.83l-0.34,0.43c-1.67,2.09-2.28,4.67-1.72,7.25
		c0.56,2.59,2.21,4.87,4.6,6.4c0.37-0.08,0.76-0.1,1.15-0.03c12.96,2.17,25.63,2.21,37.89,2.24c4.04,0.01,8.06,0.03,12.08,0.11
		c4.87,0.1,9.77,0.52,14.51,0.92c4.65,0.4,9.46,0.8,14.15,0.9c14.88,0.31,30.03,0.51,44.67,0.7c23.92,0.31,48.64,0.63,72.96,1.46
		c61.52,2.11,124.1,1.96,184.63,1.82C781.76,508.3,797.49,508.26,813.26,508.26z"/>
	<path d="M1446.25,1183.23c-1.36,0-2.58-0.94-2.89-2.32c-0.36-1.6,0.65-3.18,2.24-3.54c6.49-1.46,13-4.6,19.29-7.64
		c3.56-1.72,7.24-3.5,10.93-4.98c23.28-9.37,53.21-23.04,78.2-45.83c3.4-3.1,4.97-6.62,4.41-9.91c-0.56-3.33-3.23-6.18-7.53-8.03
		c-4.8-2.06-9.9-2.68-15.3-3.34c-4.3-0.52-8.75-1.06-13.1-2.39c-1.57-0.48-2.45-2.14-1.97-3.7c0.48-1.57,2.13-2.45,3.7-1.97
		c3.85,1.18,7.85,1.66,12.08,2.17c5.57,0.68,11.34,1.37,16.92,3.77c6.12,2.63,10.14,7.18,11.03,12.49
		c0.9,5.35-1.32,10.77-6.27,15.28c-25.69,23.43-56.24,37.4-79.99,46.95c-3.5,1.41-7.09,3.14-10.56,4.82
		c-6.6,3.18-13.42,6.48-20.58,8.09C1446.68,1183.21,1446.46,1183.23,1446.25,1183.23z"/>
	<path d="M389.89,482.68c-1.22,0-2.37-0.76-2.8-1.98c-0.54-1.55,0.27-3.24,1.82-3.78c13.17-4.62,26.92-7.45,40.22-10.18
		c5.42-1.11,11.02-2.27,16.48-3.52c36.6-8.4,73.91-16.46,110-24.25c19.33-4.17,38.66-8.35,57.97-12.59
		c4.68-1.03,9.44-2.3,14.05-3.52c11.28-3,22.94-6.1,35-6.2c19.08-0.15,38.47,0.09,57.22,0.33c16.88,0.21,34.34,0.43,51.49,0.36
		c21.08-0.08,42.53-0.62,63.28-1.14c10.19-0.26,20.37-0.51,30.56-0.72c26.68-0.54,48.55-2.11,68.82-4.95
		c39.17-5.49,77.57-4.57,120.1-2.91c27.08,1.05,54.61,2.27,81.22,3.46c18.39,0.82,36.77,1.63,55.16,2.4
		c16.46,0.69,33.2,1.3,49.39,1.89c9.89,0.36,19.77,0.72,29.65,1.1c19.2,0.74,38.41,1.48,57.61,2.23c23.29,0.91,46.58,1.81,69.87,2.7
		l19.59,0.75c28.23,1.08,57.43,2.21,86.14,3.18c13.87,0.47,27.73,0.88,41.6,1.29c27.51,0.81,55.96,1.66,83.93,2.98
		c1.95,0.09,3.95,0.05,6.08,0.01c7.2-0.15,15.34-0.32,22.33,5.29c1.28,1.02,1.48,2.89,0.46,4.17c-1.02,1.27-2.89,1.48-4.17,0.46
		c-5.31-4.26-11.71-4.12-18.5-3.98c-2.13,0.05-4.33,0.09-6.49-0.01c-27.92-1.32-56.34-2.16-83.82-2.98
		c-13.88-0.41-27.76-0.82-41.63-1.29c-28.73-0.98-57.93-2.1-86.16-3.18l-19.59-0.75c-23.29-0.89-46.58-1.8-69.87-2.7
		c-19.2-0.75-38.41-1.49-57.61-2.23c-9.88-0.38-19.76-0.74-29.64-1.1c-16.2-0.59-32.95-1.2-49.43-1.89
		c-18.39-0.77-36.78-1.59-55.18-2.4c-26.61-1.18-54.13-2.4-81.19-3.45c-42.25-1.64-80.36-2.56-119.05,2.86
		c-20.51,2.87-42.6,4.46-69.52,5.01c-10.18,0.21-20.35,0.46-30.53,0.72c-20.77,0.52-42.26,1.06-63.4,1.14
		c-17.19,0.07-34.68-0.15-51.59-0.36c-18.72-0.23-38.08-0.48-57.1-0.33c-11.31,0.09-22.6,3.09-33.52,6
		c-4.67,1.24-9.49,2.53-14.3,3.58c-19.32,4.25-38.65,8.42-57.99,12.6c-36.07,7.79-73.36,15.84-109.92,24.23
		c-5.52,1.27-11.16,2.43-16.61,3.55c-13.11,2.69-26.66,5.48-39.45,9.97C390.54,482.63,390.21,482.68,389.89,482.68z"/>
	<path d="M464,1223.85c-1.52,0-2.81-1.16-2.95-2.7l-2.69-30.42c-2.07-23.46-4.15-46.92-6.2-70.38c-1.08-12.35-2.14-24.71-3.21-37.06
		c-1.23-14.33-2.46-28.65-3.73-42.98c-1.52-17.31-3.07-34.62-4.62-51.93c-1.43-15.96-2.85-31.92-4.26-47.88
		c-1.49-16.85-2.96-33.71-4.42-50.56c-1.49-17.08-2.98-34.15-4.48-51.22c-1.2-13.64-2.42-27.27-3.65-40.9
		c-1.76-19.64-3.52-39.28-5.22-58.92c-1.17-13.5-2.28-27-3.39-40.5c-1.17-14.17-2.33-28.34-3.57-42.51
		c-0.98-11.22-2.03-22.43-3.09-33.64c-2.01-21.37-4.09-43.47-5.58-65.26c-0.36-5.33-0.99-10.78-1.6-16.05
		c-1.31-11.31-2.66-23.01-1.57-34.81c0.15-1.63,1.62-2.83,3.22-2.68c1.63,0.15,2.83,1.59,2.68,3.22
		c-1.03,11.19,0.29,22.58,1.56,33.59c0.62,5.33,1.25,10.85,1.63,16.32c1.48,21.71,3.56,43.77,5.56,65.1
		c1.06,11.22,2.11,22.45,3.09,33.68c1.24,14.17,2.4,28.36,3.57,42.54c1.11,13.49,2.22,26.99,3.39,40.47
		c1.7,19.64,3.46,39.27,5.22,58.9c1.22,13.64,2.44,27.27,3.65,40.91c1.51,17.07,2.99,34.15,4.48,51.23
		c1.47,16.85,2.94,33.71,4.42,50.56c1.41,15.96,2.83,31.92,4.26,47.88c1.55,17.31,3.09,34.62,4.62,51.94
		c1.26,14.33,2.49,28.66,3.73,42.99c1.06,12.35,2.13,24.7,3.2,37.05c2.05,23.46,4.13,46.91,6.2,70.37l2.69,30.43
		c0.14,1.63-1.06,3.07-2.69,3.21C464.18,1223.85,464.09,1223.85,464,1223.85z"/>
	<path d="M1093.5,858.17c-0.48-0.01-0.95-0.02-1.41-0.03c-2.67-0.06-4.97-0.11-7.2,0.1c-37.9,3.61-76.51,5.2-113.85,6.73
		c-7.24,0.3-14.47,0.59-21.71,0.91c-49.21,2.12-97.52,2.72-142.4,3.06c-38.91,0.3-78.46-0.21-116.71-0.7l-16.76-0.21
		c-9.44-0.12-19.02-0.52-28.28-0.91c-9.52-0.4-19.37-0.82-29.03-0.92c-36.84-0.39-74.18-2.54-110.29-4.62
		c-13.02-0.75-26.04-1.5-39.07-2.18c-2.01-0.1-3.89-0.81-5.71-1.5c-4.16-1.56-5.1-1.54-6.3,0.18c-1.62,2.33-1.01,5.15,0.13,9.55
		c0.29,1.11,0.58,2.24,0.83,3.41c5.32,0.27,10.65,0.52,15.98,0.76c13.4,0.62,27.26,1.25,40.91,2.31
		c40.76,3.16,82.32,4.42,122.52,5.63l4.84,0.15c9.6,0.29,19.38,0.36,28.85,0.43c12.26,0.09,24.93,0.17,37.4,0.75
		c28.31,1.3,57.14,1.06,85.02,0.83c11.28-0.09,22.92-0.2,34.43-0.18c4.13-0.05,8.21-0.16,12.23-0.33
		c8.72-0.35,17.73-0.71,26.73,0.57c1.62,0.23,2.75,1.73,2.51,3.35c-0.23,1.62-1.74,2.75-3.35,2.52c-8.46-1.21-17.2-0.85-25.65-0.52
		c-4.05,0.16-8.23,0.33-12.38,0.33c-0.4,0-0.78,0-1.18,0c-11.1,0-22.38,0.09-33.29,0.18c-10.93,0.09-22.02,0.18-33.16,0.18
		c-17.35,0-34.84-0.22-52.18-1.02c-12.36-0.57-24.97-0.66-37.17-0.74c-9.5-0.07-19.32-0.14-28.99-0.43l-4.84-0.15
		c-40.26-1.22-81.89-2.48-122.79-5.65c-13.56-1.05-27.37-1.69-40.72-2.3c-6.14-0.28-12.27-0.56-18.38-0.88
		c-1.43-0.08-2.6-1.16-2.78-2.57c-0.22-1.69-0.68-3.45-1.12-5.15c-1.18-4.57-2.52-9.74,0.74-14.42c4.04-5.8,9.8-3.64,13.25-2.34
		c1.46,0.55,2.85,1.07,3.93,1.13c13.04,0.67,26.07,1.43,39.1,2.18c36.04,2.08,73.3,4.23,110.01,4.61c9.76,0.1,19.65,0.52,29.22,0.92
		c9.22,0.39,18.75,0.79,28.1,0.91l16.76,0.21c38.22,0.49,77.74,1,116.59,0.7c44.82-0.34,93.07-0.94,142.19-3.06
		c7.24-0.31,14.48-0.61,21.72-0.91c37.26-1.53,75.79-3.11,113.53-6.71c2.58-0.25,5.16-0.18,7.9-0.12c1.33,0.03,2.74,0.06,4.24,0.06
		c1.64,0,2.96,1.33,2.96,2.96v2.64"/>
	<path d="M958.11,1941.3c-0.54,0-1.09-0.15-1.58-0.46c-1.38-0.88-1.79-2.71-0.92-4.09c1.4-2.21,1.46-4.83,1.52-7.85l0.04-1.52
		c0.5-15.17,1.13-33.15,1.96-51.43c0.99-21.77,2.02-43.55,3.04-65.32c0.96-20.39,1.92-40.78,2.85-61.18
		c0.54-11.85,1.03-23.71,1.52-35.57c0.47-11.53,0.95-23.07,1.47-34.6c0.83-18.16,1.68-36.32,2.53-54.48
		c1.14-24.33,2.28-48.66,3.36-73c0.57-12.83,1.05-25.89,1.51-38.52c0.46-12.64,0.94-25.71,1.51-38.56
		c1.66-37.69,3.55-78.2,5.93-127.49c0.58-12.02,1.3-24.23,1.99-36.04c0.32-5.45,0.64-10.91,0.95-16.36
		c0.09-1.63,1.49-2.85,3.13-2.79c1.63,0.09,2.88,1.49,2.79,3.13c-0.31,5.46-0.63,10.91-0.95,16.37
		c-0.69,11.79-1.41,23.99-1.99,35.98c-2.38,49.28-4.26,89.79-5.93,127.47c-0.57,12.83-1.05,25.89-1.51,38.52
		c-0.46,12.64-0.94,25.71-1.51,38.56c-1.08,24.34-2.22,48.68-3.36,73.01c-0.85,18.16-1.7,36.31-2.53,54.47
		c-0.52,11.52-1,23.05-1.47,34.57c-0.49,11.87-0.98,23.73-1.52,35.59c-0.93,20.4-1.89,40.79-2.85,61.18
		c-1.03,21.77-2.05,43.54-3.04,65.31c-0.83,18.24-1.45,36.2-1.95,51.35l-0.04,1.45c-0.07,3.42-0.15,7.3-2.44,10.91
		C960.06,1940.82,959.1,1941.3,958.11,1941.3z"/>
	<path d="M1040.86,1286.15c-21.12,0-42.17-3.73-59.15-20.68c-1.16-1.16-1.16-3.03,0-4.19c1.16-1.16,3.03-1.16,4.19,0
		c17.34,17.31,38.9,19.97,65.94,18.65c14.76-0.72,29.77-2.46,44.28-4.13c7.46-0.86,15.18-1.75,22.79-2.5
		c70.74-6.94,142.47-17.56,213.18-31.54c55.72-11.02,100.83-22.3,141.97-35.51c47.38-15.21,97.16-32.82,139.38-65.78
		c18.31-14.3,28.34-29.41,31.59-47.57c1.17-6.09,0.37-17.1-4.04-28.02c-0.61-1.52,0.12-3.25,1.64-3.86
		c1.52-0.62,3.24,0.12,3.86,1.64c4.2,10.43,5.96,23.02,4.37,31.32c-3.51,19.64-14.24,35.91-33.77,51.16
		c-42.99,33.57-93.34,51.38-141.22,66.76c-41.36,13.28-86.69,24.62-142.64,35.68c-70.9,14.02-142.82,24.66-213.75,31.62
		c-7.56,0.74-15.25,1.63-22.69,2.49c-14.61,1.69-29.71,3.43-44.67,4.17C1048.39,1286.03,1044.62,1286.15,1040.86,1286.15z"/>
	<path d="M765.41,1273.26c-1.09,0-2.13-0.6-2.65-1.64c-0.73-1.46-0.14-3.25,1.32-3.98c0.12-0.06,0.24-0.14,0.36-0.22
		c0.64-0.41,1.6-1.02,2.89-1.04c12.94-0.24,25.89-0.46,38.84-0.67c24.19-0.4,49.2-0.81,73.79-1.42c23.35-0.58,48.35-1.37,72.96-3.2
		c1.09-0.08,2.13-0.1,3.13-0.12c1.64,0,2.96,1.33,2.96,2.97c0,1.63-1.33,2.96-2.96,2.96c-0.03,0-0.05,0-0.07,0
		c-0.84,0-1.71,0.04-2.62,0.1c-24.74,1.84-49.83,2.64-73.25,3.22c-24.61,0.61-49.64,1.02-73.84,1.42
		c-12.82,0.21-25.64,0.42-38.46,0.66c-0.06,0.04-0.13,0.08-0.19,0.12c-0.29,0.19-0.59,0.37-0.89,0.52
		C766.31,1273.16,765.86,1273.26,765.41,1273.26z M767.45,1272.31C767.45,1272.31,767.45,1272.31,767.45,1272.31
		C767.45,1272.31,767.45,1272.31,767.45,1272.31z"/>
	<path d="M962.07,1943.28c-1.3,0-2.5-0.86-2.86-2.18c-0.43-1.58,0.5-3.21,2.08-3.64l0.32-0.09c3.81-1.04,7.72-2.12,12.32-2
		l0.87-16.68c0.72-13.84,1.43-27.31,2.09-40.77l0.99-20.24c1.65-33.52,3.36-68.19,4.91-102.29c0.58-12.67,1.05-25.55,1.51-38.02
		c0.46-12.48,0.94-25.38,1.51-38.07c1.05-23.05,2.18-46.09,3.31-69.14c0.87-17.8,1.74-35.61,2.58-53.41
		c0.53-11.35,1-22.7,1.47-34.05c0.49-11.71,0.97-23.42,1.52-35.13c0.81-17.07,1.65-34.14,2.49-51.21
		c1.14-23.06,2.32-46.89,3.38-70.34c0.67-14.9,1.14-29.53,1.63-45.02c0.22-6.95,0.44-13.95,0.69-21.04
		c0.03-0.85,0.42-1.64,1.07-2.18c0.65-0.54,1.51-0.78,2.34-0.65c2.29,0.35,4.54,0.72,6.78,1.09c8.99,1.47,17.49,2.9,26.02,2.7
		c14.6-0.28,29.39-1.87,43.7-3.42c7.63-0.82,15.53-1.68,23.32-2.32c47.44-3.94,97.94-10.46,163.75-21.17
		c58.08-9.45,110.68-20.64,160.83-34.24c58.58-15.88,102.27-31.7,141.69-51.32c20.14-10.03,42.96-29.11,57.6-43.62
		c1.16-1.15,3.04-1.15,4.19,0.02c1.15,1.16,1.14,3.04-0.02,4.19c-14.97,14.84-38.36,34.38-59.14,44.72
		c-39.78,19.8-83.82,35.75-142.78,51.73c-50.35,13.65-103.15,24.89-161.43,34.37c-65.97,10.73-116.62,17.28-164.22,21.23
		c-7.72,0.64-15.58,1.49-23.18,2.31c-14.44,1.56-29.37,3.17-44.23,3.45c-9.09,0.18-17.83-1.26-27.09-2.78
		c-1.13-0.19-2.27-0.37-3.42-0.56c-0.2,5.94-0.39,11.83-0.57,17.68c-0.49,15.51-0.96,30.15-1.63,45.1
		c-1.06,23.46-2.24,47.31-3.38,70.37c-0.84,17.06-1.69,34.13-2.49,51.19c-0.55,11.7-1.04,23.4-1.52,35.1
		c-0.47,11.36-0.94,22.72-1.48,34.08c-0.84,17.81-1.71,35.61-2.58,53.42c-1.13,23.04-2.25,46.07-3.3,69.12
		c-0.58,12.67-1.05,25.55-1.51,38.02c-0.46,12.48-0.94,25.38-1.51,38.07c-1.55,34.11-3.26,68.78-4.91,102.31l-1,20.24
		c-0.66,13.48-1.37,26.95-2.09,40.8l-1.03,19.73c-0.04,0.83-0.44,1.61-1.08,2.14c-0.64,0.53-1.48,0.77-2.31,0.64
		c-4.82-0.69-8.85,0.41-13.13,1.57l-0.32,0.09C962.59,1943.25,962.33,1943.28,962.07,1943.28z"/>
	<path d="M996.66,1039.2c3.43-0.18,6.38,0.8,9.04,1.69c1.76,0.59,3.42,1.14,5.04,1.29c41.27,3.71,82.51,7.67,122.59,11.76
		c24.65,2.52,49.69,5.22,73.91,7.83c18.52,2,37.04,4,55.56,5.94c43.97,4.6,88.7,9.16,131.95,13.58l12.32,1.26
		c36.66,3.74,72.9,7.39,107.71,10.84c3.67,0.36,4.38,0.15,4.86-3.32c2.42-17.53,5.23-35.29,7.95-52.47c1.25-7.9,2.5-15.8,3.72-23.7
		c2.1-13.65,4.18-27.29,6.26-40.94c3.43-22.54,6.99-45.84,10.58-68.75c1.8-11.47,3.77-23.11,5.67-34.36
		c1.71-10.12,3.48-20.58,5.12-30.88c2.24-14.08,4.41-28.43,6.51-42.3c1.46-9.61,2.91-19.23,4.4-28.84
		c2.2-14.18,4.42-28.36,6.65-42.53c2.07-13.16,4.13-26.33,6.18-39.5c1.51-9.71,2.98-19.43,4.46-29.14
		c1.47-9.72,2.95-19.44,4.46-29.16c2.24-14.43,4.53-28.84,6.81-43.26l2.07-13.08c0.85-5.34,1.7-10.68,2.55-16.01
		c1.46-9.15,2.93-18.3,4.35-27.46c2.11-13.61,4.18-27.22,6.25-40.83l2.66-17.46c0.25-1.62,1.75-2.73,3.38-2.48
		c1.62,0.25,2.73,1.76,2.48,3.38l-2.66,17.46c-2.07,13.62-4.14,27.24-6.25,40.85c-1.42,9.17-2.89,18.33-4.35,27.49
		c-0.85,5.33-1.71,10.67-2.55,16l-2.07,13.08c-2.29,14.41-4.57,28.82-6.81,43.24c-1.51,9.71-2.98,19.43-4.46,29.14
		c-1.47,9.72-2.95,19.44-4.46,29.16c-2.04,13.17-4.11,26.34-6.18,39.51c-2.22,14.17-4.45,28.34-6.65,42.52
		c-1.49,9.6-2.94,19.21-4.4,28.82c-2.1,13.88-4.28,28.23-6.52,42.34c-1.64,10.33-3.42,20.8-5.13,30.93
		c-1.9,11.24-3.87,22.85-5.66,34.29c-3.59,22.9-7.15,46.2-10.58,68.73c-2.08,13.65-4.16,27.3-6.27,40.95
		c-1.22,7.91-2.47,15.82-3.72,23.72c-2.72,17.15-5.52,34.88-7.93,52.35c-1.03,7.43-5.62,8.56-8.98,8.56c-0.9,0-1.71-0.08-2.34-0.14
		c-34.82-3.45-71.06-7.1-107.73-10.84l-12.32-1.26c-43.25-4.41-87.98-8.98-131.96-13.58c-18.53-1.94-37.05-3.94-55.58-5.94
		c-24.21-2.61-49.25-5.32-73.88-7.83c-40.05-4.09-81.27-8.04-122.51-11.75c-2.31-0.21-4.39-0.9-6.39-1.57
		c-3.17-1.06-5.91-1.97-9.29-0.97c-0.9,0.27-1.87,0.09-2.62-0.47s-1.19-1.44-1.19-2.38"/>
	<path d="M1011.8,1971.12c-0.15,0-0.3,0-0.44,0c-14.41-0.19-29.3-0.39-43.39-11.45c-0.64-0.51-1.29-0.99-1.93-1.47
		c-3.85-2.87-8.21-6.12-8.89-12.64c-0.24-2.29-1.72-3.51-4.31-5.45c-1.42-1.07-2.9-2.17-4.13-3.66
		c-40.75-49.16-84.33-101.24-133.24-159.21c-10.13-12-20.33-24.27-30.19-36.13c-5.23-6.29-10.47-12.58-15.71-18.86
		c-6.91-8.27-16.63-14.74-26.04-21c-3.15-2.1-6.41-4.27-9.53-6.48c-5.12-3.63-10.1-7.57-14.91-11.38
		c-5.9-4.67-11.99-9.49-18.33-13.72c-4.2-2.81-7.23-9.16-7.54-15.81c-0.92-20.07-1.27-38.16,3.83-56.36
		c0.81-2.89,0.35-6.36-0.14-10.04c-0.3-2.23-0.6-4.52-0.64-6.82c-0.24-14.95-0.41-29.89-0.58-44.84
		c-0.35-29.99-0.71-61.01-1.59-91.49c-0.6-20.84-1.01-42.01-1.4-62.49c-0.19-10.14-0.39-20.28-0.61-30.42
		c-0.2-9.16-0.48-18.31-0.77-27.47c-0.54-17.57-1.11-35.74-1.02-53.65c0.01-1.63,1.33-2.95,2.96-2.95c0,0,0.01,0,0.02,0
		c1.64,0.01,2.96,1.34,2.95,2.98c-0.09,17.81,0.47,35.92,1.01,53.44c0.28,9.17,0.57,18.35,0.77,27.52
		c0.22,10.14,0.41,20.29,0.61,30.44c0.39,20.47,0.8,41.63,1.4,62.44c0.88,30.53,1.24,61.57,1.59,91.59
		c0.17,14.94,0.35,29.88,0.58,44.82c0.03,1.95,0.3,3.98,0.59,6.13c0.55,4.11,1.11,8.36-0.03,12.42
		c-4.86,17.34-4.51,34.94-3.62,54.49c0.21,4.63,2.32,9.43,4.91,11.15c6.54,4.36,12.73,9.26,18.72,14
		c4.75,3.76,9.66,7.65,14.66,11.19c3.05,2.16,6.27,4.3,9.39,6.38c9.76,6.49,19.85,13.2,27.31,22.13
		c5.24,6.28,10.48,12.57,15.72,18.87c9.86,11.85,20.06,24.11,30.17,36.1c48.92,57.98,92.51,110.07,133.27,159.25
		c0.79,0.95,1.92,1.8,3.12,2.7c2.73,2.05,6.13,4.6,6.65,9.58c0.39,3.75,2.62,5.58,6.53,8.5c0.68,0.51,1.37,1.02,2.05,1.56
		c12.51,9.82,25.77,10,39.8,10.18c3.94,0.09,8.43-0.72,12.78-1.48c2.35-0.41,4.56-0.79,6.63-1.03c12.21-1.44,24.58-3.68,36.54-5.84
		c6.77-1.22,13.78-2.49,20.7-3.6c36.98-5.94,70.51-12.76,102.48-20.85c57.23-14.48,124.48-33.48,189.31-64.69
		c50.56-24.34,95.05-47.55,127.41-85.16c12.1-14.06,20.66-24.41,29.13-39.45c18.38-32.65,22.27-63.85,11.92-95.39
		c-8.59-26.14-25.93-45.58-41.75-61.15c-6.85-6.73-14.42-10.59-23.16-11.8c-5.78-0.8-11.78-1.17-17.59-1.53
		c-2.64-0.16-5.28-0.33-7.91-0.53c-1.63-0.13-2.85-1.55-2.73-3.18c0.12-1.63,1.56-2.85,3.18-2.73c2.6,0.2,5.22,0.36,7.82,0.53
		c5.91,0.37,12.03,0.75,18.03,1.58c10.05,1.39,18.72,5.79,26.5,13.45c16.33,16.06,34.24,36.17,43.23,63.52
		c10.91,33.21,6.86,65.96-12.38,100.14c-8.74,15.52-17.47,26.07-29.8,40.41c-33.1,38.47-78.15,61.99-129.33,86.63
		c-65.3,31.44-132.91,50.55-190.43,65.1c-32.15,8.13-65.84,14.99-103,20.96c-6.87,1.1-13.84,2.36-20.59,3.58
		c-12.05,2.18-24.51,4.43-36.9,5.89c-1.92,0.23-4.06,0.6-6.32,0.99C1020.97,1970.29,1016.16,1971.12,1011.8,1971.12z"/>
	<path d="M1017.29,1959.03c-1.09,0-2.14-0.6-2.66-1.64c-0.73-1.47-0.13-3.25,1.33-3.98c0.78-0.39,1.37-0.52,9.66-1.04
		c1.15-0.07,2.03-0.12,2.3-0.15c49.14-6.52,89.55-13.5,127.13-21.96c79.61-17.91,139.26-35.95,193.43-58.48
		c44-18.31,94.97-42.01,139.36-79.06c23.75-18.45,49.82-64.17,59.63-81.39c4.97-8.72,5.27-9.24,7.84-8.21
		c1.17,0.47,2.23,1.82,1.77,3.67c-0.17,0.68-0.56,1.25-1.08,1.64c-0.68,1.1-1.99,3.41-3.37,5.83
		c-9.97,17.49-36.47,63.96-61.07,83.07c-44.91,37.49-96.38,61.44-140.8,79.92c-54.49,22.67-114.45,40.8-194.41,58.79
		c-37.76,8.5-78.33,15.5-127.69,22.05c-0.22,0.03-1.27,0.1-2.68,0.19c-2.04,0.13-6.75,0.42-7.81,0.6
		C1017.89,1958.99,1017.59,1959.03,1017.29,1959.03z M1018.6,1958.73L1018.6,1958.73C1018.6,1958.73,1018.6,1958.73,1018.6,1958.73z
		 M1018.61,1958.72C1018.61,1958.72,1018.61,1958.73,1018.61,1958.72C1018.61,1958.73,1018.61,1958.72,1018.61,1958.72z
		 M1551.33,1705.37C1551.33,1705.37,1551.33,1705.37,1551.33,1705.37C1551.33,1705.37,1551.33,1705.37,1551.33,1705.37z"/>
	<path d="M993.69,1610.25c-1.3,0-2.49-0.86-2.85-2.16c-0.44-1.58,0.48-3.21,2.05-3.66c4.39-1.23,8.7-1.14,12.88-1.05
		c2.25,0.04,4.38,0.09,6.48-0.06c10.84-0.8,21.68-1.63,32.51-2.46c14.93-1.15,30.37-2.34,45.57-3.4
		c10.72-0.75,21.61-1.39,32.15-2.02c10.52-0.62,21.4-1.26,32.08-2.01c18.02-1.26,36.33-2.68,54.05-4.05c8-0.62,16-1.24,24.01-1.85
		c6.58-0.5,13.17-1.01,19.75-1.52c14.91-1.15,30.32-2.34,45.49-3.4c16.81-1.17,33.91-2.26,50.44-3.32
		c8.55-0.55,17.11-1.09,25.66-1.65l15.99-1.04c19.37-1.25,39.4-2.54,59.08-4.04c2.54-0.19,3.99-0.91,4.41-4.17
		c2.05-16.09,4.61-32.36,7.1-48.1l1.62-10.31c3.24-20.75,6.51-41.49,9.78-62.24c5.56-35.31,11.31-71.82,16.85-107.74
		c4.24-27.54,8.37-55.56,12.37-82.67c1.81-12.29,3.62-24.59,5.45-36.88c0.24-1.62,1.74-2.74,3.37-2.5c1.62,0.24,2.74,1.75,2.5,3.37
		c-1.83,12.29-3.64,24.58-5.45,36.88c-4,27.12-8.13,55.16-12.38,82.71c-5.54,35.93-11.29,72.45-16.85,107.76
		c-3.27,20.74-6.54,41.48-9.78,62.23l-1.63,10.32c-2.48,15.7-5.04,31.93-7.07,47.93c-0.5,3.96-2.62,8.79-9.84,9.34
		c-19.71,1.49-39.76,2.79-59.14,4.04l-15.98,1.04c-8.56,0.56-17.11,1.11-25.67,1.65c-16.53,1.06-33.61,2.15-50.41,3.32
		c-15.15,1.06-30.55,2.25-45.45,3.4c-6.59,0.51-13.17,1.02-19.76,1.52c-8,0.61-16,1.23-24,1.84c-17.72,1.37-36.05,2.79-54.09,4.05
		c-10.71,0.75-21.61,1.39-32.14,2.02c-10.52,0.62-21.4,1.26-32.08,2.01c-15.18,1.06-30.61,2.25-45.53,3.4
		c-10.84,0.84-21.69,1.67-32.54,2.47c-2.38,0.17-4.75,0.13-7.04,0.08c-3.91-0.08-7.61-0.16-11.15,0.84
		C994.23,1610.21,993.96,1610.25,993.69,1610.25z"/>
	<path d="M955.05,1266.9c-1.62,0-2.95-1.3-2.96-2.93c-0.02-1.64,1.29-2.98,2.93-3c11.3-0.13,28.62-1.75,43.9-3.18
		c9.82-0.92,19.09-1.79,26.22-2.22c44.36-2.73,89.84-7.39,139.06-14.26c76.77-10.71,158.58-23.94,236.75-47.99
		c1.81-0.56,3.78-1.15,5.88-1.78c11.48-3.44,27.21-8.16,38.03-13.9c1.45-0.77,3.24-0.22,4.01,1.23c0.77,1.45,0.22,3.24-1.23,4.01
		c-11.33,6.01-27.38,10.83-39.11,14.34c-2.08,0.62-4.04,1.21-5.83,1.76c-78.57,24.17-160.67,37.45-237.68,48.2
		c-49.36,6.89-95,11.57-139.51,14.31c-7.04,0.43-16.26,1.3-26.04,2.21c-16.15,1.51-32.85,3.07-44.39,3.2
		C955.07,1266.9,955.06,1266.9,955.05,1266.9z"/>
	<path d="M868.19,887.85c-0.94,0-1.86-0.44-2.44-1.27c-0.93-1.35-0.6-3.19,0.75-4.13c3.53-2.45,7.25-2.13,10.23-1.86
		c1.13,0.1,2.19,0.19,3.19,0.15c51.96-2.1,113.26-4.68,173.89-7.84l5.77-0.3c19.15-0.97,38.95-1.98,58.07-5.55l1.44-0.26
		c5.51-0.96,7.95-1.59,8.15-6.73c0.5-13.29-0.45-14.14-8.05-16.87c-7.03-2.52-14.05-5.05-21.08-7.58
		c-14.77-5.33-30.05-10.83-45.12-16.1c-24.82-8.66-49.65-17.29-74.48-25.91c-30.18-10.48-60.36-20.97-90.51-31.52
		c-4.5-1.58-7.99-2.7-11.98-2.81c-9.38-0.26-18.94-0.3-28.18-0.34c-8.57-0.04-17.44-0.07-26.17-0.29
		c-31.92-0.77-64.41-0.91-95.82-1.05c-14.82-0.06-29.64-0.13-44.45-0.26c-0.59,0-1.22,0.04-1.86,0.09
		c-2.48,0.18-5.87,0.44-9.62-1.91c-0.87-0.55-1.4-1.51-1.39-2.54c0.2-18.72-0.45-38.03-1.08-56.71c-0.26-7.59-0.51-15.19-0.72-22.79
		c-1.01-37.77-1.66-76.17-2.28-113.31c-0.26-15.6-0.52-31.2-0.81-46.8c-0.03-1.64,1.27-2.99,2.91-3.02c1.6-0.08,2.99,1.27,3.02,2.91
		c0.29,15.6,0.55,31.21,0.81,46.81c0.62,37.13,1.27,75.52,2.28,113.26c0.2,7.59,0.46,15.18,0.71,22.75
		c0.61,18.13,1.24,36.86,1.1,55.13c1.52,0.56,2.94,0.45,4.63,0.33c0.8-0.06,1.58-0.09,2.35-0.11c14.81,0.13,29.62,0.19,44.43,0.26
		c31.44,0.14,63.96,0.28,95.94,1.05c8.68,0.21,17.51,0.25,26.06,0.28c9.28,0.04,18.87,0.08,28.32,0.34
		c5.22,0.14,9.76,1.74,13.77,3.14c30.15,10.55,60.32,21.03,90.5,31.51c24.83,8.63,49.67,17.25,74.49,25.92
		c15.1,5.27,30.39,10.78,45.18,16.12c7.02,2.53,14.04,5.06,21.07,7.58c11.17,4,12.52,8.18,11.98,22.67
		c-0.39,10.15-8.01,11.47-13.06,12.34l-1.37,0.24c-19.5,3.64-39.51,4.66-58.86,5.64l-5.76,0.3c-60.67,3.16-121.99,5.74-173.96,7.84
		c-1.38,0.06-2.69-0.06-3.95-0.17c-2.83-0.25-4.65-0.34-6.33,0.83C869.36,887.68,868.77,887.85,868.19,887.85z"/>
	<path d="M769.36,1673.49c-1.62,0-2.95-1.31-2.96-2.94c-0.09-9.73-0.13-19.47-0.16-29.2c-0.1-26.68-0.2-54.26-1.51-81.38
		c-1.27-26.52-1.38-53.5-1.48-79.6c-0.05-11.84-0.09-24.09-0.25-36.12c-0.27-20.39-0.73-41.12-1.18-61.17
		c-0.82-36.64-1.68-74.53-1.34-111.83c0.01-1.63,1.34-2.94,2.96-2.94c0.01,0,0.02,0,0.03,0c1.64,0.02,2.95,1.35,2.94,2.99
		c-0.33,37.21,0.52,75.05,1.34,111.64c0.45,20.06,0.92,40.81,1.18,61.23c0.16,12.06,0.21,24.32,0.25,36.17
		c0.1,26.03,0.21,52.95,1.48,79.34c1.31,27.25,1.41,54.9,1.51,81.64c0.04,9.72,0.07,19.44,0.16,29.17c0.02,1.64-1.3,2.98-2.94,2.99
		C769.38,1673.49,769.37,1673.49,769.36,1673.49z"/>
	<path d="M713.16,2268c-1.58,0-2.89-1.59-2.96-3.63c-0.58-17.52-5.87-214.23-5.96-234.78c-0.16-38.09-1.03-76.81-1.87-114.26
		l-0.04-1.93c-0.86-38.41-1.23-77.45-1.58-115.22c-0.19-19.74-0.37-39.49-0.63-59.23c-0.02-1.62-0.17-3.42-0.32-5.15
		c-0.14-1.62-0.28-3.29-0.32-4.9c-0.42-14.92-0.37-30.08-0.32-44.74c0.02-4.93,0.03-9.86,0.03-14.78c0-2.09,1.33-3.79,2.96-3.79
		c1.64,0,2.96,1.7,2.96,3.79c0,4.94-0.02,9.88-0.03,14.82c-0.05,14.58-0.1,29.67,0.31,44.44c0.04,1.39,0.17,2.86,0.29,4.35
		c0.16,1.91,0.33,3.88,0.35,5.85c0.25,19.75,0.44,39.51,0.63,59.26c0.36,37.73,0.72,76.75,1.58,115.09l0.04,1.93
		c0.84,37.49,1.71,76.26,1.87,114.44c0.09,20.5,5.37,216.99,5.95,234.5c0.07,2.09-1.2,3.86-2.84,3.95
		C713.25,2268,713.2,2268,713.16,2268z"/>
	<path d="M992.71,797.92c-1.63,0-2.95-1.31-2.96-2.94l-1.98-283.62c-0.01-1.64,1.31-2.97,2.94-2.98c0.01,0,0.01,0,0.02,0
		c1.63,0,2.95,1.31,2.96,2.94l1.98,283.62c0.01,1.64-1.31,2.97-2.94,2.98C992.72,797.92,992.71,797.92,992.71,797.92z"/>
	<path d="M865.22,757.41c-1.62,0-2.94-1.3-2.96-2.93l-2.96-241.13c-0.02-1.64,1.29-2.98,2.93-3c1.64-0.03,2.98,1.29,3,2.93
		l2.96,241.13c0.02,1.64-1.29,2.98-2.93,3C865.25,757.41,865.24,757.41,865.22,757.41z"/>
	<path d="M867.77,1082.34c-13.84,0-27.45-0.27-39.18-0.54c-34.48-0.8-69.56-0.94-103.49-1.06c-9.63-0.04-19.25-0.07-28.88-0.12
		c-7.64-0.04-14.07-0.46-20.59-2.35c-1.28-0.37-2.15-1.55-2.14-2.87c0.2-21.87,0.46-43.95,0.73-66.02
		c0.29-23.19-0.38-46.81-1.02-69.65c-0.25-9.03-0.51-18.06-0.71-27.09c-0.13-6.06-0.39-12.24-0.63-18.21
		c-0.12-2.81-0.23-5.62-0.33-8.43c-0.06-1.64,1.22-3.01,2.85-3.07c1.64-0.06,3.01,1.22,3.07,2.85c0.1,2.8,0.22,5.61,0.33,8.41
		c0.25,6,0.5,12.2,0.64,18.32c0.2,9.02,0.45,18.03,0.71,27.05c0.64,22.9,1.31,46.58,1.02,69.89c-0.26,21.29-0.51,42.58-0.71,63.69
		c5.18,1.22,10.54,1.51,16.81,1.55c9.62,0.05,19.25,0.09,28.87,0.12c33.96,0.13,69.07,0.26,103.6,1.07
		c13.21,0.31,28.81,0.61,44.39,0.53c5.13-0.03,10.58-1.72,15.85-3.35l1.06-0.33c15.54-4.79,31.06-9.64,46.58-14.49
		c17.1-5.34,34.19-10.69,51.32-15.95c1.41-0.43,2.08-0.68,2.57-1.23c1.09-1.23,2.96-1.33,4.18-0.25c1.22,1.09,1.33,2.96,0.25,4.18
		c-1.64,1.85-3.65,2.47-5.26,2.96c-17.11,5.27-34.2,10.61-51.29,15.94c-15.53,4.85-31.06,9.7-46.6,14.5l-1.05,0.33
		c-5.68,1.76-11.56,3.58-17.57,3.61C871.35,1082.33,869.56,1082.34,867.77,1082.34z"/>
	<path d="M1412.39,1024.3c-0.67,0-1.32-0.03-1.95-0.09c-8.48-0.84-16.95-1.7-25.43-2.56c-14.33-1.45-29.15-2.96-43.74-4.32
		c-14.63-1.37-29.27-2.67-43.9-3.98c-24.81-2.22-50.47-4.51-75.68-7.07c-3.59-0.36-7.31-0.6-10.9-0.82
		c-10.04-0.63-20.41-1.27-30.4-4.87c-1.54-0.55-2.34-2.25-1.79-3.79c0.55-1.54,2.26-2.34,3.79-1.78c9.19,3.31,18.7,3.9,28.76,4.53
		c3.65,0.23,7.42,0.46,11.13,0.84c25.18,2.55,50.81,4.84,75.61,7.06c14.64,1.31,29.29,2.62,43.93,3.98
		c14.61,1.37,29.44,2.87,43.79,4.33c8.47,0.86,16.94,1.72,25.41,2.56c4.95,0.49,12.07-1.72,15-6.15c0.91-1.37,2.75-1.74,4.11-0.84
		c1.36,0.9,1.74,2.74,0.84,4.11C1427.01,1021.39,1418.86,1024.3,1412.39,1024.3z"/>
	<path d="M1181.4,1000.77c-0.22,0-0.45-0.03-0.68-0.08c-9.54-2.24-11.06-5.54-11.04-15.01c0.03-16.67,0.5-33.35,0.95-49.49
		c0.09-3.34,1.64-6.39,4.35-8.59c3.72-3.01,9.16-4.13,14.9-3.08c19.57,3.6,39.75,5.31,59.27,6.97c6.85,0.58,13.7,1.16,20.54,1.83
		c6.16,0.6,12.32,1.23,18.48,1.87c14,1.44,28.47,2.94,42.71,3.9c4.96,0.34,10.08,0.26,15.04,0.19c8.8-0.14,17.89-0.27,26.96,1.81
		c0.5,0.15,1.33-1.08,2.3-2.54c0.57-0.86,1.16-1.75,1.87-2.56c5.22-5.99,12.81-8.72,20.32-7.31c2.36,0.44,4.71,0.44,7.23,0.44
		c2.1-0.01,4.25,0,6.47,0.27c1.63,0.2,2.78,1.68,2.58,3.3c-0.2,1.63-1.68,2.79-3.3,2.58c-1.86-0.22-3.74-0.22-5.75-0.22
		c-2.68-0.01-5.42,0-8.33-0.54c-5.42-1.02-10.93,0.99-14.76,5.38c-0.46,0.52-0.92,1.21-1.4,1.95c-1.61,2.42-4.04,6.08-8.57,5.04
		c-8.37-1.91-16.72-1.79-25.55-1.66c-5.08,0.07-10.33,0.15-15.53-0.2c-14.35-0.97-28.87-2.47-42.92-3.92
		c-6.15-0.64-12.29-1.27-18.44-1.86c-6.82-0.66-13.64-1.24-20.47-1.82c-19.66-1.67-39.98-3.4-59.84-7.05
		c-3.98-0.73-7.76-0.04-10.1,1.86c-0.95,0.77-2.1,2.12-2.16,4.15c-0.45,16.1-0.91,32.74-0.94,49.33c-0.02,7.7,0.47,7.82,6.46,9.22
		c1.59,0.37,2.58,1.97,2.21,3.56C1183.96,999.84,1182.74,1000.77,1181.4,1000.77z"/>
	<path d="M1427.08,1016.17c-1.54,0-2.84-1.19-2.95-2.75c-1.22-17.1-0.47-33.22,0.34-50.3l0.28-5.96c0.07-1.63,1.49-2.91,3.09-2.83
		c1.64,0.07,2.9,1.46,2.83,3.1l-0.28,5.97c-0.79,16.89-1.54,32.85-0.35,49.59c0.12,1.63-1.11,3.05-2.74,3.17
		C1427.22,1016.17,1427.15,1016.17,1427.08,1016.17z"/>
	<path d="M1413.19,953.14c-0.9,0-1.81-0.05-2.75-0.14c-8.17-0.79-16.45-1.77-24.46-2.71c-3.4-0.4-6.79-0.8-10.18-1.19
		c-1.63-0.19-2.79-1.66-2.61-3.28c0.18-1.63,1.65-2.81,3.28-2.61c3.4,0.39,6.81,0.79,10.21,1.19c7.98,0.94,16.22,1.91,24.34,2.7
		c5.7,0.55,10.37-1.02,14.66-4.94c2.65-2.42,5.89-3.94,9.02-5.4c1.49-0.7,2.9-1.36,4.22-2.1c4.97-2.79,9.75-1.66,12.78,3
		c1.63,2.5,2.32,8.29,1.28,10.68c-0.66,1.5-2.4,2.19-3.9,1.53c-1.5-0.66-2.18-2.4-1.53-3.9c0.18-0.83-0.23-4.18-0.81-5.07
		c-1.1-1.68-2.36-2.5-4.92-1.06c-1.51,0.85-3.08,1.58-4.6,2.29c-2.85,1.34-5.54,2.6-7.53,4.41
		C1424.83,950.97,1419.41,953.14,1413.19,953.14z"/>
	<path d="M761.46,1273.26c-0.04,0-0.08,0-0.13,0c-4.85-0.21-9.71-0.5-14.56-0.79c-10.41-0.62-21.18-1.28-31.69-1.01
		c-25.39,0.6-51.12-0.44-75.99-1.45c-8.98-0.37-17.96-0.73-26.95-1.02c-28.6-0.93-57.6-3.29-85.65-5.58
		c-8.72-0.71-17.44-1.42-26.16-2.09c-2.18-0.17-4.36-0.31-6.54-0.46c-11.79-0.8-23.97-1.63-35.68-5.55
		c-11.17-3.74-17.68-11.59-17.84-21.52c-0.03-1.64,1.28-2.99,2.92-3.01c0.02,0,0.03,0,0.05,0c1.61,0,2.94,1.3,2.96,2.92
		c0.12,7.38,5.02,13.06,13.79,16c10.99,3.68,22.79,4.48,34.2,5.26c2.2,0.15,4.4,0.3,6.59,0.47c8.73,0.67,17.46,1.38,26.18,2.09
		c27.97,2.28,56.9,4.63,85.36,5.56c9,0.29,18,0.66,26.99,1.03c24.78,1.01,50.4,2.05,75.61,1.45c10.75-0.25,21.65,0.39,32.18,1.02
		c4.82,0.29,9.64,0.58,14.46,0.78c1.64,0.07,2.91,1.45,2.84,3.09C764.35,1272.02,763.04,1273.26,761.46,1273.26z"/>
	<path d="M458.08,856.23c-0.97,0-1.91-0.47-2.48-1.34c-0.9-1.37-0.52-3.21,0.85-4.11c7.19-4.72,15.05-8.02,22.65-11.21
		c3.06-1.29,6.23-2.62,9.28-4.01c45.08-20.61,90.78-41.88,134.97-62.45c15.31-7.13,30.62-14.25,45.94-21.37
		c1.49-0.69,3.25-0.05,3.94,1.44c0.69,1.49,0.05,3.25-1.44,3.94c-15.31,7.11-30.62,14.24-45.93,21.36
		c-44.2,20.57-89.91,41.85-135.01,62.46c-3.14,1.43-6.35,2.78-9.45,4.09c-7.69,3.23-14.96,6.28-21.69,10.7
		C459.2,856.07,458.64,856.23,458.08,856.23z"/>
	<path d="M458.41,1226.01c-3.29,0-6.8-0.7-10.49-2.44c-1.48-0.7-2.11-2.47-1.42-3.95c0.7-1.48,2.47-2.11,3.95-1.41
		c7.21,3.4,14.01,2.29,22.74-3.72l34.01-23.42c35.84-24.67,72.91-50.18,109.24-75.45c5.93-4.12,12.04-8.16,17.95-12.06
		c13.23-8.74,26.92-17.79,39.18-28.22c1.25-1.06,3.12-0.91,4.18,0.34c1.06,1.25,0.91,3.12-0.34,4.18
		c-12.54,10.66-26.37,19.81-39.76,28.65c-5.88,3.89-11.96,7.9-17.83,11.98c-36.34,25.27-73.41,50.79-109.26,75.47l-34.01,23.42
		C472.02,1222.49,465.79,1226.01,458.41,1226.01z"/>
	<path d="M862.58,1036.34c-0.9,0-1.74-0.1-2.49-0.18c-0.6-0.07-1.23-0.19-1.77-0.14c-16.42,0.05-33.12-0.53-49.24-1.08
		c-4.71-0.16-9.41-0.32-14.12-0.47c-27.59-0.86-55.71-0.68-82.9-0.5c-11.53,0.08-23.06,0.15-34.59,0.15c-1.64,0-2.96-1.33-2.96-2.96
		s1.33-2.96,2.96-2.96c11.52,0,23.04-0.08,34.55-0.15c27.25-0.18,55.42-0.36,83.13,0.51c4.71,0.15,9.42,0.31,14.14,0.47
		c16.07,0.55,32.71,1.14,49.02,1.08c0.87,0,1.68,0.09,2.46,0.18c1.93,0.22,2.79,0.25,3.51-0.37c1.24-1.07,3.11-0.94,4.18,0.3
		c1.07,1.24,0.94,3.11-0.3,4.18C866.32,1035.96,864.35,1036.34,862.58,1036.34z"/>
	<path d="M1417.12,947.04c-2.14,0-4.77-0.86-8.3-2.02c-1.56-0.51-2.4-2.18-1.9-3.74c0.01-0.02,0.02-0.04,0.02-0.07
		c-0.28-0.8-0.22-1.72,0.25-2.51c0.36-0.61,0.81-1.21,1.26-1.81c0.42-0.56,1.13-1.51,1.18-1.87c2.89-34.04,5.09-61.67,6.94-86.92
		c0.16-2.23,0.66-5.44,3.12-7.52c2.58-2.18,6.21-2.16,9.06-1.89c1.62,0.15,2.82,1.58,2.68,3.2l-2.22,26.72
		c-1.9,22.85-3.77,45.38-5.68,67.92c-0.39,4.59-0.67,7.91-3.25,9.62C1419.34,946.77,1418.3,947.04,1417.12,947.04z M1413.35,940.25
		c1.46,0.45,2.87,0.83,3.6,0.86c0.34-0.99,0.57-3.61,0.69-5.08c1.91-22.53,3.78-45.07,5.68-67.91l1.96-23.57
		c-0.82,0.08-1.4,0.27-1.74,0.56c-0.7,0.59-0.95,2.19-1.04,3.43c-1.85,25.28-4.05,52.93-6.94,87
		C1415.38,937.44,1414.29,938.99,1413.35,940.25z"/>
	<path d="M1341.55,940.23c-0.02,0-0.04,0-0.06,0c-1.64-0.03-2.94-1.39-2.9-3.02c0.25-12.52,2.13-24.97,3.94-37.02
		c1.16-7.69,2.35-15.64,3.1-23.48l0.14-1.43c0.31-3.14,0.62-6.39,0.21-7.04c-0.6-0.56-4.34-0.87-7.64-1.14
		c-18.33-1.5-36.67-2.96-55.01-4.43c-14.6-1.17-29.21-2.33-43.81-3.52c-1.65-0.13-3.27-0.42-5.15-0.76
		c-0.1-0.02-0.19-0.03-0.29-0.05c-0.51,3.73-1.01,7.45-1.51,11.17c-1.48,11.03-3.01,22.44-4.8,33.61
		c-1.01,6.3-2.51,12.57-3.95,18.64c-0.65,2.74-1.3,5.48-1.92,8.23c-0.36,1.6-1.94,2.6-3.54,2.25c-1.6-0.36-2.61-1.94-2.25-3.54
		c0.62-2.78,1.28-5.55,1.93-8.31c1.42-5.96,2.89-12.13,3.86-18.21c1.79-11.09,3.31-22.46,4.78-33.46c0.64-4.74,1.27-9.48,1.93-14.23
		c0.11-0.79,0.53-1.5,1.17-1.98c0.64-0.47,1.45-0.67,2.23-0.54c1.27,0.2,2.38,0.4,3.38,0.58c1.8,0.32,3.22,0.58,4.59,0.69
		c14.6,1.18,29.2,2.35,43.8,3.52c18.34,1.47,36.68,2.93,55.02,4.43c6.22,0.51,9.65,0.79,11.71,3.25c2.01,2.4,1.7,5.6,1.13,11.4
		l-0.14,1.42c-0.76,7.99-1.97,16.03-3.14,23.8c-1.79,11.85-3.63,24.11-3.87,36.25C1344.48,938.94,1343.16,940.23,1341.55,940.23z"/>
	<path d="M869.17,1080.56c-1.58,0-2.9-1.25-2.96-2.85c-0.21-5.35-0.45-10.71-0.69-16.06c-0.53-11.6-1.07-23.59-1.21-35.41
		c-0.39-33.55-0.6-67.65-0.81-100.64c-0.08-13.23-0.16-26.47-0.26-39.7c-0.01-1.64,1.31-2.97,2.94-2.99c0.01,0,0.01,0,0.02,0
		c1.63,0,2.95,1.31,2.96,2.94c0.09,13.24,0.17,26.47,0.26,39.71c0.2,32.98,0.41,67.07,0.81,100.61c0.14,11.72,0.68,23.66,1.2,35.21
		c0.25,5.37,0.49,10.73,0.7,16.1c0.06,1.64-1.21,3.01-2.85,3.08C869.25,1080.56,869.21,1080.56,869.17,1080.56z"/>
	<path d="M1000.61,1044.98c-0.2,0-0.4-0.02-0.61-0.06c-1.6-0.33-2.63-1.9-2.3-3.51c1.39-6.67,1.18-13.37,0.97-20.46
		c-0.11-3.48-0.22-7.07-0.12-10.64c0.02-0.76,0.05-1.52,0.09-2.29c0.3-7.18,0.21-11.74-5.37-14.91c-3.59-2.04-2.98-5.81-2.66-7.84
		c0.09-0.56,0.18-1.15,0.18-1.52c-0.34-27.89-0.61-55.79-0.87-83.68l-0.18-19.1c-0.02-1.64,1.3-2.98,2.94-2.99
		c1.58,0.04,2.98,1.3,2.99,2.94l0.18,19.1c0.26,27.89,0.53,55.78,0.87,83.66c0.01,0.88-0.13,1.76-0.25,2.54
		c-0.09,0.54-0.22,1.39-0.19,1.79c8.93,5.14,8.57,13.53,8.28,20.28c-0.03,0.74-0.06,1.47-0.08,2.2c-0.09,3.4,0.01,6.91,0.12,10.3
		c0.22,7.12,0.44,14.49-1.09,21.84C1003.22,1044.02,1001.99,1044.98,1000.61,1044.98z"/>
	<path d="M1632.09,1149.73c-0.84,0-1.68-0.36-2.27-1.05c-1.06-1.25-0.9-3.12,0.36-4.18c12.67-10.68,20.23-24.69,22.47-41.63
		c1.64-12.4-1.61-24.02-9.94-35.52c-16.45-22.73-36.15-38.85-60.22-49.3c-13.16-5.72-26.92-5.71-41.51-5.68l-3.76,0
		c-1.64,0-2.96-1.33-2.96-2.97c0-1.64,1.33-2.96,2.96-2.96c0,0,0,0,0.01,0l3.74,0c14.5-0.02,29.58-0.04,43.88,6.17
		c25.07,10.88,45.56,27.65,62.66,51.26c9.13,12.61,12.84,25.99,11.02,39.78c-2.44,18.46-10.69,33.73-24.52,45.39
		C1633.44,1149.5,1632.76,1149.73,1632.09,1149.73z"/>
	<path d="M883.01,1034.11c-1.28,0-2.47-0.84-2.84-2.13c-0.46-1.57,0.44-3.22,2.01-3.68c7.8-2.28,15.62-4.52,23.44-6.76
		c18.9-5.41,38.45-11.01,57.43-17.18c3.85-1.25,7.82-2.19,11.65-3.09c8.04-1.9,15.63-3.69,22.28-8.15c1.36-0.91,3.2-0.55,4.12,0.8
		c0.91,1.36,0.55,3.2-0.8,4.11c-7.54,5.07-16.02,7.07-24.23,9.01c-3.72,0.88-7.57,1.78-11.18,2.96
		c-19.08,6.21-38.68,11.82-57.64,17.25c-7.81,2.24-15.61,4.47-23.4,6.75C883.57,1034.07,883.29,1034.11,883.01,1034.11z"/>
	<path d="M1334.64,944.18c-0.14,0-0.29-0.01-0.43-0.03c-1.62-0.24-2.74-1.74-2.5-3.36c1.26-8.6,2.37-17.38,3.44-25.87
		c2.05-16.23,4.17-33.01,7.45-49.39c0.32-1.61,1.89-2.64,3.49-2.32c1.61,0.32,2.65,1.88,2.32,3.49
		c-3.24,16.17-5.35,32.85-7.39,48.97c-1.08,8.52-2.19,17.33-3.46,25.99C1337.35,943.12,1336.08,944.18,1334.64,944.18z"/>
	<path d="M1428.49,1017.5c-1.09,0-2.13-0.6-2.65-1.64c-0.73-1.46-0.14-3.24,1.33-3.98c1.3-0.65,2.49-1.61,3.75-2.62
		c1.57-1.27,3.2-2.58,5.28-3.52c8.5-3.87,11.87-10.12,11.27-20.88c-0.49-8.8-0.38-17.73-0.26-26.37c0.05-3.78,0.1-7.56,0.1-11.34
		c0-1.64,1.33-2.96,2.96-2.96s2.96,1.33,2.96,2.96c0,3.81-0.05,7.61-0.1,11.42c-0.11,8.54-0.23,17.36,0.26,25.96
		c0.73,13.05-4.09,21.76-14.73,26.61c-1.4,0.64-2.67,1.66-4.01,2.74c-1.45,1.17-2.95,2.37-4.81,3.31
		C1429.39,1017.4,1428.94,1017.5,1428.49,1017.5z"/>
	<path d="M675.48,420.42c-1.51,0-2.8-4.17-2.95-9.75c-2.07-77.49-2.02-260.08-1.99-369.17c0-16.01,0.01-30.19,0-41.88
		c0-5.97,1.27-10.78,2.96-10.81c1.64,0,2.96,4.83,2.96,10.79c0,11.7,0,25.9,0,41.93c-0.03,101.56-0.08,290.61,1.97,367.05
		c0.16,5.94-1.03,11.22-2.66,11.8C675.67,420.4,675.58,420.42,675.48,420.42z"/>
	<path d="M1010.76,1959.18c-9.64,0-18.74-0.98-27.63-2.95c-4.36-0.97-8.15-2.89-11.81-4.75c-3.63-1.84-7.05-3.58-10.8-4.3
		c-1.61-0.31-2.66-1.86-2.35-3.47c0.31-1.6,1.87-2.66,3.47-2.35c4.57,0.88,8.53,2.89,12.36,4.83c3.49,1.77,6.78,3.44,10.41,4.25
		c10.71,2.38,21.78,3.24,33.82,2.62c1.6-0.08,3.03,1.17,3.11,2.81c0.08,1.64-1.17,3.03-2.81,3.12
		C1015.91,1959.12,1013.32,1959.18,1010.76,1959.18z"/>
	<path d="M929.46,416.47c-1.64,0-2.96-4.95-2.96-11.07V-0.12c0-6.12,1.33-11.07,2.96-11.07s2.96,4.95,2.96,11.07V405.4
		C932.42,411.51,931.1,416.47,929.46,416.47z"/>
	<path d="M957.7,2268c-0.03,0-0.06,0-0.08,0c-1.64-0.07-2.93-2.23-2.88-4.82c0.22-12.49,0.12-52.25,0.01-98.29
		c-0.21-87.44-0.47-196.26,0.99-219.36c0.16-2.58,1.62-4.49,3.25-4.2c1.63,0.26,2.82,2.56,2.65,5.13
		c-1.43,22.61,0.02,146.3-0.96,218.39c-0.62,46.11,0.21,85.94-0.01,98.58C960.62,2265.98,959.3,2268,957.7,2268z"/>
	<path d="M769.37,1718.95c-0.19,0-0.39-0.02-0.58-0.06c-1.61-0.32-2.65-1.88-2.33-3.49c1.32-6.63,1.15-13.33,0.97-20.42
		c-0.17-6.78-0.35-13.77,0.85-20.91c-9.32-2.59-16.34-8.51-23.15-14.26c-1.98-1.67-4.02-3.4-6.06-4.98
		c-4.36-3.38-9.08-6.56-13.65-9.63c-10.56-7.1-21.48-14.45-29.59-25.29c-0.98-1.31-0.71-3.17,0.6-4.15c1.31-0.99,3.17-0.71,4.15,0.6
		c7.5,10.03,17.53,16.78,28.14,23.92c4.65,3.13,9.46,6.36,13.98,9.86c2.13,1.65,4.23,3.42,6.25,5.13
		c7.23,6.1,14.06,11.87,23.33,13.65c0.79,0.15,1.48,0.61,1.92,1.28c0.44,0.67,0.59,1.49,0.42,2.27c-1.64,7.43-1.45,15.01-1.27,22.35
		c0.18,7.11,0.37,14.45-1.09,21.73C771.99,1717.98,770.75,1718.95,769.37,1718.95z"/>
	<path d="M1380.09,935.29c-0.26,0-0.53-0.04-0.8-0.11c-12.14-3.4-24.84-3.76-35.79-3.84c-1.64-0.01-2.95-1.35-2.94-2.99
		c0.01-1.63,1.34-2.94,2.96-2.94c0.01,0,0.01,0,0.02,0c11.33,0.08,24.5,0.47,37.34,4.06c1.58,0.44,2.5,2.08,2.06,3.65
		C1382.58,934.43,1381.39,935.29,1380.09,935.29z"/>
	<path d="M1004.56,1302.91c-0.28,0-0.57-0.04-0.85-0.13c-14.72-4.41-25.86-13.96-36.64-23.19c-4.71-4.04-9.59-8.21-14.64-11.83
		c-1.33-0.95-1.64-2.81-0.68-4.14c0.95-1.33,2.81-1.64,4.14-0.69c5.26,3.77,10.23,8.03,15.04,12.14
		c10.78,9.24,20.97,17.96,34.49,22.02c1.57,0.47,2.46,2.12,1.99,3.69C1007.02,1302.08,1005.84,1302.91,1004.56,1302.91z"/>
	<path d="M1097.45,858.21c-1.39,0-2.63-0.99-2.91-2.4c-0.31-1.61,0.74-3.16,2.35-3.47l30.64-5.93c1.61-0.31,3.16,0.74,3.47,2.35
		c0.31,1.61-0.74,3.16-2.35,3.47l-30.64,5.93C1097.83,858.19,1097.64,858.21,1097.45,858.21z"/>
	<path d="M1191.34,930.35c-0.58,0-1.15-0.17-1.67-0.51c-1.35-0.92-1.7-2.76-0.78-4.12c7.61-11.2,19.25-11.19,29.48-11.18h1.63
		c0,0,0,0,0.01,0c1.63,0,2.96,1.32,2.96,2.96c0,1.64-1.32,2.97-2.96,2.97h-1.64c-10.09,0-18.72-0.01-24.57,8.58
		C1193.22,929.89,1192.28,930.35,1191.34,930.35z"/>
	<path d="M1440.37,939.24c-0.38,0-0.77-0.08-1.15-0.23c-4.35-1.83-9.04-1.8-14.02-1.75c-0.87,0.01-1.75,0.02-2.63,0.01
		c-1.64-0.01-2.96-1.34-2.95-2.98c0.01-1.63,1.33-2.95,2.96-2.95c0,0,0.01,0,0.01,0c0.86,0.01,1.71,0,2.56-0.01
		c5.36-0.05,10.9-0.09,16.37,2.22c1.51,0.64,2.22,2.38,1.58,3.88C1442.63,938.56,1441.53,939.24,1440.37,939.24z"/>
	<path d="M873.96,1036.17c-0.8,0-1.57-0.03-2.3-0.06c-1.16-0.05-2.26-0.09-3.28-0.02c-1.64,0.12-3.04-1.13-3.15-2.76
		c-0.11-1.63,1.13-3.05,2.76-3.15c1.35-0.09,2.65-0.03,3.91,0.02c3.29,0.13,5.4,0.14,7.28-1.35c1.28-1.02,3.15-0.81,4.17,0.48
		c1.02,1.28,0.81,3.15-0.48,4.17C879.99,1035.77,876.81,1036.17,873.96,1036.17z"/>
	<path d="M1427.52,959.01c-1.45,0-2.72-1.07-2.93-2.54c-0.2-1.4-1.17-2.39-2.74-3.9c-0.48-0.46-0.96-0.93-1.42-1.41
		c-1.12-1.19-1.07-3.07,0.13-4.19c1.19-1.12,3.07-1.07,4.19,0.12c0.39,0.41,0.8,0.8,1.21,1.19c1.79,1.71,4.01,3.84,4.51,7.34
		c0.23,1.62-0.9,3.12-2.52,3.35C1427.8,959,1427.66,959.01,1427.52,959.01z"/>
</g>
</svg>
