<?xml version="1.0" encoding="utf-8"?>
<!-- Generator: Adobe Illustrator 25.4.1, SVG Export Plug-In . SVG Version: 6.00 Build 0)  -->
<svg version="1.1" id="Calque_1" xmlns="http://www.w3.org/2000/svg" xmlns:xlink="http://www.w3.org/1999/xlink" x="0px" y="0px"
	 viewBox="0 0 2268 2268" style="enable-background:new 0 0 2268 2268;" xml:space="preserve">
<style type="text/css">
	.st0{fill:none;stroke:#000000;stroke-width:3;stroke-linecap:round;stroke-linejoin:round;stroke-miterlimit:10;}
</style>
<g>
	<path d="M1180.85,1524.06c-4.21,0-8.45-0.2-12.69-0.69c-17.04-1.15-33.77-3.76-51.06-7.98c-16.05-3.91-36.65-10.29-53.58-24.98
		c-13.14-11.4-18.33-23.86-16.33-39.21c3.33-25.63,6.41-51.74,9.39-76.98c2.22-18.81,4.51-38.25,6.89-57.37
		c3.44-27.58,6.59-55.68,9.65-82.85c2.41-21.44,4.9-43.6,7.51-65.39c1.92-15.98,3.82-31.96,5.72-47.94
		c2.98-25.03,6.05-50.92,9.15-76.37c0.65-5.31,1.19-10.74,1.71-15.99c1.41-14.19,2.87-28.85,6.57-43.04
		c-0.02-0.14-0.3-0.58-0.48-0.88c-0.29-0.47-0.62-1.01-0.86-1.65c-7.01-19.46-14.74-39.04-22.21-57.97
		c-4.17-10.57-8.49-21.5-12.63-32.29l-0.54-1.39c-4.21-10.79-8.36-22.46-7.22-27.22c0.3-1.25,1.55-2.01,2.79-1.71
		c1.24,0.3,2.01,1.55,1.71,2.79c-0.63,2.65,1.73,10.88,7.03,24.46l0.55,1.41c4.14,10.77,8.45,21.69,12.62,32.25
		c7.49,18.96,15.23,38.57,22.26,58.1c0.07,0.19,0.26,0.49,0.44,0.79c0.61,0.99,1.54,2.49,1.02,4.49
		c-3.61,13.84-5.05,28.32-6.44,42.33c-0.52,5.28-1.07,10.74-1.72,16.09c-3.09,25.45-6.17,51.33-9.15,76.36
		c-1.9,15.98-3.8,31.96-5.72,47.94c-2.61,21.77-5.1,43.92-7.51,65.35c-3.06,27.19-6.21,55.29-9.65,82.91
		c-2.38,19.1-4.67,38.54-6.89,57.34c-2.98,25.26-6.06,51.38-9.39,77.04c-1.8,13.86,2.76,24.69,14.78,35.12
		c16.18,14.04,36.1,20.19,51.65,23.98c17.03,4.15,33.51,6.73,50.39,7.87c13.09,1.52,26.2,0.15,38.89-1.17
		c4.4-0.46,8.94-0.94,13.43-1.29c18.13-1.42,36.15-5.54,55.08-12.61c13.75-5.13,29.51-12.15,42.21-25.27
		c5.58-5.76,11.96-14.92,10.74-25.83c-1.27-11.26-3.18-22.68-5.04-33.72c-1.11-6.63-2.27-13.49-3.27-20.27
		c-2.04-13.79-4.43-27.78-6.74-41.31c-1.58-9.23-3.21-18.78-4.71-28.19c-4.21-26.26-8.36-52.53-12.52-78.8
		c-4.32-27.27-8.64-54.55-13.01-81.82c-3.93-24.5-8.04-49.4-12.01-73.47l-4.18-25.36c-3.19-19.39-6.39-38.78-9.6-58.16l-4.3-26.01
		c-0.21-1.26,0.65-2.45,1.91-2.66c1.25-0.21,2.45,0.65,2.66,1.91l4.3,26.01c3.21,19.39,6.41,38.78,9.6,58.17l4.18,25.36
		c3.98,24.08,8.09,48.98,12.02,73.5c4.37,27.27,8.69,54.55,13.01,81.83c4.16,26.27,8.32,52.53,12.52,78.79
		c1.5,9.39,3.13,18.92,4.7,28.14c2.31,13.55,4.71,27.57,6.76,41.41c1,6.73,2.14,13.57,3.25,20.18c1.86,11.1,3.79,22.58,5.07,33.97
		c1.13,10.06-3.02,20.28-12.01,29.57c-13.34,13.79-29.69,21.08-43.92,26.39c-19.35,7.23-37.78,11.44-56.34,12.89
		c-4.43,0.35-8.94,0.82-13.31,1.27C1199.09,1523.12,1190.02,1524.06,1180.85,1524.06z"/>
	<path d="M1567.8,1582.22c-11.96,0-31.19-0.34-37.41-0.86c-26.57-2.25-48.05-6.62-67.59-13.75c-20.66-7.54-35.87-16.72-47.87-28.88
		c-8.86-8.97-13.08-19.88-12.22-31.55c1.12-15.22,2.17-30.71,3.19-45.68c1.57-23.1,3.19-46.98,5.11-70.45
		c1.69-20.63,3.18-41.63,4.61-61.93c1.6-22.6,3.25-45.98,5.2-68.96c1.64-19.4,2.86-39.18,4.03-58.31
		c1.12-18.18,2.27-36.97,3.79-55.44c2.3-27.94,4.29-56.37,6.21-83.87c1.18-16.92,2.41-34.41,3.69-51.61
		c0.9-12.05,1.82-24.11,2.74-36.16c1.89-24.68,3.84-50.2,5.55-75.32c0.17-2.53,0.38-5.05,0.58-7.58
		c0.98-12.01,1.99-24.43-0.88-36.53c-6.89-28.98-12.73-58.68-18.38-87.4c-1.93-9.81-3.86-19.62-5.83-29.42
		c-1.24-6.18,0.7-11.2,5.77-14.93c7.46-5.49,15.39-9.64,24.24-12.68c11.77-4.05,24-6.03,35.82-7.95c5.01-0.81,10.19-1.66,15.24-2.64
		c1.24-0.25,2.47,0.57,2.72,1.83c0.24,1.26-0.57,2.47-1.83,2.72c-5.12,1-10.34,1.85-15.38,2.67c-11.63,1.89-23.67,3.85-35.06,7.76
		c-8.4,2.89-15.92,6.82-23,12.03c-3.59,2.64-4.85,5.91-3.97,10.29c1.97,9.81,3.9,19.62,5.83,29.44
		c5.64,28.67,11.47,58.32,18.34,87.22c3.05,12.82,2,25.61,1,37.98c-0.21,2.51-0.41,5.01-0.58,7.52
		c-1.71,25.13-3.67,50.66-5.56,75.35c-0.92,12.05-1.84,24.1-2.74,36.15c-1.28,17.19-2.51,34.68-3.69,51.59
		c-1.92,27.51-3.91,55.96-6.22,83.93c-1.52,18.42-2.67,37.19-3.78,55.34c-1.17,19.16-2.39,38.96-4.04,58.42
		c-1.94,22.94-3.6,46.3-5.19,68.89c-1.44,20.32-2.92,41.33-4.62,61.99c-1.92,23.44-3.54,47.3-5.11,70.39
		c-1.02,14.98-2.07,30.47-3.19,45.71c-0.76,10.29,3.01,19.96,10.89,27.95c11.5,11.66,26.17,20.49,46.16,27.79
		c19.15,6.99,40.24,11.28,66.39,13.49c7.09,0.6,35.65,1.03,44.53,0.77c0.02,0,0.05,0,0.07,0c1.25,0,2.28,0.99,2.31,2.25
		c0.04,1.28-0.97,2.35-2.25,2.38C1573.68,1582.2,1571,1582.22,1567.8,1582.22z"/>
	<path d="M1575.38,1582.15c-1.25,0-2.28-0.99-2.31-2.25c-0.04-1.28,0.97-2.35,2.25-2.38c6.03-0.17,11.16-1.01,16.12-1.82
		c1.7-0.28,3.39-0.55,5.12-0.81c24.21-3.53,52.29-9.41,77.07-26.28c15.97-10.88,23.61-22.78,24.05-37.45
		c0.24-8.03-0.7-16.26-1.61-24.21c-0.47-4.09-0.95-8.33-1.28-12.52c-0.22-2.87-0.39-5.75-0.56-8.63c-0.32-5.5-0.65-11.19-1.38-16.69
		c-2.69-20.07-4.36-40.54-5.98-60.34c-0.74-9.06-1.51-18.42-2.36-27.61l-0.74-7.99c-1.78-19.09-3.62-38.84-4.87-58.33
		c-0.15-2.29-0.27-4.6-0.39-6.9c-0.36-6.82-0.74-13.88-1.77-20.64c-2.27-14.83-3.42-29.96-4.54-44.59c-0.45-5.91-0.92-12.01-1.45-18
		c-1.26-14.2-2.48-28.42-3.7-42.64l-1.76-20.53c-2.51-29.03-5.2-58.36-7.5-83.22c-1.09-11.76-2.09-23.72-3.06-35.28
		c-0.89-10.67-1.82-21.7-2.81-32.53c-1.28-14.03-2.6-28.05-3.91-42.07c-2-21.31-4.07-43.35-5.97-65.04
		c-0.14-1.56-0.52-3.17-0.92-4.87c-0.68-2.88-1.38-5.86-0.86-8.76c7.12-40.04,14.93-82.22,25.34-136.74
		c0.48-2.49,0.62-5.84-1.41-7.71c-3.92-3.61-8.18-7.31-13.32-9.4c-18.11-7.35-38.59-11.11-64.45-11.83
		c-1.28-0.04-2.29-1.1-2.25-2.38c0.03-1.28,1.14-2.3,2.38-2.25c26.43,0.73,47.42,4.6,66.06,12.17c5.85,2.38,10.48,6.38,14.71,10.28
		c2.85,2.62,3.82,6.77,2.83,11.99c-10.41,54.51-18.22,96.66-25.33,136.69c-0.35,1.96,0.22,4.36,0.81,6.89
		c0.42,1.79,0.86,3.64,1.02,5.53c1.89,21.68,3.96,43.71,5.96,65.02c1.32,14.03,2.63,28.06,3.91,42.09
		c0.99,10.85,1.91,21.89,2.81,32.57c0.97,11.56,1.97,23.5,3.05,35.24c2.3,24.87,4.99,54.21,7.5,83.25l1.76,20.53
		c1.22,14.21,2.44,28.43,3.7,42.62c0.53,6.02,1,12.14,1.45,18.06c1.11,14.55,2.25,29.58,4.5,44.24c1.07,6.98,1.45,14.15,1.82,21.09
		c0.12,2.29,0.24,4.58,0.39,6.85c1.24,19.42,3.08,39.13,4.86,58.2l0.74,7.99c0.86,9.22,1.62,18.6,2.36,27.66
		c1.61,19.74,3.28,40.15,5.95,60.1c0.76,5.67,1.09,11.44,1.42,17.03c0.16,2.85,0.33,5.7,0.55,8.54c0.32,4.1,0.8,8.29,1.26,12.35
		c0.93,8.11,1.89,16.51,1.64,24.87c-0.48,16.28-8.77,29.36-26.07,41.14c-25.7,17.51-55.73,23.65-79.01,27.04
		c-1.7,0.25-3.37,0.52-5.05,0.79c-5.11,0.83-10.4,1.7-16.74,1.88C1575.42,1582.15,1575.4,1582.15,1575.38,1582.15z"/>
	<path d="M265.75,1369.07c-18.37,0-36.38-2.1-53.77-6.28c-11.22-2.7-20.8-6.49-29.29-11.61c-10.84-6.53-15.56-16-14.43-28.97
		c0.54-6.2,1.17-12.49,1.77-18.58c0.7-7.01,1.42-14.27,2.01-21.4c2.43-29.28,4.76-59.06,7-87.86c3.15-40.34,6.4-82.05,10.01-123.05
		c1.34-15.29-1.23-29.52-3.92-41.43c-1.73-7.66-3.59-15.43-5.39-22.94c-3.2-13.37-6.5-27.19-9.23-40.94l-0.26-1.36
		c-0.42-2.18-0.85-4.44-1.51-6.5c-1.94-6.09-0.44-10.87,4.86-15.5c14.91-13.01,32.83-15.73,50.17-18.37
		c1.58-0.24,3.16-0.48,4.74-0.73c24.09-3.78,50.13-3.76,79.63,0.07c17.44,2.26,32.86,5.16,45.09,17.73
		c2.31,2.37,4.55,5.43,3.68,10.16c-1.65,9.03-2.7,18.32-3.72,27.32c-0.92,8.13-1.88,16.54-3.27,24.8
		c-1.93,11.4-3.27,23.13-4.57,34.48c-0.55,4.75-1.09,9.5-1.68,14.24c0.26,0.28,0.44,0.63,0.54,1.02c2.79,11.79,4.71,23.89,6.56,35.6
		c1.14,7.18,2.31,14.6,3.68,21.85c4.58,24.38,8.77,49.23,12.83,73.27c4.16,24.69,8.47,50.22,13.2,75.24
		c2.02,10.68,3.81,21.6,5.54,32.15c1.03,6.28,2.06,12.57,3.15,18.84c2.47,14.28-2.82,25.01-16.64,33.77
		c-26.03,16.49-55.53,21.22-83.52,23.86C281.2,1368.7,273.44,1369.07,265.75,1369.07z M266.05,925.37
		c-12.88,0-25.09,0.92-36.82,2.76c-1.59,0.25-3.18,0.49-4.76,0.73c-17.45,2.65-33.93,5.16-47.82,17.28
		c-4.47,3.9-4.65,6.95-3.49,10.6c0.74,2.32,1.22,4.82,1.64,7.03l0.26,1.33c2.71,13.66,6,27.44,9.19,40.76
		c1.8,7.53,3.66,15.31,5.4,23c2.77,12.25,5.41,26.93,4.02,42.85c-3.6,40.98-6.85,82.68-10,123.01c-2.25,28.81-4.57,58.6-7.01,87.89
		c-0.59,7.17-1.32,14.44-2.02,21.47c-0.6,6.07-1.23,12.35-1.77,18.52c-0.99,11.33,2.78,18.92,12.21,24.6
		c8.08,4.87,17.23,8.49,27.98,11.08c24.18,5.81,49.58,7.52,75.5,5.07c27.42-2.59,56.27-7.19,81.48-23.16
		c12.2-7.73,16.69-16.7,14.55-29.07c-1.09-6.28-2.12-12.58-3.15-18.87c-1.73-10.53-3.52-21.42-5.52-32.04
		c-4.74-25.06-9.05-50.62-13.22-75.33c-4.05-24.02-8.24-48.85-12.81-73.19c-1.37-7.31-2.56-14.77-3.7-21.98
		c-1.82-11.47-3.69-23.33-6.39-34.81c-0.61-0.49-0.97-1.27-0.86-2.1c0.63-5.07,1.22-10.14,1.8-15.21
		c1.31-11.4,2.66-23.19,4.61-34.72c1.37-8.13,2.32-16.47,3.24-24.55c1.03-9.07,2.09-18.45,3.77-27.63c0.41-2.23-0.23-3.82-2.45-6.1
		c-11.19-11.5-25.8-14.22-42.36-16.37C292.9,926.32,279.13,925.37,266.05,925.37z"/>
	<path d="M2096.26,1563.46c-1.23,0-2.25-0.96-2.31-2.2c-1.56-31.47-3.39-65.13-5.15-97.68l-1.47-27.11
		c-0.78-14.41-1.39-29.05-1.98-43.22c-1-23.76-2.03-48.32-3.85-72.42c-1.32-17.35-2.06-35.01-2.78-52.08
		c-0.65-15.3-1.31-31.12-2.39-46.65c-1.7-24.6-2.77-49.63-3.8-73.83c-0.92-21.57-1.87-43.87-3.27-65.78
		c-1.79-28.04-2.96-56.56-4.1-84.15c-1.3-31.59-2.65-64.25-4.92-96.31c-1.07-15.14-1.89-30.55-2.68-45.44
		c-0.36-6.71-0.71-13.42-1.09-20.12l-0.02-0.43c0-0.06,0-0.12,0-0.17c-0.85-0.68-1.12-1.89-0.6-2.88c0.6-1.14,2-1.57,3.13-0.97
		c2.03,1.06,2.08,3.06,2.11,3.91l0.01,0.3c0.38,6.71,0.73,13.42,1.09,20.14c0.79,14.88,1.61,30.26,2.68,45.36
		c2.28,32.13,3.62,64.83,4.93,96.45c1.14,27.56,2.31,56.06,4.1,84.05c1.4,21.95,2.35,44.28,3.27,65.87
		c1.03,24.18,2.09,49.18,3.79,73.71c1.08,15.59,1.75,31.44,2.4,46.77c0.72,17.04,1.46,34.65,2.77,51.93
		c1.83,24.18,2.87,48.79,3.86,72.58c0.59,14.15,1.21,28.79,1.98,43.16l1.47,27.11c1.77,32.55,3.6,66.21,5.15,97.7
		c0.06,1.28-0.92,2.36-2.2,2.43C2096.34,1563.46,2096.3,1563.46,2096.26,1563.46z M2056.81,836.1h0.02H2056.81z"/>
	<path d="M537.2,1421.79c-7.58,0-17.59-0.91-26.46-1.72c-3.79-0.34-7.4-0.67-10.53-0.9c-1.28-0.09-2.23-1.21-2.14-2.48
		c0.1-1.28,1.21-2.24,2.48-2.14c3.16,0.23,6.79,0.56,10.61,0.91c9.13,0.83,19.48,1.77,26.92,1.69c22.4-0.23,44.51-3.19,65.74-8.8
		c22.79-6.02,41.07-12.69,56.21-25.65c10.87-9.31,14.86-18.61,13.35-31.11c-1.77-14.63-3.08-29.58-4.35-44.04
		c-0.56-6.32-1.11-12.64-1.7-18.95c-3-31.93-6.2-64.38-9.29-95.76c-1.86-18.92-3.72-37.83-5.56-56.75
		c-1.87-19.3-3.68-38.6-5.48-57.9c-0.86-9.22-1.73-18.45-2.6-27.67c-1.29-13.63-2.56-27.27-3.83-40.9
		c-3.06-32.75-6.22-66.61-9.53-99.89l-0.27-2.71c-2.37-23.84-4.82-48.48-7.06-72.75c-0.12-1.29-0.07-2.62-0.03-3.9
		c0.11-3.19,0.21-5.94-2.02-7.96c-0.95-0.86-1.02-2.32-0.17-3.27c0.86-0.95,2.32-1.03,3.27-0.17c3.84,3.46,3.67,7.95,3.55,11.56
		c-0.04,1.18-0.08,2.3,0.01,3.3c2.25,24.25,4.69,48.89,7.06,72.72l0.27,2.71c3.31,33.3,6.47,67.17,9.53,99.92
		c1.27,13.63,2.55,27.27,3.83,40.9c0.87,9.23,1.73,18.45,2.6,27.68c1.81,19.3,3.61,38.6,5.48,57.89
		c1.83,18.92,3.69,37.83,5.56,56.74c3.09,31.39,6.29,63.84,9.29,95.78c0.59,6.32,1.15,12.65,1.71,18.98
		c1.27,14.42,2.58,29.33,4.34,43.89c1.7,14.03-2.91,24.88-14.94,35.18c-17.57,15.05-39.17,21.63-58.04,26.61
		c-21.59,5.7-44.09,8.71-66.87,8.95C537.83,1421.79,537.52,1421.79,537.2,1421.79z"/>
	<path d="M1957.52,1645.39c-5.62,0-11.33-0.14-17.16-0.42c-30.24-1.45-57.2-6.12-82.42-14.28c-17.26-5.58-39.42-14.1-57.7-30.59
		c-13.42-12.11-19.36-24.18-18.69-37.99c0.22-4.67,0.7-9.39,1.16-13.95c0.21-2.1,0.43-4.19,0.61-6.28l0.9-10.01
		c2.71-30.05,5.42-60.11,8.16-90.17c2.99-32.72,6.19-65.98,9.29-98.14c2.98-30.94,6.06-62.93,8.95-94.41l2.52-27.57
		c3.35-36.77,6.82-74.8,10.5-112.17c3.49-35.54,6.72-71.72,9.83-106.71c1.05-11.77,2.1-23.54,3.16-35.31
		c0.98-10.92,1.92-21.84,2.86-32.76c1.85-21.58,3.76-43.89,6.03-65.81c0.33-3.24,0.56-6.58,0.78-9.81
		c0.57-8.45,1.16-17.19,3.75-25.65c0.37-1.22,1.67-1.91,2.89-1.54c1.22,0.37,1.91,1.67,1.54,2.89c-2.43,7.95-3,16.41-3.56,24.6
		c-0.22,3.27-0.45,6.65-0.79,9.97c-2.26,21.88-4.17,44.17-6.02,65.73c-0.94,10.93-1.87,21.86-2.86,32.78
		c-1.06,11.77-2.11,23.54-3.16,35.31c-3.12,35-6.34,71.18-9.84,106.75c-3.67,37.36-7.14,75.38-10.49,112.14l-2.52,27.57
		c-2.89,31.49-5.97,63.49-8.95,94.43c-3.1,32.15-6.3,65.4-9.29,98.12c-2.75,30.05-5.45,60.11-8.16,90.16l-0.9,10.01
		c-0.19,2.1-0.4,4.21-0.62,6.33c-0.46,4.5-0.93,9.16-1.15,13.7c-0.6,12.32,4.86,23.23,17.17,34.33
		c17.63,15.9,39.2,24.19,56.02,29.63c24.83,8.03,51.39,12.63,81.22,14.06c38.61,1.86,72.52-2.51,103.64-13.33
		c13.14-4.57,29.68-11.64,40.99-25.86c11.65-14.63,10.92-20.86,9.33-34.52c-0.19-1.65-0.4-3.39-0.59-5.25
		c-0.13-1.27,0.79-2.41,2.06-2.54c1.28-0.12,2.41,0.79,2.54,2.06c0.19,1.84,0.39,3.56,0.58,5.19c1.64,14.06,2.54,21.81-10.31,37.95
		c-12.06,15.14-29.36,22.57-43.1,27.35C2018.76,1640.78,1989.75,1645.39,1957.52,1645.39z"/>
	<path d="M500.38,1419.18c-0.07,0-0.15,0-0.23-0.01c-3.52-0.34-7.13-0.53-10.63-0.71c-7.73-0.4-15.72-0.81-23.58-2.9
		c-15.35-4.08-32.76-8.71-46.85-20.3c-7.48-6.15-15.09-14.12-14.83-26.63c0.22-10.75,0.5-21.5,0.78-32.25
		c0.3-11.46,0.61-23.3,0.84-34.95c0.45-22.94,1.2-45.93,1.86-65.68c0.62-18.49,1.13-37.3,1.62-55.49
		c0.5-18.51,1.02-37.65,1.65-56.48c0.44-13.01,0.76-26.25,1.07-39.06c0.25-10.15,0.49-20.3,0.79-30.44
		c0.74-24.71,1.53-49.42,2.32-74.13c0.39-12.36,0.79-24.71,1.18-37.07c0.57-18.02,1.12-36.03,1.66-54.05l0.98-32.53
		c0.72-24.17,1.44-48.33,2.2-72.5c0.12-3.77,3.45-8,6.52-10.07c2.29-1.54,4.49-1.99,6.35-1.3c4.54,1.68,9.12,2.19,13.96,2.73
		c3.31,0.37,6.73,0.75,10.28,1.52c1.25,0.27,2.04,1.51,1.77,2.76c-0.27,1.25-1.51,2.05-2.76,1.77c-3.32-0.72-6.62-1.09-9.81-1.45
		c-4.91-0.55-9.99-1.11-15.06-2.99c-0.17-0.06-0.89-0.04-2.15,0.8c-2.28,1.54-4.42,4.57-4.47,6.37c-0.76,24.16-1.48,48.33-2.2,72.49
		l-0.97,32.53c-0.54,18.02-1.1,36.04-1.66,54.05c-0.39,12.36-0.78,24.71-1.18,37.07c-0.79,24.71-1.58,49.41-2.32,74.12
		c-0.3,10.14-0.55,20.28-0.79,30.42c-0.31,12.82-0.63,26.07-1.07,39.11c-0.63,18.81-1.15,37.94-1.65,56.45
		c-0.49,18.2-1,37.01-1.62,55.52c-0.66,19.74-1.4,42.71-1.86,65.62c-0.23,11.66-0.54,23.52-0.84,34.98
		c-0.28,10.74-0.56,21.49-0.78,32.23c-0.22,10.52,6.52,17.5,13.15,22.95c13.31,10.95,30.2,15.44,45.1,19.41
		c7.39,1.97,15.14,2.36,22.63,2.75c3.55,0.18,7.22,0.37,10.84,0.72c1.27,0.12,2.21,1.26,2.08,2.53
		C502.57,1418.28,501.56,1419.18,500.38,1419.18z"/>
	<path d="M843.57,1475.13c-7.95,0-15.99-0.47-24.66-1.17c-27.03-2.44-50.44-7.77-71.58-16.31c-10.74-4.34-19.94-10.78-27.34-19.14
		c-10.86-12.27-8.47-26.21-6.36-38.51c2.68-15.6,5.06-31.53,7.37-46.94c2.49-16.61,5.06-33.78,8-50.62
		c2.19-12.49,10.46-69.22,19.22-129.28c10.09-69.2,20.53-140.77,23.16-155.1c0.23-1.26,1.44-2.1,2.7-1.86
		c1.26,0.23,2.09,1.44,1.86,2.7c-2.62,14.25-13.05,85.76-23.14,154.93c-8.76,60.09-17.04,116.85-19.24,129.41
		c-2.94,16.78-5.5,33.92-7.99,50.5c-2.31,15.43-4.7,31.39-7.38,47.04c-2.41,14.08-3.45,24.81,5.26,34.65
		c6.92,7.82,15.54,13.85,25.61,17.92c20.71,8.37,43.68,13.6,70.24,15.99c16.22,1.32,30.17,1.8,45.45-0.13
		c0.06-0.01,0.12-0.01,0.17-0.02c22.28-1.13,43.96-5.43,66.26-13.14c13.85-4.79,31.46-12.11,44.85-26.35
		c7.79-8.29,10.74-17.4,9.01-27.85l-1.12-6.77c-3.38-20.43-6.87-41.56-9.55-62.46c-2.56-19.96-5.52-40.21-8.38-59.79
		c-3.86-26.42-7.85-53.73-10.93-80.74l-1.65-14.36c-3.46-30.09-7.04-61.2-9.32-91.99c-1.18-15.92-2.27-32.11-3.33-47.76
		c-2-29.57-4.06-60.15-6.81-90.15c-0.18-1.97-0.41-3.95-0.64-5.93c-0.62-5.26-1.25-10.71-0.93-16.08
		c0.7-11.68,1.93-23.49,3.12-34.92c0.53-5.08,1.06-10.15,1.54-15.23c0.46-4.77,0.93-9.53,1.4-14.3c1.24-12.46,2.52-25.34,3.43-38.02
		c0.71-10,1.06-21.57-3.88-32.25c-2.83-6.12-6.16-9.67-9.91-10.54c-3.73-0.88-8.25,0.81-13.43,4.99c-3.67,2.96-6.74,6.4-9.98,10.04
		c-1.62,1.81-3.29,3.69-5.04,5.48c-17.47,17.98-37.94,39.36-57.32,61.58c-17.52,20.09-38.76,31.07-64.91,33.55
		c-14.74,1.4-36.35,1.5-53.79-13.76c-0.96-0.84-1.06-2.31-0.22-3.27c0.84-0.96,2.3-1.06,3.27-0.22
		c12.42,10.87,27.93,14.76,50.3,12.64c24.92-2.37,45.15-12.83,61.86-31.99c19.45-22.3,39.97-43.74,57.49-61.76
		c1.67-1.72,3.32-3.56,4.9-5.34c3.23-3.62,6.57-7.36,10.53-10.56c6.35-5.13,12.2-7.11,17.39-5.9c5.21,1.22,9.61,5.63,13.07,13.11
		c5.4,11.69,5.05,23.95,4.29,34.53c-0.91,12.75-2.2,25.66-3.44,38.15c-0.47,4.76-0.95,9.52-1.4,14.28
		c-0.49,5.09-1.02,10.18-1.55,15.27c-1.18,11.38-2.41,23.14-3.1,34.72c-0.3,4.96,0.32,10.2,0.91,15.26
		c0.24,2.02,0.47,4.04,0.66,6.05c2.75,30.06,4.82,60.67,6.82,90.26c1.06,15.65,2.15,31.83,3.33,47.73
		c2.28,30.69,5.85,61.76,9.31,91.8l1.65,14.36c3.07,26.93,7.05,54.21,10.91,80.59c2.86,19.6,5.82,39.87,8.39,59.87
		c2.67,20.82,6.16,41.9,9.53,62.3l1.12,6.77c1.97,11.98-1.36,22.37-10.21,31.78c-14.08,14.98-32.36,22.6-46.71,27.56
		c-22.69,7.84-44.76,12.22-67.46,13.38C857.83,1474.75,850.73,1475.13,843.57,1475.13z"/>
	<path d="M872.81,1472.39c-0.06,0-0.13,0-0.19-0.01c-1.28-0.11-2.22-1.22-2.12-2.5c0.75-9.05,0.32-18.33-0.1-27.3
		c-0.15-3.18-0.29-6.35-0.39-9.53c-0.69-22.27-1.33-44.92-1.91-67.33c-0.16-6.33-0.3-12.66-0.43-18.99
		c-0.26-12.28-0.53-24.97-1.01-37.42c-0.54-14.09-0.92-28.41-1.28-42.26c-0.4-15.06-0.81-30.64-1.43-45.94
		c-0.69-17.03-0.97-34.35-1.25-51.09c-0.17-10.39-0.35-21.12-0.62-31.68c-0.82-32.09-1.63-58.14-2.54-81.97
		c-0.24-6.35-0.35-12.8-0.45-19.04c-0.19-11.5-0.39-23.38-1.44-35c-0.12-1.27,0.82-2.4,2.1-2.52c1.27-0.13,2.4,0.82,2.52,2.1
		c1.07,11.79,1.27,23.76,1.46,35.34c0.1,6.21,0.21,12.64,0.45,18.94c0.91,23.85,1.71,49.91,2.54,82.03
		c0.27,10.57,0.45,21.32,0.62,31.72c0.27,16.72,0.56,34.01,1.25,50.98c0.62,15.34,1.03,30.93,1.43,46.01
		c0.36,13.84,0.74,28.15,1.28,42.21c0.48,12.49,0.75,25.2,1.01,37.5c0.13,6.32,0.27,12.65,0.43,18.97
		c0.58,22.4,1.22,45.04,1.91,67.3c0.1,3.15,0.24,6.3,0.39,9.46c0.42,9.12,0.86,18.55,0.09,27.9
		C875.02,1471.48,874,1472.39,872.81,1472.39z"/>
	<path d="M2076.95,748.12c-0.18,0-0.37-0.02-0.55-0.07c-1.24-0.3-2-1.56-1.7-2.8c1.33-5.45,2.3-14.29,3.24-22.83
		c1.12-10.24,2.29-20.82,4.17-26.99c0.74-2.43-0.14-3.49-2.17-5.18c-0.82-0.68-2.02-0.7-5.37-0.65c-0.73,0.01-1.53,0.02-2.41,0.03
		c0,0-0.01,0-0.01,0c-1.28,0-2.31-1.03-2.32-2.31c0-1.28,1.03-2.32,2.31-2.33c0.87,0,1.65-0.02,2.36-0.03
		c3.88-0.06,6.23-0.1,8.41,1.72c1.74,1.45,5.35,4.46,3.63,10.1c-1.76,5.76-2.9,16.12-4,26.15c-1,9.09-1.94,17.68-3.35,23.43
		C2078.94,747.41,2078,748.12,2076.95,748.12z"/>
	<path d="M1957.21,857.07c-6.84,0-13.96-0.15-21.42-0.46c-24.7-1-46.03-4.41-65.21-10.42c-9.84-3.08-19.21-7.29-21.21-17.13
		c-2.41-11.87-4.48-24.02-6.48-35.78c-0.76-4.44-1.51-8.87-2.29-13.3c-3.45-19.73-6.14-36.08-8.49-51.46
		c-0.51-3.35-1.28-6.77-2.02-10.07c-1.64-7.29-3.34-14.82-2.6-22.74c0.12-1.27,1.26-2.21,2.52-2.09c1.27,0.12,2.21,1.25,2.09,2.52
		c-0.67,7.19,0.87,14.04,2.51,21.3c0.76,3.38,1.55,6.88,2.08,10.39c2.34,15.35,5.03,31.67,8.47,51.36
		c0.78,4.44,1.53,8.88,2.29,13.32c2,11.72,4.06,23.84,6.45,35.63c1.6,7.86,10.16,11.16,18.06,13.63
		c18.79,5.89,39.72,9.23,64.01,10.22c38.77,1.57,68.26-0.92,95.6-8.1c3.89-1.02,7.73-2.47,11.44-3.87l1.98-0.75
		c10.46-3.91,12.43-13.31,14.52-23.25c0.19-0.92,0.39-1.84,0.59-2.76l1.78-8.15c4.28-19.57,8.7-39.81,12.79-59.77
		c0.26-1.25,1.49-2.06,2.73-1.81c1.25,0.26,2.06,1.48,1.81,2.73c-4.09,19.98-8.52,40.24-12.8,59.83l-1.78,8.15
		c-0.2,0.9-0.39,1.81-0.58,2.72c-2.15,10.24-4.58,21.84-17.43,26.64l-1.97,0.74c-3.82,1.44-7.78,2.93-11.9,4.02
		C2010.24,854.27,1986.34,857.07,1957.21,857.07z"/>
	<path d="M1179.9,1005.99c-3.37,0-6.72-0.05-10.04-0.09c-2.49-0.03-4.98-0.07-7.47-0.08c-15.07-0.09-29.31-3.75-40.03-6.92
		c-7.28-2.15-13.09-6.51-17.82-10.49c-0.98-0.82-1.1-2.29-0.28-3.26c0.83-0.98,2.29-1.1,3.26-0.28c4.36,3.67,9.69,7.68,16.15,9.59
		c15.49,4.58,27.44,6.66,38.74,6.73c2.5,0.02,5.01,0.05,7.51,0.08c11.12,0.15,22.62,0.31,33.87-1.32
		c15.43-2.23,28.18-4.45,40.09-10.83c4.25-2.28,8.27-4.43,9.83-9.34c8.33-26.3,17.55-53.85,29-86.68c0.53-1.53,1.25-3.03,1.94-4.48
		c1.75-3.66,3.39-7.12,2.19-10.95c-0.38-1.22,0.3-2.52,1.52-2.9c1.22-0.39,2.52,0.3,2.9,1.52c1.75,5.57-0.47,10.22-2.43,14.33
		c-0.67,1.4-1.29,2.72-1.75,4.01c-11.43,32.79-20.64,60.29-28.96,86.55c-2.13,6.71-7.63,9.66-12.06,12.03
		c-12.58,6.74-25.73,9.03-41.61,11.33C1196.25,1005.73,1188.01,1005.99,1179.9,1005.99z"/>
	<path d="M1537.16,765.77c-16.92,0-34.31-1.1-52-3.29c-20.16-2.5-41.01-5.08-59.42-17.12c-1.07-0.7-1.37-2.14-0.67-3.21
		c0.7-1.07,2.14-1.37,3.21-0.67c17.51,11.46,37.82,13.97,57.45,16.4c27.08,3.35,53.45,4.12,78.39,2.28
		c28.59-2.11,58.1-4.28,85.48-15.1c2.62-1.04,5-2.42,7.51-3.88c2.17-1.26,4.41-2.56,6.81-3.62c1.17-0.52,2.54,0.02,3.05,1.19
		c0.52,1.17-0.02,2.54-1.19,3.05c-2.17,0.95-4.2,2.13-6.35,3.38c-2.55,1.48-5.19,3.02-8.14,4.18
		c-28.03,11.08-57.9,13.28-86.78,15.41C1555.56,765.44,1546.43,765.77,1537.16,765.77z"/>
	<path d="M1544.01,897.04c-15.55,0-31.39-1.16-47.42-3.47c-15.79-2.28-32.33-5.47-45.69-17.02c-0.97-0.84-1.08-2.3-0.24-3.27
		c0.84-0.97,2.3-1.08,3.27-0.24c12.42,10.73,28.22,13.76,43.33,15.94c37.76,5.45,74.35,4.39,108.77-3.16
		c11.67-2.56,23.85-5.77,33.29-14.3c0.95-0.85,2.42-0.78,3.27,0.17c0.86,0.95,0.78,2.41-0.17,3.27
		c-10.29,9.29-23.13,12.7-35.41,15.38C1586.68,894.81,1565.61,897.04,1544.01,897.04z"/>
	<path d="M252.1,980.12c-16.19,0-30.43-1.32-43.77-4.03c-11.41-2.31-24.56-5.37-36.19-12.46c-1.09-0.67-1.44-2.09-0.77-3.18
		c0.67-1.09,2.09-1.44,3.18-0.77c10.99,6.7,23.16,9.54,34.69,11.87c18.56,3.76,38.96,4.79,64.19,3.24
		c24.83-1.53,52.97-3.26,77.11-18.88c1.07-0.7,2.51-0.39,3.2,0.69c0.7,1.07,0.39,2.51-0.69,3.2
		c-25.16,16.28-53.94,18.05-79.34,19.61C266.12,979.88,258.94,980.12,252.1,980.12z"/>
	<path d="M836.42,1014.44c-0.93,0-1.81-0.56-2.16-1.49c-0.46-1.19,0.14-2.53,1.33-2.99c14.45-5.56,27.69-14.42,37.29-24.95
		c11.1-12.17,22.99-23.95,34.49-35.35c4.25-4.21,8.49-8.41,12.71-12.65c2.68-2.69,5.51-5.28,8.25-7.78
		c1.26-1.15,2.52-2.31,3.78-3.47c0.94-0.87,2.4-0.82,3.27,0.12c0.87,0.94,0.82,2.4-0.12,3.27c-1.26,1.17-2.54,2.34-3.81,3.5
		c-2.7,2.47-5.49,5.01-8.09,7.63c-4.22,4.24-8.48,8.46-12.73,12.67c-11.46,11.35-23.31,23.09-34.32,35.18
		c-10.22,11.21-23.72,20.25-39.05,26.15C836.98,1014.39,836.7,1014.44,836.42,1014.44z"/>
	<path d="M763.58,1020.37c-0.08,0-0.15,0-0.23-0.01c-9.82-0.97-21.4-5.33-25.92-7.16c-5.95-2.41-7-7.29-7.27-10.75
		c-0.53-6.85-1.08-13.69-1.62-20.54c-1.63-20.44-3.31-41.58-4.64-62.41l-0.1-1.61c-0.82-12.86-1.64-25.77-2.4-38.59
		c-0.5-8.46-1.01-17.22,4.36-25.25c12.28-18.35,24.93-36.9,37.17-54.83c6.6-9.67,13.2-19.34,19.77-29.02
		c4.63-6.82,11.69-9.77,21-8.77c15.47,1.66,30.76,3.49,45.46,5.45c9.23,1.23,18.67,2.22,27.79,3.17
		c14.15,1.48,28.78,3.01,43.09,5.49c1.26,0.22,2.11,1.42,1.89,2.68c-0.22,1.26-1.42,2.1-2.68,1.89
		c-14.16-2.45-28.71-3.97-42.78-5.44c-9.16-0.96-18.62-1.95-27.92-3.19c-14.66-1.95-29.91-3.78-45.34-5.44
		c-7.68-0.82-12.98,1.33-16.67,6.76c-6.58,9.69-13.17,19.36-19.77,29.03c-12.23,17.92-24.88,36.46-37.15,54.79
		c-4.19,6.27-4.14,12.94-3.59,22.4c0.75,12.82,1.58,25.72,2.4,38.57l0.1,1.61c1.33,20.79,3.01,41.91,4.63,62.33
		c0.55,6.85,1.09,13.7,1.62,20.54c0.29,3.74,1.52,5.65,4.39,6.81c4.34,1.75,15.41,5.93,24.64,6.84c1.27,0.13,2.2,1.26,2.08,2.53
		C765.76,1019.47,764.76,1020.37,763.58,1020.37z"/>
	<path d="M261.85,1075.74c-14.54,0-29.21-1.51-43.93-4.54c-7.93-1.63-18.03-4.54-25.83-12.6c-0.89-0.92-0.87-2.39,0.05-3.28
		c0.92-0.89,2.39-0.87,3.28,0.05c6.92,7.15,16.16,9.79,23.43,11.28c31.47,6.48,62.71,5.87,92.84-1.78
		c9.28-2.36,19.8-5.03,27.02-13.37c0.84-0.97,2.3-1.07,3.27-0.23c0.97,0.84,1.07,2.3,0.23,3.27c-8.18,9.44-19.44,12.3-29.38,14.83
		C296.12,1073.61,279.08,1075.74,261.85,1075.74z"/>
	<path d="M1065.76,877.07c-0.65,0-1.29-0.27-1.75-0.79c-5.33-6.11-5.63-12.85-0.92-20.59l8.18-13.46
		c18.38-30.23,37.38-61.49,55.83-92.37c4.7-7.86,11.6-13.05,19.45-14.62c22.4-4.48,39.6-4.84,55.76-1.17
		c5.76,1.31,12.92,2.93,17.24,7.99c13.28,15.57,18,32.84,14.42,52.8l-0.46,2.5c-1.56,8.49-3.17,17.26-0.92,25.74
		c0.33,1.24-0.41,2.51-1.64,2.83c-1.23,0.32-2.51-0.41-2.83-1.64c-2.52-9.48-0.74-19.2,0.84-27.77l0.45-2.48
		c3.32-18.51-1.06-34.53-13.38-48.98c-3.31-3.89-9.65-5.32-14.74-6.48c-15.49-3.52-32.09-3.15-53.82,1.2
		c-6.55,1.31-12.37,5.73-16.39,12.45c-18.46,30.89-37.47,62.16-55.85,92.39l-8.18,13.46c-3.67,6.04-3.53,10.56,0.46,15.14
		c0.84,0.96,0.74,2.43-0.22,3.27C1066.84,876.88,1066.3,877.07,1065.76,877.07z"/>
	<path d="M1976.78,717.11c-1.2,0-2.22-0.93-2.31-2.15c-0.09-1.28,0.87-2.39,2.14-2.48c2.45-0.18,4.69-0.33,6.83-0.48
		c6.17-0.42,11.5-0.79,18.51-1.48c20.9-2.05,41.3-4.36,61.02-10.12c2.01-0.59,3.96-1.46,6.02-2.39c4.22-1.9,8.58-3.86,13.82-3.44
		c1.27,0.1,2.23,1.22,2.12,2.49c-0.1,1.28-1.24,2.22-2.49,2.12c-4.06-0.33-7.7,1.31-11.55,3.05c-2.11,0.95-4.3,1.94-6.62,2.61
		c-20.11,5.88-40.74,8.22-61.87,10.29c-7.08,0.69-12.44,1.06-18.64,1.49c-2.14,0.15-4.38,0.3-6.82,0.48
		C1976.89,717.11,1976.84,717.11,1976.78,717.11z"/>
	<path d="M1958.94,690.63c-5.56,0-10.93-0.24-16.01-0.54c-8.02-0.49-16.16-0.98-23.99-3.76c-0.52-0.19-1.07-0.34-1.61-0.5
		c-2.85-0.84-7.63-2.23-7.17-8.5c0.06-0.78,0.51-1.49,1.2-1.86c0.49-0.27,0.98-0.56,1.47-0.86c1.29-0.77,2.62-1.56,4.08-2.09
		c1.2-0.43,2.53,0.2,2.96,1.4c0.43,1.2-0.2,2.53-1.4,2.96c-1.04,0.37-2.17,1.05-3.26,1.7c-0.14,0.08-0.27,0.16-0.41,0.24
		c0.19,1.34,1.17,1.77,3.84,2.55c0.63,0.18,1.26,0.37,1.86,0.58c7.21,2.56,14.67,3.02,22.57,3.49c15.41,0.93,33.4,1.2,51-3.83
		c0.44-0.13,0.88-0.21,1.32-0.29c0.55-0.1,0.98-0.18,1.39-0.38c0.88-0.43,3.07-1.51,3.79-2.14c-0.52-0.9-2.5-2.78-3.29-3.54
		c-0.93-0.88-0.96-2.35-0.08-3.28c0.88-0.93,2.35-0.96,3.28-0.08c3.23,3.08,5.16,5.13,4.78,7.62c-0.37,2.44-2.68,3.73-6.43,5.57
		c-0.99,0.49-1.89,0.65-2.61,0.78c-0.29,0.05-0.58,0.1-0.87,0.18C1982.98,689.61,1970.54,690.63,1958.94,690.63z"/>
	<path d="M1998.87,675.92c-0.1,0-0.21-0.01-0.31-0.02c-1.27-0.17-2.16-1.33-1.99-2.6c0.42-3.17,1.08-6.41,1.79-9.85
		c1.38-6.74,2.8-13.72,2.25-19.97c-0.11-1.27,0.83-2.4,2.1-2.51c1.24-0.11,2.4,0.83,2.51,2.1c0.62,6.93-0.88,14.24-2.32,21.31
		c-0.68,3.35-1.33,6.52-1.73,9.53C2001.01,675.07,2000.02,675.92,1998.87,675.92z"/>
	<path d="M1157.67,881.56c-0.35,0-0.7-0.08-1.03-0.24c-1.14-0.57-1.61-1.96-1.04-3.11c15.85-31.79,29.37-57.58,42.52-81.19
		c0.43-0.77,0.97-1.8,1.6-3.02c5.27-10.09,16.24-31.08,30.18-31.7c1.27-0.05,2.36,0.93,2.42,2.21c0.06,1.28-0.93,2.36-2.21,2.42
		c-11.27,0.5-21.79,20.62-26.28,29.21c-0.66,1.26-1.21,2.32-1.66,3.13c-13.12,23.54-26.6,49.28-42.42,81
		C1159.34,881.09,1158.52,881.56,1157.67,881.56z"/>
	<path d="M1539.53,738.88c-9.56,0-19.16-0.94-28.61-4.19l-0.27-0.09c-4.06-1.4-4.46-1.66-8.48-5.64c-0.49-0.49-0.74-1.18-0.67-1.87
		c0.24-2.46,2-3.51,3.16-4.21c1.32-0.79,2.04-1.22,1.88-3.75c-0.08-1.28,0.88-2.38,2.16-2.46c1.3-0.09,2.38,0.88,2.46,2.16
		c0.35,5.35-2.45,7.02-4.12,8.02c-0.08,0.05-0.16,0.1-0.25,0.15c2.18,2.12,2.6,2.27,5.37,3.22l0.27,0.09
		c15.07,5.18,30.99,4.1,46.39,3.06l3.78-0.25c8.1-0.53,13.99-1.94,19.11-4.59c2.64-1.36,3.33-2.3,3.49-2.59
		c-0.07-0.08-0.19-0.21-0.43-0.39c-5.48-4.04-4.59-8.71-3.94-12.12c0.21-1.11,0.41-2.15,0.43-3.15c0.1-4.11,0.9-8.56,1.67-12.85
		c0.38-2.14,0.75-4.16,1-6.01c0.17-1.27,1.34-2.16,2.61-1.98c1.27,0.17,2.16,1.34,1.98,2.61c-0.27,1.95-0.64,4.02-1.03,6.21
		c-0.74,4.13-1.51,8.39-1.6,12.15c-0.03,1.38-0.28,2.66-0.51,3.9c-0.62,3.26-0.99,5.22,2.14,7.53c2.1,1.55,2.43,3.26,2.34,4.42
		c-0.18,2.31-2.15,4.4-6.02,6.4c-5.71,2.95-12.17,4.53-20.94,5.1l-3.76,0.25C1552.66,738.43,1546.1,738.88,1539.53,738.88z"/>
	<path d="M1168.53,903.52c-12.62,0-24.54-2.26-37.5-4.97c-1.25-0.26-2.05-1.49-1.79-2.74c0.26-1.25,1.5-2.05,2.74-1.79
		c14.39,3.01,27.44,5.45,41.46,4.75c11.33-0.56,32.53-2.34,44.5-4.91c1.25-0.27,2.48,0.53,2.75,1.78c0.27,1.25-0.53,2.48-1.78,2.75
		c-12.24,2.63-33.77,4.44-45.25,5.01C1171.94,903.48,1170.23,903.52,1168.53,903.52z"/>
	<path d="M1918.5,676.45c-1.24,0-2.27-0.98-2.31-2.23c-0.22-5.84-1.36-11.74-2.47-17.43c-0.73-3.75-1.48-7.63-1.98-11.53l-0.07-0.56
		c-1.37-10.64-0.76-11.69,9.36-16.13c13.87-6.09,28.56-6.01,42.75-5.94c1.43,0.01,2.86,0.01,4.29,0.02
		c9.24,0.01,19.93,0.39,29.77,4.92c0.49,0.23,1.01,0.44,1.54,0.66c3.3,1.38,8.28,3.46,7.83,9.71c-0.46,6.56-5.72,7.95-9.56,8.96
		c-0.58,0.15-1.16,0.31-1.73,0.48c-14.19,4.28-28.9,4.27-43.08,4.27c-1.77,0-3.53,0-5.3,0.01c-9.54,0.05-20.51-0.54-30.93-4.89
		c0.46,3.07,1.06,6.15,1.64,9.15c1.14,5.87,2.32,11.94,2.55,18.14c0.05,1.28-0.95,2.35-2.23,2.4
		C1918.56,676.45,1918.53,676.45,1918.5,676.45z M1915.92,641.35c10.35,5.06,21.8,5.71,31.61,5.66c1.77-0.01,3.54-0.01,5.32-0.01
		c13.93,0,28.2,0.01,41.74-4.07c0.61-0.18,1.24-0.35,1.88-0.52c4.18-1.1,5.9-1.85,6.11-4.81c0.19-2.67-1.3-3.56-5-5.11
		c-0.57-0.24-1.14-0.48-1.69-0.73c-9-4.14-19.09-4.49-27.84-4.49c-1.43,0-2.87-0.01-4.31-0.02c-13.71-0.06-27.89-0.14-40.87,5.55
		c-3.74,1.64-6.21,2.72-6.85,3.82C1915.58,637.41,1915.64,638.95,1915.92,641.35z"/>
	<path d="M1176.38,759.09c-1.67,0-3.59-0.03-5.84-0.08c-20.93-0.5-34.33-3.37-39.85-8.54c-0.93-0.87-0.98-2.34-0.1-3.27
		c0.88-0.93,2.34-0.98,3.28-0.1c3.2,3,12.18,6.7,36.79,7.29c11.3,0.27,13.78-0.16,19.24-1.08c1.66-0.28,3.58-0.61,6.07-0.97
		c8.47-1.24,14.56-3.24,21.71-7.12c1.13-0.61,2.53-0.19,3.14,0.93c0.61,1.12,0.19,2.53-0.93,3.14c-7.57,4.11-14.31,6.32-23.25,7.63
		c-2.45,0.36-4.33,0.68-5.96,0.96C1186.15,758.63,1183.45,759.09,1176.38,759.09z"/>
	<path d="M1217.98,898.49c-1.15,0-2.15-0.86-2.3-2.03c-0.16-1.27,0.74-2.43,2.01-2.59c24.15-3.03,45.75-6.48,65.55-18.1
		c4.15-2.44,6.84-5.78,7.78-9.65c0.91-3.79,0.07-7.87-2.44-11.81c-3.74-5.87-7.67-11.76-11.47-17.47
		c-4.11-6.16-8.35-12.52-12.38-18.89c-3.7-5.85-7.03-8.9-10.18-9.32c-3.98-0.54-8.38,3.12-13.3,7.6c-0.89,0.81-6.49,7.74-7.36,9.2
		c-0.66,1.1-2.08,1.46-3.18,0.8c-1.1-0.65-1.46-2.08-0.81-3.18c1.05-1.76,6.89-9.05,8.23-10.26c5.8-5.27,11.09-9.57,17.04-8.76
		c4.66,0.63,8.94,4.27,13.48,11.44c4,6.32,8.23,12.67,12.32,18.8c3.82,5.72,7.76,11.64,11.52,17.55c3.2,5.02,4.25,10.34,3.04,15.38
		c-1.22,5.05-4.75,9.51-9.93,12.56c-20.54,12.05-43.56,15.73-67.32,18.71C1218.17,898.48,1218.07,898.49,1217.98,898.49z"/>
	<path d="M518.01,810.07c-6.18,0-12.49-0.17-18.7-0.64c-1.28-0.1-1.95-1.06-2.23-1.47c-0.85-0.96-0.79-2.46,0.17-3.31
		c0.96-0.85,2.39-0.81,3.24,0.15c0.02,0.03,0.05,0.05,0.07,0.08c14.24,1.01,28.02,0.52,44.49-0.23c6.68-0.3,13.44-1.19,19.97-2.05
		c6.16-0.81,12.54-1.65,18.9-2.01c1.26-0.06,2.37,0.9,2.44,2.18c0.07,1.28-0.9,2.37-2.18,2.44c-6.19,0.35-12.48,1.18-18.56,1.98
		c-6.63,0.87-13.49,1.78-20.37,2.09C537.1,809.64,527.72,810.07,518.01,810.07z"/>
	<path d="M1845.83,684.62c-0.98,0-1.89-0.63-2.21-1.61c-0.21-0.67-0.47-1.39-0.73-2.14c-1.63-4.61-3.85-10.93,0.93-13.28
		c6.01-2.95,12.38-4.72,18.54-6.43c1.06-0.29,2.12-0.59,3.17-0.89c9.14-2.59,18.56-3.82,27.68-5.01c6.87-0.89,13.96-1.82,20.8-3.32
		c1.27-0.27,2.49,0.52,2.76,1.77c0.27,1.25-0.52,2.48-1.77,2.76c-7.03,1.54-14.23,2.48-21.19,3.39c-8.95,1.17-18.21,2.37-27.02,4.87
		c-1.07,0.3-2.13,0.6-3.2,0.89c-6.23,1.73-12.12,3.36-17.74,6.12c-1.09,0.54,0.72,5.66,1.4,7.58c0.28,0.79,0.55,1.56,0.78,2.27
		c0.39,1.22-0.28,2.52-1.5,2.91C1846.3,684.59,1846.06,684.62,1845.83,684.62z"/>
	<path d="M2076.64,688.83c-0.17,0-0.34-0.02-0.52-0.06c-1.25-0.28-2.03-1.53-1.75-2.77c1.08-4.73,2.25-7.88,3.1-10.18
		c0.46-1.25,0.99-2.66,0.96-3.09c0.01,0.04-0.28-0.22-1.14-0.66c-0.05-0.02-0.09-0.05-0.14-0.08c-13.5-8.02-28.35-10.25-44.08-12.6
		l-2.84-0.43c-3.73-0.56-7.6-0.88-11.33-1.18c-5.52-0.45-11.23-0.91-16.82-2.19c-1.25-0.29-2.03-1.53-1.74-2.77
		c0.28-1.25,1.52-2.02,2.77-1.74c5.27,1.2,10.81,1.65,16.17,2.09c3.82,0.31,7.76,0.63,11.65,1.22l2.83,0.43
		c15.46,2.32,31.43,4.71,45.69,13.16c4.94,2.53,3.8,5.59,2.36,9.46c-0.81,2.18-1.91,5.16-2.92,9.59
		C2078.65,688.1,2077.7,688.83,2076.64,688.83z"/>
	<path d="M1908.93,716.16c-0.1,0-0.2-0.01-0.3-0.02l-3.5-0.44c-23.04-2.92-54.59-6.93-74.19-17.78c-3.72-2.06-5.9-5.39-5.83-8.9
		c0.08-3.52,2.68-5.07,5.19-6.58c0.49-0.29,1.01-0.6,1.55-0.95c1.34-0.86,2.54-1.38,3.6-1.84c0.62-0.27,1.23-0.53,1.86-0.87
		c1.13-0.61,2.53-0.18,3.13,0.95c0.6,1.13,0.17,2.53-0.95,3.13c-0.74,0.4-1.46,0.71-2.19,1.03c-0.99,0.43-1.92,0.84-2.95,1.5
		c-0.58,0.37-1.14,0.71-1.66,1.02c-2.33,1.4-2.92,1.86-2.94,2.7c-0.04,1.76,1.25,3.53,3.44,4.75
		c18.82,10.42,51.14,14.52,72.53,17.23l3.5,0.45c1.27,0.16,2.17,1.32,2,2.59C1911.08,715.31,1910.08,716.16,1908.93,716.16z"/>
	<path d="M793.81,1021.42c-6.83,0-13.7-0.32-20.38-0.63c-3.31-0.15-6.63-0.31-9.94-0.43c-1.28-0.05-2.28-1.12-2.23-2.4
		c0.04-1.28,1.13-2.28,2.4-2.23c3.33,0.12,6.66,0.27,9.99,0.43c7.33,0.34,14.9,0.69,22.31,0.62c12.27-0.13,26.45-0.77,39.49-6.76
		c1.16-0.53,2.54-0.02,3.07,1.14c0.53,1.16,0.02,2.54-1.14,3.07c-13.86,6.37-28.63,7.05-41.37,7.19
		C795.28,1021.42,794.55,1021.42,793.81,1021.42z"/>
	<path d="M1508.92,721.76c-1.1,0-2.08-0.79-2.28-1.92c-0.86-4.93-1.83-9.93-2.77-14.77c-0.87-4.47-1.76-9.1-2.57-13.67
		c-0.82-4.59,1.51-9.07,5.28-10.2c1.56-0.46,3-1.22,4.53-2.02c1.88-0.99,3.83-2.01,6.16-2.58c17.63-4.36,36.13-4.8,56.54-1.36
		c11.66,1.96,16.19,7.16,14.69,16.84c-0.19,1.26-1.38,2.13-2.64,1.94c-1.26-0.2-2.13-1.38-1.94-2.64
		c0.93-6.01-0.55-9.83-10.88-11.57c-19.78-3.33-37.66-2.91-54.66,1.29c-1.79,0.44-3.4,1.29-5.12,2.19
		c-1.66,0.87-3.37,1.77-5.36,2.36c-1.48,0.44-2.44,2.75-2.05,4.95c0.81,4.53,1.7,9.14,2.56,13.6c0.94,4.86,1.92,9.89,2.78,14.86
		c0.22,1.26-0.62,2.46-1.88,2.68C1509.18,721.75,1509.05,721.76,1508.92,721.76z"/>
	<path d="M1131.51,898.6c-0.18,0-0.36-0.02-0.55-0.07c-3.72-0.9-10.31-1.93-17.29-3.01c-11.9-1.85-25.4-3.94-31.64-6.45
		c-4.31-1.73-16.17-7.69-19.26-14.46c-0.53-1.16-0.02-2.54,1.14-3.07c1.16-0.53,2.54-0.02,3.07,1.14
		c2.05,4.48,11.22,9.86,16.77,12.09c5.76,2.31,18.97,4.36,30.63,6.17c7.38,1.15,13.76,2.13,17.67,3.09c1.24,0.3,2.01,1.55,1.7,2.8
		C1133.5,897.89,1132.55,898.6,1131.51,898.6z"/>
	<path d="M549.19,793.08c-0.09,0-0.18-0.01-0.27-0.02c-1.27-0.15-2.18-1.3-2.03-2.57c0.61-5.26,0-10.44-0.64-15.92
		c-0.48-4.08-0.97-8.29-0.92-12.55c0-0.36-0.1-0.63-0.36-0.89c-0.59-0.59-1.8-0.98-3.09-0.98c-0.33-0.02-0.54,0-0.81,0
		c-3.34,0-6.68-0.03-10.02-0.06c-8.6-0.08-17.5-0.16-26.18,0.31c-1.26,0.07-2.51,0.13-3.77,0.2c-8.68,0.44-17.66,0.89-26.14,3.19
		c-1.24,0.33-2.51-0.4-2.84-1.63c-0.33-1.24,0.4-2.51,1.63-2.84c8.97-2.43,18.2-2.89,27.12-3.34c1.25-0.06,2.5-0.13,3.75-0.19
		c8.83-0.48,17.8-0.4,26.48-0.32c3.59,0.03,7.19,0.08,10.77,0.06c0.01,0,0.01,0,0.02,0c2.58,0,4.9,0.86,6.38,2.35
		c1.13,1.15,1.72,2.6,1.7,4.21c-0.05,3.96,0.43,8.02,0.89,11.95c0.65,5.5,1.31,11.2,0.64,16.99
		C551.35,792.21,550.35,793.08,549.19,793.08z"/>
	<path d="M1953.84,762.27c-5.44,0-10.81-0.21-16.1-0.41c-2-0.08-4.1-0.07-6.12-0.06c-6.42,0.04-13.09,0.08-19.54-2.56
		c-1.18-0.48-1.75-1.84-1.27-3.02c0.48-1.18,1.83-1.75,3.02-1.27c5.59,2.29,11.5,2.25,17.75,2.22c2.07-0.01,4.22-0.02,6.33,0.06
		c11.3,0.44,22.99,0.9,34.79-0.76c1.26-0.19,2.44,0.71,2.62,1.97c0.18,1.27-0.71,2.44-1.97,2.62
		C1966.75,761.98,1960.24,762.27,1953.84,762.27z"/>
	<path d="M1911.65,759.52c-0.29,0-0.58-0.04-0.87-0.12c-0.34-0.1-0.65-0.27-0.92-0.51c-2.87-2.59-2.73-5.98-2.64-8.47
		c0.01-0.32,0.03-0.63,0.03-0.95l0.03-1.61c0.19-9.04,0.4-18.39-0.76-27.37c-1.16-8.97,2.73-15.7,6.48-22.2
		c0.96-1.65,1.94-3.37,2.81-5.06c0.97-1.9,2.75-2.96,5-3.01c1.84-0.04,3.75-0.18,5.59-0.32c3.29-0.25,6.68-0.51,10.08-0.21
		c5.85,0.52,11.87,0.54,17.68,0.56c7.96,0.03,16.19,0.06,24.31,1.33c1.26,0.2,2.13,1.38,1.93,2.65c-0.2,1.26-1.39,2.13-2.65,1.93
		c-7.78-1.21-15.83-1.25-23.61-1.28c-5.91-0.02-12.03-0.05-18.07-0.58c-3.02-0.27-6.08-0.03-9.32,0.21
		c-1.91,0.14-3.88,0.29-5.85,0.33c-0.73,0.02-0.85,0.26-0.97,0.49c-0.92,1.8-1.94,3.57-2.93,5.27c-3.53,6.1-6.86,11.87-5.9,19.29
		c1.2,9.33,1,18.85,0.8,28.07l-0.03,1.61c-0.01,0.34-0.02,0.68-0.03,1.03c-0.04,1.08-0.06,1.97,0.05,2.73c1.8-2,2.38-2.7,2.9-3.32
		c0.55-0.66,1.04-1.26,2.65-3.02c0.86-0.94,2.33-1.01,3.27-0.15c0.94,0.86,1.01,2.33,0.15,3.27c-1.52,1.67-1.99,2.23-2.5,2.85
		c-0.65,0.78-1.37,1.66-4.13,4.68c-0.16,0.46-0.49,1.08-1.19,1.5C1912.64,759.39,1912.16,759.52,1911.65,759.52z M1913.53,758.34
		C1913.53,758.34,1913.53,758.34,1913.53,758.34C1913.53,758.34,1913.53,758.34,1913.53,758.34z M1913.54,758.34
		C1913.54,758.34,1913.54,758.34,1913.54,758.34C1913.54,758.34,1913.54,758.34,1913.54,758.34z M1913.54,758.34
		C1913.54,758.34,1913.54,758.34,1913.54,758.34C1913.54,758.34,1913.54,758.34,1913.54,758.34z M1913.55,758.33
		C1913.55,758.33,1913.54,758.33,1913.55,758.33C1913.54,758.33,1913.55,758.33,1913.55,758.33z M1913.55,758.33
		C1913.55,758.33,1913.55,758.33,1913.55,758.33C1913.55,758.33,1913.55,758.33,1913.55,758.33z M1913.55,758.33
		C1913.55,758.33,1913.55,758.33,1913.55,758.33C1913.55,758.33,1913.55,758.33,1913.55,758.33z M1913.56,758.33L1913.56,758.33
		L1913.56,758.33z M1913.56,758.32C1913.56,758.32,1913.56,758.32,1913.56,758.32S1913.56,758.32,1913.56,758.32z"/>
	<path d="M2072.15,689.62c-0.08,0-0.17,0-0.25-0.01c-8.31-0.89-16.56-0.95-25.29-1.01c-9.01-0.07-18.33-0.13-27.89-1.18
		c-0.86-0.1-1.6-0.66-1.91-1.47c-0.31-0.81-0.14-1.72,0.43-2.37c1.2-1.35,1.92-3.08,2.62-4.76c1.25-3,2.81-6.74,7.49-7.02
		c5.9-0.36,11.95-0.49,17.8-0.62l2.37-0.05c3.21-0.07,6.2-0.19,9.15-0.29c7.28-0.27,14.15-0.53,23.23-0.21
		c1.28,0.04,2.28,1.12,2.24,2.39c-0.04,1.28-1.08,2.27-2.4,2.24c-8.92-0.31-15.71-0.05-22.9,0.21c-2.97,0.11-5.98,0.22-9.21,0.3
		l-2.37,0.05c-5.81,0.13-11.81,0.27-17.62,0.62c-1.65,0.1-2.23,1.16-3.49,4.18c-0.34,0.83-0.71,1.7-1.15,2.58
		c8.03,0.68,15.95,0.73,23.65,0.79c8.46,0.06,17.2,0.12,25.75,1.04c1.27,0.14,2.19,1.28,2.06,2.55
		C2074.33,688.74,2073.32,689.62,2072.15,689.62z"/>
	<path d="M612.61,819.28c-1.28,0-2.31-1.03-2.32-2.31l0-1.08c-0.01-7.91-0.02-10.88-0.56-18.87c-0.06-1.4-0.15-2.51-0.24-3.45
		c-0.46-5.27-0.01-7,5.7-10.67c-0.65-9.61-8.59-12.54-17.13-14.24c-8.84-1.76-16.84,3.37-21.72,7.62c1.11,0.98,2.18,2.06,3.22,3.12
		c1.47,1.5,2.86,2.91,4.1,3.73c1.07,0.71,1.36,2.15,0.65,3.21c-0.71,1.07-2.14,1.35-3.21,0.65c-1.64-1.09-3.19-2.67-4.84-4.34
		c-1.57-1.6-3.2-3.25-4.77-4.29c-0.58-0.39-0.96-1.02-1.02-1.71c-0.07-0.7,0.19-1.39,0.69-1.87c8.87-8.68,18.75-12.46,27.82-10.66
		c6.24,1.25,20.87,4.16,20.9,20.03c0,0.81-0.42,1.55-1.1,1.98c-5,3.08-5,3.08-4.66,7.04c0.09,1,0.19,2.18,0.25,3.6
		c0.54,8.08,0.55,11.31,0.56,19.11l0,1.08C614.93,818.24,613.89,819.28,612.61,819.28C612.61,819.28,612.61,819.28,612.61,819.28z"
		/>
	<path d="M1878.03,686.31c-0.85,0-1.74-0.05-2.67-0.17c-1.82-0.22-2.9-0.23-4.54-0.25c-1.43-0.02-3.2-0.04-6.11-0.2
		c-1.34-0.02-2.94,0-4.65,0.02c-7.35,0.08-16.51,0.19-22.66-2.8c-1.15-0.56-1.63-1.95-1.07-3.1c0.56-1.15,1.95-1.63,3.1-1.07
		c5.17,2.51,13.71,2.41,20.58,2.34c1.76-0.02,3.41-0.04,4.87-0.01c2.9,0.16,4.62,0.18,6,0.19c1.72,0.02,2.97,0.03,5.04,0.28
		c7,0.85,11.41-2.08,15.7-10.45c0.58-1.14,1.98-1.59,3.12-1.01c1.14,0.58,1.59,1.98,1,3.12
		C1892.56,679.42,1887.7,686.31,1878.03,686.31z"/>
	<path d="M1893.67,674.48c-0.28,0-0.56-0.05-0.84-0.16c-5.12-1.99-25.06-2.37-36.98-2.6c-4.43-0.09-7.93-0.15-10.03-0.27
		c-1.28-0.07-2.25-1.17-2.18-2.44c0.07-1.28,1.15-2.25,2.44-2.18c2.01,0.11,5.65,0.18,9.86,0.26c17.22,0.33,33.13,0.8,38.56,2.91
		c1.19,0.46,1.79,1.8,1.32,3C1895.48,673.91,1894.6,674.48,1893.67,674.48z"/>
	<path d="M597.06,839.74c-5.98,0-9.59-3.56-11.64-11.17c-1.28-4.73-1.31-9.55-1.34-13.81c-0.01-0.83-0.01-1.65-0.03-2.45
		c-0.03-1.95-0.65-3.78-1.29-5.72c-0.33-0.99-0.67-2.02-0.96-3.11c-0.32-1.24,0.42-2.5,1.66-2.83c1.24-0.32,2.5,0.42,2.83,1.66
		c0.25,0.94,0.55,1.85,0.87,2.81c0.73,2.19,1.48,4.44,1.53,7.11c0.01,0.82,0.02,1.66,0.03,2.51c0.03,4.17,0.06,8.48,1.18,12.63
		c1.97,7.28,4.71,8.93,11.72,7.04c1.98-0.53,4.53-1.26,6.7-2.14c11.36-4.6,13.02-7.8,11.12-21.45l-0.26-1.86
		c-0.57-3.98-1.21-8.48-1.14-12.61c-0.35-2.53-1.15-6.12-1.87-9.29c-0.39-1.72-0.75-3.33-1-4.6c-0.25-1.26,0.57-2.47,1.82-2.72
		c1.26-0.25,2.47,0.57,2.72,1.82c0.25,1.24,0.6,2.81,0.98,4.48c0.75,3.34,1.6,7.13,1.96,9.88c0.02,0.12,0.02,0.24,0.02,0.35
		c-0.09,3.8,0.51,7.98,1.09,12.03l0.27,1.88c2.05,14.72,0.31,20.6-13.98,26.38c-2.4,0.97-5.13,1.75-7.23,2.32
		C600.69,839.45,598.78,839.74,597.06,839.74z"/>
	<path d="M582.61,803.36c-1.03,0-1.97-0.69-2.24-1.73c-1.22-4.69-0.88-8.14-0.44-12.5c0.06-0.65,0.13-1.32,0.2-2.03
		c0.03-0.32,0.04-0.48,0.03-0.59c-0.14-0.87,0.04-1.39,0.36-2.16c0.49-1.18,1.85-1.74,3.03-1.25c1.18,0.49,1.74,1.85,1.25,3.03
		c0,0.01-0.01,0.02-0.01,0.03c0.02,0.31,0.02,0.73-0.03,1.35c-0.07,0.72-0.14,1.41-0.2,2.07c-0.4,4.05-0.7,6.98,0.32,10.87
		c0.32,1.24-0.42,2.5-1.66,2.83C583,803.34,582.8,803.36,582.61,803.36z"/>
	<path d="M1973.24,759.01c-0.02,0-0.03,0-0.04,0c-1.28-0.02-2.3-1.08-2.28-2.36c0.06-3.39,0.66-12.89,1.36-23.89
		c0.97-15.26,2.17-34.26,2-39.05c-0.05-1.28,0.95-2.35,2.23-2.4c1.22-0.05,2.35,0.95,2.4,2.23c0.18,5.02-0.98,23.34-2,39.51
		c-0.66,10.49-1.29,20.39-1.35,23.68C1975.53,758,1974.5,759.01,1973.24,759.01z"/>
	<path d="M1973.19,742.01c-0.01,0-0.02,0-0.03,0c-6.55-0.09-15.36-0.08-23.88-0.08c-8.56,0-17.4,0.01-24-0.08
		c-1.28-0.02-2.3-1.07-2.29-2.35c0.02-1.28,1.12-2.27,2.35-2.29c6.56,0.09,15.39,0.08,23.94,0.08c8.54,0,17.36-0.01,23.95,0.08
		c1.28,0.02,2.3,1.07,2.29,2.35C1975.49,740.99,1974.46,742.01,1973.19,742.01z"/>
	<path d="M495.66,807.86c-1.27,0-2.3-1.02-2.32-2.3c-0.03-3.83-0.11-7.67-0.19-11.5c-0.14-6.95-0.28-14.15-0.15-21.24
		c0.02-1.26,1.06-2.27,2.32-2.27c0.01,0,0.03,0,0.04,0c1.28,0.02,2.3,1.08,2.27,2.36c-0.13,7.01,0.01,14.16,0.15,21.07
		c0.08,3.85,0.15,7.7,0.19,11.55c0.01,1.28-1.02,2.33-2.3,2.34C495.67,807.86,495.67,807.86,495.66,807.86z"/>
	<path d="M488.3,848.17c-0.44,0-0.89-0.02-1.35-0.05c-13.08-1.02-24.48-2.76-34.84-5.31c-7.66-1.89-11.72-7.17-11.12-14.5
		c0.1-1.28,1.22-2.23,2.5-2.12c1.28,0.1,2.23,1.22,2.12,2.5c-0.41,5.04,2.15,8.28,7.61,9.62c10.12,2.49,21.27,4.19,34.1,5.19
		c3.63,0.29,6.6-0.69,9.27-6.38c0.54-1.16,1.92-1.65,3.08-1.11c1.16,0.54,1.66,1.92,1.11,3.08
		C497.88,845.25,493.89,848.17,488.3,848.17z"/>
	<path d="M1919.85,749.97c-0.58,0-1.16-0.22-1.61-0.65c-0.92-0.89-0.94-2.36-0.05-3.28c2.68-2.77,4.13-7.75,3.87-13.32
		c-0.42-9.09-0.34-18.52,0.27-28.84l0.05-0.75c0.19-3.13,0.35-5.6-1.08-7.89c-0.68-1.09-0.34-2.52,0.74-3.19
		c1.08-0.68,2.51-0.35,3.19,0.74c2.21,3.55,1.99,7.15,1.77,10.63l-0.05,0.74c-0.59,10.16-0.68,19.43-0.27,28.35
		c0.15,3.28-0.04,11.47-5.17,16.76C1921.06,749.74,1920.46,749.97,1919.85,749.97z"/>
	<path d="M495.34,774.87c-1.21,0-2.23-0.94-2.31-2.17c-0.08-1.28,0.89-2.38,2.16-2.46c10.3-0.67,25.07-2.08,33.63-3.21
		c1.26-0.17,2.43,0.72,2.6,1.99c0.17,1.27-0.72,2.43-1.99,2.6c-8.79,1.17-23.38,2.56-33.94,3.25
		C495.44,774.87,495.39,774.87,495.34,774.87z"/>
	<path d="M443.28,830.81c-1.26,0-2.3-1.02-2.32-2.28c-0.05-3.16,0.01-6.4,0.07-9.53c0.12-6.58,0.24-13.39-0.62-19.54
		c-0.18-1.27,0.71-2.44,1.97-2.62c1.27-0.18,2.44,0.71,2.62,1.97c0.91,6.51,0.79,13.5,0.67,20.26c-0.05,3.09-0.11,6.29-0.07,9.38
		c0.02,1.28-1,2.33-2.28,2.35C443.31,830.81,443.29,830.81,443.28,830.81z"/>
	<path d="M611.18,791.35c-0.09,0-0.18,0-0.27-0.02c-4.64-0.53-9.63-1.23-14.46-1.9c-4.8-0.67-9.76-1.36-14.35-1.89
		c-1.27-0.15-2.18-1.3-2.04-2.57c0.15-1.27,1.3-2.18,2.57-2.04c4.64,0.53,9.63,1.23,14.46,1.9c4.8,0.67,9.76,1.36,14.35,1.89
		c1.27,0.15,2.18,1.3,2.04,2.57C613.34,790.48,612.34,791.35,611.18,791.35z"/>
	<path d="M495.19,774.55c-0.08,0-0.16,0-0.24-0.01c-9.32-0.96-24.08-3.97-33.86-6.36c-1.24-0.3-2-1.56-1.7-2.8
		c0.3-1.24,1.55-2.01,2.8-1.7c9.62,2.35,24.13,5.31,33.23,6.25c1.27,0.13,2.2,1.27,2.07,2.54
		C497.37,773.66,496.36,774.55,495.19,774.55z"/>
	<path d="M441.27,800.01c-5.99,0-10.7-3.41-14.89-6.44c-0.99-0.71-1.97-1.43-2.97-2.09c-1.06-0.71-1.35-2.15-0.64-3.21
		c0.71-1.06,2.15-1.35,3.21-0.64c1.04,0.7,2.07,1.44,3.11,2.19c4.18,3.03,8.13,5.88,13.01,5.52c1.27-0.1,2.39,0.86,2.48,2.14
		c0.1,1.28-0.86,2.39-2.14,2.48C442.06,800,441.66,800.01,441.27,800.01z"/>
	<path d="M498.67,840.41c-0.23,0-0.46-0.03-0.69-0.1c-1.22-0.38-1.9-1.68-1.53-2.9c1.4-4.51,1.18-10.09,0.98-15.48
		c-0.18-4.61-0.36-9.37,0.44-13.62c0.24-1.26,1.44-2.09,2.71-1.85c1.26,0.24,2.08,1.45,1.85,2.71c-0.71,3.74-0.54,8.03-0.36,12.58
		c0.22,5.78,0.46,11.76-1.18,17.03C500.58,839.78,499.66,840.41,498.67,840.41z"/>
	<path d="M612.61,819.28c-0.09,0-0.19-0.01-0.28-0.02l-24.58-3.01c-1.27-0.16-2.17-1.31-2.02-2.58c0.16-1.27,1.33-2.17,2.58-2.02
		l24.58,3.01c1.27,0.16,2.17,1.31,2.02,2.58C614.77,818.42,613.77,819.28,612.61,819.28z"/>
	<path d="M531.22,795.88c-1.15,0-2.15-0.86-2.3-2.03c-0.55-4.41-0.79-7.97-1.04-11.75c-0.25-3.68-0.5-7.48-1.06-12.52
		c-0.14-1.27,0.77-2.42,2.05-2.56c1.27-0.14,2.42,0.77,2.56,2.05c0.58,5.15,0.83,9,1.08,12.73c0.25,3.7,0.48,7.2,1.01,11.48
		c0.16,1.27-0.74,2.43-2.01,2.59C531.41,795.88,531.32,795.88,531.22,795.88z"/>
	<path d="M1181.64,895.88c-0.26,0-0.52,0-0.79-0.01c-8.34-0.15-15.33-0.91-22.22-4.16c-0.18-0.09-0.35-0.2-0.51-0.33
		c-5.21-4.41-4.4-8.24-2.91-12.43c0.43-1.21,1.75-1.83,2.96-1.41c1.21,0.43,1.84,1.75,1.41,2.96c-1.22,3.44-1.49,4.7,1.31,7.14
		c6.07,2.79,12.42,3.46,20.07,3.59c3.05,0.08,8.38-0.31,9.89-3.75c2.3-5.25,11.63-19.95,20.64-34.17
		c7.95-12.54,16.17-25.5,18.32-30.07c0.55-1.16,1.93-1.65,3.08-1.11c1.16,0.55,1.65,1.93,1.11,3.08
		c-2.28,4.83-10.21,17.33-18.6,30.57c-8.92,14.07-18.15,28.62-20.31,33.55C1193.23,893.58,1188.47,895.88,1181.64,895.88z"/>
	<path d="M495.8,808.85c-4.05,0-8.41-0.91-12.65-1.79c-4.13-0.86-8.03-1.67-11.2-1.56c-1.31,0.04-2.35-0.95-2.4-2.23
		c-0.05-1.28,0.95-2.35,2.23-2.4c3.74-0.14,7.9,0.73,12.31,1.65c5.02,1.04,10.21,2.12,14.32,1.51c1.27-0.18,2.44,0.69,2.63,1.95
		c0.19,1.27-0.69,2.44-1.95,2.63C498.02,808.78,496.92,808.85,495.8,808.85z"/>
	<path d="M573.52,800.06c-1.24,0-2.27-0.98-2.31-2.23c-0.05-1.46-0.16-3.48-0.28-5.72c-0.3-5.58-0.67-12.51-0.47-15.81
		c0.08-1.28,1.17-2.25,2.45-2.18c1.28,0.08,2.25,1.17,2.18,2.45c-0.18,3.03,0.18,9.83,0.47,15.29c0.12,2.27,0.23,4.32,0.28,5.79
		c0.05,1.28-0.95,2.35-2.23,2.4C573.58,800.06,573.55,800.06,573.52,800.06z"/>
	<path d="M500.08,808.12c-0.77,0-1.53-0.39-1.97-1.09c-0.68-1.09-0.35-2.51,0.74-3.19l0.64-0.4c9.47-5.93,19-11.39,24.81-11.14
		c5.04,0.21,10-0.43,15.26-1.1c8.27-1.06,16.82-2.16,25.6,0.32c2.21,0.63,7.47,3.17,15.87,7.3c1.66,0.82,3.33,1.64,4.95,2.42
		c1.15,0.56,1.63,1.95,1.07,3.1c-0.56,1.15-1.95,1.63-3.1,1.07c-1.62-0.79-3.29-1.61-4.96-2.43c-6.15-3.02-13.12-6.44-15.09-7
		c-7.87-2.23-15.58-1.24-23.75-0.19c-5.22,0.67-10.63,1.36-16.05,1.14c-5.08-0.2-17.5,7.52-22.16,10.44l-0.64,0.4
		C500.92,808.01,500.5,808.12,500.08,808.12z"/>
	<path d="M442.78,800.13c-1.24,0-2.27-0.98-2.31-2.23c-0.05-1.28,0.95-2.35,2.23-2.4c6.83-0.25,21.12-3.74,25.34-4.8
		c1.24-0.31,2.5,0.44,2.81,1.68s-0.44,2.5-1.68,2.81c-5.55,1.4-19.22,4.68-26.3,4.94C442.84,800.13,442.81,800.13,442.78,800.13z"/>
	<path d="M445.93,839.26c-0.62,0-1.24-0.25-1.7-0.75c-0.87-0.94-0.8-2.41,0.13-3.28c1.32-1.22,3.61-1.73,6.26-2.31
		c1.11-0.24,2.25-0.49,3.08-0.77c5.55-1.83,11.84-3.9,16.97-7.62c1.04-0.75,2.48-0.52,3.24,0.51c0.75,1.04,0.52,2.48-0.51,3.24
		c-5.72,4.15-12.37,6.34-18.24,8.28c-1.05,0.35-2.31,0.62-3.54,0.89c-1.35,0.3-3.6,0.79-4.12,1.2
		C447.05,839.06,446.49,839.26,445.93,839.26z"/>
	<path d="M529.12,771.64c-1,0-1.92-0.65-2.22-1.65c-0.37-1.23,0.33-2.52,1.56-2.88c2.69-0.8,6.53-3.08,10.25-5.28
		c2.59-1.53,5.03-2.97,7.22-4.03c1.15-0.55,2.54-0.07,3.09,1.09c0.55,1.15,0.07,2.54-1.09,3.09c-2.01,0.97-4.37,2.36-6.87,3.84
		c-3.96,2.34-8.05,4.76-11.28,5.73C529.57,771.61,529.34,771.64,529.12,771.64z"/>
	<path d="M471.81,828.71c-1.19,0-2.2-0.91-2.31-2.12c-0.1-1.13-0.2-2.26-0.3-3.38c-0.52-5.8-1.02-11.27-0.81-17.08
		c0.08-2.25-0.17-4.59-0.43-7.06c-0.21-1.99-0.43-4.05-0.46-6.07c-0.02-1.38-0.28-2.16-0.43-2.46c-3.66-1.25-6.21-4.31-8.47-7.03
		c-0.85-1.02-1.65-1.99-2.41-2.72c-0.92-0.89-0.95-2.35-0.06-3.28c0.89-0.92,2.36-0.95,3.28-0.06c0.94,0.91,1.82,1.97,2.75,3.09
		c1.99,2.4,4.05,4.88,6.56,5.65c2.11,0.65,3.35,3.1,3.4,6.72c0.03,1.81,0.22,3.67,0.43,5.65c0.27,2.52,0.54,5.13,0.45,7.71
		c-0.19,5.51,0.29,10.85,0.8,16.5c0.1,1.13,0.2,2.26,0.3,3.4c0.11,1.28-0.84,2.4-2.11,2.51
		C471.94,828.71,471.88,828.71,471.81,828.71z M467.37,790.65h0.02H467.37z"/>
	<path d="M460.81,783.19c-0.61,0-1.22-0.24-1.67-0.72c-0.88-0.92-0.85-2.39,0.07-3.28c0.92-0.88,0.93-1.69,0.7-3.96
		c-0.04-0.36-0.07-0.72-0.1-1.09c-0.11-1.44-0.26-2.66-0.39-3.69c-1-8.04,1.14-8.47,13.01-10.88l1.45-0.29
		c1.25-0.25,2.48,0.56,2.73,1.81c0.25,1.25-0.55,2.48-1.81,2.73l-1.45,0.29c-5.07,1.03-8.42,1.71-9.4,2.44
		c-0.28,0.21-0.2,1.18,0.07,3.33c0.14,1.09,0.3,2.37,0.41,3.9c0.03,0.34,0.06,0.67,0.09,0.99c0.23,2.34,0.52,5.25-2.11,7.77
		C461.96,782.98,461.38,783.19,460.81,783.19z"/>
	<path d="M612.61,819.28c-1.12,0-2.1-0.81-2.28-1.95c-0.2-1.26,0.66-2.45,1.92-2.65c1.37-0.22,3.05-0.19,4.67-0.16
		c1.42,0.03,2.89,0.05,3.85-0.1c1.26-0.21,2.45,0.66,2.65,1.92c0.2,1.26-0.66,2.45-1.92,2.65c-1.37,0.22-3.05,0.19-4.67,0.16
		c-1.42-0.03-2.89-0.05-3.85,0.1C612.85,819.27,612.73,819.28,612.61,819.28z"/>
	<path d="M900.29,895.83c-0.08,0-0.16,0-0.24,0c-3.36-0.11-6.04-2.58-7.77-4.43c-2.9-3.11-3.68-6.75-4-9.22
		c-1.36-10.27-1.04-18.4,1.01-25.57l0.4-1.42c3.13-11.06,6.69-23.59,20.38-28.83c0.43-0.16,0.88-0.19,1.29-0.11
		c0.18-0.02,0.36-0.03,0.55-0.01c5.93,0.62,8.14,4.75,9.53,8.72c3.64,10.37,1.82,20.41-0.53,30.63
		c-1.77,7.68-5.12,18.83-13.77,26.97C904.82,894.76,902.57,895.83,900.29,895.83z M911.33,830.84c-11.2,4.5-14.11,14.75-17.18,25.61
		l-0.41,1.43c-1.87,6.54-2.14,14.07-0.87,23.69c0.39,2.96,1.26,5.01,2.8,6.67c1.82,1.95,3.3,2.92,4.53,2.96
		c1.08,0.01,2.3-0.62,3.77-2.01c5.97-5.62,9.8-13.22,12.43-24.64c2.2-9.53,3.9-18.85,0.67-28.06c-1.37-3.92-2.8-5.34-5.64-5.64
		C911.4,830.85,911.36,830.85,911.33,830.84z"/>
</g>
</svg>
