<?xml version="1.0" encoding="utf-8"?>
<!-- Generator: Adobe Illustrator 24.1.2, SVG Export Plug-In . SVG Version: 6.00 Build 0)  -->
<svg version="1.1" id="Layer_1" xmlns="http://www.w3.org/2000/svg" xmlns:xlink="http://www.w3.org/1999/xlink" x="0px" y="0px"
	 viewBox="0 0 1418 1418" style="enable-background:new 0 0 1418 1418;" xml:space="preserve">
<g>
	<path d="M228.37,368.7c69.46-19.48,138.61-38.88,208.02-58.34c-9.36-37.01-18.6-73.55-27.87-110.22
		c5.36-3.37,10.93-6.19,16.78-8.53c6.88-2.76,13.54-6.12,20.5-8.63c12.06-4.35,24.29-8.21,36.43-12.34
		c12.29-4.18,24.89-7.25,37.52-10.13c9.26-2.11,18.46-4.48,27.9-5.88c8.58-1.27,17.05-3.29,25.61-4.73
		c5.67-0.95,11.42-1.4,17.12-2.17c3.9-0.53,7.76-1.29,11.65-1.82c3.42-0.46,6.87-0.84,10.31-1.09c5.93-0.43,11.87-0.72,17.81-1.11
		c0.98-0.06,1.95-0.25,2.92-0.45c2.94-0.62,3.18-0.61,4.08,2.55c2.06,7.26,3.98,14.55,5.95,21.84c2.78,10.29,5.56,20.59,8.34,30.88
		c2.87,10.61,5.76,21.21,8.63,31.82c1.41,5.22,2.78,10.45,4.27,16.06c5.51-1.54,10.95-3.08,16.41-4.58
		c12.34-3.4,24.7-6.75,37.03-10.2c9.16-2.56,18.28-5.3,27.45-7.86c13.43-3.75,26.9-7.38,40.33-11.12
		c9.65-2.68,19.25-5.51,28.91-8.14c3.55-0.96,6.91-2.23,9.69-4.63c1.3-1.12,2.66-1.21,4.17-1.12c5.44,0.32,10.94-0.75,16.33,0.86
		c1.07,0.32,2.32,0.05,3.48,0.05c44.3,0.03,88.59,0.06,132.89,0.08c1.79,0,3.58,0,5.82,0c0,3.27,0.17,6.07-0.03,8.85
		c-0.65,9.02,0.91,17.74,3.14,26.42c3.71,14.45,7.28,28.94,10.87,43.41c4.47,17.98,8.89,35.98,13.34,53.97
		c3.54,14.32,7.1,28.64,10.64,42.96c4.45,17.99,8.89,35.98,13.34,53.97c3.54,14.32,7.1,28.64,10.65,42.96
		c4.14,16.71,8.29,33.42,12.42,50.14c3.54,14.32,7.04,28.66,10.58,42.98c4.76,19.26,9.55,38.52,14.32,57.78
		c3.55,14.32,7.1,28.64,10.65,42.97c4.45,17.99,8.89,35.98,13.34,53.97c3.54,14.32,7.1,28.64,10.64,42.97
		c4.45,17.99,8.89,35.98,13.34,53.96c3.54,14.32,7.1,28.64,10.64,42.97c4.45,17.99,8.9,35.97,13.34,53.97
		c3.57,14.49,7.08,28.99,10.68,43.47c4.47,17.98,9.02,35.94,13.52,53.92c2.43,9.7,4.82,19.41,7.35,29.6
		c-2.64,2.34-5.48,4.86-8.32,7.38c-0.5,0.44-1.03,0.85-1.51,1.3c-5.58,5.21-11.13,10.46-16.73,15.64
		c-8.28,7.65-16.58,15.28-24.91,22.88c-6.61,6.03-13.26,12-19.93,17.97c-5.55,4.97-11.14,9.89-16.71,14.83
		c-0.37,0.33-0.72,0.7-1.08,1.04c-5.81,5.45-11.59,10.93-17.44,16.34c-8.03,7.43-16.09,14.82-24.21,22.16
		c-0.9,0.81-2.21,1.37-3.41,1.62c-6.57,1.41-13.16,2.71-19.76,4c-5.79,1.13-11.61,2.16-17.4,3.29c-6.11,1.19-12.2,2.48-18.3,3.69
		c-9.96,1.98-19.92,3.96-29.9,5.88c-7.41,1.43-14.84,2.71-22.25,4.14c-11.58,2.25-23.14,4.6-34.72,6.85
		c-7.41,1.44-14.84,2.71-22.25,4.14c-11.58,2.25-23.14,4.62-34.72,6.84c-9.34,1.79-18.72,3.37-28.06,5.18
		c-11.26,2.18-22.48,4.59-33.74,6.74c-9.83,1.87-19.7,3.46-29.54,5.28c-7.09,1.31-14.16,2.77-21.23,4.18
		c-6.27,1.25-12.53,2.51-18.79,3.76c-9.8,1.95-19.59,3.94-29.41,5.82c-7.57,1.46-15.17,2.75-22.74,4.19
		c-5.96,1.14-11.88,2.44-17.83,3.59c-6.12,1.18-12.26,2.21-18.37,3.41c-9.65,1.88-19.27,3.88-28.92,5.76
		c-7.4,1.45-14.83,2.77-22.23,4.2c-9.97,1.93-19.93,3.95-29.9,5.86c-7.41,1.43-14.84,2.72-22.25,4.14
		c-6.12,1.17-12.21,2.48-18.32,3.65c-7.73,1.48-15.47,2.87-23.2,4.35c-6.28,1.2-12.54,2.44-18.8,3.71c-3.08,0.63-3.82,0.22-4.6-2.73
		c-4.47-16.97-8.96-33.94-13.42-50.91c-3.58-13.64-7.03-27.32-10.68-40.94c-4.8-17.9-9.83-35.74-14.6-53.65
		c-3.89-14.58-7.48-29.24-11.32-43.83c-3.05-11.58-6.33-23.1-9.44-34.67c-2.55-9.5-4.97-19.04-7.49-28.55
		c-3.11-11.73-6.27-23.46-9.4-35.19c-2.53-9.51-5.03-19.02-7.56-28.53c-3.17-11.89-6.38-23.77-9.54-35.66
		c-2.52-9.51-4.96-19.04-7.48-28.55c-3.49-13.16-7.05-26.3-10.54-39.46c-2.19-8.24-4.27-16.52-6.46-24.76
		c-3.45-13-6.96-25.99-10.42-38.98c-2.2-8.24-4.35-16.49-6.55-24.73c-3.51-13.15-7.07-26.29-10.56-39.45
		c-2.52-9.51-4.93-19.05-7.45-28.56c-3.11-11.73-6.31-23.45-9.43-35.18c-2.53-9.51-5-19.03-7.54-28.54
		c-3.17-11.89-6.41-23.76-9.57-35.65c-2.52-9.51-4.92-19.05-7.44-28.56c-3.11-11.73-6.32-23.44-9.43-35.18
		c-2.56-9.67-5-19.37-7.57-29.04c-3.45-13-6.98-25.98-10.46-38.97c-2.16-8.08-4.3-16.17-6.45-24.25
		c-3.55-13.31-7.12-26.62-10.65-39.94c-2.15-8.09-4.25-16.18-6.37-24.27C229.73,373.86,229.14,371.65,228.37,368.7z M233.33,371.56
		c0.49,1.94,0.77,3.05,1.06,4.16c2.52,9.68,5.01,19.37,7.57,29.04c3.11,11.73,6.31,23.44,9.42,35.18
		c2.52,9.51,4.93,19.05,7.46,28.56c3.15,11.89,6.39,23.76,9.56,35.65c2.53,9.51,5,19.03,7.54,28.54
		c3.12,11.73,6.31,23.44,9.42,35.18c2.52,9.51,4.94,19.06,7.46,28.57c3.49,13.16,7.04,26.3,10.54,39.45
		c2.2,8.24,4.36,16.49,6.56,24.74c3.46,13,6.96,25.98,10.41,38.98c2.19,8.25,4.28,16.52,6.47,24.76
		c3.49,13.16,7.04,26.3,10.53,39.46c2.52,9.51,4.96,19.05,7.5,28.55c3.13,11.73,6.35,23.43,9.48,35.16
		c2.58,9.66,5.06,19.36,7.63,29.02c3.09,11.57,6.27,23.12,9.34,34.69c2.56,9.67,4.97,19.38,7.54,29.05
		c3.11,11.73,6.35,23.43,9.47,35.16c2.52,9.51,4.9,19.06,7.42,28.58c3.52,13.32,7.11,26.62,10.64,39.94
		c2.1,7.93,4.11,15.88,6.25,23.8c3.51,12.98,7.18,25.92,10.62,38.93c3.86,14.59,7.41,29.25,11.3,43.83
		c4.77,17.91,9.83,35.74,14.62,53.64c4.62,17.27,9.07,34.59,13.59,51.89c2.9,11.11,5.8,22.22,8.74,33.32
		c0.15,0.57,0.78,1.01,1.05,1.34c193.78-37.37,387.32-74.7,580.94-112.04c-1.72-7.23-3.35-14.26-5.08-21.27
		c-5.53-22.45-11.11-44.88-16.65-67.32c-4.52-18.31-8.98-36.63-13.5-54.94c-2.79-11.3-5.69-22.58-8.46-33.88
		c-4.45-18.16-8.79-36.34-13.25-54.5c-5.55-22.61-11.17-45.2-16.76-67.8c-4.53-18.3-9.07-36.6-13.6-54.91
		c-3.46-14.01-6.93-28.02-10.37-42.03c-4.1-16.72-8.14-33.46-12.26-50.18c-5.21-21.17-10.49-42.33-15.72-63.5
		c-4.52-18.31-9-36.62-13.51-54.93c-1.8-7.32-3.66-14.63-5.47-21.96c-4.2-17.03-8.38-34.07-12.58-51.11
		c-3.46-14.01-6.96-28.01-10.4-42.02c-3.79-15.45-7.5-30.92-11.31-46.36c-5.53-22.45-11.13-44.87-16.67-67.32
		c-4.52-18.31-8.99-36.63-13.47-54.94c-5.57-22.78-11.11-45.56-16.72-68.33c-2.55-10.35-5.2-20.67-7.81-31
		c-0.59-2.34-1.62-3.03-3.95-2.44c-1.91,0.49-3.73,1.31-5.63,1.83c-11.23,3.1-22.49,6.1-33.71,9.23
		c-7.74,2.17-15.42,4.58-23.16,6.74c-11.22,3.13-22.49,6.07-33.72,9.2c-9.01,2.51-17.96,5.23-26.96,7.76
		c-12.33,3.46-24.69,6.77-37.02,10.23c-9,2.52-17.96,5.24-26.96,7.75c-13.75,3.84-27.53,7.55-41.29,11.38
		c-9.01,2.51-17.99,5.12-26.99,7.67c-11.68,3.31-23.37,6.59-35.05,9.88c-9.48,2.67-18.94,5.39-28.43,8.03
		c-13.91,3.87-27.84,7.67-41.75,11.54c-8.85,2.46-17.67,5.03-26.52,7.5c-12.17,3.4-24.36,6.72-36.53,10.13
		c-9.16,2.57-18.28,5.3-27.45,7.85c-11.22,3.12-22.5,6.06-33.72,9.2c-7.74,2.16-15.41,4.61-23.15,6.78
		c-11.38,3.19-22.79,6.23-34.18,9.36c-9.33,2.57-18.66,5.14-27.98,7.77C241.64,368.93,237.62,370.24,233.33,371.56z
		 M1185.27,1040.05c-0.44-1.83-0.81-3.41-1.2-4.99c-4.48-17.98-8.96-35.96-13.44-53.94c-3.6-14.48-7.2-28.95-10.78-43.44
		c-4.76-19.27-9.49-38.54-14.23-57.81c-3.48-14.17-6.94-28.35-10.45-42.52c-4.82-19.42-9.71-38.81-14.51-58.23
		c-3.51-14.17-6.88-28.37-10.4-42.53c-4.82-19.41-9.73-38.8-14.58-58.21c-3.61-14.47-7.18-28.96-10.76-43.44
		c-4.41-17.83-8.82-35.66-13.23-53.49c-3.58-14.48-7.16-28.96-10.76-43.44c-4.39-17.67-8.81-35.33-13.19-53
		c-3.63-14.64-7.2-29.29-10.8-43.94c-4.42-18-8.83-36-13.26-53.99c-3.49-14.17-6.99-28.34-10.5-42.5
		c-4.47-17.98-8.99-35.95-13.43-53.94c-4.15-16.8-8.25-33.62-12.6-51.38c-0.51,3.71-1.19,6.45-1.21,9.2
		c-0.12,15.49,0.07,30.98-0.15,46.46c-0.22,15.6,0.97,31.23-0.9,46.79c-0.05,37.42,0.2,74.83-0.99,112.24
		c-0.13,4.16-0.08,8.33-0.01,12.49c0.05,2.58,0.29,5.15,0.46,7.94c-3.61,0-7.22,0-11.09,0c-48.52-84.32-97.1-168.75-145.68-253.17
		c0.09,4.3,0.8,8.32,1.77,12.27c5.6,22.94,11.25,45.86,16.89,68.79c6,24.36,12.03,48.71,18.04,73.07
		c5.65,22.93,11.27,45.86,16.92,68.78c5.69,23.08,11.42,46.16,17.11,69.24c5.96,24.2,11.88,48.41,17.84,72.61
		c5.69,23.08,11.42,46.16,17.11,69.24c5.65,22.92,11.24,45.86,16.92,68.78c7.5,30.24,15.14,60.44,22.6,90.68
		c5.5,22.29,10.76,44.64,16.24,66.93c5.52,22.45,11.24,44.85,16.79,67.29c4.88,19.74,9.65,39.5,14.47,59.26
		c5.56,22.78,11.1,45.56,16.72,68.33c3.65,14.81,7.46,29.57,11.13,44.37c2.01,8.12,3.82,16.28,5.82,24.4
		c0.87,3.55,2.01,7.03,3.09,10.79c1.92-1.46,3.45-2.45,4.79-3.67c7.74-7.01,15.43-14.07,23.15-21.11
		c7.23-6.58,14.48-13.14,21.71-19.72c7.72-7.03,15.45-14.05,23.12-21.14c6.1-5.63,12.11-11.35,18.16-17.04
		c0.49-0.46,0.93-0.95,1.43-1.4c5.93-5.29,11.89-10.54,17.77-15.89c5.04-4.57,9.96-9.26,14.98-13.86
		C1182.99,1041.47,1184.03,1040.91,1185.27,1040.05z M440.19,309.32c73.79-20.68,147.15-41.25,220.42-61.78
		c-9.11-33.77-18.11-67.14-27.06-100.32c-4.51,0.25-8.77,0.48-13.04,0.72c-0.17,0.01-0.33,0.02-0.5,0.04
		c-4.71,0.62-9.42,1.31-14.14,1.85c-4.09,0.46-8.22,0.58-12.3,1.14c-6.17,0.83-12.3,1.93-18.46,2.88
		c-6.97,1.07-13.99,1.88-20.92,3.17c-9.82,1.83-19.66,3.67-29.34,6.09c-15.27,3.82-30.47,7.92-45.58,12.29
		c-8.36,2.42-16.53,5.51-24.71,8.49c-13.17,4.81-26.19,10.01-38.6,16.6c-0.98,0.52-1.85,1.23-2.86,1.92
		C422.17,238.21,431.18,273.77,440.19,309.32z M829.36,202.85c2.84,5.03,5.16,9.19,7.53,13.32c4.35,7.59,8.73,15.16,13.1,22.74
		c3.38,5.86,6.79,11.72,10.16,17.58c4.28,7.44,8.53,14.9,12.81,22.34c3.37,5.87,6.76,11.73,10.15,17.59
		c4.21,7.29,8.47,14.55,12.64,21.87c4.57,8.04,9.01,16.16,13.61,24.18c4.27,7.44,8.74,14.77,13.01,22.21
		c4.69,8.17,9.18,16.44,13.88,24.6c6.91,12.02,13.97,23.96,20.89,35.97c5.69,9.87,11.25,19.82,16.9,29.71
		c1.62,2.83,3.38,5.59,5.34,8.83c0.49-5.14,1.23-9.69,1.28-14.24c0.17-15.48-0.06-30.97,0.15-46.45c0.21-15.43-0.23-30.84,0.7-46.29
		c0.93-15.43,0.08-30.96,0.3-46.44c0.22-15.59-0.12-31.17,0.68-46.79c0.95-18.43,0.25-36.95,0.27-55.43c0-1.29,0-2.59,0-4.33
		c-1.51,0-2.64,0-3.77,0c-22.64-0.02-45.28,0.07-67.92-0.09c-22.58-0.16-45.17-0.58-67.75-0.88c-3.16-0.04-6.33-0.02-9.49-0.03
		C832.7,202.85,831.56,202.85,829.36,202.85z M823.17,205.23c1.2,2.3,2.28,4.53,3.51,6.68c4.43,7.73,8.93,15.43,13.38,23.16
		c3.21,5.59,6.37,11.21,9.58,16.79c4.45,7.73,8.94,15.42,13.39,23.15c3.21,5.59,6.35,11.22,9.58,16.79c4.3,7.43,8.71,14.8,13,22.24
		c4.29,7.44,8.44,14.96,12.73,22.4c4.78,8.3,9.66,16.55,14.44,24.85c4.28,7.44,8.46,14.95,12.74,22.39
		c4.52,7.88,9.12,15.71,13.65,23.58c3.13,5.44,6.17,10.94,9.32,16.37c4.31,7.43,8.72,14.79,13.01,22.23
		c4.7,8.15,9.3,16.35,13.9,24.45c1.1,0,2.03,0,3.1,0c-51.06-88.84-102.01-177.47-153.02-266.22
		C824.72,204.47,824,204.82,823.17,205.23z"/>
	<path d="M409.57,563.04c3.93-1.06,6.76-1.83,9.74-2.63c1.83,1.64,3.64,3.26,5.72,5.11c0.47-1.03,0.86-1.73,1.1-2.47
		c2.84-8.63,6.04-17.12,10.34-25.13c6.03-11.22,13.04-21.76,21.21-31.59c6.52-7.83,13.77-14.9,21.18-21.79
		c8.22-7.65,17.32-14.26,27.06-19.95c12.73-7.45,26.01-13.66,40.16-17.88c6.28-1.87,12.73-3.1,19.2-4.29
		c11.35-2.09,22.74-2.15,34.14-1.73c7.52,0.28,14.99,1.67,22.39,3.24c16.77,3.55,32.41,10.05,47.34,18.27
		c10.99,6.05,21.53,12.86,31.11,21.05c5.03,4.3,10.03,8.63,15.01,12.98c2.57,2.24,5.29,3.85,8.92,3.28c1.3-0.2,2.65-0.03,4.35-0.03
		c0.82,2.84,1.63,5.62,2.42,8.34c-0.61,0.5-1.09,0.89-1.61,1.32c4.43,4.68,8.82,9.32,14.09,14.9c-4.27-15.97-8.23-30.8-12.22-45.74
		c2-2.19,5.02-1.94,7.62-2.68c1.83-0.53,2.54,0.36,3.2,2.82c1.72,6.5,3.44,12.99,5.26,19.85c0.96-1.3,1.77-2.38,2.56-3.47
		c3.62-4.95,12.51-8.45,19.4-4.17c2.68,1.66,4.34,4.36,5.2,7.1c2.77,8.92,5.08,17.99,7.53,27.01c0.17,0.61,0.02,1.31,0.02,2.16
		c-2.87,0.87-5.65,1.71-8.54,2.58c-0.44-0.51-1.11-0.93-1.26-1.5c-1.81-6.64-3.51-13.32-5.33-19.97c-0.78-2.86-1.49-5.76-3.85-7.9
		c-2.36-2.14-6.8-2.35-8.99-0.04c-2.65,2.81-4.39,5.92-3.23,10.17c2.07,7.58,3.81,15.26,5.77,23.23c-0.95,0.46-2.08,1.01-3.43,1.67
		c1.87,2.52,3.68,5.06,5.61,7.52c7.55,9.64,14.08,19.92,20.24,30.5c6.53,11.22,10.62,23.36,14.6,35.59c0.25,0.77,0.4,1.61,0.4,2.42
		c0,1.98,0.88,2.77,2.87,3.3c12.28,3.28,23.07,9.35,33.05,17.23c8.58,6.78,15.4,15.05,21.44,23.92
		c5.47,8.04,10.13,16.65,13.53,25.85c3.24,8.79,6.53,17.57,8.46,26.78c1.38,6.58,2.92,13.1,3.74,19.81
		c0.9,7.37,1.31,14.78,2.13,22.12c0.96,8.65,0.33,17.23,0.7,25.83c-1.96,6.08-0.16,12.49-1.77,18.67
		c-0.94,3.62-0.65,7.54-1.21,11.28c-1.06,7.13-2.04,14.3-3.57,21.33c-2.24,10.25-4.65,20.48-7.54,30.56
		c-2.35,8.21-5.31,16.27-8.37,24.25c-4.55,11.88-9.82,23.48-15.78,34.73c-6.88,13-14.28,25.68-23.15,37.46
		c-4.76,6.32-9.44,12.71-14.22,19.02c-1.7,2.24-3.51,4.4-5.43,6.45c-6.48,6.9-12.73,14.05-19.61,20.52
		c-13.98,13.14-28.89,25.2-45.25,35.29c-12.99,8.01-26.86,14.17-41.81,17.39c-6.89,1.48-13.97,2.72-21.1,2.17
		c-9.86-0.77-19.45-2.62-28.64-6.68c-12.19-5.38-22.51-13.2-31.39-22.92c-7.59-8.3-13.92-17.56-19.57-27.32
		c-4.82-8.33-8.82-17-12.36-25.9c-2.3-5.8-4.35-11.71-6.67-18.01c-3.35,0.47-6.86,0.95-10.38,1.45c-0.81,0.12-1.6,0.43-2.41,0.46
		c-8.77,0.3-17.52,1.81-26.3,0.97c-11.63-1.11-23.32-2.19-33.76-8.2c-10.39-5.98-18.69-14.21-25.17-24.21
		c-8.04-12.4-13.31-26.01-17.48-40.17c-2.74-9.31-4.49-18.81-6.59-28.24c-1.24-5.59-1.5-11.4-2.25-17.11
		c-0.55-4.23-1.19-8.44-1.78-12.66c-0.07-0.49-0.12-0.99-0.14-1.48c-0.36-7.6-0.45-15.23-1.12-22.8
		c-1.36-15.42-0.86-30.86-0.84-46.29c0.01-4.44,0.67-8.88,0.85-13.32c0.17-4.32-0.47-8.75,0.25-12.96c0.9-5.3,0.32-10.6,0.96-15.83
		c0.83-6.7,1.65-13.4,1.88-20.15c0.03-0.96-0.08-1.93-0.14-3.21c-1.37,0.12-2.43,0.22-3.94,0.36c-0.71-9.08-5.76-16.48-9.73-24.65
		c-2.14,1.13-4.77,0.5-6.09,3.08c-1.45,2.85-1.26,5.78-0.66,8.72c0.55,2.73,1.31,5.42,2.05,8.11c0.7,2.53,1.5,5.04,2.34,7.82
		c-1.05,0.49-2,1.15-3.05,1.37c-2.14,0.45-3.17-0.21-3.7-2.26c-2.33-9.03-4.61-18.06-6.93-27.23c1.88-0.47,3.59-0.89,5.46-1.36
		c0.3,0.87,0.56,1.63,0.86,2.52c2.38-1.99,4.72-3.95,7.16-6c-1.26-3.62-2.44-7.36-3.85-11.01c-3.1-7.99-4.78-16.36-6.64-24.68
		c-0.25-1.12,0.06-2.36-0.2-3.48c-0.32-1.41-0.56-3.23-1.53-4.02c-4.3-3.53-6.72-8.09-7.81-13.36c-1.83-8.81-0.86-17.69,7.84-23.19
		c2.58-1.63,3.09-4.2,3.44-6.77c0.12-0.87-0.71-2.19-1.5-2.8c-2.98-2.33-6.12-4.46-9.2-6.67C411.66,564.61,411,564.1,409.57,563.04z
		 M736.27,527.9c0.65,2.25,1.08,3.64,1.44,5.04c0.88,3.46,0.42,4.99-2.69,6.55c-2.63,1.32-5.56,2.04-8.26,3.24
		c-6.19,2.77-17.21-1.5-20.96-7.34c-4.25-6.64-4.15-13.74-3.67-21.03c0.04-0.61,0.58-1.18,0.84-1.8c2.25-5.49,6.55-8.91,12.16-11.65
		c-3.36-2.9-6.42-5.66-9.61-8.27c-4.98-4.08-9.97-8.15-15.09-12.06c-8.41-6.42-17.34-12.1-26.72-16.97
		c-10.54-5.47-21.49-9.9-32.94-13.31c-9.2-2.74-18.55-4.77-27.96-5.39c-12.84-0.84-25.76-0.76-38.62,1.6
		c-14.69,2.7-28.65,7.36-42.08,13.69c-10.33,4.87-19.89,11.04-29.1,17.83c-9.8,7.23-18.65,15.44-26.89,24.31
		c-4.6,4.94-8.73,10.36-12.68,15.85c-3.56,4.94-6.67,10.21-9.83,15.42c-6.62,10.89-11.6,22.49-14.98,34.68
		c0.89,0.99,1.66,1.84,2.65,2.95c-1.37,0.68-2.5,1.24-3.85,1.91c-0.36,1.5-0.77,3.17-1.1,4.56c2.95,0.13,5.57-0.12,8.01,0.43
		c6.6,1.49,10.21,6.39,12.74,12.21c0.9,2.08,1.35,4.37,2.19,7.18c-8.48,3.26-17.65,4.26-26.2,7.76c1.46,4.62,4.4,6.84,8.76,7.12
		c4.84,0.32,9.15-0.99,12.59-4.64c0.86-0.91,1.93-1.6,3.2-2.63c0.95,2.94,1.74,5.39,2.59,8.02c-3.58,2.98-7.23,5.34-11.6,6.72
		c-4.39,1.39-8.75,2.15-13.27,1.23c0,1.63-0.23,3.01,0.04,4.27c1.25,5.77,2.38,11.58,4.06,17.23c1.59,5.35,3.76,10.53,5.81,15.73
		c0.45,1.13,1.32,2.22,2.28,2.98c1.35,1.07,2.96,1.8,4.29,2.59c1.59-1.82,2.93-3.75,4.65-5.25c5.11-4.46,12.41-2.93,15.44,3.13
		c0.59,1.17,1.04,2.43,1.39,3.69c1.36,4.9,2.67,9.81,3.98,14.72c0.4,1.52,0.72,3.06,1.13,4.81c-2.09,0.42-3.64,0.73-5.37,1.07
		c-0.35-0.87-0.72-1.59-0.93-2.35c-1.48-5.38-2.97-10.75-4.36-16.15c-0.81-3.16-2.47-5.34-5.25-5.81c-4.41,0.38-6.46,2.67-7.1,6.35
		c-0.11,0.65-0.26,1.35-0.12,1.98c1.2,5.61,1.88,11.52,4.79,16.47c6.28,10.71,14,20.46,22.46,29.51
		c9.97,10.67,20.56,20.7,32.28,29.51c12.83,9.65,26.21,18.39,40.49,25.7c7.34,3.76,14.88,7.18,22.53,10.27
		c9.75,3.94,19.7,7.34,29.95,9.85c8.78,2.15,17.58,3.93,26.57,5.01c7.7,0.93,15.41,1.54,23.15,1.77c2.6,0.08,5.21-0.82,7.82-0.8
		c5.48,0.03,10.78-1.06,16.15-1.94c11.89-1.96,22.91-6.13,33.27-12.1c5.29-3.05,10.28-6.58,14.66-10.93
		c8.96-8.88,17.7-17.96,25.72-27.71c6.3-7.65,12.81-15.16,18.63-23.16c8.68-11.92,15.8-24.77,21.31-38.5
		c5.45-13.58,8.17-27.71,8.72-42.27c0.14-3.59-0.53-7.21-0.86-10.82c-0.35-3.77-0.42-7.61-1.17-11.3
		c-2.41-11.98-6.32-23.49-11.57-34.52c-5.34-11.22-11.66-21.88-19.1-31.81c-4.31-5.76-7.67-12.42-14.12-16.38
		c-0.39-0.24-0.73-0.73-0.88-1.18c-1.15-3.58-3.77-6.13-6.24-8.75c-3.08-3.27-6.36-6.36-9.42-9.65c-2.7-2.89-5.22-5.94-7.92-9.01
		c-5.25,2.48-10.05,4.73-10.47,11.13c-0.4,6.02,1.05,11.64,6.52,14.58C725.24,536.68,730.95,533.49,736.27,527.9z M764.3,727.63
		c3.6,4.53,7.15,8.49,10.13,12.83c10.34,15.06,16.6,31.39,15.67,50.09c-0.47,9.39-2.89,18.17-6.57,26.66
		c-4.59,10.58-11.41,19.82-19.24,28.1c-9.57,10.14-19.32,20.15-29.88,29.35c-7.12,6.2-14.45,12.08-21.95,17.78
		c-14.5,11.02-29.9,20.61-46,29.06c-6.73,3.53-13.62,6.8-20.6,9.83c-8.46,3.67-17,7.19-25.67,10.33
		c-11.27,4.08-22.65,7.87-34.53,9.9c-2.86,0.49-5.65,1.41-8.65,2.17c0.6,2.38,0.93,4.5,1.66,6.48
		c4.93,13.33,10.44,26.39,17.71,38.66c8.54,14.4,19.04,27.1,32.34,37.3c11.38,8.72,24.46,13.54,38.7,14.87
		c8.77,0.82,17.56-0.12,26.07-2.25c14.51-3.63,27.95-9.89,40.49-18.06c7.33-4.78,14.76-9.4,21.37-15.21
		c5.83-5.12,12.04-9.83,17.74-15.09c6.11-5.65,11.88-11.67,17.68-17.64c3.34-3.45,6.64-6.98,9.61-10.74
		c4.9-6.21,9.49-12.67,14.26-18.98c8.18-10.84,15.15-22.44,21.49-34.41c6.49-12.28,12.49-24.79,17.55-37.76
		c4.79-12.27,8.79-24.8,12.1-37.52c3.22-12.38,5.87-24.9,7.16-37.67c0.84-8.33,2.49-16.63,2.73-24.97
		c0.45-15.39,0.65-30.8-1.72-46.13c-0.95-6.16-1.78-12.32-2.94-18.46c-2.49-13.16-6.46-25.83-11.89-38.03
		c-6.38-14.34-14.83-27.23-26.18-38.27c-9.82-9.55-21.12-16.32-33.95-20.76c-0.83-0.29-1.77-0.27-3.24-0.47
		c0.46,3.45,1.22,6.35,1.18,9.23c-0.16,9.6,1.05,19.25-0.88,28.81c-0.91,4.5-1.3,9.13-2.52,13.53
		c-4.75,17.17-12.52,32.96-22.48,47.7C768.83,721.16,766.54,724.39,764.3,727.63z M761.9,730.51c-1.23,1.55-1.82,2.34-2.46,3.1
		c-6.69,7.97-13.17,16.13-20.14,23.85c-5.91,6.54-12.4,12.56-18.61,18.83c-4.46,4.5-9.6,8.13-15.08,11.19
		c-16.29,9.08-33.85,13.55-52.47,13.93c-4.33,0.09-8.66,0.17-12.99,0c-6.27-0.24-12.63-0.17-18.79-1.21
		c-10.16-1.73-20.3-3.63-30.26-6.55c-11.72-3.44-23.24-7.37-34.3-12.44c-17.76-8.15-34.59-17.93-50.39-29.54
		c-10.44-7.67-19.88-16.42-29.46-25.04c-2.07-1.86-3.55-4.37-5.56-6.32c-7.04-6.83-12.68-14.81-18.81-22.48
		c-0.35,0.69-0.82,1.38-1.07,2.14c-0.21,0.61-0.2,1.3-0.24,1.96c-0.45,7.9-1.21,15.77-1.87,23.65c-0.63,7.57-0.89,15.22-0.95,22.8
		c-0.14,19.09-1.16,38.2,0.69,57.29c0.69,7.07,0.71,14.21,1.15,21.3c0.21,3.45,0.53,6.91,1.08,10.31c1.18,7.28,2.68,14.5,3.79,21.79
		c1.47,9.76,3.94,19.28,6.83,28.69c3.45,11.23,7.79,22.07,14.04,32.09c5.38,8.63,11.53,16.48,20.02,22.36
		c10.68,7.4,22.77,10.29,35.41,10.85c8.41,0.37,16.88,0.74,25.31-0.76c5.98-1.06,12.17-1.04,18.1-2.27c10.1-2.1,20.2-4.4,30.08-7.35
		c16.75-5.01,32.96-11.49,48.69-19.2c12.64-6.19,25.02-12.84,36.81-20.5c10.93-7.1,21.6-14.58,31.59-23.04
		c7.45-6.31,15.06-12.41,22.04-19.27c8.29-8.14,16.28-16.54,23.64-25.56c6.13-7.51,10.78-15.8,14.3-24.78
		c2.48-6.34,3.91-12.83,4.05-19.72c0.1-4.74,0.44-9.62-0.44-14.13c-2.12-10.85-5.65-21.32-12.35-30.41
		C769.67,741.18,766.11,736.26,761.9,730.51z M424.58,587.41c-0.35,3.1-0.65,5.96,0.03,8.99c4.33-1.14,8.38-2.21,12.85-3.38
		c-0.86-2.89-2.27-4.78-4.61-6.26C430.03,584.97,427.6,586.1,424.58,587.41z"/>
	<path d="M821.92,497.95c-8.84,2.42-17.32,4.75-25.76,7.06c0.79,5.07,3.1,7.21,7.62,7.55c6.22,0.47,11.23-1.8,15.34-6.37
		c0.19-0.21,0.55-0.27,1.35-0.63c0.72,2.48,1.42,4.9,2.19,7.55c-3.01,4.17-7.76,5.79-12.36,7.39c-3.89,1.35-8.07,1.83-12.16,0.63
		c-6.15-1.79-10.09-6-12.32-11.9c-2.8-7.4-3.37-14.74,0.75-21.91c3.02-5.26,7.71-7.96,13.58-8.81c3.08-0.45,6.11-0.42,9.11,0.67
		c4.5,1.64,7.4,5.04,9.45,9.05C820.13,491.08,820.75,494.34,821.92,497.95z M810.01,493.23c-3.07-6.59-5.86-8.32-10.77-6.44
		c-1.86,0.71-3.74,2.37-4.7,4.11c-1.01,1.81-2.34,4.07-0.84,6.78C799.04,496.22,804.35,494.77,810.01,493.23z"/>
	<path d="M372.4,594.07c2.46,4.85,2.69,5.77,2.45,9.35c-0.6,0-1.29,0.18-1.83-0.03c-5.11-1.95-9.58-0.49-13.1,3.15
		c-3.53,3.66-4.69,8.23-2.67,13.23c0.37,0.91,0.7,1.84,1.04,2.77c2.69,7.43,11.38,8.62,17.36,4.92c1.74-1.08,3.24-2.54,5.09-4.03
		c0.92,2.78,1.78,5.37,2.6,7.84c-6.58,7.34-20.61,10.77-30.02,2.58c-2.04-1.78-3.62-4.34-4.77-6.83c-2.64-5.68-3.3-11.63-1.4-17.77
		c2.33-7.52,7.71-11.76,14.98-13.72C365.42,594.65,368.92,594.54,372.4,594.07z"/>
	<path d="M964.21,1124.58c-0.71,2.67-1.08,5.51-2.21,7.99c-3.59,7.86-15.87,8.92-20.52,1.46c-4.47-7.16-6.04-15.2-3.65-23.67
		c2.06-7.31,12.63-10.6,19.14-5.5c0.76,0.59,1.36,1.45,1.87,2.28C961.76,1111.85,963.8,1119.03,964.21,1124.58z M951.75,1132.05
		c2.33-1.02,3-2.6,3.11-4.83c0.24-4.72-0.88-9.15-2.34-13.53c-0.61-1.84-1.54-3.69-3.89-4.42c-1.35,0.81-2.75,1.69-2.76,3.63
		c-0.02,4.28-0.34,8.57,1.2,12.74C948.01,1128.18,948.98,1130.57,951.75,1132.05z"/>
	<path d="M522.09,1201.71c-0.27-4.26,0.43-8.33,4.19-11.36c5.81-4.69,14.73-3.78,17.83,3.38c1.65,3.8,2.63,7.63,3.34,11.75
		c0.79,4.58-0.04,8.39-2.13,12.18c-3.13,5.67-11.69,6.89-16.59,2.68c-4.8-4.12-5.8-9.71-6.63-15.44
		C521.97,1203.92,522.09,1202.9,522.09,1201.71z M532.67,1193.84c-0.88,1.33-2.2,2.44-2.34,3.69c-0.66,5.71,0.73,11.11,3.2,16.24
		c0.21,0.43,0.57,0.88,0.99,1.1c0.83,0.43,1.97,1.2,2.57,0.93c0.86-0.4,1.8-1.55,1.9-2.47c0.25-2.46,0.56-5.1-0.03-7.44
		C537.9,1201.73,538.08,1196.82,532.67,1193.84z"/>
	<path d="M401.39,628.89c-3.44,0.99-6.4,1.84-9.76,2.8c-1.5-5.26-2.98-10.26-4.35-15.3c-1.9-6.96-3.69-13.96-5.58-20.92
		c-0.99-3.64-0.75-4.14,3.01-5.03c1.89-0.45,3.79-0.81,5.74-1.23c0.67,1.52,1.18,2.68,1.71,3.9c0.45-0.23,0.82-0.29,0.89-0.47
		c1.42-4.12,4.24-6.58,8.56-7.19c1.87-0.26,3.22,0.38,3.66,2.44c0.45,2.08,1.05,4.12,1.63,6.39c-0.72,0.09-1.37,0.32-1.98,0.24
		c-6.01-0.81-11.04,5.64-9.3,12.61C397.41,614.28,399.39,621.37,401.39,628.89z"/>
	<path d="M613.33,1206.86c-2.18,0.58-3.85,1.02-6.07,1.6c-1.67-8.3-3.25-16.12-4.89-24.23c1.99-0.37,3.88-0.8,5.8-0.99
		c0.38-0.04,0.86,0.87,1.38,1.44c2.15-1.17,3.33-4.3,6.52-3.65c2.37,0.48,4.73,0.99,7.21,1.51c1.18-1.04,2.43-2.71,4.1-3.51
		c5.56-2.66,9.71-0.69,11.57,4.49c1.64,4.58,2.16,9.56,3.16,14.37c0.2,0.95,0.34,1.9,0.54,3.04c-1.64,1.86-3.85,1.08-6.13,1.1
		c-0.85-4.06-1.67-8.03-2.54-12c-0.24-1.12-0.73-2.19-0.92-3.31c-0.35-2.08-1.66-2.65-3.56-2.63c-1.92,0.01-2.68,0.93-3.58,2.67
		c-1.53,2.97,0.25,5.49,0.38,8.18c0.13,2.72,1.17,5.4,1.89,8.43c-1.17,0.58-2.24,1.37-3.43,1.65c-2.24,0.54-3.28-0.35-3.73-2.76
		c-0.69-3.7-1.28-7.43-2.13-11.1c-0.75-3.25-2.04-4.21-4.69-4.05c-2.2,0.13-2.88,0.77-3.11,3.03c-0.41,4.18,0.73,8.17,1.58,12.19
		C612.97,1203.6,613.07,1204.92,613.33,1206.86z"/>
	<path d="M663.67,1194.84c-2.69,3.33-5.56,4.45-9.15,4.4c-3.75-0.06-6.58-1.72-8.21-4.71c-2.89-5.32-3.64-10.94-0.29-16.49
		c1.92-3.18,6.49-5.29,10.11-4.34c1.47,0.38,2.53,0.11,3.73-0.55c1.77-0.98,3.63-1.6,5.83-0.64c1.43,6.94,3.15,13.93,4.24,21.01
		c0.73,4.76,0.87,9.77-3.86,13.07c-4.23,2.95-8.98,4.01-14.05,3.35c-0.73-0.09-1.57-1.17-1.9-1.99c-0.42-1.03-0.39-2.25-0.62-3.88
		c1.34,0.09,2.87-0.14,4.12,0.35c3.3,1.29,5.91-0.48,8.26-2.01C664.07,1200.98,664.3,1198.25,663.67,1194.84z M662.05,1188.03
		c-0.08-1.49-0.02-2.17-0.17-2.81c-0.19-0.79-0.55-1.55-0.82-2.32c-0.91-2.55-2.91-4.41-4.74-4.38c-2.41,0.03-4.39,1.64-5.28,4.39
		c-1.1,3.37-0.37,6.67,1.81,9.13c2.66,2.99,5.6,2.37,7.95-0.63C661.65,1190.32,661.82,1188.7,662.05,1188.03z"/>
	<path d="M922.22,1136.63c4.29-0.83,8.57-1.65,13.2-2.54c0.58,2.08,1.14,4.08,1.84,6.56c-7.56,2.7-15.26,3.29-22.96,5.14
		c-2.15-3.24-2.27-6.79-0.58-10.13c1.55-3.06,3.78-5.76,5.71-8.63c1.28-1.91,2.65-3.77,3.8-5.76c1.02-1.75,0.85-3.45-0.72-4.96
		c-1.42-1.37-3.01-1.46-4.57-0.62c-2.43,1.31-4.75,2.83-7.5,4.49c-0.49-2.21-0.96-4.32-1.49-6.71c4.17-3.86,8.95-6.01,14.81-5.39
		c5.61,0.59,9.73,6.56,8.66,12.09c-0.7,3.59-2.5,6.34-4.91,8.93c-2.01,2.15-3.81,4.5-5.71,6.76
		C921.93,1136.11,922.07,1136.37,922.22,1136.63z"/>
	<path d="M415.53,691.55c2.28,2.85,2.47,3.82,0.36,5.76c-4.06,3.74-8.98,6.08-14.46,4.95c-5.74-1.18-9.41-5.37-11.14-10.96
		c-1.33-4.3-1.73-8.69-0.01-13.07c2.43-6.18,10.68-10.86,17.57-7.81c2.85,1.26,4.86,3.5,6.31,6.08c1.17,2.09,1.68,4.55,2.62,7.24
		c-6.79,3.13-13.88,3.79-20.39,6.21C399.91,698.32,406.32,698.78,415.53,691.55z M395.77,684.45c4.5-1.22,8.95-2.43,13.42-3.65
		c-1.58-4.4-4.22-6.49-7.01-5.81C396.91,676.26,395.1,678.77,395.77,684.45z"/>
	<path d="M506.91,1200.56c-4.25-1.44-7.1,0.78-10.24,2.77c-0.58-2.26-1.06-4.12-1.62-6.3c4.3-3.52,9.35-4.75,14.68-3.82
		c2.92,0.51,5.37,2.57,6.31,5.69c1.09,3.65-0.08,6.82-3.15,9.43c1.54,0.86,3.47,1.45,4.65,2.73c1.26,1.37,2.27,3.32,2.55,5.15
		c0.72,4.58-1.3,8.19-5.53,10.04c-2.21,0.97-4.83,1.02-7.04,2c-2.4,1.06-4.46,0.32-6.71-0.33c-1.67-1.78-1.98-3.94-1.52-6.5
		c2.17,0.2,4.25,0.69,6.26,0.47c1.7-0.18,3.5-0.92,4.91-1.92c0.86-0.61,1.76-1.9,0.9-3.47c-0.67-1.24-1.26-2.4-2.84-2.37
		c-2.44,0.04-4.87,0.19-7.46,0.29c-1.64-1.52-0.74-3.61-0.96-5.75c1.35-0.52,2.65-1.26,4.04-1.51c1.84-0.32,3.36-1.27,3.7-2.87
		C508.11,1203.07,507.21,1201.59,506.91,1200.56z"/>
	<path d="M369.31,710.26c-0.46-1.89-0.87-3.56-1.41-5.8c5.55,0.48,10.84,1.72,14.22-3.81c-0.64-2.63-2.32-3.99-5.17-4.2
		c-2.12-0.16-4.25-0.49-6.3-1.05c-1.39-0.38-2.81-1.07-3.94-1.97c-4.83-3.82-4.25-9.08-0.15-12.74c2.88-2.57,6.5-3.91,10.36-4.25
		c3.14-0.27,3.4,0.03,4.48,3.23c0.25,0.73,0.52,1.46,0.94,2.64c-2.93-0.04-5.51-1.39-7.95,0.12c-0.38,0.24-0.99,0.07-1.46,0.22
		c-1.68,0.54-3.49,2.55-3.49,3.8c0,1.5,2,3.5,4,3.84c2.43,0.42,4.9,0.61,7.3,1.12c2.9,0.61,5.18,2.27,6.44,4.99
		c1.76,3.8,0.02,8.75-3.9,10.99C379.19,709.76,374.76,710.86,369.31,710.26z"/>
	<path d="M986.9,1095.47c2.04-0.3,3.93-0.58,6.23-0.92c2.63,9.27,3.72,18.86,6.14,28.48c2.61-0.51,5.12-1.02,7.65-1.48
		c1.13-0.21,2.27-0.44,3.41-0.44c1.62-0.01,2.3,1.09,2.49,2.56c0.24,1.83-0.42,3.04-2.11,3.39c-4.97,1.04-9.95,2.02-14.93,2.99
		c-1.6,0.31-2.61-0.56-2.89-2.04c-1.09-5.8-2.05-11.62-3.15-17.42c-0.83-4.34-1.82-8.65-2.71-12.97
		C986.89,1097.01,986.94,1096.36,986.9,1095.47z"/>
	<path d="M987.52,1124.81c0.18,1.39,0.31,2.02,0.34,2.66c0.04,0.98,0.01,1.97,0.01,2.73c-3.77,3.54-8.15,3.26-12.44,2.91
		c-3.02-0.25-5.24-2.37-6.75-4.71c-4.72-7.31-3.44-15.58,4.11-20.13c2.27-1.37,5.3-1.62,8.03-2.02c0.88-0.13,2.34,0.68,2.82,1.49
		c0.79,1.33,1.01,3,1.63,5.11c-4.94-1.1-9.14-1.49-11.51,3.46c-1.41,2.94-1.13,7,1.15,9.27
		C978.96,1129.59,983.03,1126.9,987.52,1124.81z"/>
	<path d="M588.13,1205.46c0.69,3.71-1.1,6.16-4.45,7.81c-3.19,1.57-6.15,1.14-8.83-0.94c-2.97-2.31-4.24-5.58-3.64-9.22
		c1.05-6.4,8.09-9.36,13.85-6.12c1.99,1.12,2.6,2.93,3.03,4.85C588.34,1202.94,588.13,1204.14,588.13,1205.46z"/>
	<path d="M548.07,1190.47c0.08-4.67,6.23-8.94,11.7-7.1c2.49,0.84,3.52,2.77,4.48,4.93c1.62,3.63,1.46,7.11-1.08,10.21
		c-2.68,3.26-6.59,3.3-10.06,2.38c-2.96-0.78-4.59-3.61-5.02-6.79C547.98,1193.28,548.07,1192.44,548.07,1190.47z"/>
	<path d="M557.09,1218.15c2.82-6.88,5.4-13.09,7.92-19.33c2.45-6.08,4.84-12.19,7.28-18.36c2.09-0.48,4.11-0.94,6.2-1.41
		c-0.2,2.82-11.05,30.51-14.72,37.72C561.81,1217.18,559.69,1217.62,557.09,1218.15z"/>
	<path d="M520.1,597.18c-3.24,0.85-6.21,1.64-9.49,2.5c-1.56-5.94-2.92-11.66-4.57-17.3c-1.06-3.62-2.49-7.13-3.86-10.65
		c-0.97-2.49-2.9-3.41-5.55-3.19c-2.69,0.22-4.84,1.14-5.83,3.82c-1.08,2.92-1.99,5.64-0.84,9.05c1.99,5.89,3.18,12.05,4.73,18.09
		c0.96,3.77,0.88,4.01-2.91,5.2c-1.83,0.58-3.71,1.01-5.93,1.6c-1.3-4.84-2.49-9.41-3.75-13.97c-1.04-3.8-1.98-7.64-3.28-11.35
		c-1.45-4.15-3.83-5.63-7.81-5.45c-2.87,0.13-4.79,1.83-5.8,4.5c-1.25,3.29-0.51,6.54,0.23,9.63c1.6,6.69,3.68,13.26,5.69,20.29
		c-2.4,0.84-4.77,1.81-7.23,2.48c-2.05,0.55-3.15-0.21-3.69-2.26c-3.25-12.38-6.47-24.76-9.76-37.36c3.03-0.82,6.01-1.62,9.51-2.56
		c0.6,1.6,1.15,3.06,1.78,4.75c2.2-4.21,5.12-7.46,10.05-8.94c5.33-1.6,9.29,0.52,13.39,3.47c0.77-1.33,1.39-2.6,2.2-3.75
		c3.87-5.46,9.32-7.13,15.7-6.31c3.99,0.51,6.67,3.1,8.18,6.51c1.79,4.03,3.08,8.31,4.35,12.54c1.61,5.34,3.01,10.74,4.45,16.12
		C520.24,595.26,520.1,595.96,520.1,597.18z"/>
	<path d="M560.16,568.14c-9.33,2.5-17.98,4.82-26.64,7.15c2.68,8.02,8.8,9.16,15.9,6.35c3.23-1.28,5.97-3.78,9.22-5.91
		c0.17,0.68,0.35,1.39,0.52,2.11c1.47,6.25,0.81,8.08-4.71,10.46c-4.83,2.09-9.75,3.8-15.27,3.37c-3.51-0.27-6.4-1.43-9-3.57
		c-4.69-3.84-6.8-9.07-8.18-14.82c-0.88-3.64-0.89-7.08,0.14-10.64c2.53-8.76,9.66-13.73,18.08-14.27
		c7.59-0.48,12.71,2.84,15.93,9.33C557.75,560.93,558.76,564.43,560.16,568.14z M531.35,567.63c6.07-0.81,11.34-2.71,16.72-4.49
		c-2.66-6.01-4.62-7.31-9.39-6.55C534.3,557.28,531.59,561.08,531.35,567.63z"/>
	<path d="M642.51,534.25c-1.04-3.39-1.79-5.86-2.51-8.22c0.55-2.37,2.59-2.99,4.12-4.19c3.61-2.84,7.92-4.46,12.2-5.08
		c8.77-1.28,13.95,2.09,16.63,11.02c2.58,8.61,4.63,17.38,6.97,26.33c-3.11,0.78-5.91,2.66-9.29,2.43c-0.48-1.1-0.85-1.96-1.35-3.13
		c-0.67,0.48-1.35,0.72-1.63,1.2c-3.13,5.24-7.95,7.33-13.77,6.9c-6.7-0.49-10.12-4.63-10.82-10.27
		c-0.99-7.95,2.16-12.72,9.65-15.78c3.47-1.42,6.88-2.99,10.28-4.47c-1.24-4.06-2.55-5.19-5.61-5.44
		c-4.25-0.34-7.81,1.08-10.77,4.04C645.32,530.88,644.2,532.32,642.51,534.25z M666.01,538.99c-3.33-0.17-3.38-0.26-5.09,0.66
		c-2.72,1.48-5.7,2.72-7.95,4.75c-2.36,2.13-0.51,7.11,2.73,7.88c5.9,1.41,10.06-2.57,10.28-7.02
		C666.1,543.17,666.01,541.06,666.01,538.99z"/>
	<path d="M587.28,544.88c-2.5,0.57-4.54,1.04-6.64,1.51c-0.51-1.63-1.08-3.16-1.46-4.73c-0.6-2.55,0.05-3.42,2.81-4.16
		c0.91-0.25,1.8-0.57,3.02-0.97c-0.57-2.24-1.09-4.26-1.6-6.28c-1.43-5.75,0.5-10.75,5.44-14.16c4.53-3.13,6.41-3.68,11.75-3.33
		c0.67,2.41,1.37,4.9,2.06,7.39c-1.93,0.46-3.86,0.8-5.71,1.4c-2.83,0.92-4.18,3.27-3.71,6.08c1.02,6.07,1.28,6.23,7.7,4.87
		c0.8-0.17,1.62-0.3,2.8-0.52c0.41,0.97,0.98,2.08,1.35,3.25c0.39,1.23,0.59,2.52,0.9,3.9c-2.41,2.32-5.93,1.57-8.68,3.09
		c2.84,10.58,5.68,21.18,8.57,31.95c-2.45,0.71-4.79,1.42-7.15,2.04c-2.2,0.58-3.06,0.11-3.63-2.04c-1.39-5.23-2.69-10.48-4.08-15.7
		C589.85,554.05,588.6,549.65,587.28,544.88z"/>
	<path d="M548.99,660.65c1.49,5.58,2.8,10.45,4.22,15.74c-1.92,0.71-3.68,1.37-5.63,2.09c-3.88-14.5-7.68-28.7-11.6-43.34
		c1.81-0.65,3.55-1.28,5.43-1.96c0.52,1.21,0.88,2.06,1.46,3.42c1.26-1.43,2.27-2.76,3.45-3.9c5.38-5.17,13.44-4.02,18.02,1.98
		c4.1,5.37,4.48,11.37,3.65,17.45c-1.03,7.52-10.06,12.15-17.13,9.29C550.42,661.25,549.99,661.07,548.99,660.65z M562.03,647.74
		c0.43-4.27-1.04-7.66-3.76-10.54c-0.65-0.69-1.54-1.41-2.42-1.58c-6.7-1.26-10.47,2.08-10.74,8.13c-0.16,3.6,0.95,6.82,2.64,9.88
		c1.3,2.37,5.11,4.15,7.53,3.68c3.78-0.74,6.22-2.97,6.72-6.31C562.18,649.86,562.03,648.68,562.03,647.74z"/>
	<path d="M631.65,523.74c3.16,2.25,3.01,5.84,3.39,9.54c-0.99,0.12-1.61,0.22-2.25,0.26c-5.64,0.36-8.33,3.08-8.68,8.67
		c-0.21,3.37,0.8,6.48,1.66,9.65c1.41,5.17,2.73,10.36,4.19,15.93c-3.31,0.83-6.29,1.59-9.7,2.44c-2.06-6.64-3.86-13.37-5.5-20.16
		c-1.6-6.62-4.25-13-4.84-20.06c3.18-0.76,6-1.44,9.21-2.22c0.5,1.44,1.01,2.87,1.72,4.91C622.81,527.5,626.05,524.31,631.65,523.74
		z"/>
	<path d="M692.46,611.23c-7.46,2.02-14.22,3.85-21.16,5.73c0.63,1.07,1.1,2.15,1.81,3.03c3.07,3.77,6.99,4.73,11.45,2.6
		c2.32-1.11,4.43-2.66,6.88-4.15c0.54,1.47,1.03,2.8,1.59,4.35c-4.17,4.77-9.51,6.91-15.71,6.65c-3.43-0.14-6.35-1.98-8.44-4.68
		c-3-3.88-4.55-8.5-4.75-13.3c-0.31-7.33,6.36-14.53,13.72-14.89c4.29-0.21,8.13,1.5,10.37,5.42
		C689.75,604.69,690.83,607.64,692.46,611.23z M670.44,611.6c5.01-1.25,9.58-2.4,14.11-3.53c-0.85-3.59-3.26-5.53-6.71-6.34
		C671.89,603.86,670.75,605.3,670.44,611.6z"/>
	<path d="M534.43,653c-7.09,2.01-13.65,3.86-20.25,5.72c3.73,8.81,10.53,9.07,19.15,1.21c2.59,3.84,2.69,5.32-0.81,7.51
		c-4.6,2.88-9.59,4.97-15.3,3.03c-2.63-0.9-4.75-2.54-6.24-4.72c-3.93-5.74-5.62-12.19-2.77-18.73c2.91-6.68,9.58-9.97,16.23-8.3
		c3.46,0.87,5.95,3.66,7.58,6.78C533.13,647.63,533.54,650.13,534.43,653z M526.86,649.68c-2.18-5.08-4.38-6.63-7.65-5.73
		c-4.82,1.33-6.38,3.93-5.49,9.25C517.96,652.06,522.19,650.93,526.86,649.68z"/>
	<path d="M588.98,632.07c-2.12-5.07-4.2-6.08-8.68-4.15c-2.67,1.15-5.38,2.37-7.09,6.37c-0.81-2.92-1.31-4.72-1.81-6.54
		c3.3-3.75,7.58-5.38,12.16-6.25c3.82-0.72,7.54,1.14,9.49,4.9c1.27,2.45,2.17,5.15,2.91,7.82c1.43,5.19,2.63,10.44,3.96,15.81
		c-1.79,0.45-3.5,0.88-5.17,1.29c-0.49-0.61-0.9-1.11-1.41-1.74c-0.36,0.23-0.82,0.4-1.1,0.72c-3.23,3.76-9.49,5.85-13.43,3.96
		c-4.36-2.08-8.11-9.17-3.84-14.25c2.2-2.62,5.03-4.25,8.13-5.52C585.07,633.72,587.02,632.89,588.98,632.07z M590.84,636.88
		c-3.57,1.5-6.52,2.5-9.23,3.94c-2.6,1.38-3.05,3.39-1.86,5.85c1.06,2.19,3.49,3.35,5.78,2.51c3.03-1.12,6.19-3.7,5.57-7.27
		C590.88,640.63,590.95,639.3,590.84,636.88z"/>
	<path d="M699.12,549.13c-3.02,0.85-5.68,1.6-8.87,2.49c-0.68-1.55-1.6-3.07-2.04-4.72c-3.06-11.56-6.03-23.15-9.13-35.15
		c2.98-0.84,5.93-1.67,9.3-2.61c3.14,6.51,4.04,13.38,5.84,19.94C696.03,535.63,698.63,542.05,699.12,549.13z"/>
	<path d="M655.65,603.49c0.57,2.04,1.04,3.71,1.62,5.78c-1.24,0-2.11,0.25-2.74-0.04c-3.25-1.49-5.86,0.32-8.24,1.88
		c-1.02,0.67-1.07,2.82-1.48,4.05c1.72,1.87,3.43,2.06,5.27,2.36c3.16,0.52,6.47,0.41,9.34,2.52c4.25,3.13,5.14,7.91,1.67,11.9
		c-3.08,3.54-7.31,4.93-11.8,5.54c-1.46,0.2-2.97,0.03-4.73,0.03c-0.56-1.89-1.09-3.67-1.76-5.96c1.55,0,2.64-0.3,3.42,0.05
		c3.28,1.49,6.13-0.04,8.89-1.27c2.74-1.22,2.68-4.33,0.03-5.76c-0.98-0.53-2.14-0.81-3.26-1.02c-2.25-0.43-4.61-0.48-6.78-1.15
		c-6.77-2.09-7.77-7.85-4.85-12.99c1.17-2.06,3.96-3.34,6.24-4.56c1.54-0.83,3.44-1.03,5.21-1.33
		C652.82,603.33,654.01,603.49,655.65,603.49z"/>
	<path d="M632,616.18c-3.03-0.8-5.65-1.12-8.19,0.05c-1.03,0.47-2.07,1.12-2.82,1.94c-1.69,1.85-1.12,4.36,1.23,5.15
		c1.69,0.57,3.52,0.74,5.28,1.09c1.6,0.32,3.26,0.47,4.8,0.99c6.3,2.14,8.01,8.83,3.59,13.8c-2.46,2.76-5.73,3.86-9.22,4.27
		c-2.28,0.27-4.62,0.05-7.11,0.05c-0.47-1.93-0.9-3.65-1.43-5.81c1.53,0.25,2.89,0.72,4.22,0.64c2.44-0.15,4.87-0.61,7.3-0.96
		c2.03-0.29,2.93-2.03,2.86-3.52c-0.07-1.48-0.96-3.16-3.08-3.38c-2.12-0.22-4.2-0.7-6.32-0.97c-5.99-0.77-9.77-5-9.08-10.25
		c0.55-4.2,3.71-6.22,7.06-7.64c2.19-0.93,4.8-1.08,7.24-1.18c2.92-0.12,3.43,0.49,3.76,3.35
		C632.17,614.45,632.05,615.11,632,616.18z"/>
	<path d="M694.9,500.74c-6.04,4.13-10.02,0.49-13.78-3.22c-2.13,1.11-2.66,2.89-3.02,4.63c-0.89,4.26-4,5.01-8.15,5.43
		c0.33-1.45,0.47-2.51,0.8-3.49c1.15-3.42,2.19-6.89,3.6-10.2c1.3-3.04,7.26-4.63,9.77-2.59
		C687.83,494.29,691.3,497.56,694.9,500.74z"/>
	<path d="M607.52,647.51c-2.67-10.01-5.22-19.58-7.81-29.31c1.77-0.66,3.12-1.16,4.64-1.72c0.46,0.42,1.19,0.77,1.34,1.29
		c0.99,3.45,1.85,6.93,2.77,10.4c1.34,5.04,2.71,10.07,4.05,15.12c0.84,3.17,0.44,3.8-2.65,4.21
		C609.22,647.58,608.55,647.51,607.52,647.51z"/>
	<path d="M468.28,652.89c1.83-0.58,3.36-1.06,5.12-1.62c2.89,4.67,2.91,10.07,4.6,14.93c1.66,4.76,2.57,9.79,3.86,14.88
		c-1.51,0.51-3.01,1.01-4.67,1.57c-1.35-1.23-1.72-2.71-2.13-4.33C472.93,669.95,470.63,661.63,468.28,652.89z"/>
	<path d="M485.51,659.91c4.07-1.1,8.16-2.22,12.26-3.29c0.63-0.17,1.31-0.21,1.97-0.19c1.37,0.03,2.09,0.89,2.37,2.13
		c0.32,1.38-0.45,2.38-1.63,2.71c-4.1,1.14-8.23,2.19-12.38,3.12C485.97,664.86,485.29,663.6,485.51,659.91z"/>
</g>
</svg>
