<?xml version="1.0" encoding="utf-8"?>
<!-- Generator: Adobe Illustrator 24.1.2, SVG Export Plug-In . SVG Version: 6.00 Build 0)  -->
<svg version="1.1" id="Layer_1" xmlns="http://www.w3.org/2000/svg" xmlns:xlink="http://www.w3.org/1999/xlink" x="0px" y="0px"
	 viewBox="0 0 1418 1418" style="enable-background:new 0 0 1418 1418;" xml:space="preserve">
<g>
	<path d="M1419,1378c-49.06-9.48-98.49-17.34-147.08-28.82c-65.8-15.56-131.34-32.51-196.26-51.41
		c-71.16-20.72-141.54-44.16-212.14-66.8c-22.84-7.32-45.29-15.84-67.93-23.79c-1.96-0.69-3.96-1.28-7.46-2.41
		c3.04,6.97,6.1,12.36,7.74,18.15c2.04,7.25,3.97,14.82,4,22.26c0.04,8.42-5.27,15.19-13.07,17.95c-7.66,2.71-16.05,4.65-24.11,4.62
		c-10.38-0.04-17.61-6.74-21.5-16.22c-9.29-22.66-18.27-45.45-27.34-68.2c-6.54-16.41-12.99-32.85-19.51-49.26
		c-2.84-7.14-5.36-8.75-12.06-4.84c-9,5.25-17.47,11.52-25.72,17.93c-22.5,17.47-44.68,35.35-67.16,52.84
		c-12.63,9.82-28.27,11.42-39.18,4.61c-16.12-10.07-18.59-32.28-4.07-46.13c10.44-9.96,22.32-18.44,33.69-27.42
		c24.7-19.53,49.53-38.89,74.12-58.55c1.96-1.57,3.44-4.87,3.54-7.42c0.26-6.8-0.59-13.62-0.59-20.44
		c-0.05-113.66-0.03-227.31-0.05-340.97c0-2.46-0.21-4.91-0.35-7.95c-7.1-0.51-13.83-1.01-20.56-1.46
		c-39.34-2.65-78.8-4.23-118-8.21c-48.34-4.91-96.53-11.43-144.68-18.04c-21.53-2.96-42.3-9.47-61.6-19.75
		c-5.8-3.09-11.22-7.21-16.11-11.64c-8.57-7.77-7.03-17.93-5.59-28.01c12.11-84.94,32.06-167.86,64.22-247.58
		c17.82-44.19,39.51-86.36,68.42-124.48c27.36-36.07,59.76-66.23,101.52-85.19c22.23-10.09,45.58-15.69,69.9-17.55
		c18.07-1.38,36.09-3.65,54.19-4.46c18.76-0.84,37.57-0.38,56.36-0.52c47.1-0.36,93.86,3.01,139.95,13.11
		c41.83,9.16,81.7,23.42,114.17,52.3c13.52,12.02,24.94,26.86,35.41,41.76c33.37,47.5,57.07,100.02,77.2,154.22
		c27.36,73.68,45.35,149.8,58.54,227.14c2.23,13.1-4.86,25.79-18.98,30.36c-20.41,6.6-41.14,12.47-62.06,17.2
		c-51.24,11.58-103.2,18.83-155.51,23.29c-29.5,2.51-59.08,4.2-88.64,6c-15.28,0.93-30.59,1.28-45.89,1.91
		c-1.47,0.06-2.93,0.29-4.94,0.49c-0.22,2.28-0.6,4.36-0.6,6.44c-0.03,121.16-0.06,242.31,0.16,363.47
		c0.01,3.49,1.9,7.82,4.36,10.32c15.2,15.42,30.31,31,46.44,45.42c18,16.1,7.44,36.39-6.98,44.75c-7.62,4.41-10.61,4.36-25.38,0.98
		c2.79,6.37,4.98,12.68,8.3,18.32c1.36,2.31,4.98,3.67,7.85,4.66c42.98,14.9,85.86,30.1,129.04,44.37
		c100.64,33.27,202.22,63.39,305.16,88.8c65.05,16.06,130.56,29.88,196.84,39.87c0,1.33,0,2.67,0,4
		c-63.2-9.18-125.79-21.65-187.59-37.55c-64.04-16.47-128.12-33.11-191.32-52.48c-81.69-25.05-162.52-52.88-243.72-79.52
		c-3.96-1.3-7.9-2.66-11.84-4c-0.33,0.66-0.65,1.33-0.98,1.99c2.34,1.48,4.5,3.46,7.05,4.38c21.47,7.75,42.94,15.51,64.53,22.88
		c108.03,36.91,216.85,71.33,327.49,99.57c54.37,13.88,109.29,25.68,164.12,37.71c23.89,5.24,48.17,8.72,72.27,13.01
		C1419,1375.33,1419,1376.67,1419,1378z M626.38,135.23c-10.74,0.92-21.98,2.06-33.24,2.82c-31.19,2.12-60.1,11.54-86.96,27.29
		c-40.77,23.92-71.22,58.3-96.71,97.33c-36.88,56.48-61.13,118.61-80.25,182.92c-16.46,55.37-28.03,111.77-36.08,168.96
		c-1.4,9.96,1.81,17.02,9.23,22.55c22.19,16.53,48.3,23.19,74.84,27.45c61.66,9.91,123.64,17.44,186,21.39
		c36.2,2.3,72.43,5.09,108.68,5.55c46.28,0.59,92.6-0.47,138.87-1.75c26.76-0.74,53.53-2.7,80.2-5.2
		c51.59-4.83,102.97-11.51,153.56-22.99c21.41-4.86,42.67-10.67,63.57-17.36c13.89-4.44,19.58-14.83,17.46-27.23
		c-13.32-78.02-31.64-154.75-59.55-228.96c-19.58-52.08-42.52-102.6-74.63-148.3c-11.03-15.7-23.18-31.29-37.51-43.85
		c-30.78-26.99-68.61-40.29-107.97-49.46c-0.61-0.14-1.32,0.09-3.23,0.25c2,0.86,2.75,1.17,3.5,1.5c40.43,17.69,77,41,103.24,77.17
		c12.84,17.7,22.81,37.52,33.68,56.6c27.33,48,48.54,98.58,63.5,151.79c18.26,64.93,30.17,131.14,40.24,197.73
		c0.25,1.64-0.39,3.42-0.61,5.14c-0.58,0.04-1.15,0.07-1.73,0.11c-0.56-1.57-1.35-3.1-1.63-4.72
		c-5.72-32.99-10.88-66.08-17.17-98.96c-10.25-53.58-23.37-106.42-42.76-157.55c-14.41-37.99-33.82-73.49-52.99-109.17
		c-13.59-25.3-29.07-48.86-50.98-67.89c-29.64-25.76-63.03-45.28-100.67-55.66c-20.6-5.68-42.7-5.98-64.14-8.56
		c-4.85-0.59-9.78-0.6-15.51-0.92c1.03,2.03,1.64,3.14,2.18,4.28c7.83,16.53,16.85,32.61,23.24,49.68
		c14.54,38.87,19.3,79.86,23,120.89c3.72,41.27,7.05,82.58,10.23,123.89c3.13,40.65,6.06,81.31,8.73,121.99
		c2.39,36.37,4.31,72.77,6.38,109.16c0.08,1.4-0.39,2.83-0.6,4.25c-0.54,0.04-1.08,0.08-1.62,0.12c-0.5-1.56-1.34-3.1-1.45-4.68
		c-1.09-16.61-1.98-33.22-3.07-49.83c-2.21-33.71-4.51-67.41-6.77-101.11c-1.75-26.07-3.28-52.16-5.29-78.2
		c-2.71-35.01-5.09-70.06-8.92-104.95c-3.83-34.88-8.03-69.82-14.38-104.3c-5.67-30.75-16.9-59.93-34.25-86.39
		c-2.23-3.4-4.69-5.04-8.9-5c-21.33,0.21-42.67-0.12-63.99,0.32c-8.07,0.17-16.6,0.48-24.08,3.12
		c-37.02,13.05-63.34,38.83-81.5,72.88c-17.74,33.25-28.21,69.4-39.16,105.25c-33.44,109.59-53.55,221.68-62.29,335.86
		c-0.13,1.67-0.96,3.29-1.47,4.93c-0.82-0.14-1.63-0.27-2.45-0.41c0.19-3.74,0.19-7.5,0.59-11.22c3.47-32.77,5.7-65.74,10.86-98.24
		c7.27-45.87,15.62-91.64,25.5-137.02c13.59-62.42,31.87-123.6,55.8-182.92c10.63-26.34,26.21-49.53,48.5-67.47
		C603.88,149.72,615.46,142.76,626.38,135.23z M661.47,696.07c-0.13,2.03-0.33,3.67-0.33,5.31c-0.01,114.45,0.01,228.9-0.08,343.35
		c0,5.13,1.95,8.59,6.67,9.78c10.28,2.58,20.58,5.83,31.05,6.74c14.43,1.25,28.93-0.11,42.83-5c5.15-1.81,7.44-5.02,7.43-10.85
		c-0.14-114.12-0.1-228.23-0.13-342.35c0-2.07-0.4-4.15-0.7-6.98C719.17,696.07,690.65,696.07,661.47,696.07z M688.34,1116.3
		c0.69-0.31,1.37-0.61,2.06-0.92c1.06,1.8,2.38,3.49,3.15,5.41c16.59,41.64,33.11,83.3,49.66,124.96
		c5.72,14.4,13.41,19.26,28.44,18.08c12.83-1.01,23.68-9.17,24.49-20.24c0.44-5.99-1.34-12.62-3.77-18.25
		c-15.05-34.87-30.59-69.53-45.89-104.29c-0.66-1.51-0.65-3.32-0.95-4.99c0.67-0.24,1.34-0.48,2.01-0.72
		c1.34,2.29,2.9,4.49,3.98,6.9c4.58,10.18,8.78,20.53,13.57,30.61c6.23,13.12,19.03,17.18,30.66,10.13
		c16.07-9.73,18.02-24.93,4.8-37.89c-14.63-14.34-29.31-28.64-43.98-42.94c-0.7-0.68-1.49-1.28-2.19-1.88
		c-1.26,0.92-2.34,1.72-5.16,3.79c0-9.61,0-17.63,0-25.6c-30.18,9.33-58.82,10.05-88.42-1.78c1.71,12.55-0.04,24.76,8.3,35.45
		c-2.31-0.18-4.71-0.65-5.84-2.1c-1.57-2.03-2.32-4.74-3.18-7.25c-0.77-2.25-1.21-4.62-1.92-7.4c-1.42,0.93-2.13,1.32-2.77,1.82
		c-33.7,26.4-67.49,52.69-100.97,79.37c-4.65,3.71-8.59,8.91-11.41,14.2c-4.61,8.66-2.44,17.15,3.46,24.71
		c5.47,7.01,12.88,10.73,21.46,8.84c6.64-1.47,13.6-4.12,19-8.15c19.22-14.34,37.49-29.96,56.77-44.2
		c14.39-10.62,25.97-25.85,45.41-28.93C688.85,1120.68,688.6,1118.49,688.34,1116.3z"/>
	<path d="M695.75,1093.1c4.41-7.4,33.38-11.76,40.34-6.09C722.63,1089.04,709.36,1091.05,695.75,1093.1z"/>
</g>
</svg>
